<svg id="Layer_2" data-name="Layer 2" xmlns="http://www.w3.org/2000/svg" viewBox="0 0 55 55"><defs><style>.cls-1{fill:#fff;}</style></defs><title>01_01_05-100</title><path class="cls-1" d="M31.52,18V16A1.08,1.08,0,0,0,30.45,15H24.7A1.08,1.08,0,0,0,23.64,16V18h7.88M33.1,38.12H16.44a2.72,2.72,0,0,1-2.71-2.71V20.69A2.72,2.72,0,0,1,16.44,18h2.15m17.3,18.48h2.83a1.08,1.08,0,0,0,1.06-1.06V28.81H31.59l-.94-1.51h9.14V20.69a1.08,1.08,0,0,0-1.06-1.06H24l-1.79-2.28L22,16a2.72,2.72,0,0,1,2.71-2.71h5.75A2.72,2.72,0,0,1,33.16,16V18h5.55a2.72,2.72,0,0,1,2.71,2.71V35.39a2.72,2.72,0,0,1-2.71,2.71H37.09M19.77,19.62H16.44a1.08,1.08,0,0,0-1.06,1.06V27.3H25v1.51H15.37V35.4a1.08,1.08,0,0,0,1.06,1.06H31.9"/><path class="cls-1" d="M27.58,51.45A24.26,24.26,0,1,1,43.9,45.1a22.9,22.9,0,0,1-5,3.53A24.16,24.16,0,0,1,27.58,51.45Zm0-47A22.78,22.78,0,1,0,38.75,47.07l.56-.32c.38-.21,2.33-1.62,2.65-1.87.14-.11.5-.43.5-.43a22.76,22.76,0,0,0-14.88-40Zm0,42.32A19.56,19.56,0,0,1,8,27.23a19.36,19.36,0,0,1,6-14.1l.6-.57,5.09,7.07L37.42,44.12l-.73.39A19.55,19.55,0,0,1,27.58,46.77Zm-13.08-32a17.9,17.9,0,0,0-5,12.47,18.12,18.12,0,0,0,18.1,18.1,17.82,17.82,0,0,0,7.69-1.72ZM40.06,42.25,23.76,19.62l-6.48-9,.7-.4A19.51,19.51,0,0,1,40.66,41.7ZM19.4,11.1l20.87,29a18.07,18.07,0,0,0-20.87-29Z"/><path class="cls-1" d="M18.59,18l1.19,1.65Z"/></svg>