<svg id="Layer_1" data-name="Layer 1" xmlns="http://www.w3.org/2000/svg" width="100" height="100" viewBox="0 0 100 100">
  <defs>
    <style>
      .cls-1 {
        fill: #FFFFFF;
      }
    </style>
  </defs>
  <title>_</title>
  <path class="cls-1" d="M44.48264,69.13075l21.7727-19.88464a.35844.35844,0,0,1,.56209.07815l2.58718,4.12955a.23307.23307,0,0,0,.44076-.016l4.32009-8.14841.41343-.77966,4.32035-8.14871c.11373-.21438.00829-.38268-.23429-.374l-9.217.33281c-.24254.00882-.63948.02311-.882.03178l-9.21671.33266c-.24254.00882-.3354.18412-.20655.38983l2.52146,4.02464a.5469.5469,0,0,1-.09354.66973L44.5341,57.40577a.35821.35821,0,0,1-.56182-.07845L32.75754,39.15768a.3585.3585,0,0,0-.56213-.0783l-8.65557,7.6783V27.31958h-3.5497V72.68042H80.00986V69.13075ZM23.53984,58.453l7.15532-6.32545a.358.358,0,0,1,.56175.0783L41.70343,69.13075H23.53984Z"/>
</svg>
