<svg id="Layer_1" data-name="Layer 1" xmlns="http://www.w3.org/2000/svg" width="100" height="100" viewBox="0 0 100 100">
  <defs>
    <style>
      .cls-1 {
        fill: #FFFFFF;
      }
    </style>
  </defs>
  <title>_</title>
  <path class="cls-1" d="M47.093,21.40752V39.67968a.16974.16974,0,0,1-.16921.16918H45.57035a.16973.16973,0,0,1-.16918-.16918V21.40752a.16973.16973,0,0,1,.16918-.16918h1.35348A.16974.16974,0,0,1,47.093,21.40752Zm-10.15118,0a.16974.16974,0,0,0-.16921-.16918H35.41918a.16973.16973,0,0,0-.16918.16918V39.67968a.16973.16973,0,0,0,.16918.16918h1.35348a.16974.16974,0,0,0,.16921-.16918Zm1.861,18.44134h1.35348a.16971.16971,0,0,0,.16918-.16918V21.40752a.16971.16971,0,0,0-.16918-.16918H38.80291a.16973.16973,0,0,0-.16918.16918V39.67968A.16973.16973,0,0,0,38.80291,39.84886Zm3.38374,0h1.35348a.16973.16973,0,0,0,.16918-.16918V21.40752a.16973.16973,0,0,0-.16918-.16918H42.18665a.16974.16974,0,0,0-.16921.16918V39.67968A.16974.16974,0,0,0,42.18665,39.84886ZM45.232,41.54077H42.16833a.16964.16964,0,0,0-.16921.16918V75.19046a.16964.16964,0,0,1-.16918.16918H40.51311a.16964.16964,0,0,1-.16921-.16918V41.70994a.16964.16964,0,0,0-.16918-.16918H37.11108a.16964.16964,0,0,0-.16921.16918V78.59248a.16974.16974,0,0,0,.16921.16918H45.232a.16973.16973,0,0,0,.16918-.16918V41.70994A.16964.16964,0,0,0,45.232,41.54077Zm16.96863,6.69651a.84879.84879,0,0,1-.355.07082H54.0003a.8619.8619,0,0,1-.86194-.86191V22.69491a.86416.86416,0,0,1,1.32831-.72916c4.04933,2.5493,7.33453,7.60971,8.43122,9.88929A17.14207,17.14207,0,0,1,64.531,36.56763C64.65627,37.28805,65.618,46.66209,62.20063,48.23728Zm-1.025-11.10747A13.90254,13.90254,0,0,0,59.83213,33.33a26.50647,26.50647,0,0,0-3.29175-4.92286v16.499H60.7689C61.40207,43.39077,61.49307,39.28523,61.17563,37.12981Zm.68512,12.44733H58.79708a.16974.16974,0,0,0-.16921.16918V75.19046a.16964.16964,0,0,1-.16918.16918h-1.3168a.16964.16964,0,0,1-.16921-.16918V49.74631a.16973.16973,0,0,0-.16918-.16918H53.73983a.16974.16974,0,0,0-.16921.16918V78.59248a.16974.16974,0,0,0,.16921.16918h8.12092a.16973.16973,0,0,0,.16918-.16918V49.74631A.16973.16973,0,0,0,61.86075,49.57713Z"/>
</svg>
