<svg id="Layer_1" data-name="Layer 1" xmlns="http://www.w3.org/2000/svg" width="100" height="100" viewBox="0 0 100 100">
  <defs>
    <style>
      .cls-1 {
        fill: #FFFFFF;
      }
    </style>
  </defs>
  <title>_</title>
  <path class="cls-1" d="M53.62486,36.64572,51.07971,50.22006H25.98146L24.28463,36.64572H53.62486M57.44,33.04855H20.72891a.448.448,0,0,0-.45475.51515L22.7415,53.30208a.60506.60506,0,0,0,.58356.51515H53.5459a.65208.65208,0,0,0,.61491-.51022l3.70272-19.74825a.41607.41607,0,0,0-.42355-.51022Zm15.96087-8.73917,1.61069,2.81879-3.44718,1.96992a4.87921,4.87921,0,0,0-2.297,3.161l-6.55355,31.6233L27.929,63.83569l-.39928-3.19419H56.56082a4.25227,4.25227,0,0,0,4.14683-3.3723l6.07377-29.17691,6.61942-3.78291m1.14377-4.71853a.51424.51424,0,0,0-.25623.0681L64.0409,25.51523a1.31625,1.31625,0,0,0-.55675.76583L57.186,56.5361a.66783.66783,0,0,1-.62516.50821H23.97394a.44818.44818,0,0,0-.45483.51522l1.16942,9.354a.606.606,0,0,0,.58356.51576l39.84964.05346h.00085a.66627.66627,0,0,0,.62392-.50775l7.0432-33.986a1.314,1.314,0,0,1,.55629-.766l6.12261-3.4988a.52065.52065,0,0,0,.19321-.70836L74.997,19.85208a.52051.52051,0,0,0-.45236-.26123Zm-41.67905,56.924a3.89421,3.89421,0,1,0,3.8941-3.8941A3.89417,3.89417,0,0,0,32.86556,76.51484Zm16.87457,0a3.8941,3.8941,0,1,0,3.8941-3.8941A3.89417,3.89417,0,0,0,49.74013,76.51484Z"/>
</svg>
