<svg id="Layer_1" data-name="Layer 1" xmlns="http://www.w3.org/2000/svg" width="100" height="100" viewBox="0 0 100 100">
  <defs>
    <style>
      .cls-1 {
        fill: #FFFFFF;
      }
    </style>
  </defs>
  <title>_</title>
  <path class="cls-1" d="M82.82776,70.81977a.19479.19479,0,0,1,.19422.19422v3.51638a.19479.19479,0,0,1-.19422.19422H17.17224a.19479.19479,0,0,1-.19422-.19422V25.46963a.19479.19479,0,0,1,.19422-.19422h3.51638a.19479.19479,0,0,1,.19422.19422V60.912c0,.10682.03909.116.08686.0205L25.98277,50.9067a.10322.10322,0,0,1,.19459-.01211l3.53412,5.30118a.10321.10321,0,0,0,.19458-.01212l12.351-24.70334c.04777-.09554.10805-.08893.134.0147l5.79445,23.17383a.12558.12558,0,0,0,.2068.07787L54.539,50.49159a.27372.27372,0,0,1,.31.01243l4.71687,3.85892a.11375.11375,0,0,0,.19743-.06544L64.9141,33.695a.18586.18586,0,0,1,.23355-.134l17.532,5.11349a.19476.19476,0,0,1,.132.24082l-1.52245,5.218a.19481.19481,0,0,1-.24084.13206l-11.71892-3.418a.18586.18586,0,0,0-.23356.134L63.185,64.62158a.11374.11374,0,0,1-.19742.06543L54.55728,57.7891a.27368.27368,0,0,0-.31-.01244l-9.46275,6.55143a.12557.12557,0,0,1-.20678-.07786L40.5604,48.18081c-.02591-.10363-.08619-.11025-.134-.01471L30.62735,67.76428a.10322.10322,0,0,1-.19459.01211l-3.53412-5.30118a.10322.10322,0,0,0-.19459.01211l-4.07969,8.15874a.11056.11056,0,0,0,.10735.17371Z"/>
</svg>
