<svg xmlns="http://www.w3.org/2000/svg" width="77.37367" height="77.37367" viewBox="0 0 77.37367 77.37367">
  <defs>
    <style>
      .cls-1 {
        fill: #FFFFFF;
      }
    </style>
  </defs>
  <title>_</title>
  <g id="Layer_1" data-name="Layer 1">
    <path class="cls-1" d="M58.33725,30.24771c.03939.01783.07159.174.07159.25082V31.852c0,.07686-.0322.23311-.07159.25082a.65341.65341,0,0,1-.21146.03217H46.42506L43.967,30.21554h14.1588A.65341.65341,0,0,1,58.33725,30.24771Zm.07153,7.877c0-.077-.0322-.23311-.07159-.25082a.653.653,0,0,0-.21146-.03229H52.56367V39.7612h5.56206a.65341.65341,0,0,0,.21146-.03217c.03939-.01771.07159-.174.07159-.25094Zm-.283,3.53523H52.56367v1.91947h5.56206a.65341.65341,0,0,0,.21146-.03217c.03939-.01771.07159-.174.07159-.25082V41.94293c0-.07686-.0322-.233-.07159-.25082A.65341.65341,0,0,0,58.12573,41.65994Zm-14.99-13.63662a.65147.65147,0,0,0,.03223.21143c.01771.03939.1739.07156.25082.07156h14.707a.65341.65341,0,0,0,.21146-.03217c.03939-.01771.07159-.17384.07159-.25082V26.66983a.65353.65353,0,0,0-.0322-.21143c-.01774-.03927-.17393-.07156-.25085-.07156h-14.707c-.07692,0-.23311.03229-.25082.07156a.6526.6526,0,0,0-.03223.21143Zm.2832-7.343h5.16123a.65321.65321,0,0,0,.21146-.03223c.03939-.01771.07159-.174.07159-.25088V19.04382a.65365.65365,0,0,0-.0322-.21149c-.01774-.03939-.17393-.07162-.25085-.07162H43.41891a.65335.65335,0,0,0-.21146.03223c-.03936.01771-.07159.174-.07159.25088V20.3972c0,.07692.03223.23317.07159.25088A.65335.65335,0,0,0,43.41891,20.68031ZM16.957,49.55189l9.79226.00072V51.461H15.04786a.14033.14033,0,0,1-.13987-.13987V19.14556a.14033.14033,0,0,1,.13987-.13987l12.941.00006a.47512.47512,0,0,1,.2501.08608l9.56053,7.466a.32485.32485,0,0,1,.11026.22588v1.78671h-2.007c-.01461-.00518-.02563-.01735-.042-.01735h-9.266a.14033.14033,0,0,1-.13987-.13987V21.0563a.14038.14038,0,0,0-.13987-.13993L16.957,20.91486a.14071.14071,0,0,0-.14026.13981L16.81713,49.412A.14033.14033,0,0,0,16.957,49.55189ZM28.12546,26.50394a.14025.14025,0,0,0,.13987.13987H34.4289c.07692,0,.09017-.03867.02946-.0859l-6.22249-4.83969c-.06075-.04722-.11041-.02289-.11041.054Zm15.01026-2.299c0,.077.03223.23323.07159.25094a.65355.65355,0,0,0,.21146.03217H48.58a.65341.65341,0,0,0,.21146-.03217c.03939-.01771.07159-.174.07159-.25094V22.85162a.65353.65353,0,0,0-.0322-.21143c-.01774-.03939-.17393-.07168-.25085-.07168H43.41876a.65314.65314,0,0,0-.21146.03229c-.03936.01771-.07159.174-.07159.25082ZM24.30724,23.10858a.6526.6526,0,0,0-.03223-.21143c-.01771-.03939-.1739-.07156-.25082-.07156H18.863a.65341.65341,0,0,0-.21146.03217c-.03939.01771-.07159.174-.07159.25082v1.35349c0,.07686.0322.23311.07159.25082a.65341.65341,0,0,0,.21146.03217H24.0242a.65356.65356,0,0,0,.21146-.03217c.03936-.01771.07159-.174.07159-.25082ZM18.65136,45.75693c-.03939.01771-.07159.174-.07159.25094v1.35337a.65239.65239,0,0,0,.0322.21143c.01774.03939.17393.07168.25085.07168h7.88644V45.72476H18.86282A.65341.65341,0,0,0,18.65136,45.75693Zm39.68583-9.84623c.03939-.01771.07159-.17384.07159-.25082V34.30638c0-.07686-.0322-.233-.07159-.25082a.65341.65341,0,0,0-.21146-.03217H48.84319l2.45806,1.91947h6.82448A.65341.65341,0,0,0,58.33719,35.91069ZM18.65136,34.31252c-.03939.01771-.07159.174-.07159.25094v1.35337a.65239.65239,0,0,0,.0322.21143c.01774.03939.17393.07168.25085.07168h7.88644V34.28036H18.86282A.65341.65341,0,0,0,18.65136,34.31252ZM62.46568,22.71886v24.539c0,.07686-.00039.13951-.00039.13951-.001-.00084-.06433-.0012-.14125-.0012H52.56367V45.48791l7.853.0006a.14025.14025,0,0,0,.13987-.13987l0-20.72068a.14033.14033,0,0,0-.13987-.13987h-9.266a.14025.14025,0,0,1-.13987-.13987V16.99148a.14038.14038,0,0,0-.13987-.13993l-9.35808-.00145a.14071.14071,0,0,0-.14026.13981l.00015,11.59264c-.04551-.00373-.09135-.012-.13637-.012H39.46393V15.08074a.14029.14029,0,0,1,.13987-.13987l12.941.00006a.47531.47531,0,0,1,.25013.08608l9.5605,7.46584A.325.325,0,0,1,62.46568,22.71886ZM59.0143,22.4931l-6.22252-4.83969c-.06072-.04722-.11041-.02295-.11041.054v4.73175a.14033.14033,0,0,0,.13987.13987h6.16361C59.06177,22.579,59.075,22.54032,59.0143,22.4931ZM18.65136,41.93871c-.03939.01771-.07159.174-.07159.25082V43.543a.65353.65353,0,0,0,.0322.21143c.01774.03939.17393.07156.25085.07156h7.88644V41.90655H18.86282A.65341.65341,0,0,0,18.65136,41.93871Zm.21146-15.30526a.65341.65341,0,0,0-.21146.03217c-.03939.01771-.07159.174-.07159.25094v1.35337c0,.07686.0322.23311.07159.25082a.653.653,0,0,0,.21146.03229h5.16126a.65314.65314,0,0,0,.21146-.03229c.03936-.01771.07159-.174.07159-.25082V26.91656a.65367.65367,0,0,0-.03223-.21155c-.01774-.03939-.1739-.07156-.25082-.07156ZM18.612,30.52322a.65378.65378,0,0,0-.0322.21155v1.35337a.65239.65239,0,0,0,.0322.21143c.01774.03939.17393.07168.25085.07168h7.88644V30.45166H18.86282C18.7859,30.45166,18.62971,30.48395,18.612,30.52322Zm.03945,7.59715c-.03939.01771-.07159.174-.07159.25094v1.35337a.65147.65147,0,0,0,.03223.21143c.01771.03939.1739.07168.25082.07168h7.88638V38.08821H18.86288A.65341.65341,0,0,0,18.65142,38.12038ZM46.95727,52.8775H31.97057a.14362.14362,0,0,0-.14318.14324V54.6539a.14361.14361,0,0,0,.14318.14318H46.95727a.14361.14361,0,0,0,.14318-.14318V53.02074A.14362.14362,0,0,0,46.95727,52.8775Zm0,3.81833H31.97057a.14361.14361,0,0,0-.14318.14318v1.63317a.14357.14357,0,0,0,.14318.14318H46.95727a.14357.14357,0,0,0,.14318-.14318V56.839A.14361.14361,0,0,0,46.95727,56.69583Zm.00006-11.4444H31.97057a.14361.14361,0,0,0-.14318.14318v1.63317a.14357.14357,0,0,0,.14318.14318H46.95733a.14357.14357,0,0,0,.14318-.14318V45.39461A.14361.14361,0,0,0,46.95733,45.25143Zm-.00006,3.80785H31.97063a.14361.14361,0,0,0-.14318.14318v1.63317a.14357.14357,0,0,0,.14318.14318H46.95727a.14357.14357,0,0,0,.14318-.14318V49.20246A.14361.14361,0,0,0,46.95727,49.05928Zm.00006-7.63655H31.97057a.14361.14361,0,0,0-.14318.14318v1.63317a.14357.14357,0,0,0,.14318.14318H46.95733a.14357.14357,0,0,0,.14318-.14318V41.56591A.14361.14361,0,0,0,46.95733,41.42273Zm-14.98662-5.7066h5.441a.1436.1436,0,0,0,.14318-.14312V33.93979a.14361.14361,0,0,0-.14318-.14318h-5.441a.14361.14361,0,0,0-.14318.14318V35.573A.1436.1436,0,0,0,31.97072,35.71613ZM31.97057,39.524h5.441a.14356.14356,0,0,0,.14318-.14312V37.74764a.14356.14356,0,0,0-.14318-.14312h-5.441a.14356.14356,0,0,0-.14318.14312v1.63323A.14356.14356,0,0,0,31.97057,39.524Zm19.07655-1.99524a.325.325,0,0,1,.11023.226v24.539c0,.07686-.00039.13951-.00087.139,0,0-.06385-.00072-.14077-.00072L28.29547,62.432a.14029.14029,0,0,1-.13987-.13987V30.11663a.14029.14029,0,0,1,.13987-.13987h12.941a.47538.47538,0,0,1,.25013.08614ZM41.373,37.475a.14029.14029,0,0,0,.1399.13987h6.16355c.077,0,.0902-.03867.02949-.0859L41.48345,32.6893c-.06072-.04722-.11041-.02295-.11041.054Zm7.8752,2.18884a.14033.14033,0,0,0-.13987-.13987H39.60383a.14023.14023,0,0,1-.13987-.13987V32.02731a.14033.14033,0,0,0-.1399-.13987l-9.11946-.00157a.14076.14076,0,0,0-.14026.13987L30.06474,60.383a.14038.14038,0,0,0,.13987.13993l18.90374.00151a.14029.14029,0,0,0,.1399-.13987Z"/>
  </g>
</svg>
