<svg xmlns="http://www.w3.org/2000/svg" width="77.37367" height="77.37367" viewBox="0 0 77.37367 77.37367">
  <defs>
    <style>
      .cls-1 {
        fill: #FFFFFF;
      }
    </style>
  </defs>
  <title>_</title>
  <g id="Layer_1" data-name="Layer 1">
    <path class="cls-1" d="M34.00008,54.89971,30.76288,58.137a.17512.17512,0,0,1-.24688,0l-2.22189-2.22185a.175.175,0,0,1,0-.24688L31.53139,52.431a.17525.17525,0,0,1,.24688,0l2.22181,2.22185A.175.175,0,0,1,34.00008,54.89971Zm-8.02519-8.2721-2.22181-2.22185a.17507.17507,0,0,0-.24695,0l-4.39456,4.39456a.17525.17525,0,0,0,0,.24688L21.33346,51.269a.17512.17512,0,0,0,.24688,0l4.39456-4.39456A.175.175,0,0,0,25.97489,46.62761Zm4.01361,4.01357-2.22181-2.22185a.17507.17507,0,0,0-.24695,0l-3.81588,3.81591a.175.175,0,0,0,0,.24688L25.92568,54.704a.17521.17521,0,0,0,.24695,0l3.81588-3.81591A.17512.17512,0,0,0,29.9885,50.64118ZM28.35074,19.56834l-3.45627-3.45623a.175.175,0,0,0-.2468,0L10.082,30.67759a.17525.17525,0,0,0,0,.24688l3.45627,3.4562a.17492.17492,0,0,0,.24688,0L28.35074,19.81522A.17525.17525,0,0,0,28.35074,19.56834ZM67.29158,32.38718,52.76783,17.86343a.17512.17512,0,0,0-.24688,0l-3.4562,3.45623a.17512.17512,0,0,0,0,.24688L63.5885,36.09025a.17505.17505,0,0,0,.24688,0l3.4562-3.4562A.17512.17512,0,0,0,67.29158,32.38718ZM35.48134,56.13405a.17516.17516,0,0,0-.2468,0l-2.6588,2.65873a.17525.17525,0,0,0,0,.24688l2.22189,2.22185a.175.175,0,0,0,.24688,0l2.65873-2.65873a.17512.17512,0,0,0,0-.24688ZM61.08867,36.15021l-2.39675-2.39672-3.644-3.644-6.068-6.06807a1.08787,1.08787,0,0,0-.28382-.19229L35.26756,18.08476a.17535.17535,0,0,0-.06932-.01423.17816.17816,0,0,0-.04355.01252.15646.15646,0,0,0-.03187.00915.17238.17238,0,0,0-.0882.08246L26.827,36.1284a.18211.18211,0,0,0,.08384.23642L31.502,38.6446a.16732.16732,0,0,0,.22808-.08148l6.862-15.25853s.04036-.08682.106-.05862c.06083.0261,7.05626,3.029,8.09429,3.4746a.47588.47588,0,0,1,.061.02617.56825.56825,0,0,1,.10308.06475l.038.038L56.4423,36.2972l-4.553,4.553-.01372.01757a.17516.17516,0,0,0,0,.24688l2.1408,2.155a.17512.17512,0,0,0,.24688,0s4.66386-4.67054,4.69776-4.70444l2.155-2.14084a.17512.17512,0,0,0,0-.24688ZM43.79659,42.873a.16907.16907,0,0,0-.23838,0L41.32782,45.1033a.16907.16907,0,0,0,0,.23838L50.37013,54.384a.16916.16916,0,0,0,.23846,0l2.23031-2.23034a.16907.16907,0,0,0,0-.23838ZM40.09352,46.576a.16907.16907,0,0,0-.23838,0l-2.23038,2.23038a.16894.16894,0,0,0,0,.23838l8.44642,8.44646a.16907.16907,0,0,0,.23838,0l2.23038-2.23038a.16907.16907,0,0,0,0-.23838ZM21.03766,34.77286a.16907.16907,0,0,1,0-.23838l8.46014-8.46014a1.12508,1.12508,0,0,0,.18946-.27243l.6994-1.52586a.261.261,0,0,0-.049-.27243l-1.734-1.73412a.16907.16907,0,0,0-.23838,0l-9.79637,9.79629-.23838.23838-.68045.68049-.23838.23838-1.15678,1.15682a.16894.16894,0,0,0,0,.23838l25.7486,25.74867a.16907.16907,0,0,0,.23838,0l2.07576-2.07569a.16907.16907,0,0,0,0-.23838Zm16.798-5.26668a.10917.10917,0,0,0-.18888.0343L36.24527,32.628a.26214.26214,0,0,0,.04951.27268L54.66829,51.27416a.16907.16907,0,0,0,.23838,0l2.22922-2.22929a.16894.16894,0,0,0,0-.23838Z"/>
  </g>
</svg>
