<svg xmlns="http://www.w3.org/2000/svg" width="77.37367" height="77.37367" viewBox="0 0 77.37367 77.37367">
  <defs>
    <style>
      .cls-1 {
        fill: #FFFFFF;
      }
    </style>
  </defs>
  <title>_</title>
  <g id="Layer_1" data-name="Layer 1">
    <path class="cls-1" d="M17.35466,54.97429a.08649.08649,0,0,1-.084-.13589l3.19157-6.38264a.08075.08075,0,0,1,.15223-.00948l2.76477,4.14715a.08075.08075,0,0,0,.15223-.00948l7.6659-15.3318c.03737-.07474.08453-.06957.1048.0115L34.445,49.83489a.09823.09823,0,0,0,.16177.06091l7.40278-5.12523a.2141.2141,0,0,1,.24251.00973l6.59512,5.39628a.089.089,0,0,0,.15444-.05118l4.62412-18.49389a.1454.1454,0,0,1,.18271-.10486l9.16779,2.67394a.1524.1524,0,0,0,.18841-.10331l1.191-4.08211a.15237.15237,0,0,0-.1033-.1884L50.537,25.82645a.1454.1454,0,0,0-.18271.10486l-4.0295,16.1175a.089.089,0,0,1-.15445.05119l-3.69-3.01886a.21413.21413,0,0,0-.24252-.00973l-4.80863,3.32882a.09824.09824,0,0,1-.16178-.06092l-4.533-18.12906c-.02027-.08107-.06743-.08624-.1048-.0115L22.9672,43.52435a.08074.08074,0,0,1-.15222.00948l-2.76477-4.14715a.08075.08075,0,0,0-.15223.00948l-3.92177,7.84328c-.03737.07474-.06795.06752-.06795-.016V19.49655a.15238.15238,0,0,0-.15194-.15194H13.00544a.15238.15238,0,0,0-.15194.15194V57.87712a.15238.15238,0,0,0,.15194.15194H64.36823a.15238.15238,0,0,0,.15194-.15194V55.12623a.15238.15238,0,0,0-.15194-.15194Z"/>
  </g>
</svg>
