<svg xmlns="http://www.w3.org/2000/svg" width="77.37367" height="77.37367" viewBox="0 0 77.37367 77.37367">
  <defs>
    <style>
      .cls-1 {
        fill: #FFFFFF;
      }
    </style>
  </defs>
  <title>_</title>
  <g id="Layer_1" data-name="Layer 1">
    <path class="cls-1" d="M23.46862,34.63553c-5.43734,0-10.942,1.82446-10.942,5.31172v13.2414c0,3.48726,5.50466,5.31172,10.942,5.31172s10.942-1.82446,10.942-5.31172V39.94725C34.41062,36.46,28.906,34.63553,23.46862,34.63553Zm7.84805,18.55259c-.0485.51681-2.5896,2.21883-7.84805,2.21883s-7.79955-1.702-7.84805-2.2183V52.584a19.10891,19.10891,0,0,0,7.84805,1.50255A19.10891,19.10891,0,0,0,31.31667,52.584Zm0-4.4138c-.0485.51681-2.5896,2.21883-7.84805,2.21883s-7.79955-1.702-7.84805-2.21883v-.6041a19.10891,19.10891,0,0,0,7.84805,1.50255,19.10891,19.10891,0,0,0,7.84805-1.50255Zm0-4.4138c-.0485.51681-2.5896,2.21883-7.84805,2.21883s-7.79955-1.702-7.84805-2.21883v-.6041A19.10891,19.10891,0,0,0,23.46862,45.259a19.10891,19.10891,0,0,0,7.84805-1.50255Zm-7.84805-2.195c-5.25845,0-7.79955-1.702-7.84805-2.21777.0485-.51681,2.5896-2.21883,7.84805-2.21883,5.25686,0,7.798,1.701,7.84805,2.2183C31.26657,40.46459,28.72547,42.16554,23.46862,42.16554ZM64.69317,18.8733h-45.85a.15429.15429,0,0,0-.15385.15385V33.40288a.12628.12628,0,0,0,.15173.12854l2.789-.371a.17392.17392,0,0,0,.15312-.16906V22.121a.15429.15429,0,0,1,.15385-.15385H41.61432a.15432.15432,0,0,1,.15388.15385v5.24917l-.00007.15388a6.73519,6.73519,0,1,0,0,13.47038l.0001.15385v5.24907a.15432.15432,0,0,1-.15388.15388H36.11138a.15429.15429,0,0,0-.15385.15385v2.78612a.1543.1543,0,0,0,.15385.15388h28.5818a.15432.15432,0,0,0,.15388-.15388V19.02715A.15432.15432,0,0,0,64.69317,18.8733Zm-2.94,27.52406a.15432.15432,0,0,1-.15388.15388H44.99924a.1543.1543,0,0,1-.15385-.15388V38.05444a.15432.15432,0,0,0-.15388-.15385l-2.92337.01063a3.652,3.652,0,1,1,0-7.304l2.92337.0107a.15432.15432,0,0,0,.15388-.15388V22.121a.15429.15429,0,0,1,.15385-.15385H61.59932a.15432.15432,0,0,1,.15388.15385Z"/>
  </g>
</svg>
