<svg xmlns="http://www.w3.org/2000/svg" width="77.37367" height="77.37367" viewBox="0 0 77.37367 77.37367">
  <defs>
    <style>
      .cls-1 {
        fill: #FFFFFF;
      }
    </style>
  </defs>
  <title>_</title>
  <g id="Layer_1" data-name="Layer 1">
    <g>
      <path class="cls-1" d="M49.55439,13.14965a.17245.17245,0,0,1-.1-.20337L50.434,9.261a.17537.17537,0,0,0-.25751-.19678l-6.79608,3.94189a.1754.1754,0,0,0-.06378.23975l3.94189,6.7959a.17534.17534,0,0,0,.32117-.04272l.867-3.26172a.17938.17938,0,0,1,.24579-.11694,24.21514,24.21514,0,0,1-9.83282,46.2644.1726.1726,0,0,0-.17249.17236v3.17554a.17928.17928,0,0,0,.17963.17822A27.74,27.74,0,0,0,49.55439,13.14965Z"/>
      <path class="cls-1" d="M30.16,57.3247a.17537.17537,0,0,0-.32111.0437l-.85962,3.2644a.17928.17928,0,0,1-.24554.11743,24.21492,24.21492,0,0,1,9.78088-46.28784.17261.17261,0,0,0,.17255-.17236V11.114a.1795.1795,0,0,0-.17969-.17847,27.74,27.74,0,0,0-10.6275,53.28711.17264.17264,0,0,1,.10046.20337l-.97095,3.687a.17545.17545,0,0,0,.25793.19629l6.787-3.95776a.17527.17527,0,0,0,.06317-.23975Z"/>
      <path class="cls-1" d="M45.23487,31.43236h3.063a.08057.08057,0,0,1,.08057.08057V32.9638a.08063.08063,0,0,1-.08063.08063h-3.063a.08057.08057,0,0,1-.08057-.08057V31.513A.08063.08063,0,0,1,45.23487,31.43236Z"/>
      <path class="cls-1" d="M45.23487,41.105h3.063a.08057.08057,0,0,1,.08057.08057V42.6364a.08063.08063,0,0,1-.08063.08063h-3.063a.08057.08057,0,0,1-.08057-.08057V41.1856A.08063.08063,0,0,1,45.23487,41.105Z"/>
      <path class="cls-1" d="M45.23487,34.65648h3.063a.08057.08057,0,0,1,.08057.08057v1.45087a.08063.08063,0,0,1-.08063.08063h-3.063a.08057.08057,0,0,1-.08057-.08057V34.73711A.08063.08063,0,0,1,45.23487,34.65648Z"/>
      <path class="cls-1" d="M27.50159,47.55346h1.45087a.08063.08063,0,0,1,.08063.08063v1.45081a.08063.08063,0,0,1-.08063.08063H27.50153A.08057.08057,0,0,1,27.421,49.085V47.63408A.08063.08063,0,0,1,27.50159,47.55346Z"/>
      <rect class="cls-1" x="45.15424" y="37.88061" width="3.22424" height="1.6123" rx="0.08063" ry="0.08063"/>
      <path class="cls-1" d="M27.50153,44.32934h1.45093a.08063.08063,0,0,1,.08063.08063v1.45081a.08063.08063,0,0,1-.08063.08063H27.50159a.08063.08063,0,0,1-.08063-.08063V44.4099A.08057.08057,0,0,1,27.50153,44.32934Z"/>
      <path class="cls-1" d="M31.53181,44.32934h1.45093a.08063.08063,0,0,1,.08063.08063v1.45062a.08081.08081,0,0,1-.08081.08081H31.532a.08081.08081,0,0,1-.08081-.08081V44.4099A.08057.08057,0,0,1,31.53181,44.32934Z"/>
      <path class="cls-1" d="M36.22034,37.15136,31.5185,40.25463c-.037.02441-.06726.00806-.06726-.03638v-3.063c0-.04419-.03015-.06055-.06708-.03589L24.2638,41.86644a.16806.16806,0,0,0-.06708.12524V52.30932a.0809.0809,0,0,0,.08063.08057H36.207a.0809.0809,0,0,0,.08063-.08057V50.8496a.08095.08095,0,0,0-.08063-.08081H25.8982a.08074.08074,0,0,1-.08063-.08057v-7.8291a.16917.16917,0,0,1,.06708-.12549l3.87866-2.58569c.03693-.02466.06708-.00854.06708.03589v3.04639c0,.04419.03027.06055.06726.03613L32.2768,41.696l.13452-.08887,3.809-2.51392a.16751.16751,0,0,0,.06726-.12476v-1.781C36.2876,37.1433,36.25733,37.12694,36.22034,37.15136Z"/>
      <path class="cls-1" d="M31.53187,47.55346h1.45087a.08063.08063,0,0,1,.08063.08063v1.45081a.08063.08063,0,0,1-.08063.08063H31.53181a.08057.08057,0,0,1-.08057-.08057V47.63408A.08063.08063,0,0,1,31.53187,47.55346Z"/>
      <path class="cls-1" d="M45.23487,28.208h3.063a.08057.08057,0,0,1,.08057.08057v1.45087a.08063.08063,0,0,1-.08063.08063h-3.063a.08057.08057,0,0,1-.08057-.08057V28.28863A.08063.08063,0,0,1,45.23487,28.208Z"/>
      <path class="cls-1" d="M40.39869,44.32934h3.06287a.08057.08057,0,0,1,.08057.08057v1.45087a.08063.08063,0,0,1-.08063.08063H40.39869a.08081.08081,0,0,1-.08081-.08081V44.41015A.08081.08081,0,0,1,40.39869,44.32934Z"/>
      <path class="cls-1" d="M40.39844,41.105h3.06311a.08057.08057,0,0,1,.08057.08057V42.6364a.08063.08063,0,0,1-.08063.08063h-3.063a.08057.08057,0,0,1-.08057-.08057V41.18554A.08057.08057,0,0,1,40.39844,41.105Z"/>
      <path class="cls-1" d="M45.23505,44.32934h3.06287a.08057.08057,0,0,1,.08057.08057v1.45087a.08063.08063,0,0,1-.08063.08063H45.23505a.08081.08081,0,0,1-.08081-.08081V44.41015A.08081.08081,0,0,1,45.23505,44.32934Z"/>
      <path class="cls-1" d="M40.39844,37.88061h3.06287a.08081.08081,0,0,1,.08081.08081v1.45087a.08063.08063,0,0,1-.08063.08063h-3.063a.08063.08063,0,0,1-.08063-.08063V37.96117A.08057.08057,0,0,1,40.39844,37.88061Z"/>
      <path class="cls-1" d="M51.60273,52.30932V25.06444a.08074.08074,0,0,0-.08063-.08057H37.17426a.08072.08072,0,0,0-.08057.08057V52.30932a.08088.08088,0,0,0,.08057.08057H51.5221A.0809.0809,0,0,0,51.60273,52.30932Zm-1.62085-1.54053H38.71454V26.60473H49.98188Z"/>
      <path class="cls-1" d="M40.39844,47.55346h3.06311a.08057.08057,0,0,1,.08057.08057v1.45087a.08063.08063,0,0,1-.08063.08063h-3.063a.08057.08057,0,0,1-.08057-.08057V47.634A.08057.08057,0,0,1,40.39844,47.55346Z"/>
      <path class="cls-1" d="M45.23487,47.55346h3.063a.08057.08057,0,0,1,.08057.08057v1.45087a.08063.08063,0,0,1-.08063.08063h-3.063a.08057.08057,0,0,1-.08057-.08057V47.63408A.08063.08063,0,0,1,45.23487,47.55346Z"/>
      <path class="cls-1" d="M40.39844,28.208h3.06311a.08057.08057,0,0,1,.08057.08057v1.45087a.08063.08063,0,0,1-.08063.08063h-3.063a.08057.08057,0,0,1-.08057-.08057V28.28856A.08057.08057,0,0,1,40.39844,28.208Z"/>
      <path class="cls-1" d="M40.39844,31.43236h3.06311a.08057.08057,0,0,1,.08057.08057V32.9638a.08063.08063,0,0,1-.08063.08063h-3.063a.08057.08057,0,0,1-.08057-.08057V31.51293A.08057.08057,0,0,1,40.39844,31.43236Z"/>
      <path class="cls-1" d="M40.39844,34.65648h3.06311a.08057.08057,0,0,1,.08057.08057v1.45087a.08063.08063,0,0,1-.08063.08063h-3.063a.08057.08057,0,0,1-.08057-.08057V34.73705A.08057.08057,0,0,1,40.39844,34.65648Z"/>
    </g>
  </g>
</svg>
