<svg xmlns="http://www.w3.org/2000/svg" width="77.37367" height="77.37367" viewBox="0 0 77.37367 77.37367">
  <defs>
    <style>
      .cls-1 {
        fill: #FFFFFF;
      }
    </style>
  </defs>
  <title>_</title>
  <g id="Layer_1" data-name="Layer 1">
    <g>
      <path class="cls-1" d="M53.25834,35.538A15.65439,15.65439,0,1,0,68.9127,51.19239,15.65443,15.65443,0,0,0,53.25834,35.538Zm9.658,22.631H44.4611V44.2212h1.09149v5.97693l2.66144-2.361a.11024.11024,0,0,1,.17285.024l3.44836,5.587a.11019.11019,0,0,0,.17279.02411L57.2465,48.664a.16811.16811,0,0,0,.02881-.20593L56.5,47.22059c-.03961-.06329-.011-.11719.06348-.11987l2.834-.10229.27118-.00977,2.83417-.10236c.07458-.00269.107.04907.072.115L61.24644,49.5069l-.12714.23975L59.79093,52.2522a.07168.07168,0,0,1-.13556.00488l-.79553-1.26978a.11017.11017,0,0,0-.17279-.024l-6.69482,6.11426H62.91636Z"/>
      <path class="cls-1" d="M47.75272,51.84931l-2.20013,1.945v3.28326h5.585l-3.21216-5.20422A.11008.11008,0,0,0,47.75272,51.84931Z"/>
      <path class="cls-1" d="M33.9882,55.86591V13.377H53.8v20.655a17.21566,17.21566,0,0,1,2.85.312V10.66865a.14215.14215,0,0,0-.14172-.14172H31.27988a.14215.14215,0,0,0-.14172.14172V58.57416a.14215.14215,0,0,0,.14172.14172h6.54846a17.0339,17.0339,0,0,1-1.09515-2.85Z"/>
      <path class="cls-1" d="M29.60258,31.92151,21.33518,37.378c-.06506.04291-.11829.01428-.11829-.06366V31.92847c0-.07794-.053-.10632-.11792-.06311L8.57889,40.2121a.29688.29688,0,0,0-.11792.22034V58.57416a.14215.14215,0,0,0,.14172.14172H29.57908a.14216.14216,0,0,0,.14178-.14172V56.00764a.14216.14216,0,0,0-.14178-.14172H11.45273a.14215.14215,0,0,1-.14172-.14172V41.95771a.29669.29669,0,0,1,.11792-.22034l6.82-4.54675c.06488-.04321.118-.01483.118.06311v5.35638c0,.07794.05322.10657.11829.06366l4.18329-2.761.23657-.15613,6.69751-4.42035a.29507.29507,0,0,0,.11829-.21979V31.98517C29.72086,31.90723,29.66758,31.87855,29.60258,31.92151Z"/>
      <rect class="cls-1" x="14.13029" y="50.21198" width="2.83466" height="2.83466" rx="0.14172" ry="0.14172"/>
      <path class="cls-1" d="M50.839,33.20411H45.4531a.14215.14215,0,0,0-.14172.14172V35.897a.13181.13181,0,0,0,.02411.058,17.04223,17.04223,0,0,1,5.6452-1.78162v-.82758A.14215.14215,0,0,0,50.839,33.20411Z"/>
      <rect class="cls-1" x="21.21689" y="44.54267" width="2.83466" height="2.83466" rx="0.14172" ry="0.14172"/>
      <rect class="cls-1" x="21.21689" y="50.21198" width="2.83466" height="2.83466" rx="0.14172" ry="0.14172"/>
      <rect class="cls-1" x="14.13029" y="44.54267" width="2.83466" height="2.83466" rx="0.14172" ry="0.14172"/>
      <path class="cls-1" d="M36.80747,39.01508v2.55121a.14215.14215,0,0,0,.14172.14172h1.98834a17.299,17.299,0,0,1,2.361-2.83466h-4.3493A.14215.14215,0,0,0,36.80747,39.01508Z"/>
      <path class="cls-1" d="M36.94919,27.5348h5.38586a.14172.14172,0,0,1,.14172.14172v2.55121a.14172.14172,0,0,1-.14172.14172h-5.3858a.14178.14178,0,0,1-.14178-.14178V27.67652A.14172.14172,0,0,1,36.94919,27.5348Z"/>
      <path class="cls-1" d="M36.94919,21.86548h5.38586a.14172.14172,0,0,1,.14172.14172v2.55121a.14172.14172,0,0,1-.14172.14172h-5.3858a.14178.14178,0,0,1-.14178-.14178V22.00721A.14172.14172,0,0,1,36.94919,21.86548Z"/>
      <path class="cls-1" d="M36.94926,33.20411h5.3858a.14172.14172,0,0,1,.14172.14172V35.897a.14172.14172,0,0,1-.14172.14172H36.94919a.14172.14172,0,0,1-.14172-.14172V33.34589A.14178.14178,0,0,1,36.94926,33.20411Z"/>
      <rect class="cls-1" x="45.31138" y="16.19623" width="5.66931" height="2.83466" rx="0.14172" ry="0.14172"/>
      <path class="cls-1" d="M36.94919,16.19623h5.38586a.14172.14172,0,0,1,.14172.14172v2.55121a.14172.14172,0,0,1-.14172.14172h-5.3858a.14178.14178,0,0,1-.14178-.14178V16.338A.14172.14172,0,0,1,36.94919,16.19623Z"/>
      <rect class="cls-1" x="45.31138" y="21.86548" width="5.66931" height="2.83466" rx="0.14172" ry="0.14172"/>
      <rect class="cls-1" x="45.31138" y="27.5348" width="5.66931" height="2.83466" rx="0.14172" ry="0.14172"/>
    </g>
  </g>
</svg>
