<svg xmlns="http://www.w3.org/2000/svg" width="77.37367" height="77.37367" viewBox="0 0 77.37367 77.37367">
  <defs>
    <style>
      .cls-1 {
        fill: #FFFFFF;
      }
    </style>
  </defs>
  <title>_</title>
  <g id="Layer_1" data-name="Layer 1">
    <path class="cls-1" d="M51.51683,32.28409a.14215.14215,0,0,1,.14172.14172V36.992c-.33118-.02039-.65985-.05048-.996-.05048a16.151,16.151,0,0,0-1.85394.11542V32.42581a.14215.14215,0,0,1,.14172-.14172ZM23.46916,54.94589a.14215.14215,0,0,1-.14172-.14172V32.42581a.14215.14215,0,0,0-.14172-.14172H20.61919a.14215.14215,0,0,0-.14172.14172V57.65414a.14215.14215,0,0,0,.14172.14172H35.276a15.99807,15.99807,0,0,1-.59424-2.85ZM60.02074,30.86673H12.11522c-.07794,0-.09393-.04218-.03546-.09375l23.882-21.07227a.1653.1653,0,0,1,.21252,0L60.0562,30.773C60.11461,30.82455,60.09868,30.86673,60.02074,30.86673ZM52.5186,27.923,36.17424,13.50155a.1653.1653,0,0,0-.21252,0L19.61735,27.923c-.05847.05157-.04248.09375.03546.09375H52.48314C52.56108,28.01675,52.577,27.97458,52.5186,27.923ZM65.32915,53.045A14.66666,14.66666,0,1,1,50.66252,38.37832,14.66662,14.66662,0,0,1,65.32915,53.045Zm-5.618,5.51385H49.47624l6.2724-5.72852a.10326.10326,0,0,1,.16193.02252l.74536,1.1897a.06713.06713,0,0,0,.127-.00464l1.24457-2.34741.11908-.22461,1.24469-2.34753c.03271-.06177.00238-.11023-.0675-.10773l-2.65533.09583-.25409.00916-2.65521.09589c-.06982.0025-.09662.053-.05945.1123l.72638,1.15942a.15756.15756,0,0,1-.027.19293l-4.908,4.50488a.10321.10321,0,0,1-.16187-.02258L46.09843,49.924a.10327.10327,0,0,0-.16193-.02258l-2.49359,2.212V46.51364H42.42033V59.58145H59.71116ZM45.50426,53.66049l-2.06134,1.82227v3.07611h5.23267L45.66612,53.683A.10316.10316,0,0,0,45.50426,53.66049Z"/>
  </g>
</svg>
