<svg xmlns="http://www.w3.org/2000/svg" width="77.37367" height="77.37367" viewBox="0 0 77.37367 77.37367">
  <defs>
    <style>
      .cls-1 {
        fill: #FFFFFF;
      }
    </style>
  </defs>
  <title>_</title>
  <g id="Layer_1" data-name="Layer 1">
    <g>
      <path class="cls-1" d="M53.71665,44.45856c2.22131,0,3.295-.71875,3.31622-.93732-.02118-.21863-1.09491-.93738-3.31622-.93738-2.22192,0-3.29572.71924-3.31616.93756C50.42093,43.73939,51.49473,44.45856,53.71665,44.45856Z"/>
      <path class="cls-1" d="M49.50211,52.56757c-2.222,0-3.29572.71918-3.31622.93756.02051.218,1.09424.93713,3.31622.93713,2.22125,0,3.295-.71875,3.31616-.93738C52.79716,53.28632,51.72336,52.56757,49.50211,52.56757Z"/>
      <path class="cls-1" d="M53.71665,46.32361c2.222,0,3.29572-.71918,3.31622-.93756V45.1308a8.97814,8.97814,0,0,1-6.63239,0v.25525C50.42093,45.60444,51.49473,46.32361,53.71665,46.32361Z"/>
      <path class="cls-1" d="M46.18589,58.84455V59.1c.02051.2182,1.09424.93738,3.31622.93738s3.29572-.71918,3.31616-.93756v-.25531a8.97733,8.97733,0,0,1-6.63239,0Z"/>
      <path class="cls-1" d="M46.18589,55.11445v.25531c.02051.21838,1.09424.93756,3.31622.93756s3.29572-.71918,3.31616-.93756v-.25531a8.97733,8.97733,0,0,1-6.63239,0Z"/>
      <path class="cls-1" d="M46.18589,56.9795v.25531c.02051.21838,1.09424.93756,3.31622.93756s3.29572-.71918,3.31616-.93756V56.9795a8.97733,8.97733,0,0,1-6.63239,0Z"/>
      <path class="cls-1" d="M57.03287,49.02973v-.16779a8.97814,8.97814,0,0,1-6.63239,0v.23779c.02045.21838,1.09424.93756,3.31616.93756s3.29572-.71918,3.31622-.93756Z"/>
      <path class="cls-1" d="M53.71665,48.18976c2.222,0,3.29572-.71924,3.31622-.93762v-.25525a8.97814,8.97814,0,0,1-6.63239,0v.25525C50.42093,47.47053,51.49473,48.18976,53.71665,48.18976Z"/>
      <path class="cls-1" d="M53.25834,35.538A15.65439,15.65439,0,1,0,68.9127,51.19239,15.65443,15.65443,0,0,0,53.25834,35.538ZM54.12565,59.1c0,1.47357-2.326,2.24451-4.62354,2.24451S44.87858,60.57361,44.87858,59.1V53.50489c0-1.47351,2.326-2.24445,4.62354-2.24445s4.62354.77094,4.62354,2.24445Zm-.13629-7.20319c2.03522-.05615,3.02393-.72284,3.04352-.93207V50.727a8.07446,8.07446,0,0,1-3.31622.63489c-.19342,0-.3866-.00745-.579-.01831a8.617,8.617,0,0,0-3.6355-.7254c-.13593,0-.2724.00317-.40906.00836V43.52125c0-1.47357,2.326-2.24451,4.62354-2.24451s4.62354.77094,4.62354,2.24451v9.0545a10.29933,10.29933,0,0,0-2.14856-.21985,10.64665,10.64665,0,0,0-1.70123.13446A2.46138,2.46138,0,0,0,53.98936,51.89686Zm6.82581,3.3457v1.86658c0,1.47351-2.326,2.24445-4.62354,2.24445a9.9962,9.9962,0,0,1-1.4303-.10193c.0036-.05.00659-.10022.00659-.15167V57.935a8.64072,8.64072,0,0,0,1.42371.11145c2.22192,0,3.29565-.71918,3.31616-.93756V56.8537a8.07538,8.07538,0,0,1-3.31616.63483,9.98548,9.98548,0,0,1-1.42371-.10211v-1.318a8.63351,8.63351,0,0,0,1.42371.11151c2.22125,0,3.295-.71875,3.31616-.93738-.02118-.21857-1.09491-.93732-3.31616-.93732a8.64072,8.64072,0,0,0-1.42371.11145v-.91187a2.02767,2.02767,0,0,0-.04-.39795,9.95465,9.95465,0,0,1,1.46368-.10876c2.24786,0,4.52155.7384,4.61884,2.15033h.0047Z"/>
      <rect class="cls-1" x="14.13029" y="50.21198" width="2.83466" height="2.83466" rx="0.14172" ry="0.14172"/>
      <rect class="cls-1" x="14.13029" y="44.54267" width="2.83466" height="2.83466" rx="0.14172" ry="0.14172"/>
      <path class="cls-1" d="M36.80747,39.01508v2.55121a.14215.14215,0,0,0,.14172.14172h1.98834a17.30168,17.30168,0,0,1,2.3609-2.83466H36.94919A.14215.14215,0,0,0,36.80747,39.01508Z"/>
      <path class="cls-1" d="M29.60258,31.92151,21.33518,37.378c-.06506.04291-.11829.01428-.11829-.06366V31.92847c0-.07794-.053-.10632-.11792-.06311L8.57889,40.2121a.29688.29688,0,0,0-.11792.22034V58.57416a.14215.14215,0,0,0,.14172.14172H29.57908a.14216.14216,0,0,0,.14178-.14172V56.00764a.14216.14216,0,0,0-.14178-.14172H11.45273a.14215.14215,0,0,1-.14172-.14172V41.95771a.29669.29669,0,0,1,.11792-.22034l6.82-4.54675c.06488-.04321.118-.01483.118.06311v5.35638c0,.07794.05322.10657.11829.06366l4.18329-2.761.23657-.15613,6.69751-4.42035a.29507.29507,0,0,0,.11829-.21979V31.98517C29.72086,31.90723,29.66758,31.87855,29.60258,31.92151Z"/>
      <rect class="cls-1" x="21.21689" y="50.21198" width="2.83466" height="2.83466" rx="0.14172" ry="0.14172"/>
      <path class="cls-1" d="M50.839,33.20411H45.4531a.14215.14215,0,0,0-.14172.14172V35.897a.13181.13181,0,0,0,.02411.058,17.04223,17.04223,0,0,1,5.6452-1.78162v-.82758A.14215.14215,0,0,0,50.839,33.20411Z"/>
      <rect class="cls-1" x="21.21689" y="44.54267" width="2.83466" height="2.83466" rx="0.14172" ry="0.14172"/>
      <path class="cls-1" d="M33.9882,55.86591V13.377H53.8v20.655a17.21566,17.21566,0,0,1,2.85.312V10.66865a.14215.14215,0,0,0-.14172-.14172H31.27988a.14215.14215,0,0,0-.14172.14172V58.57416a.14215.14215,0,0,0,.14172.14172h6.54846a17.03412,17.03412,0,0,1-1.09521-2.85Z"/>
      <path class="cls-1" d="M36.94926,27.5348h5.3858a.14172.14172,0,0,1,.14172.14172v2.55121a.14172.14172,0,0,1-.14172.14172h-5.3858a.14178.14178,0,0,1-.14178-.14178V27.67658A.14178.14178,0,0,1,36.94926,27.5348Z"/>
      <path class="cls-1" d="M36.94926,33.20411H42.335a.14178.14178,0,0,1,.14178.14178V35.897a.14172.14172,0,0,1-.14172.14172H36.94919a.14172.14172,0,0,1-.14172-.14172V33.34589A.14178.14178,0,0,1,36.94926,33.20411Z"/>
      <rect class="cls-1" x="45.31138" y="16.19623" width="5.66931" height="2.83466" rx="0.14172" ry="0.14172"/>
      <path class="cls-1" d="M36.94926,21.86548h5.3858a.14172.14172,0,0,1,.14172.14172v2.55121a.14172.14172,0,0,1-.14172.14172h-5.3858a.14178.14178,0,0,1-.14178-.14178V22.00727A.14178.14178,0,0,1,36.94926,21.86548Z"/>
      <path class="cls-1" d="M36.94926,16.19623h5.3858a.14172.14172,0,0,1,.14172.14172v2.55121a.14172.14172,0,0,1-.14172.14172h-5.3858a.14178.14178,0,0,1-.14178-.14178V16.338A.14178.14178,0,0,1,36.94926,16.19623Z"/>
      <rect class="cls-1" x="45.31138" y="21.86548" width="5.66931" height="2.83466" rx="0.14172" ry="0.14172"/>
      <rect class="cls-1" x="45.31138" y="27.5348" width="5.66931" height="2.83466" rx="0.14172" ry="0.14172"/>
    </g>
  </g>
</svg>
