<svg xmlns="http://www.w3.org/2000/svg" width="77.37367" height="77.37367" viewBox="0 0 77.37367 77.37367">
  <defs>
    <style>
      .cls-1 {
        fill: #FFFFFF;
      }
    </style>
  </defs>
  <title>_</title>
  <g id="Layer_1" data-name="Layer 1">
    <g>
      <path class="cls-1" d="M46.41238,53.92633c-2.22192,0-3.29565.71918-3.31616.93756.02051.218,1.09424.93713,3.31616.93713,2.22131,0,3.295-.71875,3.31622-.93738C49.70742,54.64508,48.63369,53.92633,46.41238,53.92633Z"/>
      <path class="cls-1" d="M50.627,45.81732c2.22125,0,3.295-.71875,3.31616-.93732-.02118-.21863-1.09491-.93738-3.31616-.93738-2.222,0-3.29572.71924-3.31622.93756C47.33126,45.09814,48.405,45.81732,50.627,45.81732Z"/>
      <path class="cls-1" d="M43.09621,56.4732v.25531c.02051.21838,1.09424.93756,3.31616.93756s3.29572-.71918,3.31622-.93756V56.4732a8.97733,8.97733,0,0,1-6.63239,0Z"/>
      <path class="cls-1" d="M43.09621,58.33826v.25531c.02051.21838,1.09424.93756,3.31616.93756s3.29572-.71918,3.31622-.93756v-.25531a8.97733,8.97733,0,0,1-6.63239,0Z"/>
      <path class="cls-1" d="M43.09621,60.20331v.25549c.02051.2182,1.09424.93738,3.31616.93738s3.29572-.71918,3.31622-.93756v-.25531a8.97733,8.97733,0,0,1-6.63239,0Z"/>
      <path class="cls-1" d="M50.627,47.68237c2.22192,0,3.29565-.71918,3.31616-.93756v-.25525a8.97814,8.97814,0,0,1-6.63239,0v.25525C47.33126,46.96319,48.405,47.68237,50.627,47.68237Z"/>
      <path class="cls-1" d="M50.1686,36.89673A15.65439,15.65439,0,1,0,65.823,52.55115,15.65437,15.65437,0,0,0,50.1686,36.89673Zm.86731,23.56207c0,1.47357-2.326,2.24451-4.62354,2.24451s-4.62354-.77094-4.62354-2.24451V54.86365c0-1.47351,2.326-2.24445,4.62354-2.24445s4.62354.77094,4.62354,2.24445Zm-.13629-7.20319c2.03522-.05615,3.02393-.72284,3.04352-.93207v-.23779a8.07416,8.07416,0,0,1-3.31616.63489c-.19348,0-.3866-.00745-.579-.01831a8.61712,8.61712,0,0,0-3.63556-.7254c-.13586,0-.2724.00317-.409.00836V44.88c0-1.47357,2.326-2.24451,4.62354-2.24451s4.62354.77094,4.62354,2.24451v9.0545a10.29948,10.29948,0,0,0-2.14862-.21985,10.64665,10.64665,0,0,0-1.70123.13446A2.46,2.46,0,0,0,50.89962,53.25561Zm6.82581,3.3457v1.86658c0,1.47351-2.326,2.24445-4.62354,2.24445a9.99471,9.99471,0,0,1-1.43024-.10193c.00354-.05.00653-.10022.00653-.15167v-1.165a8.64072,8.64072,0,0,0,1.42371.11145c2.222,0,3.29572-.71918,3.31622-.93756v-.25519a8.07568,8.07568,0,0,1-3.31622.63483,9.98548,9.98548,0,0,1-1.42371-.10211v-1.318a8.63351,8.63351,0,0,0,1.42371.11151c2.22131,0,3.295-.71875,3.31622-.93738-.02118-.21857-1.09491-.93732-3.31622-.93732a8.64072,8.64072,0,0,0-1.42371.11145v-.91187a2.02767,2.02767,0,0,0-.04-.39795,9.95528,9.95528,0,0,1,1.46368-.10876c2.24786,0,4.52161.7384,4.6189,2.15033h.00464Z"/>
      <path class="cls-1" d="M50.627,49.54852c2.22192,0,3.29565-.71924,3.31616-.93762v-.25525a8.97814,8.97814,0,0,1-6.63239,0v.25525C47.33126,48.82928,48.405,49.54852,50.627,49.54852Z"/>
      <path class="cls-1" d="M53.94314,50.38849V50.2207a8.97814,8.97814,0,0,1-6.63239,0v.23779c.02051.21838,1.09424.93756,3.31622.93756s3.29565-.71918,3.31616-.93756Z"/>
      <path class="cls-1" d="M48.45644,31.79022a.14211.14211,0,0,0-.14172.14172v3.53534a17.26965,17.26965,0,0,1,1.85388-.10406c.33624,0,.66461.03131.99609.05048V31.93194a.14216.14216,0,0,0-.14178-.14172Z"/>
      <path class="cls-1" d="M59.56228,30.27911,35.68038,9.20685a.16538.16538,0,0,0-.21259,0L11.5859,30.27911c-.05847.05157-.04254.09375.03546.09375H59.52682C59.60482,30.37286,59.62075,30.33069,59.56228,30.27911Zm-7.57306-2.75623H19.159c-.078,0-.09393-.04218-.03546-.09375L35.4678,13.00769a.16538.16538,0,0,1,.21259,0l16.3443,14.42145C52.08315,27.48071,52.06722,27.52289,51.98922,27.52289Z"/>
      <path class="cls-1" d="M22.9753,54.452a.14211.14211,0,0,1-.14172-.14172V31.93194a.14216.14216,0,0,0-.14178-.14172H20.12533a.14211.14211,0,0,0-.14172.14172V57.16028a.14211.14211,0,0,0,.14172.14172h13.538a17.03034,17.03034,0,0,1-.57135-2.85Z"/>
    </g>
  </g>
</svg>
