<svg id="Layer_1" data-name="Layer 1" xmlns="http://www.w3.org/2000/svg" width="100" height="100" viewBox="0 0 100 100">
  <defs>
    <style>
      .cls-1 {
        fill: #FFFFFF;
      }
    </style>
  </defs>
  <title>_</title>
  <path class="cls-1" d="M48.16027,80.34076c-.11926.00136-.252-.00129-.26522-.003a.56536.56536,0,0,1-.04247-.21925L47.704,78.37208a.17483.17483,0,0,1,.1975-.19544s1.4834.14185,2.345.14185c1.07993,0,2.98534-.205,2.98534-.205a.178.178,0,0,1,.203.19329l-.10142,1.742a.29748.29748,0,0,1-.11851.22905c-.02917.00326-.15062.007-.26989.0084M81.23865,66.32356,82.093,64.8448a.21743.21743,0,0,0-.07931-.29621l-7.13649-4.12078a.21756.21756,0,0,0-.29629.07933l-.85437,1.47876a.21743.21743,0,0,0,.07931.29621M85.56475,48.58242a.2175.2175,0,0,0,.21686-.21686v-1.709a.2175.2175,0,0,0-.21686-.21686H77.32463a.2175.2175,0,0,0-.21686.21686v1.709a.2175.2175,0,0,0,.21686.21686ZM67.53658,17.92472a.21749.21749,0,0,0-.07938-.29623L65.977,16.774a.2175.2175,0,0,0-.29624.07939l-4.12006,7.13648a.21749.21749,0,0,0,.07938.29623l1.48018.8545a.2175.2175,0,0,0,.29624-.07939Zm-31.52408,7.7166a.21749.21749,0,0,0,.07938-.29623l-4.12006-7.13648a.2175.2175,0,0,0-.29624-.07939l-1.48018.8545A.21749.21749,0,0,0,30.116,19.28l4.12006,7.13648a.2175.2175,0,0,0,.29624.07939ZM49.7161,13.30158a.2175.2175,0,0,0-.21686-.21686h-1.709a.2175.2175,0,0,0-.21686.21686v8.24086a.2175.2175,0,0,0,.21686.21686h1.709a.2175.2175,0,0,0,.21686-.21686Zm-2.162,60.793a.17268.17268,0,0,0-.19728.19324l.14853,1.74629a.2698.2698,0,0,0,.2343.23621s1.59131.14834,2.50688.14834c1.11635,0,3.09559-.20143,3.09559-.20143a.26386.26386,0,0,0,.22834-.23845l.102-1.7534a.176.176,0,0,0-.20279-.19123s-2.06141.24182-3.22315.24182C49.26709,74.27594,47.55411,74.09454,47.55411,74.09454Zm25.6709-39.215a.21748.21748,0,0,0,.29623.07938l7.13723-4.1208a.21751.21751,0,0,0,.07938-.29624l-.8545-1.48018a.21748.21748,0,0,0-.29623-.07938l-7.13723,4.1208a.21751.21751,0,0,0-.07938.29624Zm-46.95075.86721a.21749.21749,0,0,0-.07939-.29623l-7.13721-4.12008a.2175.2175,0,0,0-.29623.07939L17.90692,32.89a.21749.21749,0,0,0,.07939.29623l7.13721,4.12008a.2175.2175,0,0,0,.29623-.07939ZM27.55012,64.6295a.21743.21743,0,0,0,.07931-.29621l-.85437-1.47876a.21756.21756,0,0,0-.29629-.07933L19.34228,66.896a.21743.21743,0,0,0-.07931.29621l.85437,1.47876m-5.68208-19.52a.2175.2175,0,0,0-.21686.21686v1.709a.2175.2175,0,0,0,.21686.21686h8.24086a.2175.2175,0,0,0,.21686-.21686v-1.709a.2175.2175,0,0,0-.21686-.21686Zm36.13588-1.05035a.47832.47832,0,0,0-.3862,0l-2.44232,1.24825a.47826.47826,0,0,1-.38619,0L45.00971,48.1492a.48394.48394,0,0,1-.228-.31274l-.38591-2.36609a.21746.21746,0,0,0-.24893-.17909l-1.68624.27528a.21754.21754,0,0,0-.17912.249l2.40607,14.75226a.21746.21746,0,0,0,.24893.17909l1.68624-.27528a.21754.21754,0,0,0,.17912-.249L45.27962,50.8889c-.0192-.11772.052-.16961.15818-.11531l1.91863.98093a.47823.47823,0,0,0,.38619,0l2.44232-1.24825a.47832.47832,0,0,1,.3862,0l2.44232,1.24825a.47825.47825,0,0,0,.38619,0l1.921-.98206c.1062-.05429.17738-.0024.15819.11532l-1.52319,9.34008a.21754.21754,0,0,0,.17912.249l1.68624.27528A.21745.21745,0,0,0,56.07,60.573l2.40459-14.74479a.21754.21754,0,0,0-.17912-.249L56.6092,45.304a.21746.21746,0,0,0-.24894.17909l-.38367,2.35209a.484.484,0,0,1-.228.31275l-2.349,1.20095a.47822.47822,0,0,1-.38619,0ZM47.20671,70.01121a.171.171,0,0,0-.19711.19152l.14838,1.74638a.273.273,0,0,0,.23407.23833s1.82125.18787,2.85449.18787c1.19779,0,3.333-.2336,3.333-.2336a.26631.26631,0,0,0,.22818-.24008L53.91,70.14375a.17422.17422,0,0,0-.20256-.18948s-2.2172.27836-3.46094.27836C49.14943,70.23263,47.20671,70.01121,47.20671,70.01121ZM72.75144,48.38043A22.53884,22.53884,0,0,1,60.61986,68.64a.22134.22134,0,0,0-.11927.18353l-1.05039,17.886a.21857.21857,0,0,1-.21819.20576H42.10007a.21318.21318,0,0,1-.21242-.19512L40.38277,69.02009A22.00923,22.00923,0,0,1,27.74109,48.89387,22.52343,22.52343,0,0,1,49.98917,26.09854c.088-.001.17389-.00149.26167-.00149A22.525,22.525,0,0,1,72.75144,48.38043Zm-4.43528,1.93321A18.21968,18.21968,0,0,0,50.25084,30.45778l-.212.00112A18.1833,18.1833,0,0,0,32.10154,48.84419,17.62818,17.62818,0,0,0,42.23072,65.07036l2.28351,1.06835.21348,2.51194L45.89688,82.403a.21669.21669,0,0,0,.21591.19833H55.124a.20917.20917,0,0,0,.20881-.19688l.8218-13.96.13724-2.35725a.22626.22626,0,0,1,.12244-.18808l1.7621-.90579A18.56061,18.56061,0,0,0,68.31616,50.31363Z"/>
</svg>
