<svg xmlns="http://www.w3.org/2000/svg" width="77.37367" height="77.37367" viewBox="0 0 77.37367 77.37367">
  <defs>
    <style>
      .cls-1 {
        fill: #FFFFFF;
      }
    </style>
  </defs>
  <title>_</title>
  <g id="Layer_1" data-name="Layer 1">
    <g>
      <path class="cls-1" d="M29.84582,38.55415c-6.073,0-12.22119,2.03775-12.22119,5.93269v14.7894c0,3.89494,6.14819,5.93269,12.22119,5.93269S42.067,63.17117,42.067,59.27623V44.48684C42.067,40.5919,35.91882,38.55415,29.84582,38.55415Zm8.76553,20.7215c-.05417.57723-2.89234,2.47822-8.76553,2.47822s-8.71136-1.901-8.76553-2.47763v-.67535a21.34334,21.34334,0,0,0,8.76553,1.67825,21.34236,21.34236,0,0,0,8.76553-1.67825Zm0-4.9298c-.05417.57723-2.89234,2.47822-8.76553,2.47822s-8.71136-1.901-8.76553-2.47822v-.67476a21.34334,21.34334,0,0,0,8.76553,1.67825,21.34236,21.34236,0,0,0,8.76553-1.67825Zm0-4.9298c-.05417.57723-2.89234,2.47822-8.76553,2.47822s-8.71136-1.901-8.76553-2.47822v-.67476a21.34334,21.34334,0,0,0,8.76553,1.67825,21.34236,21.34236,0,0,0,8.76553-1.67825Zm-8.76553-2.45158c-5.87319,0-8.71136-1.901-8.76553-2.477.05417-.57723,2.89234-2.47822,8.76553-2.47822,5.87142,0,8.70959,1.89981,8.76553,2.47763C38.5554,45.06465,35.71723,46.96447,29.84582,46.96447Z"/>
      <path class="cls-1" d="M59.73676,48.83112c-.25724-3.73213-6.26719-5.68389-12.2089-5.68389a26.3046,26.3046,0,0,0-3.86889.28758,5.3536,5.3536,0,0,1,.10568,1.05188V46.897a22.82909,22.82909,0,0,1,3.76321-.29468c5.87142,0,8.70959,1.89981,8.76553,2.47763-.05595.57782-2.89412,2.47763-8.76553,2.47763a22.82909,22.82909,0,0,1-3.76321-.29468v3.48378a26.38741,26.38741,0,0,0,3.76321.27,21.34579,21.34579,0,0,0,8.76553-1.6781v.67461c-.05417.57723-2.89234,2.47822-8.76553,2.47822a22.82909,22.82909,0,0,1-3.76321-.29468v3.07942c0,.13587-.00784.26863-.01732.4008a26.40909,26.40909,0,0,0,3.78053.26952c6.073,0,12.22119-2.03775,12.22119-5.93269V48.83112Z"/>
      <path class="cls-1" d="M53.20716,42.03082V18.09743c0-3.89494-6.14819-5.93269-12.22119-5.93269S28.76478,14.2025,28.76478,18.09743V36.87857c.36114-.01376.722-.02205,1.08119-.02205a22.77727,22.77727,0,0,1,9.60962,1.91728c.50855.02886,1.019.04855,1.53039.04855a21.34285,21.34285,0,0,0,8.76553-1.67825v.62858c-.0518.553-2.66515,2.31527-8.04474,2.46372a6.50751,6.50751,0,0,1,1.32436,1.56872,28.13415,28.13415,0,0,1,4.49673-.35536A27.22553,27.22553,0,0,1,53.20716,42.03082ZM40.986,15.61981c5.87142,0,8.70959,1.89981,8.76553,2.47763-.05595.57782-2.89412,2.47763-8.76553,2.47763-5.87319,0-8.71136-1.901-8.76553-2.477C32.2746,17.5208,35.11277,15.61981,40.986,15.61981Zm-8.76553,7.22582v-.49375A21.34285,21.34285,0,0,0,40.986,24.03012a21.34285,21.34285,0,0,0,8.76553-1.67825v.67476c-.05417.57723-2.89234,2.47822-8.76553,2.47822s-8.71136-1.901-8.76553-2.47822Zm0,4.43886A21.34285,21.34285,0,0,0,40.986,28.96274a21.34285,21.34285,0,0,0,8.76553-1.67825v.67476c-.05417.57723-2.89234,2.47822-8.76553,2.47822s-8.71136-1.901-8.76553-2.47822Zm8.76553,8.0366c-5.87319,0-8.71136-1.901-8.76553-2.47822v-.62858A21.34285,21.34285,0,0,0,40.986,33.89254a21.34285,21.34285,0,0,0,8.76553-1.67825v.62858C49.69733,33.4201,46.85916,35.32109,40.986,35.32109Z"/>
    </g>
  </g>
</svg>
