<svg xmlns="http://www.w3.org/2000/svg" width="77.37367" height="77.37367" viewBox="0 0 77.37367 77.37367">
  <defs>
    <style>
      .cls-1 {
        fill: #FFFFFF;
      }
    </style>
  </defs>
  <title>_</title>
  <g id="Layer_1" data-name="Layer 1">
    <path class="cls-1" d="M46.64723,13.56419c-6.18633-.00039-12.74226,4.818-13.67337,5.5272a.14486.14486,0,0,1-.20337-.02889L29.017,14.29334a.1508.1508,0,0,0-.26515.05829l-5.2066,21.8056a.14751.14751,0,0,0,.14341.18184l22.40218.02566a.14323.14323,0,0,0,.11271-.23175l-3.75422-4.772a.1505.1505,0,0,1,.02786-.21395c.75843-.56911,4.90573-3.54285,8.759-3.54285,2.87354,0,5.5833,1.65291,6.60287,7.19a.15125.15125,0,0,0,.29945-.02953C58.18008,18.002,52.58363,13.56458,46.64723,13.56419Zm7.36208,11.43213a9.48565,9.48565,0,0,0-2.77308-.403c-5.15488,0-10.18674,3.843-10.7436,4.28116l-2.25323,1.7731a.14317.14317,0,0,0-.024.20105L39.99909,33.116a.14257.14257,0,0,1-.1122.23071L27.49748,33.3327a.14408.14408,0,0,1-.13992-.17745L30.2338,21.10952a.15349.15349,0,0,1,.26979-.05945l1.75918,2.229a.1551.1551,0,0,0,.21743.02592l2.24395-1.76137c1.76059-1.38209,7.33461-4.96879,11.92309-4.96853a6.03523,6.03523,0,0,1,4.56063,1.82237c1.06394,1.09321,2.22022,3.02017,2.99915,6.416A.1559.1559,0,0,1,54.00931,24.99632ZM53.685,41.03447,31.28278,41.0088a.14333.14333,0,0,0-.11271.23187l3.75422,4.772a.1505.1505,0,0,1-.02786.21395c-.75843.56911-4.90573,3.54285-8.759,3.54285-2.87367,0-5.58317-1.65291-6.603-7.19a.15117.15117,0,0,0-.29932.02953C19.19359,59.37163,24.79,63.80909,30.72631,63.80948c6.18658.00039,12.74226-4.81816,13.67362-5.5272a.14472.14472,0,0,1,.20324.02889l3.75332,4.769a.15083.15083,0,0,0,.26528-.05816l5.2066-21.8056A.14766.14766,0,0,0,53.685,41.03447Zm-3.669,3.184L47.13987,56.26415a.15349.15349,0,0,1-.26979.05945l-1.7593-2.229a.15507.15507,0,0,0-.21743-.02592l-2.24382,1.76137c-1.76059,1.38209-7.33474,4.96879-11.92309,4.96853a6.03533,6.03533,0,0,1-4.56075-1.82237c-1.06394-1.09321-2.22009-3.02017-2.99915-6.416a.156.156,0,0,1,.19783-.18287,9.48565,9.48565,0,0,0,2.77308.403c5.15476,0,10.18674-3.843,10.7436-4.28116L39.13427,46.726a.14317.14317,0,0,0,.024-.20105l-1.78368-2.26729a.14264.14264,0,0,1,.1122-.23084l12.38942.01419A.144.144,0,0,1,50.016,44.21842Z"/>
  </g>
</svg>
