<svg xmlns="http://www.w3.org/2000/svg" width="77.37367" height="77.37367" viewBox="0 0 77.37367 77.37367">
  <defs>
    <style>
      .cls-1 {
        fill: #FFFFFF;
      }
    </style>
  </defs>
  <title>_</title>
  <g id="Layer_1" data-name="Layer 1">
    <path class="cls-1" d="M33.96972,55.04281,52.58446,38.04229a.30645.30645,0,0,1,.48056.06681L55.277,41.63969a.19927.19927,0,0,0,.37683-.01365l3.69349-6.96654.35347-.66658,3.69372-6.9668c.09723-.18328.00708-.32718-.20031-.31977L55.314,26.9909c-.20736.00754-.54673.01976-.75409.02717l-7.8799.28441c-.20736.00754-.28675.15741-.17659.33329l2.15574,3.44089a.46758.46758,0,0,1-.08.57259L34.01373,45.01845a.30626.30626,0,0,1-.48034-.06707L23.94526,29.41711a.3065.3065,0,0,0-.4806-.06694l-7.40015,6.56462V19.296H13.02968V58.07763H64.344V55.04281Zm-17.9052-9.129,6.1175-5.408a.3061.3061,0,0,1,.48027.06694l8.93133,14.47006H16.06452Z"/>
  </g>
</svg>
