<svg id="Layer_1" data-name="Layer 1" xmlns="http://www.w3.org/2000/svg" width="1428.544" height="377.681" viewBox="0 0 1428.544 377.681">
  <defs>
    <style>
      .cls-1 {
        fill: #003299;
      }

      .cls-2 {
        fill: #fff315;
      }

      .cls-3 {
        fill: #fff;
      }
    </style>
  </defs>
  <title>ECB_Logo_Euro area statistics_486817_update</title>
  <g id="Capa_1" data-name="Capa 1">
    <g id="Ebene_1" data-name="Ebene 1">
      <path class="cls-1" d="M364.882,84.511a170.94,170.94,0,0,0-274.093,0H18.9v215.44H99.872a170.888,170.888,0,0,0,255.927,0H1409.428V84.511Z"/>
      <path class="cls-2" d="M310.533,120.889C292.974,99.383,263.939,84.332,228.1,84.332c-44.81,0-80.656,29.392-91.764,68.1h159.5l-10.753,22.577H131.32c-.363,4.662-.719,8.244-.719,11.828s.356,6.809.719,10.756H274.691l-10.752,22.586h-127.6c12.906,42.28,48.748,68.811,95.342,68.811,32.259,0,60.931-13.977,78.854-35.479v30.467c-17.923,14.33-48.384,27.588-80.642,27.588-57.354,0-105.741-34.764-119-91.387H70.383L81.136,197.6h25.449c-.36-4.664-.36-7.886-.36-11.117,0-3.579,0-6.8.36-11.466h-36.2l10.753-22.577h29.75C124.148,95.8,172.535,61.744,231.677,61.744c34.048,0,69.895,14.344,89.251,37.288Z"/>
    </g>
  </g>
  <g>
    <path class="cls-3" d="M486.812,174.883v-9.2l17.765-19.688-17.312-17.312v-8.939h37.529v9.58H508.273q-1.923,0-8.562-.415l17.124,17.011L498.844,165.68q9.051-.453,10.749-.452h17.464v9.655Z"/>
    <path class="cls-3" d="M557.872,174.883H546.18V129.47H531.206v-9.73h41.641v9.73H557.872Z"/>
    <path class="cls-3" d="M615.091,174.883l-4-13.126h-20.1l-4,13.126h-12.6l19.463-55.37h14.295l19.538,55.37ZM608.3,151.95q-5.544-17.84-6.242-20.18t-1-3.7q-1.245,4.828-7.129,23.875Z"/>
    <path class="cls-3" d="M655.9,174.883H644.209V129.47H629.236v-9.73h41.641v9.73H655.9Z"/>
    <path class="cls-3" d="M679.362,174.883V119.739h11.692v55.144Z"/>
    <path class="cls-3" d="M700.938,174.883v-9.2L718.7,145.991,701.39,128.679v-8.939h37.529v9.58H722.4q-1.923,0-8.562-.415l17.124,17.011L712.97,165.68q9.051-.453,10.749-.452h17.464v9.655Z"/>
    <path class="cls-3" d="M772,174.883H760.306V129.47H745.332v-9.73h41.641v9.73H772Z"/>
    <path class="cls-3" d="M795.459,174.883V119.739h11.692v55.144Z"/>
    <path class="cls-3" d="M865.389,174.883H852.111l-14.445-23.234-4.941,3.546v19.688H821.032V119.739h11.692v25.232l4.6-6.486,14.937-18.746h12.975L846,144.142Z"/>
    <path class="cls-3" d="M906.087,174.883l-4-13.126h-20.1l-4,13.126h-12.6l19.463-55.37h14.295l19.538,55.37ZM899.3,151.95q-5.544-17.84-6.242-20.18t-1-3.7q-1.245,4.828-7.129,23.875Z"/>
    <path class="cls-3" d="M941.694,174.883v-9.2l17.765-19.688-17.312-17.312v-8.939h37.529v9.58H963.154q-1.923,0-8.562-.415l17.124,17.011L953.726,165.68q9.051-.453,10.749-.452h17.464v9.655Z"/>
    <path class="cls-3" d="M1012.754,174.883h-11.692V129.47H986.088v-9.73h41.641v9.73h-14.975Z"/>
    <path class="cls-3" d="M1086.267,147.235q0,13.692-6.789,21.047t-19.463,7.355q-12.674,0-19.463-7.355t-6.789-21.122q0-13.768,6.809-21.028t19.519-7.261q12.71,0,19.444,7.317T1086.267,147.235Zm-40.245,0q0,9.242,3.508,13.918t10.485,4.678q13.994,0,13.993-18.6,0-18.633-13.918-18.633-6.979,0-10.523,4.7T1046.022,147.235Z"/>
    <path class="cls-3" d="M1097.7,174.883V119.739h11.692v55.144Z"/>
    <path class="cls-3" d="M1167.852,174.883H1154.5l-12.824-20.858-12.824,20.858h-12.522l18.293-28.439-17.124-26.7h12.9l11.881,19.84,11.655-19.84h12.6l-17.312,27.346Z"/>
    <path class="cls-3" d="M1206.551,174.883h-31.759V119.739h31.759v9.58h-20.066v12.107h18.671v9.58h-18.671v14.221h20.066Z"/>
    <path class="cls-3" d="M1218.055,174.883V119.739h11.692v55.144Z"/>
    <path class="cls-3" d="M1277.386,174.883l-4-13.126h-20.1l-4,13.126h-12.6l19.463-55.37h14.295l19.538,55.37Zm-6.79-22.933q-5.544-17.84-6.242-20.18t-1-3.7q-1.245,4.828-7.129,23.875Z"/>
    <path class="cls-3" d="M484.322,212.435v9.655H461.163v45.488H449.471V212.435Z"/>
    <path class="cls-3" d="M492.809,267.579V212.435H504.5v55.144Z"/>
    <path class="cls-3" d="M552.14,267.579l-4-13.126h-20.1l-4,13.126h-12.6l19.463-55.37H545.2l19.538,55.37Zm-6.79-22.933q-5.544-17.84-6.242-20.18t-1-3.7q-1.245,4.83-7.129,23.876Z"/>
    <path class="cls-3" d="M613.017,267.579H601.324V222.166H586.351v-9.73h41.641v9.73H613.017Z"/>
    <path class="cls-3" d="M681.664,267.579H670.009v-23.8H648.17v23.8H636.478V212.435H648.17v21.612h21.839V212.435h11.655Z"/>
    <path class="cls-3" d="M751.594,267.579H710.557V260L737,222.091H711.273v-9.655h39.6v7.543l-26.4,37.944h27.119Z"/>
    <path class="cls-3" d="M783.8,221.3q-6.828,0-10.523,4.149t-3.7,11.692q0,7.657,2.489,12.428a17.69,17.69,0,0,0,7.544,7.487v10.523h-24.1v-9.807H769.51a23.676,23.676,0,0,1-8.846-9.562,29.144,29.144,0,0,1-3.111-13.522,22.881,22.881,0,0,1,3.225-12.2,21.064,21.064,0,0,1,9.185-8.091,31.946,31.946,0,0,1,13.843-2.829q12.031,0,19.142,6.3t7.11,16.9a28.435,28.435,0,0,1-3.131,13.428,24.524,24.524,0,0,1-8.977,9.58h14.106v9.807H787.8V257.056a17.364,17.364,0,0,0,7.732-7.581q2.489-4.866,2.489-12.409,0-7.506-3.716-11.637T783.8,221.3Z"/>
    <path class="cls-3" d="M870.028,267.579h-14.86l-23.989-41.717h-.339q.715,11.052.716,15.767v25.95H821.109V212.435h14.747l23.951,41.3h.265q-.567-10.749-.566-15.2v-26.1h10.523Z"/>
    <path class="cls-3" d="M929.1,267.579H917.441v-23.8H895.6v23.8H883.909V212.435H895.6v21.612h21.839V212.435H929.1Z"/>
    <path class="cls-3" d="M984.353,267.579H972.66V222.166H957.687v-9.73h41.641v9.73H984.353Z"/>
    <path class="cls-3" d="M1057.865,239.932q0,13.692-6.789,21.047t-19.463,7.354q-12.674,0-19.463-7.354t-6.789-21.122q0-13.767,6.809-21.028t19.519-7.261q12.71,0,19.444,7.317T1057.865,239.932Zm-40.245,0q0,9.242,3.508,13.918t10.485,4.677q13.994,0,13.993-18.595,0-18.633-13.918-18.633-6.979,0-10.523,4.7T1017.62,239.932Z"/>
    <path class="cls-3" d="M1086.455,235.142l11.5-22.706h12.6l-18.294,33.682v21.462h-11.617V246.494l-18.293-34.059h12.673Z"/>
    <path class="cls-3" d="M1169.323,267.579h-31.759V212.435h31.759v9.58h-20.066v12.107h18.671v9.58h-18.671v14.22h20.066Z"/>
    <path class="cls-3" d="M1197.988,235.142l11.5-22.706h12.6L1203.8,246.117v21.462H1192.18V246.494l-18.293-34.059h12.673Z"/>
    <path class="cls-3" d="M1267.126,229.635q0,8.9-5.563,13.616t-15.822,4.715h-5.017v19.613h-11.692V212.435h17.614q10.033,0,15.257,4.318T1267.126,229.635Zm-26.4,8.75h3.848q5.392,0,8.071-2.131a7.456,7.456,0,0,0,2.678-6.2q0-4.112-2.244-6.073t-7.034-1.961h-5.318Z"/>
    <path class="cls-3" d="M1300.96,221.3q-6.828,0-10.523,4.149t-3.7,11.692q0,7.657,2.489,12.428a17.69,17.69,0,0,0,7.544,7.487v10.523h-24.1v-9.807h13.994a23.676,23.676,0,0,1-8.846-9.562,29.144,29.144,0,0,1-3.111-13.522,22.881,22.881,0,0,1,3.225-12.2,21.064,21.064,0,0,1,9.185-8.091,31.946,31.946,0,0,1,13.843-2.829q12.031,0,19.142,6.3t7.11,16.9a28.435,28.435,0,0,1-3.131,13.428,24.524,24.524,0,0,1-8.977,9.58h14.106v9.807h-24.253V257.056a17.364,17.364,0,0,0,7.732-7.581q2.489-4.866,2.489-12.409,0-7.506-3.716-11.637T1300.96,221.3Z"/>
  </g>
</svg>
