<svg id="Layer_1" data-name="Layer 1" xmlns="http://www.w3.org/2000/svg" width="1518.29966" height="377.68065" viewBox="0 0 1518.29966 377.68065">
  <defs>
    <style>
      .cls-1 {
        fill: #003299;
      }

      .cls-2 {
        fill: #fff315;
      }

      .cls-3 {
        fill: #fff;
      }
    </style>
  </defs>
  <title>ECB_Logo_Euro area statistics_486817</title>
  <g id="Capa_1" data-name="Capa 1">
    <g id="Ebene_1" data-name="Ebene 1">
      <path class="cls-1" d="M364.88208,84.51082a170.93978,170.93978,0,0,0-274.093,0h-71.888v215.44h80.971a170.888,170.888,0,0,0,255.927,0h1139.102v-215.44Z"/>
      <path class="cls-2" d="M310.53308,120.88882c-17.559-21.506-46.594-36.557-82.432-36.557-44.81,0-80.656,29.392-91.764,68.104h159.505l-10.753,22.577h-153.769c-.363,4.662-.719,8.244-.719,11.828,0,3.587.356,6.809.719,10.756h143.371l-10.752,22.586h-127.603c12.906,42.28,48.748,68.811,95.342,68.811,32.259,0,60.931-13.977,78.854-35.479v30.467c-17.923,14.33-48.384,27.588-80.642,27.588-57.354,0-105.741-34.764-119.002-91.387h-40.505l10.753-22.586h25.449c-.36-4.664-.36-7.886-.36-11.117,0-3.579,0-6.805.36-11.466h-36.202l10.753-22.577h29.75c13.262-56.641,61.649-90.693,120.791-90.693,34.048,0,69.895,14.344,89.251,37.288Z"/>
    </g>
  </g>
  <g>
    <path class="cls-3" d="M753.75248,158.25548a14.25587,14.25587,0,0,1-5.375,11.76807q-5.37451,4.3-14.95508,4.2998a35.1164,35.1164,0,0,1-15.61523-3.31934V160.14123a64.25215,64.25215,0,0,0,9.44824,3.50781,27.94405,27.94405,0,0,0,7.07227,1.01855A10.05146,10.05146,0,0,0,740.23,163.1964a5.03123,5.03123,0,0,0,2.05566-4.37549,4.83163,4.83163,0,0,0-.90527-2.88525,10.11715,10.11715,0,0,0-2.65918-2.43262,68.49907,68.49907,0,0,0-7.14746-3.73437,33.829,33.829,0,0,1-7.58105-4.564,17.11182,17.11182,0,0,1-4.03613-5.0918,14.52934,14.52934,0,0,1-1.50879-6.78906q0-7.31763,4.96-11.50439,4.96-4.18652,13.71094-4.18652a32.36167,32.36167,0,0,1,8.20313,1.01855,56.45853,56.45853,0,0,1,8.166,2.86621l-3.77148,9.09033a55.233,55.233,0,0,0-7.29883-2.52734,23.51826,23.51826,0,0,0-5.67578-.71631,7.518,7.518,0,0,0-5.09277,1.54639,5.10138,5.10138,0,0,0-1.77246,4.03564,4.995,4.995,0,0,0,.7168,2.69678,7.8672,7.8672,0,0,0,2.28223,2.22559,70.45506,70.45506,0,0,0,7.41113,3.86621q7.73145,3.69653,10.59863,7.41162A14.46541,14.46541,0,0,1,753.75248,158.25548Z"/>
    <path class="cls-3" d="M785.02006,173.569H773.32767v-45.4126H758.354v-9.73145h41.64063v9.73145H785.02006Z"/>
    <path class="cls-3" d="M842.23881,173.569l-3.998-13.126H818.13627l-3.998,13.126H801.54056l19.46289-55.37012h14.29492L854.83646,173.569Zm-6.79-22.93262q-5.54443-17.84033-6.24219-20.1792-.69727-2.33862-.999-3.69629-1.24512,4.82812-7.12891,23.87549Z"/>
    <path class="cls-3" d="M883.04935,173.569H871.357v-45.4126H856.38334v-9.73145H898.024v9.73145H883.04935Z"/>
    <path class="cls-3" d="M906.51029,173.569v-55.144h11.69238v55.144Z"/>
    <path class="cls-3" d="M964.63431,158.25548a14.25587,14.25587,0,0,1-5.375,11.76807q-5.37451,4.3-14.95508,4.2998A35.1164,35.1164,0,0,1,928.689,171.004V160.14123a64.25214,64.25214,0,0,0,9.44824,3.50781,27.94405,27.94405,0,0,0,7.07227,1.01855,10.05146,10.05146,0,0,0,5.90234-1.47119,5.03123,5.03123,0,0,0,2.05566-4.37549,4.83163,4.83163,0,0,0-.90527-2.88525,10.11715,10.11715,0,0,0-2.65918-2.43262,68.49906,68.49906,0,0,0-7.14746-3.73437,33.829,33.829,0,0,1-7.58105-4.564,17.11182,17.11182,0,0,1-4.03613-5.0918,14.52934,14.52934,0,0,1-1.50879-6.78906q0-7.31763,4.96-11.50439,4.96-4.18652,13.71094-4.18652a32.36167,32.36167,0,0,1,8.20313,1.01855,56.45852,56.45852,0,0,1,8.166,2.86621l-3.77148,9.09033a55.233,55.233,0,0,0-7.29883-2.52734,23.51826,23.51826,0,0,0-5.67578-.71631,7.518,7.518,0,0,0-5.09277,1.54639,5.10138,5.10138,0,0,0-1.77246,4.03564,4.995,4.995,0,0,0,.7168,2.69678,7.8672,7.8672,0,0,0,2.28223,2.22559,70.455,70.455,0,0,0,7.41113,3.86621q7.73145,3.69653,10.59863,7.41162A14.46541,14.46541,0,0,1,964.63431,158.25548Z"/>
    <path class="cls-3" d="M995.90189,173.569H984.20951v-45.4126H969.23588v-9.73145h41.64062v9.73145H995.90189Z"/>
    <path class="cls-3" d="M1019.36283,173.569v-55.144h11.69238v55.144Z"/>
    <path class="cls-3" d="M1089.29252,173.569h-13.27734l-14.44531-23.23437-4.94141,3.54541v19.689h-11.69238v-55.144h11.69238v25.2334l4.60156-6.4873,14.93652-18.74609h12.97461l-19.23633,24.40381Z"/>
    <path class="cls-3" d="M533.79935,266.26525H522.29545V211.1217h31.60742v9.58008H533.79935V234.9215h18.708v9.543h-18.708Z"/>
    <path class="cls-3" d="M614.74271,238.61779q0,13.69189-6.78906,21.04688-6.78955,7.355-19.46289,7.35449-12.67383,0-19.46289-7.35449-6.78809-7.355-6.78906-21.12207,0-13.7666,6.80859-21.02832,6.80713-7.25977,19.51855-7.26074,12.71045,0,19.44434,7.31738Q614.74271,224.88927,614.74271,238.61779Zm-40.24512,0q0,9.2417,3.50781,13.918,3.50684,4.67725,10.48535,4.67676,13.99365,0,13.99316-18.59473,0-18.63281-13.918-18.63281-6.97852,0-10.52344,4.69629Q574.49759,229.37609,574.49759,238.61779Z"/>
    <path class="cls-3" d="M637.8638,245.10509v21.16016H626.17142V211.1217H642.2388q11.23975,0,16.63379,4.0918,5.39355,4.09277,5.39355,12.42871a14.63336,14.63336,0,0,1-2.67773,8.65625,17.727,17.727,0,0,1-7.58105,5.94043q12.44678,18.59473,16.21875,24.02637H657.25052l-13.16309-21.16016Zm0-9.50488h3.77148q5.54443,0,8.18555-1.84766,2.63965-1.84863,2.63965-5.80859,0-3.92285-2.69629-5.583-2.69824-1.6582-8.35449-1.65918h-3.5459Z"/>
    <path class="cls-3" d="M728.99173,266.26525H697.23295V211.1217h31.75879v9.58008H708.92533V232.8092h18.6709v9.58008h-18.6709V256.609h20.06641Z"/>
    <path class="cls-3" d="M785.38041,211.1217v35.68066a20.56619,20.56619,0,0,1-2.73535,10.71191,17.79867,17.79867,0,0,1-7.90137,7.05371,28.25943,28.25943,0,0,1-12.2207,2.45117q-10.63623,0-16.52051-5.4502-5.88428-5.44922-5.88477-14.917V211.1217H751.773v33.75781q0,6.37354,2.56543,9.35352,2.56348,2.97949,8.48633,2.97949,5.73193,0,8.31641-2.998,2.584-2.99854,2.584-9.41113V211.1217Z"/>
    <path class="cls-3" d="M810.57572,245.10509v21.16016H798.88334V211.1217h16.06738q11.23975,0,16.63379,4.0918,5.39355,4.09277,5.39355,12.42871a14.63336,14.63336,0,0,1-2.67773,8.65625,17.727,17.727,0,0,1-7.58105,5.94043q12.44678,18.59473,16.21875,24.02637H829.96244l-13.16309-21.16016Zm0-9.50488h3.77148q5.54443,0,8.18555-1.84766,2.63965-1.84863,2.63965-5.80859,0-3.92285-2.69629-5.583-2.69824-1.6582-8.35449-1.65918h-3.5459Z"/>
    <path class="cls-3" d="M899.93021,238.61779q0,13.69189-6.78906,21.04688-6.78955,7.355-19.46289,7.35449-12.67383,0-19.46289-7.35449-6.78809-7.355-6.78906-21.12207,0-13.7666,6.80859-21.02832,6.80713-7.25977,19.51855-7.26074,12.71045,0,19.44434,7.31738Q899.93021,224.88927,899.93021,238.61779Zm-40.24512,0q0,9.2417,3.50781,13.918,3.50684,4.67725,10.48535,4.67676,13.99365,0,13.99316-18.59473,0-18.63281-13.918-18.63281-6.97852,0-10.52344,4.69629Q859.68509,229.37609,859.68509,238.61779Z"/>
    <path class="cls-3" d="M961.41068,238.61779q0,13.69189-6.78906,21.04688-6.78955,7.355-19.46289,7.35449-12.67383,0-19.46289-7.35449-6.78809-7.355-6.78906-21.12207,0-13.7666,6.80859-21.02832,6.80713-7.25977,19.51855-7.26074,12.71045,0,19.44434,7.31738Q961.41068,224.88927,961.41068,238.61779Zm-40.24512,0q0,9.2417,3.50781,13.918,3.50684,4.67725,10.48535,4.67676,13.99365,0,13.99316-18.59473,0-18.63281-13.918-18.63281-6.97852,0-10.52344,4.69629Q921.16556,229.37609,921.16556,238.61779Z"/>
    <path class="cls-3" d="M996.187,266.26525l-13.27734-43.2627h-.33887q.71484,13.20117.71582,17.61426v25.64844H972.83939V211.1217h15.917l13.05078,42.16895h.22559l13.84277-42.16895h15.917v55.14355h-10.90039V240.16466q0-1.84863.05664-4.2627.05713-2.4126.50879-12.82422h-.33887l-14.21973,43.1875Z"/>
    <path class="cls-3" d="M1057.36576,245.10509v21.16016h-11.69238V211.1217h16.06738q11.23975,0,16.63379,4.0918,5.39355,4.09277,5.39356,12.42871a14.63335,14.63335,0,0,1-2.67773,8.65625,17.727,17.727,0,0,1-7.58105,5.94043q12.44678,18.59473,16.21875,24.02637h-12.97559l-13.16309-21.16016Zm0-9.50488h3.77148q5.54444,0,8.18555-1.84766,2.63965-1.84863,2.63965-5.80859,0-3.92285-2.69629-5.583-2.69824-1.6582-8.35449-1.65918h-3.5459Z"/>
    <path class="cls-3" d="M1130.42631,266.26525l-3.998-13.126h-20.10449l-3.998,13.126h-12.59766l19.46289-55.37012h14.29492l19.53809,55.37012Zm-4.52637-59.10449a8.54106,8.54106,0,0,1-2.67773,6.56348,9.73924,9.73924,0,0,1-6.90234,2.48926,9.50244,9.50244,0,0,1-6.79-2.41406,9.63353,9.63353,0,0,1-.01856-13.06934,9.442,9.442,0,0,1,6.80859-2.43262,9.76485,9.76485,0,0,1,6.86426,2.48926A8.25954,8.25954,0,0,1,1125.89994,207.16076Zm-2.26367,36.17188q-5.54443-17.84033-6.24219-20.17969-.69726-2.33789-.999-3.69629-1.24512,4.82959-7.12891,23.876ZM1119.94,207.236a3.48319,3.48319,0,0,0-1.01758-2.65918,4.00165,4.00165,0,0,0-5.20508,0,3.48022,3.48022,0,0,0-1.01856,2.65918,3.79744,3.79744,0,0,0,.90527,2.67871,3.52,3.52,0,0,0,2.71582.98047,3.6017,3.6017,0,0,0,2.60254-.98047A3.54573,3.54573,0,0,0,1119.94,207.236Z"/>
    <path class="cls-3" d="M1195.71634,238.16564q0,13.61572-7.751,20.85742-7.752,7.24219-22.38574,7.24219h-15.61523V211.1217h17.3125q13.50293,0,20.97168,7.12793Q1195.71634,225.379,1195.71634,238.16564Zm-12.14551.30176q0-17.76562-15.69043-17.76562h-6.22363V256.609h5.0166Q1183.57035,256.609,1183.57084,238.4674Z"/>
    <path class="cls-3" d="M1238.90384,266.26525h-31.75879V211.1217h31.75879v9.58008h-20.06641V232.8092h18.6709v9.58008h-18.6709V256.609h20.06641Z"/>
    <path class="cls-3" d="M1271.68021,266.26525h-11.69238V220.85216H1245.0142V211.1217h41.64063v9.73047h-14.97461Z"/>
  </g>
</svg>
