<svg id="Layer_1" data-name="Layer 1" xmlns="http://www.w3.org/2000/svg" width="1428.544" height="377.68065" viewBox="0 0 1428.544 377.68065">
  <defs>
    <style>
      .cls-1 {
        fill: #003299;
      }

      .cls-2 {
        fill: #fff315;
      }

      .cls-3 {
        fill: #fff;
      }
    </style>
  </defs>
  <title>ECB_Logo_Euro area statistics_486817</title>
  <g id="Capa_1" data-name="Capa 1">
    <g id="Ebene_1" data-name="Ebene 1">
      <path class="cls-1" d="M364.88208,84.51082a170.93978,170.93978,0,0,0-274.093,0h-71.888v215.44h80.971a170.888,170.888,0,0,0,255.927,0h1053.6294v-215.44Z"/>
      <path class="cls-2" d="M310.53308,120.88882c-17.559-21.506-46.594-36.557-82.432-36.557-44.81,0-80.656,29.392-91.764,68.104h159.505l-10.753,22.577h-153.769c-.363,4.662-.719,8.244-.719,11.828,0,3.587.356,6.809.719,10.756h143.371l-10.752,22.586h-127.603c12.906,42.28,48.748,68.811,95.342,68.811,32.259,0,60.931-13.977,78.854-35.479v30.467c-17.923,14.33-48.384,27.588-80.642,27.588-57.354,0-105.741-34.764-119.002-91.387h-40.505l10.753-22.586h25.449c-.36-4.664-.36-7.886-.36-11.117,0-3.579,0-6.805.36-11.466h-36.202l10.753-22.577h29.75c13.262-56.641,61.649-90.693,120.791-90.693,34.048,0,69.895,14.344,89.251,37.288Z"/>
    </g>
  </g>
  <g>
    <path class="cls-3" d="M443.43659,224.56445H411.6778V169.41992h31.75879V179.001H423.37019V191.1084h18.6709v9.58008h-18.6709V214.9082h20.06641Z"/>
    <path class="cls-3" d="M499.82527,169.41992v35.68164a20.56866,20.56866,0,0,1-2.73535,10.71191,17.79867,17.79867,0,0,1-7.90137,7.05371,28.25943,28.25943,0,0,1-12.2207,2.45117q-10.63623,0-16.52051-5.4502-5.88428-5.44922-5.88477-14.917V169.41992h11.65527v33.75781q0,6.375,2.56543,9.35449,2.56348,2.97949,8.48633,2.97949,5.73193,0,8.31641-2.998,2.584-2.99854,2.584-9.41113V169.41992Z"/>
    <path class="cls-3" d="M525.02058,203.40429v21.16016H513.3282V169.41992h16.06738q11.23975,0,16.63379,4.09277,5.39355,4.09277,5.39355,12.42773a14.62912,14.62912,0,0,1-2.67773,8.65625,17.72154,17.72154,0,0,1-7.58105,5.94141q12.44678,18.59473,16.21875,24.02637H544.4073l-13.16309-21.16016Zm0-9.50488h3.77148q5.54443,0,8.18555-1.84863,2.63965-1.84717,2.63965-5.80859,0-3.92139-2.69629-5.582-2.69824-1.65967-8.35449-1.65918h-3.5459Z"/>
    <path class="cls-3" d="M614.37507,196.917q0,13.69189-6.78906,21.04688-6.78955,7.355-19.46289,7.35449-12.67383,0-19.46289-7.35449-6.78809-7.355-6.78906-21.12207,0-13.76807,6.80859-21.02832,6.80713-7.26123,19.51855-7.26074,12.71045,0,19.44434,7.31738Q614.37507,183.18847,614.37507,196.917Zm-40.24512,0q0,9.2417,3.50781,13.918,3.50684,4.67725,10.48535,4.67676,13.99365,0,13.99316-18.59473,0-18.63281-13.918-18.63281-6.97852,0-10.52344,4.69531Q574.13,187.67578,574.13,196.917Z"/>
    <path class="cls-3" d="M681.8155,224.56445H640.77839v-7.582l26.44043-37.90625H641.49421v-9.65625H681.0987v7.54395L654.69636,214.9082H681.8155Z"/>
    <path class="cls-3" d="M740.65534,196.917q0,13.69189-6.78906,21.04688-6.78955,7.355-19.46289,7.35449-12.67383,0-19.46289-7.35449-6.78809-7.355-6.78906-21.12207,0-13.76807,6.80859-21.02832,6.80713-7.26123,19.51855-7.26074,12.71045,0,19.44434,7.31738Q740.65534,183.18847,740.65534,196.917Zm-40.24512,0q0,9.2417,3.50781,13.918,3.50684,4.67725,10.48535,4.67676,13.99365,0,13.99316-18.59473,0-18.63281-13.918-18.63281-6.97852,0-10.52344,4.69531Q700.41023,187.67578,700.41023,196.917Z"/>
    <path class="cls-3" d="M801.004,224.56445H786.14363l-23.98926-41.7168h-.33887q.71484,11.05225.71582,15.7666v25.9502H752.08405V169.41992h14.74707l23.95117,41.30176h.26465q-.56689-10.75049-.56641-15.2002V169.41992H801.004Z"/>
    <path class="cls-3" d="M864.93659,196.917q0,13.69189-6.78906,21.04688-6.78955,7.355-19.46289,7.35449-12.67383,0-19.46289-7.35449-6.78809-7.355-6.78906-21.12207,0-13.76807,6.80859-21.02832,6.80713-7.26123,19.51855-7.26074,12.71045,0,19.44434,7.31738Q864.93659,183.18847,864.93659,196.917Zm-40.24512,0q0,9.2417,3.50781,13.918,3.50684,4.67725,10.48535,4.67676,13.99365,0,13.99316-18.59473,0-18.63281-13.918-18.63281-6.97852,0-10.52344,4.69531Q824.69148,187.67578,824.69148,196.917Z"/>
    <path class="cls-3" d="M908.91609,209.251a14.25429,14.25429,0,0,1-5.375,11.76758q-5.37451,4.30078-14.95508,4.2998a35.1164,35.1164,0,0,1-15.61523-3.31934v-10.8623a64.30854,64.30854,0,0,0,9.44824,3.50781,27.96607,27.96607,0,0,0,7.07227,1.01855,10.04769,10.04769,0,0,0,5.90234-1.47168,5.03092,5.03092,0,0,0,2.05566-4.375,4.832,4.832,0,0,0-.90527-2.88574,10.12541,10.12541,0,0,0-2.65918-2.43262,68.59757,68.59757,0,0,0-7.14746-3.73437,33.83019,33.83019,0,0,1-7.58105-4.56348,17.11182,17.11182,0,0,1-4.03613-5.0918,14.53073,14.53073,0,0,1-1.50879-6.78906q0-7.31836,4.96-11.50488t13.71094-4.18652a32.38369,32.38369,0,0,1,8.20313,1.01855,56.45852,56.45852,0,0,1,8.166,2.86621L904.88,181.60351a55.16138,55.16138,0,0,0-7.29883-2.52734,23.495,23.495,0,0,0-5.67578-.7168,7.51552,7.51552,0,0,0-5.09277,1.54688,5.10107,5.10107,0,0,0-1.77246,4.03516,4.99673,4.99673,0,0,0,.7168,2.69727,7.86721,7.86721,0,0,0,2.28223,2.22559,70.55388,70.55388,0,0,0,7.41113,3.86621q7.73145,3.6958,10.59863,7.41113A14.46779,14.46779,0,0,1,908.91609,209.251Z"/>
    <path class="cls-3" d="M971.52839,209.251a14.25429,14.25429,0,0,1-5.375,11.76758q-5.37451,4.30078-14.95508,4.2998a35.1164,35.1164,0,0,1-15.61523-3.31934v-10.8623a64.30854,64.30854,0,0,0,9.44824,3.50781,27.96607,27.96607,0,0,0,7.07227,1.01855,10.04769,10.04769,0,0,0,5.90234-1.47168,5.03092,5.03092,0,0,0,2.05566-4.375,4.832,4.832,0,0,0-.90527-2.88574,10.12541,10.12541,0,0,0-2.65918-2.43262,68.59757,68.59757,0,0,0-7.14746-3.73437,33.83019,33.83019,0,0,1-7.58105-4.56348,17.11182,17.11182,0,0,1-4.03613-5.0918,14.53073,14.53073,0,0,1-1.50879-6.78906q0-7.31836,4.96-11.50488t13.71094-4.18652a32.38369,32.38369,0,0,1,8.20313,1.01855,56.45852,56.45852,0,0,1,8.166,2.86621l-3.77148,9.09082a55.16138,55.16138,0,0,0-7.29883-2.52734,23.495,23.495,0,0,0-5.67578-.7168,7.51552,7.51552,0,0,0-5.09277,1.54688,5.10107,5.10107,0,0,0-1.77246,4.03516,4.99673,4.99673,0,0,0,.7168,2.69727,7.86721,7.86721,0,0,0,2.28223,2.22559,70.55387,70.55387,0,0,0,7.41113,3.86621q7.73145,3.6958,10.59863,7.41113A14.46779,14.46779,0,0,1,971.52839,209.251Z"/>
    <path class="cls-3" d="M1002.796,224.56445H991.10359V179.15136H976.13v-9.73145h41.64062v9.73145H1002.796Z"/>
    <path class="cls-3" d="M1060.01472,224.56445l-3.998-13.126h-20.10449l-3.998,13.126h-12.59766l19.46289-55.37012h14.29492l19.53809,55.37012Zm-6.79-22.93262q-5.54443-17.84033-6.24219-20.17969-.69727-2.33789-.999-3.69629-1.24512,4.82813-7.12891,23.876Z"/>
    <path class="cls-3" d="M1100.82527,224.56445h-11.69238V179.15136h-14.97363v-9.73145h41.64063v9.73145h-14.97461Z"/>
    <path class="cls-3" d="M1124.2862,224.56445V169.41992h11.69238v55.14453Z"/>
    <path class="cls-3" d="M1182.41023,209.251a14.25429,14.25429,0,0,1-5.375,11.76758q-5.37451,4.30078-14.95508,4.2998a35.1164,35.1164,0,0,1-15.61523-3.31934v-10.8623a64.30854,64.30854,0,0,0,9.44824,3.50781,27.96608,27.96608,0,0,0,7.07227,1.01855,10.04769,10.04769,0,0,0,5.90234-1.47168,5.03092,5.03092,0,0,0,2.05566-4.375,4.832,4.832,0,0,0-.90527-2.88574,10.12542,10.12542,0,0,0-2.65918-2.43262,68.59767,68.59767,0,0,0-7.14746-3.73437,33.83017,33.83017,0,0,1-7.58106-4.56348,17.11181,17.11181,0,0,1-4.03613-5.0918,14.53074,14.53074,0,0,1-1.50879-6.78906q0-7.31836,4.96-11.50488t13.71094-4.18652a32.38369,32.38369,0,0,1,8.20313,1.01855,56.45849,56.45849,0,0,1,8.166,2.86621l-3.77148,9.09082a55.1614,55.1614,0,0,0-7.29883-2.52734,23.495,23.495,0,0,0-5.67578-.7168,7.51552,7.51552,0,0,0-5.09277,1.54688,5.10107,5.10107,0,0,0-1.77246,4.03516,4.99673,4.99673,0,0,0,.7168,2.69727,7.8672,7.8672,0,0,0,2.28223,2.22559,70.5539,70.5539,0,0,0,7.41113,3.86621q7.73145,3.6958,10.59863,7.41113A14.46779,14.46779,0,0,1,1182.41023,209.251Z"/>
    <path class="cls-3" d="M1213.67781,224.56445h-11.69238V179.15136h-14.97363v-9.73145h41.64063v9.73145h-14.97461Z"/>
    <path class="cls-3" d="M1237.13874,224.56445V169.41992h11.69238v55.14453Z"/>
    <path class="cls-3" d="M1307.06843,224.56445h-13.27734l-14.44531-23.23437-4.94141,3.54492v19.68945H1262.712V169.41992h11.69238v25.2334l4.60156-6.4873,14.93652-18.74609h12.97461l-19.23633,24.4043Z"/>
    <path class="cls-3" d="M1347.76667,224.56445l-3.998-13.126h-20.10449l-3.998,13.126h-12.59766l19.46289-55.37012h14.29492l19.53809,55.37012Zm-6.79-22.93262q-5.54443-17.84033-6.24219-20.17969-.69726-2.33789-.999-3.69629-1.24512,4.82813-7.12891,23.876Z"/>
  </g>
</svg>
