<svg id="Layer_1" data-name="Layer 1" xmlns="http://www.w3.org/2000/svg" width="1518.29966" height="377.68065" viewBox="0 0 1518.29966 377.68065">
  <defs>
    <style>
      .cls-1 {
        fill: #003299;
      }

      .cls-2 {
        fill: #fff315;
      }

      .cls-3 {
        fill: #fff;
      }
    </style>
  </defs>
  <title>ECB_Logo_Euro area statistics_486817</title>
  <g id="Capa_1" data-name="Capa 1">
    <g id="Ebene_1" data-name="Ebene 1">
      <path class="cls-1" d="M364.88208,84.51082a170.93978,170.93978,0,0,0-274.093,0h-71.888v215.44h80.971a170.888,170.888,0,0,0,255.927,0h1139.102v-215.44Z"/>
      <path class="cls-2" d="M310.53308,120.88882c-17.559-21.506-46.594-36.557-82.432-36.557-44.81,0-80.656,29.392-91.764,68.104h159.505l-10.753,22.577h-153.769c-.363,4.662-.719,8.244-.719,11.828,0,3.587.356,6.809.719,10.756h143.371l-10.752,22.586h-127.603c12.906,42.28,48.748,68.811,95.342,68.811,32.259,0,60.931-13.977,78.854-35.479v30.467c-17.923,14.33-48.384,27.588-80.642,27.588-57.354,0-105.741-34.764-119.002-91.387h-40.505l10.753-22.586h25.449c-.36-4.664-.36-7.886-.36-11.117,0-3.579,0-6.805.36-11.466h-36.202l10.753-22.577h29.75c13.262-56.641,61.649-90.693,120.791-90.693,34.048,0,69.895,14.344,89.251,37.288Z"/>
    </g>
  </g>
  <g>
    <path class="cls-3" d="M611.434,124.49572a11.91454,11.91454,0,0,0-10.22168,4.96q-3.62109,4.96-3.62109,13.82373,0,18.44385,13.84277,18.44385a43.7479,43.7479,0,0,0,14.06836-2.9043v9.80664a39.05977,39.05977,0,0,1-15.16211,2.8291q-12.03223,0-18.40625-7.29834-6.375-7.29858-6.375-20.95264a34.20333,34.20333,0,0,1,3.13086-15.06836,22.61989,22.61989,0,0,1,8.99609-9.91992,26.60782,26.60782,0,0,1,13.748-3.45117,37.12016,37.12016,0,0,1,16.14355,3.88477l-3.77246,9.50537a62.41177,62.41177,0,0,0-6.22363-2.56494A18.56676,18.56676,0,0,0,611.434,124.49572Z"/>
    <path class="cls-3" d="M658.50628,170.70031H646.81389v-45.4126H631.84026v-9.73145h41.64063v9.73145H658.50628Z"/>
    <path class="cls-3" d="M715.725,170.70031l-3.998-13.126H691.62249l-3.998,13.126H675.02678l19.46289-55.37012H708.7846l19.53809,55.37012Zm-6.79-22.93262q-5.54443-17.84033-6.24219-20.1792-.69727-2.33862-.999-3.69629-1.24512,4.82813-7.12891,23.87549Z"/>
    <path class="cls-3" d="M756.53557,170.70031H744.84319v-45.4126H729.86956v-9.73145h41.64063v9.73145H756.53557Z"/>
    <path class="cls-3" d="M779.99651,115.55627h10.52344v26.62891l-.15137,7.12891-.377,8.10938h.22656l25.459-41.86719h13.99414v55.144H819.26116v-26.478q0-5.31885.67871-15.7666h-.30176l-25.57324,42.24463H779.99651Z"/>
    <path class="cls-3" d="M867.01214,124.49572a11.91454,11.91454,0,0,0-10.22168,4.96q-3.62109,4.96-3.62109,13.82373,0,18.44385,13.84277,18.44385a43.7479,43.7479,0,0,0,14.06836-2.9043v9.80664a39.05977,39.05977,0,0,1-15.16211,2.8291q-12.03223,0-18.40625-7.29834-6.375-7.29858-6.375-20.95264a34.20333,34.20333,0,0,1,3.13086-15.06836,22.61989,22.61989,0,0,1,8.99609-9.91992,26.60782,26.60782,0,0,1,13.748-3.45117,37.12016,37.12016,0,0,1,16.14355,3.88477l-3.77246,9.50537a62.41177,62.41177,0,0,0-6.22363-2.56494A18.56676,18.56676,0,0,0,867.01214,124.49572Z"/>
    <path class="cls-3" d="M914.0844,170.70031H902.392v-45.4126H887.41839v-9.73145H929.059v9.73145H914.0844Z"/>
    <path class="cls-3" d="M937.54534,115.55627h10.52344v26.62891l-.15137,7.12891-.377,8.10938h.22656l25.459-41.86719h13.99414v55.144H976.81v-26.478q0-5.31885.67871-15.7666h-.30176L951.6137,170.70031H937.54534Z"/>
    <path class="cls-3" d="M1046.09807,170.70031h-13.27734l-19.99023-27.94922v27.94922h-11.69238v-55.144h11.69238v26.70459l19.76465-26.70459h12.44629l-20.10352,26.478Z"/>
    <path class="cls-3" d="M1086.79632,170.70031l-3.998-13.126h-20.10449l-3.998,13.126h-12.59766l19.46289-55.37012h14.29492l19.53809,55.37012Zm-6.79-22.93262q-5.54443-17.84033-6.24219-20.1792-.69726-2.33862-.999-3.69629-1.24512,4.82813-7.12891,23.87549Z"/>
    <path class="cls-3" d="M1171.58733,170.70031h-11.65527V146.9h-21.83887v23.80029h-11.69238v-55.144h11.69238v21.61279h21.83887V115.55627h11.65527Z"/>
    <path class="cls-3" d="M1219.26311,170.70031l-3.998-13.126h-20.10449l-3.998,13.126h-12.59766l19.46289-55.37012h14.29492l19.53809,55.37012Zm-6.79-22.93262q-5.54443-17.84033-6.24219-20.1792-.69726-2.33862-.999-3.69629-1.24512,4.82813-7.12891,23.87549Z"/>
    <path class="cls-3" d="M681.60882,263.39611H649.85V208.25255h31.75879v9.58008H661.54241v12.10742h18.6709v9.58008h-18.6709v14.21973h20.06641Z"/>
    <path class="cls-3" d="M693.11272,208.25255h17.16113q11.73047,0,17.03027,3.33789,5.29834,3.33691,5.29883,10.61719a13.374,13.374,0,0,1-2.31934,8.10938,9.26094,9.26094,0,0,1-6.167,3.80957v.377q5.24268,1.17041,7.5625,4.376a14.23153,14.23153,0,0,1,2.32031,8.52441q0,7.54395-5.45117,11.76758-5.45068,4.22461-14.80371,4.22461H693.11272Zm11.69238,21.83789h6.78906q4.75342,0,6.88379-1.4707,2.12988-1.4707,2.13086-4.86523a4.86955,4.86955,0,0,0-2.31934-4.54492q-2.32031-1.377-7.33594-1.377H704.8051Zm0,9.2793v14.37012h7.61914q4.82813,0,7.12891-1.84766,2.2998-1.84717,2.30078-5.6582,0-6.86426-9.80664-6.86426Z"/>
    <path class="cls-3" d="M783.10784,225.45177q0,8.90186-5.56348,13.61621-5.56348,4.71533-15.82227,4.71484h-5.0166v19.61328H745.01311V208.25255h17.61426q10.03271,0,15.25684,4.31836Q783.10784,216.89074,783.10784,225.45177Zm-26.40234,8.75h3.84766q5.39209,0,8.07129-2.13086a7.45642,7.45642,0,0,0,2.67773-6.2041q0-4.11182-2.24414-6.07324-2.24414-1.96-7.03418-1.96094h-5.31836Z"/>
    <path class="cls-3" d="M843.57073,235.74865q0,13.69189-6.78906,21.04688-6.78955,7.355-19.46289,7.35449-12.67383,0-19.46289-7.35449-6.78809-7.355-6.78906-21.12207,0-13.7666,6.80859-21.02832,6.80713-7.25977,19.51855-7.26074,12.71045,0,19.44434,7.31738Q843.57073,222.02013,843.57073,235.74865Zm-40.24512,0q0,9.2417,3.50781,13.918,3.50684,4.67725,10.48535,4.67676,13.99365,0,13.99316-18.59473,0-18.63281-13.918-18.63281-6.97852,0-10.52344,4.69629Q803.32561,226.50695,803.32561,235.74865Z"/>
    <path class="cls-3" d="M893.09417,221.152a11.42427,11.42427,0,0,1-3.77148,8.78809,18.67087,18.67087,0,0,1-10.22168,4.41309v.22656q7.582.75439,11.63574,4.18652a11.156,11.156,0,0,1,4.05469,8.93945,14.02166,14.02166,0,0,1-6.166,12.03223q-6.167,4.41211-17.06836,4.41211-12.145,0-19.5-2.97949v-9.80664a35.52118,35.52118,0,0,0,8.31738,2.65918,45.24463,45.24463,0,0,0,8.91992.96191q13.91748,0,13.918-8.10937,0-3.65771-4.46973-5.62012-4.46924-1.96143-13.21973-1.96094h-5.168v-9.12793h4.63965q8.74951,0,12.749-1.66016,3.99756-1.6582,3.998-5.50684a5.17852,5.17852,0,0,0-2.50879-4.50684q-2.50781-1.67871-7.52441-1.67871a28.11359,28.11359,0,0,0-15.01172,4.48828l-5.0918-7.80762a34.54866,34.54866,0,0,1,9.99512-4.583,44.211,44.211,0,0,1,11.73047-1.45215q9.01465,0,14.38965,3.77246A11.5934,11.5934,0,0,1,893.09417,221.152Z"/>
    <path class="cls-3" d="M955.103,235.74865q0,13.69189-6.78906,21.04688-6.78955,7.355-19.46289,7.35449-12.67383,0-19.46289-7.35449-6.78809-7.355-6.78906-21.12207,0-13.7666,6.80859-21.02832,6.80713-7.25977,19.51855-7.26074,12.71045,0,19.44434,7.31738Q955.103,222.02013,955.103,235.74865Zm-40.24512,0q0,9.2417,3.50781,13.918,3.50684,4.67725,10.48535,4.67676,13.99365,0,13.99316-18.59473,0-18.63281-13.918-18.63281-6.97852,0-10.52344,4.69629Q914.85784,226.50695,914.85784,235.74865Z"/>
    <path class="cls-3" d="M1011.71819,263.39611h-11.65527V239.5963H978.224v23.7998H966.53167V208.25255H978.224v21.6123h21.83887v-21.6123h11.65527Z"/>
    <path class="cls-3" d="M1059.394,263.39611l-3.998-13.126h-20.10449l-3.998,13.126h-12.59766l19.46289-55.37012h14.29492l19.53809,55.37012Zm-6.79-22.93262q-5.54443-17.84033-6.24219-20.17969-.69727-2.33789-.999-3.69629-1.24512,4.82959-7.12891,23.876Z"/>
    <path class="cls-3" d="M1100.20452,263.39611h-11.69238V217.983H1073.5385v-9.73047h41.64063V217.983h-14.97461Z"/>
    <path class="cls-3" d="M1157.42327,263.39611l-3.998-13.126h-20.10449l-3.998,13.126H1116.725l19.46289-55.37012h14.29492l19.53809,55.37012Zm-6.79-22.93262q-5.54443-17.84033-6.24219-20.17969-.69727-2.33789-.999-3.69629-1.24512,4.82959-7.12891,23.876Z"/>
  </g>
</svg>
