<svg id="Layer_1" data-name="Layer 1" xmlns="http://www.w3.org/2000/svg" width="1518.29966" height="377.68065" viewBox="0 0 1518.29966 377.68065">
  <defs>
    <style>
      .cls-1 {
        fill: #003299;
      }

      .cls-2 {
        fill: #fff315;
      }

      .cls-3 {
        fill: #fff;
      }
    </style>
  </defs>
  <title>ECB_Logo_Euro area statistics_486817</title>
  <g id="Capa_1" data-name="Capa 1">
    <g id="Ebene_1" data-name="Ebene 1">
      <path class="cls-1" d="M364.88208,84.51082a170.93978,170.93978,0,0,0-274.093,0h-71.888v215.44h80.971a170.888,170.888,0,0,0,255.927,0h1139.102v-215.44Z"/>
      <path class="cls-2" d="M310.53308,120.88882c-17.559-21.506-46.594-36.557-82.432-36.557-44.81,0-80.656,29.392-91.764,68.104h159.505l-10.753,22.577h-153.769c-.363,4.662-.719,8.244-.719,11.828,0,3.587.356,6.809.719,10.756h143.371l-10.752,22.586h-127.603c12.906,42.28,48.748,68.811,95.342,68.811,32.259,0,60.931-13.977,78.854-35.479v30.467c-17.923,14.33-48.384,27.588-80.642,27.588-57.354,0-105.741-34.764-119.002-91.387h-40.505l10.753-22.586h25.449c-.36-4.664-.36-7.886-.36-11.117,0-3.579,0-6.805.36-11.466h-36.202l10.753-22.577h29.75c13.262-56.641,61.649-90.693,120.791-90.693,34.048,0,69.895,14.344,89.251,37.288Z"/>
    </g>
  </g>
  <g>
    <path class="cls-3" d="M674.48346,174.4949H642.72565V119.35037h31.75781v9.58105H654.41705v12.10742h18.67188v9.58008H654.41705v14.21973h20.06641Z"/>
    <path class="cls-3" d="M730.87213,119.35037V155.032a20.57748,20.57748,0,0,1-2.73437,10.71191,17.80118,17.80118,0,0,1-7.90234,7.05371,28.25944,28.25944,0,0,1-12.2207,2.45117q-10.63477,0-16.51953-5.4502-5.88574-5.44922-5.88477-14.917V119.35037h11.6543v33.75781q0,6.375,2.56641,9.35449,2.56348,2.97949,8.48633,2.97949,5.73047,0,8.31641-2.998,2.584-2.99854,2.584-9.41113V119.35037Z"/>
    <path class="cls-3" d="M756.06745,153.33475V174.4949H744.376V119.35037h16.06641q11.24121,0,16.63477,4.09277t5.39258,12.42773a14.62912,14.62912,0,0,1-2.67773,8.65625,17.72434,17.72434,0,0,1-7.58008,5.94141q12.44531,18.59473,16.21875,24.02637H775.45416l-13.16211-21.16016Zm0-9.50488h3.77148q5.5459,0,8.18555-1.84863,2.63965-1.84717,2.64063-5.80859,0-3.92139-2.69727-5.582-2.69824-1.65967-8.35352-1.65918h-3.54687Z"/>
    <path class="cls-3" d="M845.42291,146.84744q0,13.69189-6.78906,21.04688-6.791,7.355-19.46289,7.35449-12.67383,0-19.46289-7.35449-6.78809-7.355-6.78906-21.12207,0-13.76807,6.80859-21.02832,6.80566-7.26123,19.51758-7.26074,12.71191,0,19.44531,7.31738Q845.42291,133.11893,845.42291,146.84744Zm-40.24609,0q0,9.2417,3.50781,13.918,3.50684,4.67725,10.48633,4.67676,13.99219,0,13.99219-18.59473,0-18.63281-13.918-18.63281-6.97852,0-10.52344,4.69531Q805.17682,137.60623,805.17682,146.84744Z"/>
    <path class="cls-3" d="M906.90338,146.84744q0,13.69189-6.78906,21.04688-6.791,7.355-19.46289,7.35449-12.67383,0-19.46289-7.35449-6.78809-7.355-6.78906-21.12207,0-13.76807,6.80859-21.02832,6.80566-7.26123,19.51758-7.26074,12.71191,0,19.44531,7.31738Q906.90338,133.11893,906.90338,146.84744Zm-40.24609,0q0,9.2417,3.50781,13.918,3.50684,4.67725,10.48633,4.67676,13.99219,0,13.99219-18.59473,0-18.63281-13.918-18.63281-6.97852,0-10.52344,4.69531Q866.65729,137.60623,866.65729,146.84744Zm1.13281-38.0957a4.90508,4.90508,0,0,1,1.41406-3.77148,5.38481,5.38481,0,0,1,3.82813-1.32031,5.32057,5.32057,0,0,1,3.9043,1.39551,4.96689,4.96689,0,0,1,1.41406,3.69629,4.815,4.815,0,0,1-1.43359,3.63965,6.18886,6.18886,0,0,1-7.71289.05664A4.80609,4.80609,0,0,1,867.7901,108.75174Zm15.19922,0a4.66559,4.66559,0,0,1,1.52734-3.86621,5.873,5.873,0,0,1,3.791-1.22559,5.48755,5.48755,0,0,1,3.9043,1.35742,4.868,4.868,0,0,1,1.45117,3.73438,4.738,4.738,0,0,1-1.4707,3.65918,5.49972,5.49972,0,0,1-3.88477,1.35742,5.86748,5.86748,0,0,1-3.791-1.22559A4.57216,4.57216,0,0,1,882.98932,108.75174Z"/>
    <path class="cls-3" d="M949.78815,119.35037h11.80664L942.8487,174.4949h-12.75l-18.707-55.14453h11.80469l10.373,32.81543q.86719,2.90479,1.791,6.77051.92578,3.86572,1.15039,5.374a96.83124,96.83124,0,0,1,2.83008-12.14453Z"/>
    <path class="cls-3" d="M1000.294,174.4949H968.53424V119.35037H1000.294v9.58105H980.2276v12.10742h18.66992v9.58008H980.2276v14.21973H1000.294Z"/>
    <path class="cls-3" d="M1047.74323,174.4949h-41.03711v-7.582l26.43945-37.90625H1007.421v-9.65625h39.60547v7.54395l-26.40234,37.94434h27.11914Z"/>
    <path class="cls-3" d="M1088.2901,174.4949h-31.75977V119.35037h31.75977v9.58105h-20.06641v12.10742h18.66992v9.58008h-18.66992v14.21973h20.06641Z"/>
    <path class="cls-3" d="M1121.06549,174.4949h-11.69141V129.08182h-14.97461v-9.73145h41.64063v9.73145h-14.97461Z"/>
    <path class="cls-3" d="M1144.52643,174.4949V119.35037h11.69336V174.4949Z"/>
    <path class="cls-3" d="M702.43268,251.87772a14.25158,14.25158,0,0,1-5.375,11.76758q-5.373,4.30078-14.95508,4.2998a35.11623,35.11623,0,0,1-15.61523-3.31836V253.76346a64.31451,64.31451,0,0,0,9.44922,3.50781,27.954,27.954,0,0,0,7.07227,1.01855,10.0573,10.0573,0,0,0,5.90234-1.4707,5.03552,5.03552,0,0,0,2.05469-4.376,4.8283,4.8283,0,0,0-.9043-2.88477,10.133,10.133,0,0,0-2.66016-2.43359,68.4976,68.4976,0,0,0-7.14648-3.7334,33.87457,33.87457,0,0,1-7.582-4.56445,17.10854,17.10854,0,0,1-4.03516-5.0918,14.52812,14.52812,0,0,1-1.50977-6.78906q0-7.31689,4.96094-11.50391,4.96-4.188,13.71094-4.1875a32.39483,32.39483,0,0,1,8.20313,1.01855,56.39181,56.39181,0,0,1,8.166,2.86719l-3.77148,9.08984a55.35327,55.35327,0,0,0-7.29883-2.52734,23.50706,23.50706,0,0,0-5.67578-.7168,7.51655,7.51655,0,0,0-5.09375,1.54688,5.10089,5.10089,0,0,0-1.77148,4.03613,4.9848,4.9848,0,0,0,.7168,2.69629,7.86238,7.86238,0,0,0,2.28125,2.22559,70.30342,70.30342,0,0,0,7.41211,3.86621q7.73145,3.69727,10.59766,7.41113A14.46193,14.46193,0,0,1,702.43268,251.87772Z"/>
    <path class="cls-3" d="M733.70026,267.19119H722.00885V221.77811H707.03424v-9.73047h41.64063v9.73047H733.70026Z"/>
    <path class="cls-3" d="M790.919,267.19119l-3.998-13.126H766.81745l-3.998,13.126H750.22174l19.46289-55.37012h14.29492l19.53711,55.37012Zm-6.78906-22.93262q-5.5459-17.84033-6.24219-20.17969-.69727-2.33789-1-3.69629-1.24512,4.82959-7.12891,23.876Z"/>
    <path class="cls-3" d="M831.72955,267.19119H820.03815V221.77811H805.06354v-9.73047h41.64063v9.73047H831.72955Z"/>
    <path class="cls-3" d="M855.19049,267.19119V212.04764h11.69336v55.14355Z"/>
    <path class="cls-3" d="M913.31549,251.87772a14.257,14.257,0,0,1-5.375,11.76758q-5.376,4.30078-14.95508,4.2998a35.11623,35.11623,0,0,1-15.61523-3.31836V253.76346a64.3026,64.3026,0,0,0,9.44727,3.50781,27.97812,27.97812,0,0,0,7.07227,1.01855,10.05315,10.05315,0,0,0,5.90234-1.4707,5.03221,5.03221,0,0,0,2.05664-4.376,4.82993,4.82993,0,0,0-.90625-2.88477,10.12178,10.12178,0,0,0-2.6582-2.43359,68.8091,68.8091,0,0,0-7.14844-3.7334,33.8541,33.8541,0,0,1-7.58008-4.56445,17.11509,17.11509,0,0,1-4.03711-5.0918,14.52777,14.52777,0,0,1-1.50781-6.78906q0-7.31689,4.959-11.50391,4.96-4.188,13.71094-4.1875a32.37257,32.37257,0,0,1,8.20313,1.01855,56.31042,56.31042,0,0,1,8.166,2.86719l-3.77148,9.08984a55.25633,55.25633,0,0,0-7.29883-2.52734,23.48294,23.48294,0,0,0-5.67578-.7168,7.51448,7.51448,0,0,0-5.0918,1.54688,5.1025,5.1025,0,0,0-1.77344,4.03613,5.00185,5.00185,0,0,0,.7168,2.69629,7.872,7.872,0,0,0,2.2832,2.22559,70.40978,70.40978,0,0,0,7.41016,3.86621q7.73145,3.69727,10.59961,7.41113A14.47366,14.47366,0,0,1,913.31549,251.87772Z"/>
    <path class="cls-3" d="M959.25495,267.19119H918.21784v-7.58105l26.44141-37.90723H918.93463v-9.65527h39.60352v7.543L932.1358,257.53494h27.11914Z"/>
    <path class="cls-3" d="M989.31549,267.19119H977.62409V221.77811H962.64948v-9.73047h41.64063v9.73047H989.31549Z"/>
    <path class="cls-3" d="M1012.77643,267.19119V212.04764h11.69336v55.14355Z"/>
    <path class="cls-3" d="M1082.70612,267.19119h-13.27734l-14.44531-23.23437-4.94141,3.5459v19.68848h-11.69141V212.04764h11.69141V237.281l4.60156-6.48828,14.9375-18.74512h12.97461L1063.3194,236.451Z"/>
    <path class="cls-3" d="M1123.40534,267.19119l-3.998-13.126h-20.10547l-3.998,13.126h-12.59766l19.46289-55.37012h14.29492l19.53906,55.37012Zm-6.791-22.93262q-5.543-17.84033-6.24219-20.17969-.69727-2.33789-.998-3.69629-1.24512,4.82959-7.12891,23.876Z"/>
  </g>
</svg>
