<svg id="Layer_1" data-name="Layer 1" xmlns="http://www.w3.org/2000/svg" width="1518.29966" height="377.68065" viewBox="0 0 1518.29966 377.68065">
  <defs>
    <style>
      .cls-1 {
        fill: #003299;
      }

      .cls-2 {
        fill: #fff315;
      }

      .cls-3 {
        fill: #fff;
      }
    </style>
  </defs>
  <title>ECB_Logo_Euro area statistics_486817</title>
  <g id="Capa_1" data-name="Capa 1">
    <g id="Ebene_1" data-name="Ebene 1">
      <path class="cls-1" d="M364.88208,84.51082a170.93978,170.93978,0,0,0-274.093,0h-71.888v215.44h80.971a170.888,170.888,0,0,0,255.927,0h1139.102v-215.44Z"/>
      <path class="cls-2" d="M310.53308,120.88882c-17.559-21.506-46.594-36.557-82.432-36.557-44.81,0-80.656,29.392-91.764,68.104h159.505l-10.753,22.577h-153.769c-.363,4.662-.719,8.244-.719,11.828,0,3.587.356,6.809.719,10.756h143.371l-10.752,22.586h-127.603c12.906,42.28,48.748,68.811,95.342,68.811,32.259,0,60.931-13.977,78.854-35.479v30.467c-17.923,14.33-48.384,27.588-80.642,27.588-57.354,0-105.741-34.764-119.002-91.387h-40.505l10.753-22.586h25.449c-.36-4.664-.36-7.886-.36-11.117,0-3.579,0-6.805.36-11.466h-36.202l10.753-22.577h29.75c13.262-56.641,61.649-90.693,120.791-90.693,34.048,0,69.895,14.344,89.251,37.288Z"/>
    </g>
  </g>
  <g>
    <path class="cls-3" d="M508.03655,202.89416a14.25429,14.25429,0,0,1-5.375,11.76758q-5.37451,4.30078-14.95508,4.2998a35.1164,35.1164,0,0,1-15.61523-3.31934V204.7799a64.30854,64.30854,0,0,0,9.44824,3.50781,27.96607,27.96607,0,0,0,7.07227,1.01855,10.04769,10.04769,0,0,0,5.90234-1.47168,5.03092,5.03092,0,0,0,2.05566-4.375,4.83205,4.83205,0,0,0-.90527-2.88574,10.12541,10.12541,0,0,0-2.65918-2.43262,68.59759,68.59759,0,0,0-7.14746-3.73437,33.81082,33.81082,0,0,1-7.58105-4.564,17.11182,17.11182,0,0,1-4.03613-5.0918,14.52934,14.52934,0,0,1-1.50879-6.78906q0-7.31763,4.96-11.50439,4.96-4.18652,13.71094-4.18652a32.36167,32.36167,0,0,1,8.20313,1.01855,56.45853,56.45853,0,0,1,8.166,2.86621l-3.77148,9.09033a55.233,55.233,0,0,0-7.29883-2.52734,23.51826,23.51826,0,0,0-5.67578-.71631,7.518,7.518,0,0,0-5.09277,1.54639,5.10138,5.10138,0,0,0-1.77246,4.03564,4.995,4.995,0,0,0,.7168,2.69678,7.86721,7.86721,0,0,0,2.28223,2.22559,70.45506,70.45506,0,0,0,7.41113,3.86621q7.73145,3.69653,10.59863,7.41162A14.46779,14.46779,0,0,1,508.03655,202.89416Z"/>
    <path class="cls-3" d="M539.30413,218.20763H527.61174V172.79455H512.63811V163.0631h41.64063v9.73145H539.30413Z"/>
    <path class="cls-3" d="M596.52288,218.20763l-3.998-13.126H572.42034l-3.998,13.126H555.82464L575.28753,162.837h14.29492l19.53809,55.37061Zm-6.79-22.93262q-5.54443-17.84106-6.24219-20.17969-.69727-2.33862-.999-3.69629-1.24512,4.82813-7.12891,23.876Z"/>
    <path class="cls-3" d="M637.33342,218.20763H625.641V172.79455H610.66741V163.0631H652.308v9.73145H637.33342Z"/>
    <path class="cls-3" d="M660.79436,218.20763V163.0631h11.69238v55.14453Z"/>
    <path class="cls-3" d="M718.91839,202.89416a14.25429,14.25429,0,0,1-5.375,11.76758q-5.37451,4.30078-14.95508,4.2998a35.1164,35.1164,0,0,1-15.61523-3.31934V204.7799a64.30854,64.30854,0,0,0,9.44824,3.50781,27.96607,27.96607,0,0,0,7.07227,1.01855,10.04769,10.04769,0,0,0,5.90234-1.47168,5.03092,5.03092,0,0,0,2.05566-4.375,4.83205,4.83205,0,0,0-.90527-2.88574,10.12542,10.12542,0,0,0-2.65918-2.43262,68.59759,68.59759,0,0,0-7.14746-3.73437,33.81082,33.81082,0,0,1-7.58105-4.564,17.11182,17.11182,0,0,1-4.03613-5.0918,14.52934,14.52934,0,0,1-1.50879-6.78906q0-7.31763,4.96-11.50439,4.96-4.18652,13.71094-4.18652a32.36167,32.36167,0,0,1,8.20313,1.01855,56.45852,56.45852,0,0,1,8.166,2.86621l-3.77148,9.09033a55.233,55.233,0,0,0-7.29883-2.52734,23.51826,23.51826,0,0,0-5.67578-.71631,7.518,7.518,0,0,0-5.09277,1.54639,5.10138,5.10138,0,0,0-1.77246,4.03564,4.995,4.995,0,0,0,.7168,2.69678,7.8672,7.8672,0,0,0,2.28223,2.22559,70.45505,70.45505,0,0,0,7.41113,3.86621q7.73145,3.69653,10.59863,7.41162A14.46779,14.46779,0,0,1,718.91839,202.89416Z"/>
    <path class="cls-3" d="M750.186,218.20763H738.49358V172.79455H723.51995V163.0631h41.64063v9.73145H750.186Z"/>
    <path class="cls-3" d="M773.6469,218.20763V163.0631h11.69238v55.14453Z"/>
    <path class="cls-3" d="M843.57659,218.20763H830.29924l-14.44531-23.23437-4.94141,3.54492v19.68945H799.22014V163.0631h11.69238v25.2334l4.60156-6.4873,14.93652-18.74609h12.97461l-19.23633,24.40381Z"/>
    <path class="cls-3" d="M884.27483,218.20763l-3.998-13.126H860.17229l-3.998,13.126H843.57659L863.03948,162.837H877.3344l19.53809,55.37061Zm-6.79-22.93262q-5.54443-17.84106-6.24219-20.17969-.69727-2.33862-.999-3.69629-1.24512,4.82813-7.12891,23.876Z"/>
    <path class="cls-3" d="M955.63811,218.20763H923.87932V163.0631h31.75879v9.58057H935.57171v12.10742h18.6709v9.58057h-18.6709v14.21973h20.06641Z"/>
    <path class="cls-3" d="M1012.02678,163.0631v35.68164a20.56866,20.56866,0,0,1-2.73535,10.71191,17.79867,17.79867,0,0,1-7.90137,7.05371,28.25944,28.25944,0,0,1-12.2207,2.45117q-10.63623,0-16.52051-5.4502-5.88428-5.44922-5.88477-14.917V163.0631h11.65527v33.75781q0,6.375,2.56543,9.35449,2.56348,2.97949,8.48633,2.97949,5.73193,0,8.31641-2.998,2.584-2.99854,2.584-9.41113V163.0631Z"/>
    <path class="cls-3" d="M1037.2221,197.04748v21.16016h-11.69238V163.0631h16.06738q11.23975,0,16.63379,4.09229,5.39355,4.09351,5.39356,12.42822a14.63124,14.63124,0,0,1-2.67773,8.65625,17.72154,17.72154,0,0,1-7.58105,5.94141q12.44678,18.59473,16.21875,24.02637h-12.97559l-13.16309-21.16016Zm0-9.50537h3.77148q5.54443,0,8.18555-1.84814,2.63965-1.84717,2.63965-5.80859,0-3.92212-2.69629-5.582-2.69824-1.65967-8.35449-1.65967h-3.5459Z"/>
    <path class="cls-3" d="M1126.57659,190.56017q0,13.69189-6.78906,21.04688-6.78955,7.355-19.46289,7.35449-12.67383,0-19.46289-7.35449-6.78809-7.355-6.78906-21.12207,0-13.76807,6.80859-21.02881,6.80713-7.2605,19.51855-7.26074,12.71045,0,19.44434,7.31738Q1126.57659,176.83117,1126.57659,190.56017Zm-40.24512,0q0,9.2417,3.50781,13.918,3.50683,4.67725,10.48535,4.67676,13.99365,0,13.99316-18.59473,0-18.63354-13.918-18.6333-6.97852,0-10.52344,4.6958Q1086.33147,181.319,1086.33147,190.56017Z"/>
    <path class="cls-3" d="M1173.95061,218.20763H1132.9135v-7.582l26.44043-37.90674h-25.72461V163.0631h39.60449v7.54346l-26.40234,37.94482h27.11914Z"/>
    <path class="cls-3" d="M1232.79046,190.56017q0,13.69189-6.78906,21.04688-6.78955,7.355-19.46289,7.35449-12.67383,0-19.46289-7.35449-6.78809-7.355-6.78906-21.12207,0-13.76807,6.80859-21.02881,6.80713-7.2605,19.51856-7.26074,12.71045,0,19.44434,7.31738Q1232.79046,176.83117,1232.79046,190.56017Zm-40.24512,0q0,9.2417,3.50781,13.918,3.50684,4.67725,10.48535,4.67676,13.99365,0,13.99316-18.59473,0-18.63354-13.918-18.6333-6.97852,0-10.52344,4.6958Q1192.54534,181.319,1192.54534,190.56017Zm8.07129-31.91016v-1.01855a106.103,106.103,0,0,0,8.86426-11.353h12.89941v.792q-1.96143,1.96216-6.69531,5.82764-4.73291,3.86646-7.41113,5.752Z"/>
    <path class="cls-3" d="M1293.13909,218.20763h-14.86035l-23.98926-41.7168h-.33887q.71484,11.05225.71582,15.7666v25.9502h-10.44727V163.0631h14.74707l23.95117,41.30176h.26465q-.56689-10.75049-.56641-15.20068V163.0631h10.52344Z"/>
    <path class="cls-3" d="M1324.18108,185.76964,1335.686,163.0631h12.59766l-18.29395,33.68262v21.46191h-11.61719v-21.085l-18.293-34.05957h12.67285Z"/>
  </g>
</svg>
