<svg id="Layer_1" data-name="Layer 1" xmlns="http://www.w3.org/2000/svg" width="1518.29966" height="377.68065" viewBox="0 0 1518.29966 377.68065">
  <defs>
    <style>
      .cls-1 {
        fill: #003299;
      }

      .cls-2 {
        fill: #fff315;
      }

      .cls-3 {
        fill: #fff;
      }
    </style>
  </defs>
  <title>ECB_Logo_Euro area statistics_486817</title>
  <g id="Capa_1" data-name="Capa 1">
    <g id="Ebene_1" data-name="Ebene 1">
      <path class="cls-1" d="M364.88208,84.51082a170.93978,170.93978,0,0,0-274.093,0h-71.888v215.44h80.971a170.888,170.888,0,0,0,255.927,0h1139.102v-215.44Z"/>
      <path class="cls-2" d="M310.53308,120.88882c-17.559-21.506-46.594-36.557-82.432-36.557-44.81,0-80.656,29.392-91.764,68.104h159.505l-10.753,22.577h-153.769c-.363,4.662-.719,8.244-.719,11.828,0,3.587.356,6.809.719,10.756h143.371l-10.752,22.586h-127.603c12.906,42.28,48.748,68.811,95.342,68.811,32.259,0,60.931-13.977,78.854-35.479v30.467c-17.923,14.33-48.384,27.588-80.642,27.588-57.354,0-105.741-34.764-119.002-91.387h-40.505l10.753-22.586h25.449c-.36-4.664-.36-7.886-.36-11.117,0-3.579,0-6.805.36-11.466h-36.202l10.753-22.577h29.75c13.262-56.641,61.649-90.693,120.791-90.693,34.048,0,69.895,14.344,89.251,37.288Z"/>
    </g>
  </g>
  <g>
    <path class="cls-3" d="M728.94779,156.83963a14.25474,14.25474,0,0,1-5.375,11.76855q-5.373,4.29932-14.95508,4.2998a35.1164,35.1164,0,0,1-15.61523-3.31934V158.72537a64.2018,64.2018,0,0,0,9.44922,3.50781,27.91007,27.91007,0,0,0,7.07227,1.01855,10.0573,10.0573,0,0,0,5.90234-1.4707,5.03319,5.03319,0,0,0,2.05469-4.376,4.8304,4.8304,0,0,0-.9043-2.88477,10.1145,10.1145,0,0,0-2.66016-2.43262,68.24642,68.24642,0,0,0-7.14648-3.73437,33.83808,33.83808,0,0,1-7.582-4.56445,17.10854,17.10854,0,0,1-4.03516-5.0918,14.52812,14.52812,0,0,1-1.50977-6.78906q0-7.31689,4.96094-11.50391,4.96-4.18652,13.71094-4.18652a32.35078,32.35078,0,0,1,8.20313,1.01855,56.4994,56.4994,0,0,1,8.166,2.86621l-3.77148,9.08984a55.35328,55.35328,0,0,0-7.29883-2.52734,23.55367,23.55367,0,0,0-5.67578-.71582,7.52144,7.52144,0,0,0-5.09375,1.5459,5.10089,5.10089,0,0,0-1.77148,4.03613,4.9848,4.9848,0,0,0,.7168,2.69629,7.86238,7.86238,0,0,0,2.28125,2.22559,70.3034,70.3034,0,0,0,7.41211,3.86621q7.73145,3.69727,10.59766,7.41211A14.45716,14.45716,0,0,1,728.94779,156.83963Z"/>
    <path class="cls-3" d="M760.21537,172.15311H748.524V126.741H733.54935v-9.73145H775.19V126.741H760.21537Z"/>
    <path class="cls-3" d="M817.43412,172.15311l-3.998-13.126H793.33256l-3.998,13.126H776.73685L796.19974,116.783h14.29492l19.53711,55.37012Zm-6.78906-22.93262q-5.5459-17.84033-6.24219-20.17871-.69727-2.33936-1-3.69629-1.24512,4.82813-7.12891,23.875Z"/>
    <path class="cls-3" d="M858.24466,172.15311H846.55326V126.741H831.57865v-9.73145h41.64063V126.741H858.24466Z"/>
    <path class="cls-3" d="M881.7056,172.15311V117.00955H893.399v55.14355Z"/>
    <path class="cls-3" d="M939.8306,156.83963a14.26017,14.26017,0,0,1-5.375,11.76855q-5.376,4.29932-14.95508,4.2998a35.1164,35.1164,0,0,1-15.61523-3.31934V158.72537a64.18989,64.18989,0,0,0,9.44727,3.50781,27.93409,27.93409,0,0,0,7.07227,1.01855,10.05315,10.05315,0,0,0,5.90234-1.4707,5.02989,5.02989,0,0,0,2.05664-4.376,4.832,4.832,0,0,0-.90625-2.88477,10.10331,10.10331,0,0,0-2.6582-2.43262,68.55575,68.55575,0,0,0-7.14844-3.73437,33.81765,33.81765,0,0,1-7.58008-4.56445,17.11509,17.11509,0,0,1-4.03711-5.0918,14.52777,14.52777,0,0,1-1.50781-6.78906q0-7.31689,4.959-11.50391,4.96-4.18652,13.71094-4.18652a32.32858,32.32858,0,0,1,8.20313,1.01855,56.41771,56.41771,0,0,1,8.166,2.86621l-3.77148,9.08984a55.25634,55.25634,0,0,0-7.29883-2.52734,23.52949,23.52949,0,0,0-5.67578-.71582,7.51936,7.51936,0,0,0-5.0918,1.5459,5.1025,5.1025,0,0,0-1.77344,4.03613,5.00185,5.00185,0,0,0,.7168,2.69629,7.872,7.872,0,0,0,2.2832,2.22559,70.40977,70.40977,0,0,0,7.41016,3.86621q7.73145,3.69727,10.59961,7.41211A14.46889,14.46889,0,0,1,939.8306,156.83963Z"/>
    <path class="cls-3" d="M971.09818,172.15311H959.40482V126.741H944.43216v-9.73145h41.64063V126.741H971.09818Z"/>
    <path class="cls-3" d="M994.55912,172.15311V117.00955h11.69141v55.14355Z"/>
    <path class="cls-3" d="M1064.48881,172.15311h-13.27734l-14.44531-23.23437-4.94141,3.5459v19.68848h-11.69336V117.00955h11.69336V142.243l4.60156-6.4873,14.93555-18.74609h12.97461l-19.23633,24.40332Z"/>
    <path class="cls-3" d="M1105.18607,172.15311l-3.998-13.126h-20.10352l-3.998,13.126h-12.59766L1083.9517,116.783h14.29492l19.53711,55.37012Zm-6.78906-22.93262q-5.5459-17.84033-6.24219-20.17871-.69727-2.33936-1-3.69629-1.24512,4.82813-7.12891,23.875Z"/>
    <path class="cls-3" d="M632.93607,264.85037H601.17826V209.70682h31.75781v9.58008H612.86966v12.10742h18.67188v9.58008H612.86966v14.21973h20.06641Z"/>
    <path class="cls-3" d="M689.32474,209.70682v35.68066a20.575,20.575,0,0,1-2.73437,10.71191,17.80118,17.80118,0,0,1-7.90234,7.05371,28.25944,28.25944,0,0,1-12.2207,2.45117q-10.63477,0-16.51953-5.4502-5.88574-5.44922-5.88477-14.917V209.70682h11.6543v33.75781q0,6.37354,2.56641,9.35352,2.56348,2.97949,8.48633,2.97949,5.73047,0,8.31641-2.998,2.584-2.99854,2.584-9.41113V209.70682Z"/>
    <path class="cls-3" d="M714.52006,243.69022v21.16016H702.82865V209.70682h16.06641q11.24121,0,16.63477,4.0918,5.39355,4.09277,5.39258,12.42871a14.63336,14.63336,0,0,1-2.67773,8.65625,17.72985,17.72985,0,0,1-7.58008,5.94043q12.44531,18.59473,16.21875,24.02637H733.90677l-13.16211-21.16016Zm0-9.50488h3.77148q5.5459,0,8.18555-1.84766,2.63965-1.84863,2.64063-5.80859,0-3.92285-2.69727-5.583-2.69824-1.6582-8.35352-1.65918h-3.54687Z"/>
    <path class="cls-3" d="M803.87552,237.20291q0,13.69189-6.78906,21.04688-6.791,7.355-19.46289,7.35449-12.67383,0-19.46289-7.35449-6.78809-7.355-6.78906-21.12207,0-13.7666,6.80859-21.02832,6.80566-7.25977,19.51758-7.26074,12.71191,0,19.44531,7.31738Q803.87552,223.4744,803.87552,237.20291Zm-40.24609,0q0,9.2417,3.50781,13.918,3.50684,4.67725,10.48633,4.67676,13.99219,0,13.99219-18.59473,0-18.63281-13.918-18.63281-6.97852,0-10.52344,4.69629Q763.62943,227.96121,763.62943,237.20291Z"/>
    <path class="cls-3" d="M853.399,226.906q0,8.90186-5.56445,13.61621-5.56348,4.71533-15.82227,4.71484h-5.01562v19.61328H815.30326V209.70682h17.61523q10.03125,0,15.25586,4.31836Q853.398,218.345,853.399,226.906Zm-26.40234,8.75h3.84766q5.39063,0,8.07031-2.13086a7.45642,7.45642,0,0,0,2.67773-6.2041q0-4.11182-2.24414-6.07324-2.24414-1.96-7.0332-1.96094h-5.31836Z"/>
    <path class="cls-3" d="M913.86185,237.20291q0,13.69189-6.78906,21.04688-6.791,7.355-19.46289,7.35449-12.67383,0-19.46289-7.35449-6.78809-7.355-6.78906-21.12207,0-13.7666,6.80859-21.02832,6.80566-7.25977,19.51758-7.26074,12.71191,0,19.44531,7.31738Q913.86185,223.4744,913.86185,237.20291Zm-40.24609,0q0,9.2417,3.50781,13.918,3.50684,4.67725,10.48633,4.67676,13.99219,0,13.99219-18.59473,0-18.63281-13.918-18.63281-6.97852,0-10.52344,4.69629Q873.61576,227.96121,873.61576,237.20291Z"/>
    <path class="cls-3" d="M971.04154,236.75076q0,13.61572-7.75,20.85742-7.752,7.24219-22.38672,7.24219H925.28959V209.70682h17.3125q13.50293,0,20.97266,7.12793Q971.04252,223.96414,971.04154,236.75076Zm-12.14453.30176q0-17.76562-15.69141-17.76562h-6.22266v35.90723h5.01563Q958.897,255.19412,958.897,237.05252Z"/>
    <path class="cls-3" d="M994.16263,243.69022v21.16016H982.47123V209.70682h16.06641q11.24121,0,16.63477,4.0918,5.39355,4.09277,5.39258,12.42871a14.63335,14.63335,0,0,1-2.67773,8.65625,17.72985,17.72985,0,0,1-7.58008,5.94043q12.44531,18.59473,16.21875,24.02637h-12.97656l-13.16211-21.16016Zm0-9.50488h3.77148q5.5459,0,8.18555-1.84766,2.63965-1.84863,2.64063-5.80859,0-3.92285-2.69726-5.583-2.69824-1.6582-8.35352-1.65918h-3.54687Z"/>
    <path class="cls-3" d="M1078.35013,209.70682v35.68066a20.575,20.575,0,0,1-2.73437,10.71191,17.80118,17.80118,0,0,1-7.90234,7.05371,28.25943,28.25943,0,0,1-12.2207,2.45117q-10.63477,0-16.51953-5.4502-5.88574-5.44922-5.88477-14.917V209.70682h11.6543v33.75781q0,6.37354,2.56641,9.35352,2.56348,2.97949,8.48633,2.97949,5.73047,0,8.31641-2.998,2.584-2.99854,2.584-9.41113V209.70682Z"/>
    <path class="cls-3" d="M1115.27591,218.64529a11.91516,11.91516,0,0,0-10.2207,4.96q-3.62109,4.96-3.62109,13.82422,0,18.44385,13.8418,18.44434a43.73793,43.73793,0,0,0,14.06836-2.9043v9.80664a39.06863,39.06863,0,0,1-15.16211,2.82813q-12.03223,0-18.40625-7.29785-6.375-7.29932-6.375-20.95215a34.2092,34.2092,0,0,1,3.13086-15.06934,22.642,22.642,0,0,1,8.99609-9.91992,26.61031,26.61031,0,0,1,13.748-3.45117,37.12211,37.12211,0,0,1,16.14453,3.88574l-3.77344,9.50488a62.51722,62.51722,0,0,0-6.22266-2.56543A18.58916,18.58916,0,0,0,1115.27591,218.64529Zm15.918-25.72363v1.01855q-3.16992,3.16846-5.82812,6.31738a46.37175,46.37175,0,0,0-3.82812,5.03613h-13.46484a40.25024,40.25024,0,0,0-3.13086-4.24414q-2.03613-2.46973-6.52539-7.10937v-1.01855h7.65625a49.342,49.342,0,0,1,8.63867,6.63867,42.27293,42.27293,0,0,1,8.82422-6.63867Z"/>
    <path class="cls-3" d="M1135.30521,281.06912a25.5836,25.5836,0,0,1-6.90234-.83008v-9.73047a22.92086,22.92086,0,0,0,5.50586.75391q3.84961,0,5.50781-2.39551,1.6582-2.395,1.66016-7.48633V209.70682h11.69141v51.59766q0,9.65625-4.41211,14.71094Q1143.941,281.06912,1135.30521,281.06912Z"/>
    <path class="cls-3" d="M1200.40677,264.85037l-3.998-13.126h-20.10352l-3.998,13.126h-12.59766l19.46289-55.37012h14.29492l19.53711,55.37012Zm-6.78906-22.93262q-5.5459-17.84033-6.24219-20.17969-.69727-2.33789-1-3.69629-1.24512,4.82959-7.12891,23.876Z"/>
  </g>
</svg>
