<svg id="Layer_1" data-name="Layer 1" xmlns="http://www.w3.org/2000/svg" width="1518.29966" height="377.68065" viewBox="0 0 1518.29966 377.68065">
  <defs>
    <style>
      .cls-1 {
        fill: #003299;
      }

      .cls-2 {
        fill: #fff315;
      }

      .cls-3 {
        fill: #fff;
      }
    </style>
  </defs>
  <title>ECB_Logo_Euro area statistics_486817</title>
  <g id="Capa_1" data-name="Capa 1">
    <g id="Ebene_1" data-name="Ebene 1">
      <path class="cls-1" d="M364.88208,84.51082a170.93978,170.93978,0,0,0-274.093,0h-71.888v215.44h80.971a170.888,170.888,0,0,0,255.927,0h1139.102v-215.44Z"/>
      <path class="cls-2" d="M310.53308,120.88882c-17.559-21.506-46.594-36.557-82.432-36.557-44.81,0-80.656,29.392-91.764,68.104h159.505l-10.753,22.577h-153.769c-.363,4.662-.719,8.244-.719,11.828,0,3.587.356,6.809.719,10.756h143.371l-10.752,22.586h-127.603c12.906,42.28,48.748,68.811,95.342,68.811,32.259,0,60.931-13.977,78.854-35.479v30.467c-17.923,14.33-48.384,27.588-80.642,27.588-57.354,0-105.741-34.764-119.002-91.387h-40.505l10.753-22.586h25.449c-.36-4.664-.36-7.886-.36-11.117,0-3.579,0-6.805.36-11.466h-36.202l10.753-22.577h29.75c13.262-56.641,61.649-90.693,120.791-90.693,34.048,0,69.895,14.344,89.251,37.288Z"/>
    </g>
  </g>
  <g>
    <path class="cls-3" d="M471.19245,209.6433a14.25618,14.25618,0,0,1-5.375,11.76855q-5.37451,4.29932-14.95508,4.2998a35.1164,35.1164,0,0,1-15.61523-3.31934V211.53a64.42163,64.42163,0,0,0,9.44824,3.50781,27.96173,27.96173,0,0,0,7.07227,1.01758,10.05522,10.05522,0,0,0,5.90234-1.4707,5.03092,5.03092,0,0,0,2.05566-4.375,4.832,4.832,0,0,0-.90527-2.88574,10.1089,10.1089,0,0,0-2.65918-2.43262,68.59757,68.59757,0,0,0-7.14746-3.73437,33.82787,33.82787,0,0,1-7.58105-4.56445,17.08732,17.08732,0,0,1-4.03613-5.0918,14.52794,14.52794,0,0,1-1.50879-6.78906q0-7.31689,4.96-11.50391,4.96-4.18652,13.71094-4.18652a32.33968,32.33968,0,0,1,8.20313,1.01855,56.45851,56.45851,0,0,1,8.166,2.86621l-3.77148,9.09082a55.16139,55.16139,0,0,0-7.29883-2.52734,23.495,23.495,0,0,0-5.67578-.7168,7.51552,7.51552,0,0,0-5.09277,1.54688,5.0997,5.0997,0,0,0-1.77246,4.03516,4.99909,4.99909,0,0,0,.7168,2.69727,7.86527,7.86527,0,0,0,2.28223,2.22461,70.48924,70.48924,0,0,0,7.41113,3.86719q7.73145,3.6958,10.59863,7.41113A14.465,14.465,0,0,1,471.19245,209.6433Z"/>
    <path class="cls-3" d="M502.46,224.95775H490.76764V179.54467H475.794v-9.73145h41.64063v9.73145H502.46Z"/>
    <path class="cls-3" d="M559.67877,224.95775l-3.998-13.127H535.57623l-3.998,13.127H518.98053l19.46289-55.37109h14.29492l19.53809,55.37109Zm-6.79-22.93359q-5.54443-17.83887-6.24219-20.17871-.69727-2.33936-.999-3.69629-1.24512,4.82813-7.12891,23.875Z"/>
    <path class="cls-3" d="M600.48932,224.95775H588.79694V179.54467H573.8233v-9.73145h41.64063v9.73145H600.48932Z"/>
    <path class="cls-3" d="M623.95026,224.95775V169.81322h11.69238v55.14453Z"/>
    <path class="cls-3" d="M682.07428,209.6433a14.25618,14.25618,0,0,1-5.375,11.76855q-5.37451,4.29932-14.95508,4.2998a35.1164,35.1164,0,0,1-15.61523-3.31934V211.53a64.42163,64.42163,0,0,0,9.44824,3.50781,27.96173,27.96173,0,0,0,7.07227,1.01758,10.05523,10.05523,0,0,0,5.90234-1.4707,5.03092,5.03092,0,0,0,2.05566-4.375,4.832,4.832,0,0,0-.90527-2.88574,10.1089,10.1089,0,0,0-2.65918-2.43262,68.59757,68.59757,0,0,0-7.14746-3.73437,33.82787,33.82787,0,0,1-7.58105-4.56445,17.08732,17.08732,0,0,1-4.03613-5.0918,14.52794,14.52794,0,0,1-1.50879-6.78906q0-7.31689,4.96-11.50391,4.96-4.18652,13.71094-4.18652a32.33968,32.33968,0,0,1,8.20313,1.01855,56.45852,56.45852,0,0,1,8.166,2.86621l-3.77148,9.09082a55.16139,55.16139,0,0,0-7.29883-2.52734,23.495,23.495,0,0,0-5.67578-.7168,7.51552,7.51552,0,0,0-5.09277,1.54688,5.0997,5.0997,0,0,0-1.77246,4.03516,4.99909,4.99909,0,0,0,.7168,2.69727,7.86527,7.86527,0,0,0,2.28223,2.22461,70.48925,70.48925,0,0,0,7.41113,3.86719q7.73145,3.6958,10.59863,7.41113A14.465,14.465,0,0,1,682.07428,209.6433Z"/>
    <path class="cls-3" d="M713.34186,224.95775H701.64948V179.54467H686.67584v-9.73145h41.64063v9.73145H713.34186Z"/>
    <path class="cls-3" d="M736.8028,224.95775V169.81322h11.69238v55.14453Z"/>
    <path class="cls-3" d="M785.79889,178.75267a11.91454,11.91454,0,0,0-10.22168,4.96q-3.62109,4.96-3.62109,13.82324,0,18.44531,13.84277,18.44434a43.7479,43.7479,0,0,0,14.06836-2.9043v9.80664a39.06873,39.06873,0,0,1-15.16211,2.8291q-12.03223,0-18.40625-7.29883-6.375-7.29785-6.375-20.95215a34.20482,34.20482,0,0,1,3.13086-15.06836,22.61989,22.61989,0,0,1,8.99609-9.91992,26.60782,26.60782,0,0,1,13.748-3.45117,37.127,37.127,0,0,1,16.14355,3.88477L798.17,182.41088a62.52348,62.52348,0,0,0-6.22363-2.56445A18.57927,18.57927,0,0,0,785.79889,178.75267Z"/>
    <path class="cls-3" d="M811.5987,224.95775V169.81322h11.69238v55.14453Z"/>
    <path class="cls-3" d="M837.17194,224.95775V169.81322h11.69238V215.3015h22.36719v9.65625Z"/>
    <path class="cls-3" d="M912.57038,224.95775H880.81159V169.81322h31.75879v9.58008H892.504v12.10742h18.6709v9.58105H892.504V215.3015h20.06641Z"/>
    <path class="cls-3" d="M980.086,224.95775H939.04889v-7.582l26.44043-37.90625H939.76471v-9.65625H979.3692v7.543L952.96686,215.3015H980.086Z"/>
    <path class="cls-3" d="M1038.92584,197.30932q0,13.69336-6.78906,21.04688-6.78955,7.35645-19.46289,7.35547-12.67383,0-19.46289-7.35547-6.78809-7.35352-6.78906-21.12109,0-13.76807,6.80859-21.0293,6.80713-7.25977,19.51855-7.25977,12.71045,0,19.44434,7.31641Q1038.92584,183.5808,1038.92584,197.30932Zm-40.24512,0q0,9.24316,3.50781,13.918,3.50684,4.67871,10.48535,4.67773,13.99365,0,13.99316-18.5957,0-18.63281-13.918-18.63281-6.97852,0-10.52344,4.69629T998.68073,197.30932Z"/>
    <path class="cls-3" d="M1099.27448,224.95775h-14.86035l-23.98926-41.7168h-.33887q.71484,11.05225.71582,15.76563v25.95117h-10.44727V169.81322h14.74707L1089.0528,211.114h.26465q-.56689-10.749-.56641-15.19922V169.81322h10.52344Z"/>
    <path class="cls-3" d="M1144.91413,224.95775h-31.75879V169.81322h31.75879v9.58008h-20.06641v12.10742h18.6709v9.58105h-18.6709V215.3015h20.06641Z"/>
    <path class="cls-3" d="M1156.418,224.95775V169.81322h11.69238v55.14453Z"/>
    <path class="cls-3" d="M1233.81647,224.95775h-31.75879V169.81322h31.75879v9.58008h-20.06641v12.10742h18.6709v9.58105h-18.6709V215.3015h20.06641Z"/>
    <path class="cls-3" d="M1290.20514,169.81322v35.68164a20.56866,20.56866,0,0,1-2.73535,10.71191,17.8044,17.8044,0,0,1-7.90137,7.05371,28.25944,28.25944,0,0,1-12.2207,2.45117q-10.63623,0-16.52051-5.4502-5.88428-5.45068-5.88477-14.917V169.81322h11.65527V203.571q0,6.375,2.56543,9.35352,2.56348,2.981,8.48633,2.98047,5.73193,0,8.31641-2.998,2.584-3,2.584-9.41113V169.81322Z"/>
    <path class="cls-3" d="M1315.40045,203.7976v21.16016h-11.69238V169.81322h16.06738q11.23975,0,16.63379,4.0918,5.39355,4.09424,5.39356,12.42871a14.63124,14.63124,0,0,1-2.67773,8.65625,17.71973,17.71973,0,0,1-7.58105,5.94043q12.44678,18.59619,16.21875,24.02734h-12.97559l-13.16309-21.16016Zm0-9.50586h3.77148q5.54443,0,8.18555-1.84766,2.63965-1.84717,2.63965-5.80859,0-3.92285-2.69629-5.582-2.69824-1.65967-8.35449-1.66016h-3.5459Z"/>
    <path class="cls-3" d="M1404.75495,197.30932q0,13.69336-6.78906,21.04688-6.78955,7.35645-19.46289,7.35547-12.67383,0-19.46289-7.35547-6.78809-7.35352-6.78906-21.12109,0-13.76807,6.80859-21.0293,6.80713-7.25977,19.51855-7.25977,12.71045,0,19.44434,7.31641Q1404.75495,183.5808,1404.75495,197.30932Zm-40.24512,0q0,9.24316,3.50781,13.918,3.50684,4.67871,10.48535,4.67773,13.99365,0,13.99316-18.5957,0-18.63281-13.918-18.63281-6.97852,0-10.52344,4.69629T1364.50983,197.30932Z"/>
  </g>
</svg>
