<svg id="Layer_1" data-name="Layer 1" xmlns="http://www.w3.org/2000/svg" width="1518.29966" height="377.68065" viewBox="0 0 1518.29966 377.68065">
  <defs>
    <style>
      .cls-1 {
        fill: #003299;
      }

      .cls-2 {
        fill: #fff315;
      }

      .cls-3 {
        fill: #fff;
      }
    </style>
  </defs>
  <title>ECB_Logo_Euro area statistics_486817</title>
  <g id="Capa_1" data-name="Capa 1">
    <g id="Ebene_1" data-name="Ebene 1">
      <path class="cls-1" d="M364.88208,84.51082a170.93978,170.93978,0,0,0-274.093,0h-71.888v215.44h80.971a170.888,170.888,0,0,0,255.927,0h1139.102v-215.44Z"/>
      <path class="cls-2" d="M310.53308,120.88882c-17.559-21.506-46.594-36.557-82.432-36.557-44.81,0-80.656,29.392-91.764,68.104h159.505l-10.753,22.577h-153.769c-.363,4.662-.719,8.244-.719,11.828,0,3.587.356,6.809.719,10.756h143.371l-10.752,22.586h-127.603c12.906,42.28,48.748,68.811,95.342,68.811,32.259,0,60.931-13.977,78.854-35.479v30.467c-17.923,14.33-48.384,27.588-80.642,27.588-57.354,0-105.741-34.764-119.002-91.387h-40.505l10.753-22.586h25.449c-.36-4.664-.36-7.886-.36-11.117,0-3.579,0-6.805.36-11.466h-36.202l10.753-22.577h29.75c13.262-56.641,61.649-90.693,120.791-90.693,34.048,0,69.895,14.344,89.251,37.288Z"/>
    </g>
  </g>
  <g>
    <path class="cls-3" d="M464.77483,201.905a14.25429,14.25429,0,0,1-5.375,11.76758q-5.37451,4.30078-14.95508,4.30078a35.11658,35.11658,0,0,1-15.61523-3.32031v-10.8623a64.30856,64.30856,0,0,0,9.44824,3.50781,27.96607,27.96607,0,0,0,7.07227,1.01855,10.05522,10.05522,0,0,0,5.90234-1.4707,5.0327,5.0327,0,0,0,2.05566-4.376,4.83415,4.83415,0,0,0-.90527-2.88574,10.12344,10.12344,0,0,0-2.65918-2.43164,68.4008,68.4008,0,0,0-7.14746-3.73437,33.82786,33.82786,0,0,1-7.58105-4.56445,17.11182,17.11182,0,0,1-4.03613-5.0918,14.52794,14.52794,0,0,1-1.50879-6.78906q0-7.31836,4.96-11.50391,4.96-4.18652,13.71094-4.1875a32.33968,32.33968,0,0,1,8.20313,1.01953,56.44878,56.44878,0,0,1,8.166,2.86523l-3.77148,9.09082a55.16137,55.16137,0,0,0-7.29883-2.52734,23.493,23.493,0,0,0-5.67578-.71582,7.5204,7.5204,0,0,0-5.09277,1.5459,5.10169,5.10169,0,0,0-1.77246,4.03613,4.99331,4.99331,0,0,0,.7168,2.69629,7.8672,7.8672,0,0,0,2.28223,2.22559,70.35652,70.35652,0,0,0,7.41113,3.86621q7.73145,3.6958,10.59863,7.41113A14.46779,14.46779,0,0,1,464.77483,201.905Z"/>
    <path class="cls-3" d="M496.04241,217.21849H484.35V171.80541H469.37639v-9.73047H511.017v9.73047H496.04241Z"/>
    <path class="cls-3" d="M553.26116,217.21849l-3.998-13.126H529.15862l-3.998,13.126H512.56292l19.46289-55.37012h14.29492l19.53809,55.37012Zm-6.79-22.93262q-5.54443-17.84033-6.24219-20.17969-.69727-2.33789-.999-3.69531-1.24512,4.82813-7.12891,23.875Z"/>
    <path class="cls-3" d="M594.07171,217.21849H582.37932V171.80541H567.40569v-9.73047h41.64063v9.73047H594.07171Z"/>
    <path class="cls-3" d="M634.69378,184.781l11.50488-22.70605h12.59766l-18.29395,33.68164v21.46191H628.88518v-21.085l-18.293-34.05859h12.67285Z"/>
    <path class="cls-3" d="M698.28753,201.905a14.25429,14.25429,0,0,1-5.375,11.76758q-5.37451,4.30078-14.95508,4.30078a35.11658,35.11658,0,0,1-15.61523-3.32031v-10.8623a64.30856,64.30856,0,0,0,9.44824,3.50781,27.96607,27.96607,0,0,0,7.07227,1.01855,10.05522,10.05522,0,0,0,5.90234-1.4707,5.0327,5.0327,0,0,0,2.05566-4.376,4.83415,4.83415,0,0,0-.90527-2.88574,10.12344,10.12344,0,0,0-2.65918-2.43164,68.4008,68.4008,0,0,0-7.14746-3.73437,33.82786,33.82786,0,0,1-7.58105-4.56445,17.11181,17.11181,0,0,1-4.03613-5.0918,14.52794,14.52794,0,0,1-1.50879-6.78906q0-7.31836,4.96-11.50391,4.96-4.18652,13.71094-4.1875a32.33968,32.33968,0,0,1,8.20313,1.01953,56.44879,56.44879,0,0,1,8.166,2.86523l-3.77148,9.09082a55.16138,55.16138,0,0,0-7.29883-2.52734,23.493,23.493,0,0,0-5.67578-.71582,7.5204,7.5204,0,0,0-5.09277,1.5459,5.10169,5.10169,0,0,0-1.77246,4.03613,4.99331,4.99331,0,0,0,.7168,2.69629,7.86721,7.86721,0,0,0,2.28223,2.22559,70.35652,70.35652,0,0,0,7.41113,3.86621q7.73145,3.6958,10.59863,7.41113A14.46779,14.46779,0,0,1,698.28753,201.905Z"/>
    <path class="cls-3" d="M729.5551,217.21849H717.86272V171.80541H702.88909v-9.73047h41.64063v9.73047H729.5551Z"/>
    <path class="cls-3" d="M770.17717,184.781l11.50488-22.70605h12.59766l-18.29395,33.68164v21.46191H764.36858v-21.085l-18.293-34.05859h12.67285Z"/>
    <path class="cls-3" d="M845.57659,217.21849H832.29924l-14.44531-23.23437-4.94141,3.5459v19.68848H801.22014V162.07494h11.69238v25.23242l4.60156-6.48633,14.93652-18.74609h12.97461l-19.23633,24.40332Z"/>
    <path class="cls-3" d="M852.517,217.21849V162.07494H864.2094v55.14355Z"/>
    <path class="cls-3" d="M930.70745,201.905a14.25429,14.25429,0,0,1-5.375,11.76758q-5.37451,4.30078-14.95508,4.30078a35.11658,35.11658,0,0,1-15.61523-3.32031v-10.8623a64.30856,64.30856,0,0,0,9.44824,3.50781,27.96607,27.96607,0,0,0,7.07227,1.01855,10.05522,10.05522,0,0,0,5.90234-1.4707,5.0327,5.0327,0,0,0,2.05566-4.376,4.83415,4.83415,0,0,0-.90527-2.88574,10.12344,10.12344,0,0,0-2.65918-2.43164,68.4008,68.4008,0,0,0-7.14746-3.73437,33.82786,33.82786,0,0,1-7.58105-4.56445,17.11182,17.11182,0,0,1-4.03613-5.0918,14.52794,14.52794,0,0,1-1.50879-6.78906q0-7.31836,4.96-11.50391,4.96-4.18652,13.71094-4.1875a32.33968,32.33968,0,0,1,8.20313,1.01953,56.44878,56.44878,0,0,1,8.166,2.86523l-3.77148,9.09082a55.16138,55.16138,0,0,0-7.29883-2.52734,23.493,23.493,0,0,0-5.67578-.71582,7.5204,7.5204,0,0,0-5.09277,1.5459,5.10169,5.10169,0,0,0-1.77246,4.03613,4.99331,4.99331,0,0,0,.7168,2.69629,7.8672,7.8672,0,0,0,2.28223,2.22559,70.35654,70.35654,0,0,0,7.41113,3.86621q7.73145,3.6958,10.59863,7.41113A14.46779,14.46779,0,0,1,930.70745,201.905Z"/>
    <path class="cls-3" d="M961.975,217.21849H950.28264V171.80541H935.309v-9.73047h41.64063v9.73047H961.975Z"/>
    <path class="cls-3" d="M997.12835,196.05834v21.16016H985.436V162.07494h16.06738q11.23975,0,16.63379,4.0918,5.39355,4.09277,5.39356,12.42773a14.62912,14.62912,0,0,1-2.67773,8.65625,17.72154,17.72154,0,0,1-7.58105,5.94141q12.44678,18.59473,16.21875,24.02637h-12.97559L1003.352,196.05834Zm0-9.50488h3.77148q5.54443,0,8.18555-1.84766,2.63965-1.84863,2.63965-5.80859,0-3.92285-2.69629-5.582-2.69824-1.66113-8.35449-1.66016h-3.5459Z"/>
    <path class="cls-3" d="M1068.18987,217.21849h-31.75879V162.07494h31.75879V171.655h-20.06641v12.10742h18.6709v9.58008h-18.6709v14.2207h20.06641Z"/>
    <path class="cls-3" d="M1091.19768,217.21849h-11.50391V162.07494h31.60742V171.655h-20.10352v14.21973h18.708v9.542h-18.708Z"/>
    <path class="cls-3" d="M1139.25042,184.781l11.50488-22.70605H1163.353L1145.059,195.75658v21.46191h-11.61719v-21.085l-18.293-34.05859h12.67285Z"/>
    <path class="cls-3" d="M1222.11858,217.21849h-31.75879V162.07494h31.75879V171.655h-20.06641v12.10742h18.6709v9.58008h-18.6709v14.2207h20.06641Z"/>
    <path class="cls-3" d="M1278.50725,162.07494v35.68164a20.56755,20.56755,0,0,1-2.73535,10.71094,17.79294,17.79294,0,0,1-7.90137,7.05371,28.25929,28.25929,0,0,1-12.2207,2.45215q-10.63623,0-16.52051-5.45117-5.88428-5.44922-5.88477-14.917V162.07494h11.65527v33.75781q0,6.375,2.56543,9.35352,2.56348,2.97949,8.48633,2.98047,5.73193,0,8.31641-2.999,2.584-2.99854,2.584-9.41113V162.07494Z"/>
    <path class="cls-3" d="M1303.70257,196.05834v21.16016h-11.69238V162.07494h16.06738q11.23975,0,16.63379,4.0918,5.39355,4.09277,5.39355,12.42773a14.62911,14.62911,0,0,1-2.67773,8.65625,17.72154,17.72154,0,0,1-7.58105,5.94141q12.44678,18.59473,16.21875,24.02637h-12.97559l-13.16309-21.16016Zm0-9.50488h3.77148q5.54443,0,8.18555-1.84766,2.63965-1.84863,2.63965-5.80859,0-3.92285-2.69629-5.582-2.69824-1.66113-8.35449-1.66016h-3.5459Z"/>
    <path class="cls-3" d="M1393.05706,189.571q0,13.69189-6.78906,21.04688-6.78955,7.355-19.46289,7.35547-12.67383,0-19.46289-7.35547-6.78808-7.355-6.78906-21.12207,0-13.76807,6.80859-21.02832,6.80713-7.25977,19.51855-7.26074,12.71045,0,19.44434,7.31738Q1393.05706,175.84252,1393.05706,189.571Zm-40.24512,0q0,9.2417,3.50781,13.918,3.50684,4.67725,10.48535,4.67773,13.99365,0,13.99316-18.5957,0-18.63281-13.918-18.63281-6.97851,0-10.52344,4.69531Q1352.81194,180.32982,1352.81194,189.571Z"/>
  </g>
</svg>
