<svg id="Layer_1" data-name="Layer 1" xmlns="http://www.w3.org/2000/svg" width="1518.29966" height="377.68065" viewBox="0 0 1518.29966 377.68065">
  <defs>
    <style>
      .cls-1 {
        fill: #003299;
      }

      .cls-2 {
        fill: #fff315;
      }

      .cls-3 {
        fill: #fff;
      }
    </style>
  </defs>
  <title>ECB_Logo_Euro area statistics_486817</title>
  <g id="Capa_1" data-name="Capa 1">
    <g id="Ebene_1" data-name="Ebene 1">
      <path class="cls-1" d="M364.88208,84.51082a170.93978,170.93978,0,0,0-274.093,0h-71.888v215.44h80.971a170.888,170.888,0,0,0,255.927,0h1139.102v-215.44Z"/>
      <path class="cls-2" d="M310.53308,120.88882c-17.559-21.506-46.594-36.557-82.432-36.557-44.81,0-80.656,29.392-91.764,68.104h159.505l-10.753,22.577h-153.769c-.363,4.662-.719,8.244-.719,11.828,0,3.587.356,6.809.719,10.756h143.371l-10.752,22.586h-127.603c12.906,42.28,48.748,68.811,95.342,68.811,32.259,0,60.931-13.977,78.854-35.479v30.467c-17.923,14.33-48.384,27.588-80.642,27.588-57.354,0-105.741-34.764-119.002-91.387h-40.505l10.753-22.586h25.449c-.36-4.664-.36-7.886-.36-11.117,0-3.579,0-6.805.36-11.466h-36.202l10.753-22.577h29.75c13.262-56.641,61.649-90.693,120.791-90.693,34.048,0,69.895,14.344,89.251,37.288Z"/>
    </g>
  </g>
  <g>
    <path class="cls-3" d="M506.08733,204.10273a14.25746,14.25746,0,0,1-5.375,11.76855q-5.37451,4.29932-14.95508,4.2998a35.1164,35.1164,0,0,1-15.61523-3.31934V205.98847a64.19584,64.19584,0,0,0,9.44824,3.50781,27.92208,27.92208,0,0,0,7.07227,1.01855,10.05522,10.05522,0,0,0,5.90234-1.4707,5.03154,5.03154,0,0,0,2.05566-4.376,4.83121,4.83121,0,0,0-.90527-2.88477,10.1089,10.1089,0,0,0-2.65918-2.43262,68.40076,68.40076,0,0,0-7.14746-3.73437,33.82787,33.82787,0,0,1-7.58105-4.56445,17.11182,17.11182,0,0,1-4.03613-5.0918,14.52794,14.52794,0,0,1-1.50879-6.78906q0-7.31689,4.96-11.50391,4.96-4.18652,13.71094-4.18652a32.33968,32.33968,0,0,1,8.20313,1.01855,56.45851,56.45851,0,0,1,8.166,2.86621l-3.77148,9.08984a55.30477,55.30477,0,0,0-7.29883-2.52734,23.54157,23.54157,0,0,0-5.67578-.71582,7.5204,7.5204,0,0,0-5.09277,1.5459,5.10169,5.10169,0,0,0-1.77246,4.03613,4.99331,4.99331,0,0,0,.7168,2.69629,7.8672,7.8672,0,0,0,2.28223,2.22559,70.35655,70.35655,0,0,0,7.41113,3.86621q7.73145,3.69727,10.59863,7.41211A14.463,14.463,0,0,1,506.08733,204.10273Zm-.52832-56.61523V148.506q-3.16846,3.16846-5.82715,6.31836a46.414,46.414,0,0,0-3.8291,5.03516H482.43792a39.87664,39.87664,0,0,0-3.13086-4.24316q-2.03613-2.46973-6.52539-7.11035v-1.01855h7.65723a49.36725,49.36725,0,0,1,8.6377,6.63867,42.28205,42.28205,0,0,1,8.8252-6.63867Z"/>
    <path class="cls-3" d="M537.35491,219.41621H525.66253V174.0041H510.68889v-9.73145h41.64063v9.73145H537.35491Z"/>
    <path class="cls-3" d="M594.57366,219.41621l-3.998-13.126H570.47112l-3.998,13.126H553.87542l19.46289-55.37012h14.29492l19.53809,55.37012Zm-6.79-22.93262q-5.54443-17.84033-6.24219-20.17871-.69727-2.33936-.999-3.69629-1.24512,4.82813-7.12891,23.875Z"/>
    <path class="cls-3" d="M635.38421,219.41621H623.69182V174.0041H608.71819v-9.73145h41.64063v9.73145H635.38421Z"/>
    <path class="cls-3" d="M658.84514,219.41621V164.27265h11.69238v55.14355Z"/>
    <path class="cls-3" d="M716.96917,204.10273a14.25746,14.25746,0,0,1-5.375,11.76855q-5.37451,4.29932-14.95508,4.2998a35.1164,35.1164,0,0,1-15.61523-3.31934V205.98847a64.19584,64.19584,0,0,0,9.44824,3.50781,27.92208,27.92208,0,0,0,7.07227,1.01855,10.05523,10.05523,0,0,0,5.90234-1.4707,5.03154,5.03154,0,0,0,2.05566-4.376,4.83121,4.83121,0,0,0-.90527-2.88477,10.1089,10.1089,0,0,0-2.65918-2.43262,68.40076,68.40076,0,0,0-7.14746-3.73437,33.82787,33.82787,0,0,1-7.58105-4.56445,17.11182,17.11182,0,0,1-4.03613-5.0918,14.52794,14.52794,0,0,1-1.50879-6.78906q0-7.31689,4.96-11.50391,4.96-4.18652,13.71094-4.18652a32.33968,32.33968,0,0,1,8.20313,1.01855,56.45852,56.45852,0,0,1,8.166,2.86621l-3.77148,9.08984a55.30477,55.30477,0,0,0-7.29883-2.52734,23.54157,23.54157,0,0,0-5.67578-.71582,7.5204,7.5204,0,0,0-5.09277,1.5459,5.10169,5.10169,0,0,0-1.77246,4.03613,4.99331,4.99331,0,0,0,.7168,2.69629,7.8672,7.8672,0,0,0,2.28223,2.22559,70.35656,70.35656,0,0,0,7.41113,3.86621q7.73145,3.69727,10.59863,7.41211A14.463,14.463,0,0,1,716.96917,204.10273Z"/>
    <path class="cls-3" d="M748.23674,219.41621H736.54436V174.0041H721.57073v-9.73145h41.64063v9.73145H748.23674Z"/>
    <path class="cls-3" d="M771.69768,219.41621V164.27265h11.69238v55.14355Z"/>
    <path class="cls-3" d="M841.62737,219.41621H828.35l-14.44531-23.23437-4.94141,3.5459v19.68848H797.27092V164.27265h11.69238V189.506l4.60156-6.4873,14.93652-18.74609H841.476L822.23967,188.676Z"/>
    <path class="cls-3" d="M882.32561,219.41621l-3.998-13.126H858.22307l-3.998,13.126H841.62737l19.46289-55.37012h14.29492l19.53809,55.37012Zm-6.79-22.93262q-5.54443-17.84033-6.24219-20.17871-.69727-2.33936-.999-3.69629-1.24512,4.82813-7.12891,23.875Z"/>
    <path class="cls-3" d="M953.68889,219.41621H921.9301V164.27265h31.75879v9.58008H933.62249v12.10742h18.6709v9.58105h-18.6709v14.21973h20.06641Z"/>
    <path class="cls-3" d="M1010.07757,164.27265v35.68164a20.57111,20.57111,0,0,1-2.73535,10.71191,17.79667,17.79667,0,0,1-7.90137,7.05273,28.25928,28.25928,0,0,1-12.2207,2.45215q-10.63623,0-16.52051-5.4502-5.88428-5.45068-5.88477-14.918V164.27265h11.65527v33.75781q0,6.375,2.56543,9.35352,2.56348,2.981,8.48633,2.98047,5.73193,0,8.31641-2.999,2.584-2.99854,2.584-9.41016V164.27265Z"/>
    <path class="cls-3" d="M1035.27288,198.256v21.16016H1023.5805V164.27265h16.06738q11.23975,0,16.63379,4.0918,5.39355,4.09424,5.39355,12.42871a14.63336,14.63336,0,0,1-2.67773,8.65625,17.71972,17.71972,0,0,1-7.58106,5.94043q12.44678,18.59619,16.21875,24.02637H1054.6596L1041.49651,198.256Zm0-9.50488h3.77148q5.54443,0,8.18555-1.84766,2.63965-1.84717,2.63965-5.80859,0-3.92285-2.69629-5.582-2.69824-1.65967-8.35449-1.66016h-3.5459Z"/>
    <path class="cls-3" d="M1124.62737,191.76874q0,13.69189-6.78906,21.04688-6.78955,7.355-19.46289,7.35547-12.67383,0-19.46289-7.35547-6.78809-7.355-6.78906-21.12207,0-13.7666,6.80859-21.02832,6.80713-7.25977,19.51856-7.26074,12.71045,0,19.44434,7.31738Q1124.62737,178.04023,1124.62737,191.76874Zm-40.24512,0q0,9.2417,3.50781,13.918,3.50684,4.67725,10.48535,4.67773,13.99365,0,13.99316-18.5957,0-18.63281-13.918-18.63281-6.97852,0-10.52344,4.69629T1084.38225,191.76874Z"/>
    <path class="cls-3" d="M1172.00139,219.41621h-41.03711v-7.58105l26.44043-37.90723H1131.6801v-9.65527h39.60449v7.543l-26.40234,37.94531h27.11914Z"/>
    <path class="cls-3" d="M1230.84124,191.76874q0,13.69189-6.78906,21.04688-6.78955,7.355-19.46289,7.35547-12.67383,0-19.46289-7.35547-6.78809-7.355-6.78906-21.12207,0-13.7666,6.80859-21.02832,6.80713-7.25977,19.51856-7.26074,12.71045,0,19.44434,7.31738Q1230.84124,178.04023,1230.84124,191.76874Zm-40.24512,0q0,9.2417,3.50781,13.918,3.50684,4.67725,10.48535,4.67773,13.99365,0,13.99316-18.5957,0-18.63281-13.918-18.63281-6.97852,0-10.52344,4.69629T1190.59612,191.76874Zm8.07129-31.90918V158.841a106.14609,106.14609,0,0,0,8.86426-11.35352h12.89941v.792q-1.96143,1.96289-6.69531,5.82813-4.73291,3.86572-7.41113,5.752Z"/>
    <path class="cls-3" d="M1291.18987,219.41621h-14.86035l-23.98926-41.71582h-.33887q.71484,11.05225.71582,15.76563v25.9502h-10.44726V164.27265H1257.017l23.95117,41.30078h.26465q-.56689-10.749-.56641-15.2002V164.27265h10.52344Z"/>
    <path class="cls-3" d="M1322.23186,186.97871l11.50488-22.70605h12.59766l-18.29395,33.68262v21.46094h-11.61719v-21.084l-18.293-34.05957h12.67285Z"/>
  </g>
</svg>
