<svg id="Layer_1" data-name="Layer 1" xmlns="http://www.w3.org/2000/svg" width="1428.544" height="377.681" viewBox="0 0 1428.544 377.681">
  <defs>
    <style>
      .cls-1 {
        fill: #003299;
      }

      .cls-2 {
        fill: #fff315;
      }

      .cls-3 {
        fill: #fff;
      }
    </style>
  </defs>
  <title>ECB_Logo_Euro area statistics_486817_update</title>
  <g id="Capa_1" data-name="Capa 1">
    <g id="Ebene_1" data-name="Ebene 1">
      <path class="cls-1" d="M364.882,84.511a170.94,170.94,0,0,0-274.093,0H18.9v215.44H99.872a170.888,170.888,0,0,0,255.927,0H1409.428V84.511Z"/>
      <path class="cls-2" d="M310.533,120.889C292.974,99.383,263.939,84.332,228.1,84.332c-44.81,0-80.656,29.392-91.764,68.1h159.5l-10.753,22.577H131.32c-.363,4.662-.719,8.244-.719,11.828s.356,6.809.719,10.756H274.691l-10.752,22.586h-127.6c12.906,42.28,48.748,68.811,95.342,68.811,32.259,0,60.931-13.977,78.854-35.479v30.467c-17.923,14.33-48.384,27.588-80.642,27.588-57.354,0-105.741-34.764-119-91.387H70.383L81.136,197.6h25.449c-.36-4.664-.36-7.886-.36-11.117,0-3.579,0-6.8.36-11.466h-36.2l10.753-22.577h29.75C124.148,95.8,172.535,61.744,231.677,61.744c34.048,0,69.895,14.344,89.251,37.288Z"/>
    </g>
  </g>
  <g>
    <path class="cls-3" d="M692.965,161.251a14.254,14.254,0,0,1-5.375,11.768q-5.375,4.3-14.955,4.3A35.116,35.116,0,0,1,657.019,174V163.137a64.309,64.309,0,0,0,9.448,3.508,27.966,27.966,0,0,0,7.072,1.019,10.048,10.048,0,0,0,5.9-1.472,5.031,5.031,0,0,0,2.056-4.375,4.832,4.832,0,0,0-.905-2.886,10.125,10.125,0,0,0-2.659-2.433,68.6,68.6,0,0,0-7.147-3.734A33.83,33.83,0,0,1,663.2,148.2a17.112,17.112,0,0,1-4.036-5.092,14.531,14.531,0,0,1-1.509-6.789q0-7.318,4.96-11.5t13.711-4.187a32.384,32.384,0,0,1,8.2,1.019,56.459,56.459,0,0,1,8.166,2.866l-3.771,9.091a55.161,55.161,0,0,0-7.3-2.527,23.5,23.5,0,0,0-5.676-.717,7.516,7.516,0,0,0-5.093,1.547,5.1,5.1,0,0,0-1.772,4.035,5,5,0,0,0,.717,2.7,7.867,7.867,0,0,0,2.282,2.226,70.554,70.554,0,0,0,7.411,3.866q7.731,3.7,10.6,7.411A14.468,14.468,0,0,1,692.965,161.251Z"/>
    <path class="cls-3" d="M724.232,176.564H712.54V131.151H697.566V121.42h41.641v9.731H724.232Z"/>
    <path class="cls-3" d="M781.451,176.564l-4-13.126h-20.1l-4,13.126h-12.6l19.463-55.37H774.51l19.538,55.37Zm-6.79-22.933q-5.544-17.84-6.242-20.18t-1-3.7q-1.245,4.828-7.129,23.876Z"/>
    <path class="cls-3" d="M822.261,176.564H810.569V131.151H795.6V121.42h41.641v9.731H822.261Z"/>
    <path class="cls-3" d="M845.722,176.564V121.42h11.692v55.145Z"/>
    <path class="cls-3" d="M903.846,161.251a14.254,14.254,0,0,1-5.375,11.768q-5.375,4.3-14.955,4.3A35.116,35.116,0,0,1,867.9,174V163.137a64.309,64.309,0,0,0,9.448,3.508,27.966,27.966,0,0,0,7.072,1.019,10.048,10.048,0,0,0,5.9-1.472,5.031,5.031,0,0,0,2.056-4.375,4.832,4.832,0,0,0-.905-2.886,10.125,10.125,0,0,0-2.659-2.433,68.6,68.6,0,0,0-7.147-3.734,33.83,33.83,0,0,1-7.581-4.563,17.112,17.112,0,0,1-4.036-5.092,14.531,14.531,0,0,1-1.509-6.789q0-7.318,4.96-11.5t13.711-4.187a32.384,32.384,0,0,1,8.2,1.019,56.459,56.459,0,0,1,8.166,2.866L899.81,133.6a55.161,55.161,0,0,0-7.3-2.527,23.5,23.5,0,0,0-5.676-.717,7.516,7.516,0,0,0-5.093,1.547,5.1,5.1,0,0,0-1.772,4.035,5,5,0,0,0,.717,2.7,7.867,7.867,0,0,0,2.282,2.226,70.554,70.554,0,0,0,7.411,3.866q7.731,3.7,10.6,7.411A14.468,14.468,0,0,1,903.846,161.251Z"/>
    <path class="cls-3" d="M935.114,176.564H923.422V131.151H908.448V121.42h41.641v9.731H935.114Z"/>
    <path class="cls-3" d="M958.575,176.564V121.42h11.692v55.145Z"/>
    <path class="cls-3" d="M1028.5,176.564h-13.277l-14.445-23.234-4.941,3.545v19.689H984.148V121.42h11.692v25.233l4.6-6.487,14.937-18.746h12.975l-19.236,24.4Z"/>
    <path class="cls-3" d="M1069.2,176.564l-4-13.126h-20.1l-4,13.126h-12.6l19.463-55.37h14.295l19.538,55.37Zm-6.79-22.933q-5.544-17.84-6.242-20.18t-1-3.7q-1.245,4.828-7.129,23.876Z"/>
    <path class="cls-3" d="M500.526,269.261H488.834V223.848H473.86v-9.73H515.5v9.73H500.526Z"/>
    <path class="cls-3" d="M557.745,269.261l-4-13.126h-20.1l-4,13.126h-12.6l19.463-55.37H550.8l19.538,55.37Zm-6.79-22.933q-5.544-17.84-6.242-20.18t-1-3.7q-1.245,4.83-7.129,23.876Z"/>
    <path class="cls-3" d="M613.228,269.261H572.191V261.68l26.44-37.907H572.907v-9.655h39.6v7.543l-26.4,37.944h27.119Zm-26.817-65.818q0-5.619,6.261-5.62t6.262,5.62a5.48,5.48,0,0,1-1.565,4.168,6.582,6.582,0,0,1-4.7,1.49Q586.411,209.1,586.411,203.442Z"/>
    <path class="cls-3" d="M617.377,253.269v-9.43h20.255v9.43Z"/>
    <path class="cls-3" d="M682.818,269.261H641.781V261.68l26.44-37.907H642.5v-9.655h39.6v7.543L655.7,259.6h27.119ZM656,203.442q0-5.619,6.261-5.62t6.262,5.62a5.48,5.48,0,0,1-1.565,4.168,6.582,6.582,0,0,1-4.7,1.49Q656,209.1,656,203.442Z"/>
    <path class="cls-3" d="M741.658,241.613q0,13.692-6.789,21.047t-19.463,7.354q-12.674,0-19.463-7.354t-6.789-21.122q0-13.767,6.809-21.028t19.519-7.261q12.71,0,19.444,7.317T741.658,241.613Zm-40.245,0q0,9.242,3.508,13.918t10.485,4.677q13.994,0,13.993-18.595,0-18.633-13.918-18.633-6.979,0-10.523,4.7T701.413,241.613Z"/>
    <path class="cls-3" d="M802.007,269.261h-14.86l-23.989-41.717h-.339q.715,11.052.716,15.767v25.95H753.087V214.117h14.747l23.951,41.3h.265q-.567-10.749-.566-15.2v-26.1h10.523Z"/>
    <path class="cls-3" d="M849.645,269.261l-4-13.126h-20.1l-4,13.126h-12.6l19.463-55.37H842.7l19.538,55.37Zm-6.79-22.933q-5.544-17.84-6.242-20.18t-1-3.7q-1.245,4.83-7.129,23.876Z"/>
    <path class="cls-3" d="M910.522,269.261H898.83V223.848H883.856v-9.73H925.5v9.73H910.522Z"/>
    <path class="cls-3" d="M967.741,269.261l-4-13.126h-20.1l-4,13.126h-12.6l19.463-55.37H960.8l19.538,55.37Zm-6.79-22.933q-5.544-17.84-6.242-20.18t-1-3.7q-1.245,4.83-7.129,23.876Z"/>
    <path class="cls-3" d="M987.279,269.261V214.117h11.692V259.6h22.367v9.656Z"/>
    <path class="cls-3" d="M1026.279,253.269v-9.43h20.255v9.43Z"/>
    <path class="cls-3" d="M1087.534,269.261h-31.759V214.117h31.759v9.58h-20.066V235.8h18.671v9.58h-18.671V259.6h20.066Z"/>
    <path class="cls-3" d="M1143.923,214.117V249.8a20.566,20.566,0,0,1-2.735,10.712,17.8,17.8,0,0,1-7.9,7.054,28.259,28.259,0,0,1-12.221,2.451q-10.636,0-16.521-5.45t-5.885-14.917v-35.53h11.655v33.758q0,6.374,2.565,9.354t8.486,2.979q5.732,0,8.316-3t2.584-9.411V214.117Z"/>
    <path class="cls-3" d="M1169.118,248.1v21.16h-11.692V214.117h16.067q11.24,0,16.634,4.092t5.394,12.429a14.633,14.633,0,0,1-2.678,8.656,17.727,17.727,0,0,1-7.581,5.94q12.447,18.595,16.219,24.026H1188.5l-13.163-21.16Zm0-9.5h3.771q5.544,0,8.186-1.848t2.64-5.809q0-3.923-2.7-5.583t-8.354-1.659h-3.546Z"/>
    <path class="cls-3" d="M1258.472,241.613q0,13.692-6.789,21.047t-19.463,7.354q-12.674,0-19.463-7.354t-6.789-21.122q0-13.767,6.809-21.028t19.519-7.261q12.71,0,19.444,7.317T1258.472,241.613Zm-40.245,0q0,9.242,3.508,13.918t10.485,4.677q13.994,0,13.993-18.595,0-18.633-13.918-18.633-6.979,0-10.523,4.7T1218.227,241.613Z"/>
  </g>
</svg>
