<svg id="Layer_1" data-name="Layer 1" xmlns="http://www.w3.org/2000/svg" width="1518.29966" height="377.68065" viewBox="0 0 1518.29966 377.68065">
  <defs>
    <style>
      .cls-1 {
        fill: #003299;
      }

      .cls-2 {
        fill: #fff315;
      }

      .cls-3 {
        fill: #fff;
      }
    </style>
  </defs>
  <title>ECB_Logo_Euro area statistics_486817</title>
  <g id="Capa_1" data-name="Capa 1">
    <g id="Ebene_1" data-name="Ebene 1">
      <path class="cls-1" d="M364.88208,84.51082a170.93978,170.93978,0,0,0-274.093,0h-71.888v215.44h80.971a170.888,170.888,0,0,0,255.927,0h1139.102v-215.44Z"/>
      <path class="cls-2" d="M310.53308,120.88882c-17.559-21.506-46.594-36.557-82.432-36.557-44.81,0-80.656,29.392-91.764,68.104h159.505l-10.753,22.577h-153.769c-.363,4.662-.719,8.244-.719,11.828,0,3.587.356,6.809.719,10.756h143.371l-10.752,22.586h-127.603c12.906,42.28,48.748,68.811,95.342,68.811,32.259,0,60.931-13.977,78.854-35.479v30.467c-17.923,14.33-48.384,27.588-80.642,27.588-57.354,0-105.741-34.764-119.002-91.387h-40.505l10.753-22.586h25.449c-.36-4.664-.36-7.886-.36-11.117,0-3.579,0-6.805.36-11.466h-36.202l10.753-22.577h29.75c13.262-56.641,61.649-90.693,120.791-90.693,34.048,0,69.895,14.344,89.251,37.288Z"/>
    </g>
  </g>
  <g>
    <path class="cls-3" d="M436.75286,205.04316a14.25746,14.25746,0,0,1-5.375,11.76855q-5.37451,4.29932-14.95508,4.29883a35.11623,35.11623,0,0,1-15.61523-3.31836V206.9289a64.19586,64.19586,0,0,0,9.44824,3.50781,27.92208,27.92208,0,0,0,7.07227,1.01855,10.04769,10.04769,0,0,0,5.90234-1.47168,5.02975,5.02975,0,0,0,2.05566-4.375,4.82912,4.82912,0,0,0-.90527-2.88477,10.11088,10.11088,0,0,0-2.65918-2.43359,68.59757,68.59757,0,0,0-7.14746-3.73437,33.83019,33.83019,0,0,1-7.58105-4.56348,17.11182,17.11182,0,0,1-4.03613-5.0918,14.53073,14.53073,0,0,1-1.50879-6.78906q0-7.31689,4.96-11.50488,4.96-4.18652,13.71094-4.18555a32.3837,32.3837,0,0,1,8.20313,1.01758,56.46826,56.46826,0,0,1,8.166,2.86719l-3.77148,9.08984a55.30476,55.30476,0,0,0-7.29883-2.52734,23.5436,23.5436,0,0,0-5.67578-.7168,7.51552,7.51552,0,0,0-5.09277,1.54688,5.10107,5.10107,0,0,0-1.77246,4.03516,4.99673,4.99673,0,0,0,.7168,2.69727,7.86721,7.86721,0,0,0,2.28223,2.22559,70.55388,70.55388,0,0,0,7.41113,3.86621q7.73145,3.69727,10.59863,7.41211A14.463,14.463,0,0,1,436.75286,205.04316Z"/>
    <path class="cls-3" d="M468.02044,220.35664H456.32805V174.94453H441.35442V165.2121H482.995v9.73242H468.02044Z"/>
    <path class="cls-3" d="M525.23919,220.35664l-3.998-13.126H501.13665l-3.998,13.126H484.54094l19.46289-55.37012h14.29492l19.53809,55.37012Zm-6.79-22.93262q-5.54443-17.84033-6.24219-20.17871-.69727-2.33936-.999-3.69727-1.24512,4.82813-7.12891,23.876Z"/>
    <path class="cls-3" d="M566.04973,220.35664H554.35735V174.94453H539.38372V165.2121h41.64063v9.73242H566.04973Z"/>
    <path class="cls-3" d="M589.51067,220.35664V165.2121h11.69238v55.14453Z"/>
    <path class="cls-3" d="M647.63469,205.04316a14.25746,14.25746,0,0,1-5.375,11.76855q-5.37451,4.29932-14.95508,4.29883a35.11623,35.11623,0,0,1-15.61523-3.31836V206.9289a64.19586,64.19586,0,0,0,9.44824,3.50781,27.92208,27.92208,0,0,0,7.07227,1.01855,10.04769,10.04769,0,0,0,5.90234-1.47168,5.02975,5.02975,0,0,0,2.05566-4.375,4.82912,4.82912,0,0,0-.90527-2.88477,10.11088,10.11088,0,0,0-2.65918-2.43359,68.59757,68.59757,0,0,0-7.14746-3.73437,33.83019,33.83019,0,0,1-7.58105-4.56348,17.11182,17.11182,0,0,1-4.03613-5.0918,14.53073,14.53073,0,0,1-1.50879-6.78906q0-7.31689,4.96-11.50488,4.96-4.18652,13.71094-4.18555a32.3837,32.3837,0,0,1,8.20313,1.01758,56.46825,56.46825,0,0,1,8.166,2.86719l-3.77148,9.08984a55.30476,55.30476,0,0,0-7.29883-2.52734,23.5436,23.5436,0,0,0-5.67578-.7168,7.51552,7.51552,0,0,0-5.09277,1.54688,5.10107,5.10107,0,0,0-1.77246,4.03516,4.99673,4.99673,0,0,0,.7168,2.69727,7.8672,7.8672,0,0,0,2.28223,2.22559,70.55387,70.55387,0,0,0,7.41113,3.86621q7.73145,3.69727,10.59863,7.41211A14.463,14.463,0,0,1,647.63469,205.04316Z"/>
    <path class="cls-3" d="M678.90276,220.35664H667.21038V174.94453H652.23626V165.2121h41.64111v9.73242H678.90276Z"/>
    <path class="cls-3" d="M702.3637,220.35664V165.2121h11.69238v55.14453Z"/>
    <path class="cls-3" d="M772.29339,220.35664H759.016l-14.44531-23.23437-4.94141,3.54492v19.68945H727.93694V165.2121h11.69238v25.23438l4.60156-6.48828,14.93652-18.74609H772.142l-19.23633,24.4043Z"/>
    <path class="cls-3" d="M812.99163,220.35664l-3.998-13.126H788.88909l-3.998,13.126H772.29339l19.46289-55.37012H806.0512l19.53809,55.37012Zm-6.79-22.93262q-5.54443-17.84033-6.24219-20.17871-.69727-2.33936-.999-3.69727-1.24512,4.82813-7.12891,23.876Z"/>
    <path class="cls-3" d="M884.35491,220.35664H852.59612V165.2121h31.75879v9.58105H864.2885v12.10742h18.6709v9.58105H864.2885v14.21875h20.06641Z"/>
    <path class="cls-3" d="M940.74358,165.2121v35.68164a20.57223,20.57223,0,0,1-2.73535,10.71289,17.8024,17.8024,0,0,1-7.90137,7.05273,28.25943,28.25943,0,0,1-12.2207,2.45117q-10.63623,0-16.52051-5.44922-5.88428-5.45068-5.88477-14.918V165.2121h11.65527v33.75781q0,6.375,2.56543,9.35449,2.56348,2.981,8.48633,2.97949,5.73193,0,8.31641-2.998,2.584-2.99854,2.584-9.41016V165.2121Z"/>
    <path class="cls-3" d="M965.93889,199.19648v21.16016H954.24651V165.2121h16.06738q11.23975,0,16.63379,4.09277,5.39355,4.09424,5.39355,12.42871a14.63336,14.63336,0,0,1-2.67773,8.65625,17.71972,17.71972,0,0,1-7.58105,5.94043q12.44678,18.59619,16.21875,24.02637H985.32561l-13.16309-21.16016Zm0-9.50488h3.77148q5.54443,0,8.18555-1.84863,2.63965-1.8457,2.63965-5.80859,0-3.92139-2.69629-5.582-2.69824-1.6582-8.35449-1.65918h-3.5459Z"/>
    <path class="cls-3" d="M1055.29339,192.70917q0,13.69189-6.78906,21.04688-6.78955,7.355-19.46289,7.35449-12.67383,0-19.46289-7.35449-6.78809-7.355-6.78906-21.12207,0-13.7666,6.80859-21.02832,6.80713-7.26123,19.51855-7.26074,12.71045,0,19.44434,7.31738Q1055.29339,178.98066,1055.29339,192.70917Zm-40.24512,0q0,9.2417,3.50781,13.918,3.50684,4.67725,10.48535,4.67676,13.99365,0,13.99316-18.59473,0-18.63281-13.918-18.63281-6.97851,0-10.52344,4.69629T1015.04827,192.70917Z"/>
    <path class="cls-3" d="M1116.77385,192.70917q0,13.69189-6.78906,21.04688-6.78955,7.355-19.46289,7.35449-12.67383,0-19.46289-7.35449-6.78809-7.355-6.78906-21.12207,0-13.7666,6.80859-21.02832,6.80713-7.26123,19.51855-7.26074,12.71045,0,19.44434,7.31738Q1116.77385,178.98066,1116.77385,192.70917Zm-40.24512,0q0,9.2417,3.50781,13.918,3.50684,4.67725,10.48535,4.67676,13.99365,0,13.99316-18.59473,0-18.63281-13.918-18.63281-6.97852,0-10.52344,4.69629T1076.52874,192.70917Z"/>
    <path class="cls-3" d="M1128.20257,165.2121h17.16113q11.73047,0,17.03027,3.33789,5.29834,3.33984,5.29883,10.61816a13.376,13.376,0,0,1-2.31934,8.10938,9.26454,9.26454,0,0,1-6.167,3.80957v.377q5.24268,1.17041,7.5625,4.376a14.23153,14.23153,0,0,1,2.32031,8.52441q0,7.54395-5.45117,11.76758-5.45068,4.22461-14.80371,4.22461h-20.63184Zm11.69238,21.83984h6.78906q4.75342,0,6.88379-1.47168,2.12988-1.4707,2.13086-4.86523a4.87216,4.87216,0,0,0-2.31934-4.5459q-2.32031-1.37549-7.33594-1.376h-6.14844Zm0,9.27832v14.37012h7.61914q4.82813,0,7.12891-1.84766,2.2998-1.84863,2.30078-5.6582,0-6.86426-9.80664-6.86426Z"/>
    <path class="cls-3" d="M1203.45061,220.35664l-13.27734-43.2627h-.33887q.71484,13.20264.71582,17.61426v25.64844H1180.103V165.2121h15.917l13.05078,42.16992h.22559l13.84277-42.16992h15.917v55.14453h-10.90039V194.25507q0-1.8457.05664-4.26172.05713-2.41406.50879-12.82422h-.33887l-14.21973,43.1875Z"/>
    <path class="cls-3" d="M1302.9887,192.70917q0,13.69189-6.78906,21.04688-6.78955,7.355-19.46289,7.35449-12.67383,0-19.46289-7.35449-6.78809-7.355-6.78906-21.12207,0-13.7666,6.80859-21.02832,6.80713-7.26123,19.51856-7.26074,12.71045,0,19.44434,7.31738Q1302.9887,178.98066,1302.9887,192.70917Zm-40.24512,0q0,9.2417,3.50781,13.918,3.50684,4.67725,10.48535,4.67676,13.99365,0,13.99316-18.59473,0-18.63281-13.918-18.63281-6.97852,0-10.52344,4.69629T1262.74358,192.70917Z"/>
    <path class="cls-3" d="M1337.84026,174.15156a11.91531,11.91531,0,0,0-10.22168,4.96094q-3.62109,4.96-3.62109,13.82324,0,18.44385,13.84277,18.44434a43.77436,43.77436,0,0,0,14.06836-2.9043v9.80664a39.06863,39.06863,0,0,1-15.16211,2.82813q-12.03223,0-18.40625-7.29785-6.375-7.29932-6.375-20.95215a34.19885,34.19885,0,0,1,3.13086-15.06836,22.6199,22.6199,0,0,1,8.99609-9.91992,26.60783,26.60783,0,0,1,13.748-3.45117,37.1133,37.1133,0,0,1,16.14356,3.88477l-3.77246,9.50488a62.53286,62.53286,0,0,0-6.22363-2.56543A18.57927,18.57927,0,0,0,1337.84026,174.15156Zm15.917-25.72363v1.01855q-3.16846,3.16846-5.82715,6.31836A46.31833,46.31833,0,0,0,1344.101,160.8h-13.46484a40.11169,40.11169,0,0,0-3.13086-4.24414q-2.03613-2.46973-6.52539-7.10937v-1.01855h7.65723a49.36725,49.36725,0,0,1,8.6377,6.63867,42.24823,42.24823,0,0,1,8.8252-6.63867Z"/>
    <path class="cls-3" d="M1357.86858,236.57539a25.59368,25.59368,0,0,1-6.90234-.83008v-9.73047a22.92832,22.92832,0,0,0,5.50684.75391q3.84814,0,5.50684-2.39453,1.65967-2.39648,1.66016-7.48828V165.2121h11.69238v51.59961q0,9.65332-4.41309,14.709Q1366.50579,236.57441,1357.86858,236.57539Z"/>
    <path class="cls-3" d="M1422.97112,220.35664l-3.998-13.126h-20.10449l-3.998,13.126h-12.59766l19.46289-55.37012h14.29492l19.53809,55.37012Zm-6.79-22.93262q-5.54443-17.84033-6.24219-20.17871-.69727-2.33936-.999-3.69727-1.24512,4.82813-7.12891,23.876Z"/>
  </g>
</svg>
