<svg id="Layer_1" data-name="Layer 1" xmlns="http://www.w3.org/2000/svg" width="1518.29966" height="377.68065" viewBox="0 0 1518.29966 377.68065">
  <defs>
    <style>
      .cls-1 {
        fill: #003299;
      }

      .cls-2 {
        fill: #fff315;
      }

      .cls-3 {
        fill: #fff;
      }
    </style>
  </defs>
  <title>ECB_Logo_Euro area statistics_486817</title>
  <g id="Capa_1" data-name="Capa 1">
    <g id="Ebene_1" data-name="Ebene 1">
      <path class="cls-1" d="M364.88208,84.51082a170.93978,170.93978,0,0,0-274.093,0h-71.888v215.44h80.971a170.888,170.888,0,0,0,255.927,0h1139.102v-215.44Z"/>
      <path class="cls-2" d="M310.53308,120.88882c-17.559-21.506-46.594-36.557-82.432-36.557-44.81,0-80.656,29.392-91.764,68.104h159.505l-10.753,22.577h-153.769c-.363,4.662-.719,8.244-.719,11.828,0,3.587.356,6.809.719,10.756h143.371l-10.752,22.586h-127.603c12.906,42.28,48.748,68.811,95.342,68.811,32.259,0,60.931-13.977,78.854-35.479v30.467c-17.923,14.33-48.384,27.588-80.642,27.588-57.354,0-105.741-34.764-119.002-91.387h-40.505l10.753-22.586h25.449c-.36-4.664-.36-7.886-.36-11.117,0-3.579,0-6.805.36-11.466h-36.202l10.753-22.577h29.75c13.262-56.641,61.649-90.693,120.791-90.693,34.048,0,69.895,14.344,89.251,37.288Z"/>
    </g>
  </g>
  <g>
    <path class="cls-3" d="M684.918,158.0172a14.25587,14.25587,0,0,1-5.375,11.76807q-5.37451,4.3-14.95508,4.2998a35.1164,35.1164,0,0,1-15.61523-3.31934V159.90294a64.25215,64.25215,0,0,0,9.44824,3.50781,27.94406,27.94406,0,0,0,7.07227,1.01855,10.05146,10.05146,0,0,0,5.90234-1.47119,5.03123,5.03123,0,0,0,2.05566-4.37549,4.83163,4.83163,0,0,0-.90527-2.88525,10.11715,10.11715,0,0,0-2.65918-2.43262,68.499,68.499,0,0,0-7.14746-3.73437,33.829,33.829,0,0,1-7.58105-4.564,17.11182,17.11182,0,0,1-4.03613-5.0918,14.52934,14.52934,0,0,1-1.50879-6.78906q0-7.31763,4.96-11.50439,4.96-4.18652,13.71094-4.18652a32.36167,32.36167,0,0,1,8.20313,1.01855,56.45852,56.45852,0,0,1,8.166,2.86621l-3.77148,9.09033a55.233,55.233,0,0,0-7.29883-2.52734,23.51826,23.51826,0,0,0-5.67578-.71631,7.518,7.518,0,0,0-5.09277,1.54639,5.10138,5.10138,0,0,0-1.77246,4.03564,4.995,4.995,0,0,0,.7168,2.69678,7.8672,7.8672,0,0,0,2.28223,2.22559,70.45506,70.45506,0,0,0,7.41113,3.86621q7.73145,3.69653,10.59863,7.41162A14.46541,14.46541,0,0,1,684.918,158.0172Z"/>
    <path class="cls-3" d="M716.18561,173.33068H704.49323v-45.4126H689.51959v-9.73145h41.64063v9.73145H716.18561Z"/>
    <path class="cls-3" d="M773.40436,173.33068l-3.998-13.126H749.30182l-3.998,13.126H732.70612L752.169,117.96056h14.29492L786.002,173.33068Zm-6.79-22.93262q-5.54443-17.84033-6.24219-20.1792-.69727-2.33862-.999-3.69629-1.24512,4.82813-7.12891,23.87549Z"/>
    <path class="cls-3" d="M814.21491,173.33068H802.52252v-45.4126H787.54889v-9.73145h41.64063v9.73145H814.21491Z"/>
    <path class="cls-3" d="M837.67584,173.33068v-55.144h11.69238v55.144Z"/>
    <path class="cls-3" d="M895.79987,158.0172a14.25587,14.25587,0,0,1-5.375,11.76807q-5.37451,4.3-14.95508,4.2998a35.1164,35.1164,0,0,1-15.61523-3.31934V159.90294a64.25215,64.25215,0,0,0,9.44824,3.50781,27.94406,27.94406,0,0,0,7.07227,1.01855,10.05146,10.05146,0,0,0,5.90234-1.47119,5.03123,5.03123,0,0,0,2.05566-4.37549,4.83163,4.83163,0,0,0-.90527-2.88525,10.11715,10.11715,0,0,0-2.65918-2.43262,68.499,68.499,0,0,0-7.14746-3.73437,33.829,33.829,0,0,1-7.58105-4.564,17.11182,17.11182,0,0,1-4.03613-5.0918,14.52934,14.52934,0,0,1-1.50879-6.78906q0-7.31763,4.96-11.50439,4.96-4.18652,13.71094-4.18652a32.36167,32.36167,0,0,1,8.20313,1.01855,56.45851,56.45851,0,0,1,8.166,2.86621l-3.77148,9.09033a55.233,55.233,0,0,0-7.29883-2.52734,23.51826,23.51826,0,0,0-5.67578-.71631,7.518,7.518,0,0,0-5.09277,1.54639,5.10138,5.10138,0,0,0-1.77246,4.03564,4.995,4.995,0,0,0,.7168,2.69678,7.8672,7.8672,0,0,0,2.28223,2.22559,70.45507,70.45507,0,0,0,7.41113,3.86621q7.73145,3.69653,10.59863,7.41162A14.46541,14.46541,0,0,1,895.79987,158.0172Z"/>
    <path class="cls-3" d="M927.06745,173.33068H915.37506v-45.4126H900.40143v-9.73145h41.64063v9.73145H927.06745Z"/>
    <path class="cls-3" d="M950.52838,173.33068v-55.144h11.69238v55.144Z"/>
    <path class="cls-3" d="M1020.45807,173.33068h-13.27734L992.73541,150.0963l-4.94141,3.54541v19.689H976.10163v-55.144H987.794V143.42l4.60156-6.4873,14.93652-18.74609h12.97461l-19.23633,24.40381Z"/>
    <path class="cls-3" d="M1093.21686,145.23058q0,13.61646-7.751,20.8584-7.752,7.24146-22.38574,7.2417h-15.61523v-55.144h17.3125q13.50293,0,20.97168,7.12891Q1093.21686,132.4442,1093.21686,145.23058Zm-12.14551.30176q0-17.76489-15.69043-17.76514h-6.22363v35.90771h5.0166Q1081.07086,163.67492,1081.07135,145.53234Z"/>
    <path class="cls-3" d="M1136.40436,173.33068h-31.75879v-55.144h31.75879v9.58057H1116.338v12.10742h18.6709v9.58057H1116.338v14.21973h20.06641Z"/>
    <path class="cls-3" d="M1180.459,158.0172a14.25587,14.25587,0,0,1-5.375,11.76807q-5.37451,4.3-14.95508,4.2998a35.11641,35.11641,0,0,1-15.61523-3.31934V159.90294a64.2522,64.2522,0,0,0,9.44824,3.50781,27.94405,27.94405,0,0,0,7.07227,1.01855,10.05146,10.05146,0,0,0,5.90234-1.47119,5.03123,5.03123,0,0,0,2.05566-4.37549,4.83164,4.83164,0,0,0-.90527-2.88525,10.11716,10.11716,0,0,0-2.65918-2.43262,68.499,68.499,0,0,0-7.14746-3.73437,33.82905,33.82905,0,0,1-7.58106-4.564,17.11181,17.11181,0,0,1-4.03613-5.0918,14.52933,14.52933,0,0,1-1.50879-6.78906q0-7.31763,4.96-11.50439,4.96-4.18652,13.71094-4.18652a32.36167,32.36167,0,0,1,8.20313,1.01855,56.45853,56.45853,0,0,1,8.166,2.86621l-3.77148,9.09033a55.233,55.233,0,0,0-7.29883-2.52734,23.51827,23.51827,0,0,0-5.67578-.71631,7.518,7.518,0,0,0-5.09277,1.54639,5.10139,5.10139,0,0,0-1.77246,4.03564,4.995,4.995,0,0,0,.7168,2.69678,7.86721,7.86721,0,0,0,2.28223,2.22559,70.45509,70.45509,0,0,0,7.41113,3.86621q7.73145,3.69653,10.59863,7.41162A14.46541,14.46541,0,0,1,1180.459,158.0172Z"/>
    <path class="cls-3" d="M451.19733,266.027H419.43854V210.88341h31.75879v9.58008H431.13092v12.10742h18.6709V242.151h-18.6709v14.21973h20.06641Z"/>
    <path class="cls-3" d="M507.586,210.88341v35.68066a20.56619,20.56619,0,0,1-2.73535,10.71191,17.79867,17.79867,0,0,1-7.90137,7.05371,28.25944,28.25944,0,0,1-12.2207,2.45117q-10.63623,0-16.52051-5.4502-5.88428-5.44922-5.88477-14.917V210.88341h11.65527v33.75781q0,6.37354,2.56543,9.35352,2.56348,2.97949,8.48633,2.97949,5.73193,0,8.31641-2.998,2.584-2.99854,2.584-9.41113V210.88341Z"/>
    <path class="cls-3" d="M532.78131,244.86681V266.027H521.08893V210.88341h16.06738q11.23975,0,16.63379,4.0918,5.39355,4.09277,5.39355,12.42871a14.63336,14.63336,0,0,1-2.67773,8.65625,17.727,17.727,0,0,1-7.58105,5.94043q12.44678,18.59473,16.21875,24.02637H552.168l-13.16309-21.16016Zm0-9.50488h3.77148q5.54443,0,8.18555-1.84766,2.63965-1.84863,2.63965-5.80859,0-3.92285-2.69629-5.583-2.69824-1.6582-8.35449-1.65918h-3.5459Z"/>
    <path class="cls-3" d="M622.1358,238.37951q0,13.69189-6.78906,21.04688-6.78955,7.355-19.46289,7.35449-12.67383,0-19.46289-7.35449-6.78809-7.355-6.78906-21.12207,0-13.7666,6.80859-21.02832,6.80713-7.25977,19.51855-7.26074,12.71045,0,19.44434,7.31738Q622.1358,224.651,622.1358,238.37951Zm-40.24512,0q0,9.2417,3.50781,13.918,3.50684,4.67725,10.48535,4.67676,13.99365,0,13.99316-18.59473,0-18.63281-13.918-18.63281-6.97852,0-10.52344,4.69629Q581.89069,229.13781,581.89069,238.37951Z"/>
    <path class="cls-3" d="M628.92487,250.03478v-9.42969h20.25488v9.42969Z"/>
    <path class="cls-3" d="M712.1319,266.027H698.81647L691.3487,237.0592q-.416-1.54541-1.41406-6.39258-1.00049-4.84717-1.15039-6.50684-.22705,2.03613-1.13184,6.54395-.90527,4.50732-1.39551,6.43066L678.82623,266.027H665.54987l-14.06934-55.14355h11.50391l7.05371,30.09863q1.84717,8.33643,2.67773,14.44629.22559-2.15039,1.03711-6.65723.81152-4.50732,1.52734-6.99707l8.03418-30.89062h11.05176l8.03418,30.89063q.52734,2.07568,1.31934,6.33691.79248,4.2627,1.207,7.31738.37793-2.94287,1.207-7.33594.8291-4.39453,1.50879-7.11035l7.01563-30.09863h11.50391Z"/>
    <path class="cls-3" d="M766.86041,266.027l-3.998-13.126H742.75788l-3.998,13.126H726.16217l19.46289-55.37012H759.92L779.45807,266.027ZM739.92975,200.2838a4.90652,4.90652,0,0,1,1.41406-3.77148,5.388,5.388,0,0,1,3.82813-1.32031,5.32057,5.32057,0,0,1,3.9043,1.39551,4.96312,4.96312,0,0,1,1.41406,3.69629,4.81138,4.81138,0,0,1-1.43359,3.63965,6.18886,6.18886,0,0,1-7.71289.05664A4.80465,4.80465,0,0,1,739.92975,200.2838Zm20.14063,42.81055q-5.54443-17.84033-6.24219-20.17969-.69727-2.33789-.999-3.69629-1.24512,4.82959-7.12891,23.876Zm-4.94043-42.81055a4.6627,4.6627,0,0,1,1.52734-3.86621,5.86925,5.86925,0,0,1,3.791-1.22559,5.48557,5.48557,0,0,1,3.90332,1.3584,4.86291,4.86291,0,0,1,1.45215,3.7334,4.738,4.738,0,0,1-1.4707,3.65918,5.50135,5.50135,0,0,1-3.88477,1.35742,5.86375,5.86375,0,0,1-3.791-1.22559A4.56676,4.56676,0,0,1,755.12995,200.2838Z"/>
    <path class="cls-3" d="M831.585,266.027H819.92975v-23.7998H798.09088V266.027H786.3985V210.88341h11.69238v21.6123h21.83887v-21.6123H831.585Z"/>
    <path class="cls-3" d="M857.19538,244.86681V266.027H845.503V210.88341h16.06738q11.23975,0,16.63379,4.0918,5.39355,4.09277,5.39355,12.42871a14.63336,14.63336,0,0,1-2.67773,8.65625,17.727,17.727,0,0,1-7.58105,5.94043q12.44678,18.59473,16.21875,24.02637H876.58209L863.419,244.86681Zm0-9.50488h3.77148q5.54443,0,8.18555-1.84766,2.63965-1.84863,2.63965-5.80859,0-3.92285-2.69629-5.583-2.69824-1.6582-8.35449-1.65918h-3.5459Z"/>
    <path class="cls-3" d="M941.38288,210.88341v35.68066a20.56619,20.56619,0,0,1-2.73535,10.71191,17.79867,17.79867,0,0,1-7.90137,7.05371,28.25944,28.25944,0,0,1-12.2207,2.45117q-10.63623,0-16.52051-5.4502-5.88428-5.44922-5.88477-14.917V210.88341h11.65527v33.75781q0,6.37354,2.56543,9.35352,2.56348,2.97949,8.48633,2.97949,5.73193,0,8.31641-2.998,2.584-2.99854,2.584-9.41113V210.88341Z"/>
    <path class="cls-3" d="M1003.80573,266.027H988.94538l-23.98926-41.7168h-.33887q.71484,11.05225.71582,15.7666V266.027H954.8858V210.88341h14.74707L993.584,252.1842h.26465q-.56689-10.749-.56641-15.2002V210.88341h10.52344Z"/>
    <path class="cls-3" d="M1038.62018,235.06017h21.876V263.651a61.658,61.658,0,0,1-10.01367,2.43262,65.28665,65.28665,0,0,1-9.59961.69727q-12.48486,0-19.06641-7.33594-6.583-7.33594-6.582-21.06543,0-13.35205,7.6377-20.82031,7.63916-7.46777,21.17969-7.46875A40.9697,40.9697,0,0,1,1060.421,213.486l-3.88477,9.35352a27.74672,27.74672,0,0,0-12.56055-3.01758,15.51019,15.51019,0,0,0-12.14453,5.0918q-4.56445,5.09326-4.56445,13.69238,0,8.97656,3.67773,13.71,3.67676,4.73438,10.69336,4.73438a37.74667,37.74667,0,0,0,7.42969-.75488V244.79162h-10.44727Z"/>
    <path class="cls-3" d="M1106.17389,250.71349a14.25429,14.25429,0,0,1-5.375,11.76758q-5.37451,4.30078-14.95508,4.2998a35.11623,35.11623,0,0,1-15.61523-3.31836V252.59923a64.30854,64.30854,0,0,0,9.44824,3.50781,27.96607,27.96607,0,0,0,7.07227,1.01855,10.05523,10.05523,0,0,0,5.90234-1.4707,5.03387,5.03387,0,0,0,2.05566-4.376,4.82912,4.82912,0,0,0-.90527-2.88477,10.12738,10.12738,0,0,0-2.65918-2.43359,68.65315,68.65315,0,0,0-7.14746-3.7334,33.86433,33.86433,0,0,1-7.58105-4.56445,17.11182,17.11182,0,0,1-4.03613-5.0918,14.528,14.528,0,0,1-1.50879-6.78906q0-7.31689,4.96-11.50391,4.96-4.188,13.71094-4.1875a32.38369,32.38369,0,0,1,8.20313,1.01855,56.35109,56.35109,0,0,1,8.166,2.86719l-3.77148,9.08984a55.30478,55.30478,0,0,0-7.29883-2.52734,23.495,23.495,0,0,0-5.67578-.7168,7.51552,7.51552,0,0,0-5.09277,1.54688,5.10169,5.10169,0,0,0-1.77246,4.03613,4.99331,4.99331,0,0,0,.7168,2.69629,7.8672,7.8672,0,0,0,2.28223,2.22559,70.35639,70.35639,0,0,0,7.41113,3.86621q7.73145,3.69727,10.59863,7.41113A14.46779,14.46779,0,0,1,1106.17389,250.71349Z"/>
    <path class="cls-3" d="M1137.1026,235.06017h21.876V263.651a61.658,61.658,0,0,1-10.01367,2.43262,65.28665,65.28665,0,0,1-9.59961.69727q-12.48486,0-19.06641-7.33594-6.583-7.33594-6.582-21.06543,0-13.35205,7.6377-20.82031,7.63916-7.46777,21.17969-7.46875a40.9697,40.9697,0,0,1,16.36914,3.39551l-3.88477,9.35352a27.74672,27.74672,0,0,0-12.56055-3.01758,15.51019,15.51019,0,0,0-12.14453,5.0918q-4.56445,5.09326-4.56445,13.69238,0,8.97656,3.67773,13.71,3.67676,4.73438,10.69336,4.73438a37.74667,37.74667,0,0,0,7.42969-.75488V244.79162H1137.1026Z"/>
    <path class="cls-3" d="M1203.86432,266.027h-31.75879V210.88341h31.75879v9.58008h-20.06641v12.10742h18.6709V242.151h-18.6709v14.21973h20.06641Z"/>
    <path class="cls-3" d="M1215.36823,210.88341h17.16113q11.73047,0,17.03027,3.33789,5.29834,3.33691,5.29883,10.61719a13.374,13.374,0,0,1-2.31934,8.10938,9.26094,9.26094,0,0,1-6.167,3.80957v.377q5.24268,1.17041,7.5625,4.376a14.23153,14.23153,0,0,1,2.32031,8.52441q0,7.54395-5.45117,11.76758-5.45068,4.22461-14.80371,4.22461h-20.63184Zm11.69238,21.83789h6.78906q4.75342,0,6.88379-1.4707,2.12988-1.4707,2.13086-4.86523a4.86955,4.86955,0,0,0-2.31934-4.54492q-2.32031-1.377-7.33594-1.377h-6.14844Zm0,9.2793v14.37012h7.61914q4.82813,0,7.12891-1.84766,2.2998-1.84717,2.30078-5.6582,0-6.86426-9.80664-6.86426Z"/>
    <path class="cls-3" d="M1267.26862,266.027V210.88341H1278.961V266.027Z"/>
    <path class="cls-3" d="M1324.60065,266.027h-31.75879V210.88341h31.75879v9.58008h-20.06641v12.10742h18.6709V242.151h-18.6709v14.21973h20.06641Z"/>
    <path class="cls-3" d="M1357.377,266.027h-11.69238V220.61388H1330.711v-9.73047h41.64063v9.73047H1357.377Z"/>
    <path class="cls-3" d="M1413.38873,250.71349a14.25429,14.25429,0,0,1-5.375,11.76758q-5.37451,4.30078-14.95508,4.2998a35.11623,35.11623,0,0,1-15.61523-3.31836V252.59923a64.30854,64.30854,0,0,0,9.44824,3.50781,27.96607,27.96607,0,0,0,7.07227,1.01855,10.05523,10.05523,0,0,0,5.90234-1.4707,5.03387,5.03387,0,0,0,2.05566-4.376,4.82912,4.82912,0,0,0-.90527-2.88477,10.12738,10.12738,0,0,0-2.65918-2.43359,68.653,68.653,0,0,0-7.14746-3.7334,33.86431,33.86431,0,0,1-7.58105-4.56445,17.11181,17.11181,0,0,1-4.03613-5.0918,14.528,14.528,0,0,1-1.50879-6.78906q0-7.31689,4.96-11.50391,4.96-4.188,13.71094-4.1875a32.38369,32.38369,0,0,1,8.20313,1.01855,56.3511,56.3511,0,0,1,8.166,2.86719l-3.77148,9.08984a55.30478,55.30478,0,0,0-7.29883-2.52734,23.495,23.495,0,0,0-5.67578-.7168,7.51551,7.51551,0,0,0-5.09277,1.54688,5.10169,5.10169,0,0,0-1.77246,4.03613,4.99331,4.99331,0,0,0,.7168,2.69629,7.8672,7.8672,0,0,0,2.28223,2.22559,70.35656,70.35656,0,0,0,7.41113,3.86621q7.73145,3.69727,10.59863,7.41113A14.46779,14.46779,0,0,1,1413.38873,250.71349Z"/>
  </g>
</svg>
