<svg id="Layer_1" data-name="Layer 1" xmlns="http://www.w3.org/2000/svg" width="1518.29966" height="377.68065" viewBox="0 0 1518.29966 377.68065">
  <defs>
    <style>
      .cls-1 {
        fill: #003299;
      }

      .cls-2 {
        fill: #fff315;
      }

      .cls-3 {
        fill: #fff;
      }
    </style>
  </defs>
  <title>ECB_Logo_Euro area statistics_486817</title>
  <g id="Capa_1" data-name="Capa 1">
    <g id="Ebene_1" data-name="Ebene 1">
      <path class="cls-1" d="M364.88208,84.51082a170.93978,170.93978,0,0,0-274.093,0h-71.888v215.44h80.971a170.888,170.888,0,0,0,255.927,0h1139.102v-215.44Z"/>
      <path class="cls-2" d="M310.53308,120.88882c-17.559-21.506-46.594-36.557-82.432-36.557-44.81,0-80.656,29.392-91.764,68.104h159.505l-10.753,22.577h-153.769c-.363,4.662-.719,8.244-.719,11.828,0,3.587.356,6.809.719,10.756h143.371l-10.752,22.586h-127.603c12.906,42.28,48.748,68.811,95.342,68.811,32.259,0,60.931-13.977,78.854-35.479v30.467c-17.923,14.33-48.384,27.588-80.642,27.588-57.354,0-105.741-34.764-119.002-91.387h-40.505l10.753-22.586h25.449c-.36-4.664-.36-7.886-.36-11.117,0-3.579,0-6.805.36-11.466h-36.202l10.753-22.577h29.75c13.262-56.641,61.649-90.693,120.791-90.693,34.048,0,69.895,14.344,89.251,37.288Z"/>
    </g>
  </g>
  <g>
    <path class="cls-3" d="M750.59623,157.77753a14.25474,14.25474,0,0,1-5.375,11.76855q-5.373,4.29932-14.95508,4.2998a35.1164,35.1164,0,0,1-15.61523-3.31934V159.66328a64.20182,64.20182,0,0,0,9.44922,3.50781,27.91007,27.91007,0,0,0,7.07227,1.01855,10.0573,10.0573,0,0,0,5.90234-1.4707,5.0332,5.0332,0,0,0,2.05469-4.376,4.8304,4.8304,0,0,0-.9043-2.88477,10.1145,10.1145,0,0,0-2.66016-2.43262,68.24638,68.24638,0,0,0-7.14648-3.73437,33.83809,33.83809,0,0,1-7.582-4.56445,17.10854,17.10854,0,0,1-4.03516-5.0918,14.52812,14.52812,0,0,1-1.50977-6.78906q0-7.31689,4.96094-11.50391,4.96-4.18652,13.71094-4.18652a32.35078,32.35078,0,0,1,8.20313,1.01855,56.49939,56.49939,0,0,1,8.166,2.86621l-3.77148,9.08984a55.35327,55.35327,0,0,0-7.29883-2.52734,23.55367,23.55367,0,0,0-5.67578-.71582,7.52144,7.52144,0,0,0-5.09375,1.5459,5.10089,5.10089,0,0,0-1.77148,4.03613,4.9848,4.9848,0,0,0,.7168,2.69629,7.86238,7.86238,0,0,0,2.28125,2.22559,70.30344,70.30344,0,0,0,7.41211,3.86621q7.73145,3.69727,10.59766,7.41211A14.45716,14.45716,0,0,1,750.59623,157.77753Z"/>
    <path class="cls-3" d="M781.86381,173.091H770.1724V127.6789H755.19779v-9.73145h41.64063v9.73145H781.86381Z"/>
    <path class="cls-3" d="M839.08256,173.091l-3.998-13.126H814.981l-3.998,13.126H798.38529l19.46289-55.37012H832.1431L851.68021,173.091Zm-6.78906-22.93262q-5.5459-17.84033-6.24219-20.17871-.69727-2.33936-1-3.69629-1.24512,4.82813-7.12891,23.875Z"/>
    <path class="cls-3" d="M879.8931,173.091H868.2017V127.6789H853.22709v-9.73145h41.64063v9.73145H879.8931Z"/>
    <path class="cls-3" d="M903.354,173.091V117.94746H915.0474V173.091Z"/>
    <path class="cls-3" d="M961.479,157.77753a14.26017,14.26017,0,0,1-5.375,11.76855q-5.376,4.29932-14.95508,4.2998a35.1164,35.1164,0,0,1-15.61523-3.31934V159.66328a64.1899,64.1899,0,0,0,9.44727,3.50781,27.93409,27.93409,0,0,0,7.07227,1.01855,10.05315,10.05315,0,0,0,5.90234-1.4707,5.02989,5.02989,0,0,0,2.05664-4.376,4.832,4.832,0,0,0-.90625-2.88477,10.1033,10.1033,0,0,0-2.6582-2.43262,68.55571,68.55571,0,0,0-7.14844-3.73437,33.81765,33.81765,0,0,1-7.58008-4.56445,17.1151,17.1151,0,0,1-4.03711-5.0918,14.52777,14.52777,0,0,1-1.50781-6.78906q0-7.31689,4.959-11.50391,4.96-4.18652,13.71094-4.18652a32.32858,32.32858,0,0,1,8.20313,1.01855,56.4177,56.4177,0,0,1,8.166,2.86621l-3.77148,9.08984a55.25633,55.25633,0,0,0-7.29883-2.52734,23.52949,23.52949,0,0,0-5.67578-.71582,7.51936,7.51936,0,0,0-5.0918,1.5459,5.1025,5.1025,0,0,0-1.77344,4.03613,5.00185,5.00185,0,0,0,.7168,2.69629,7.872,7.872,0,0,0,2.2832,2.22559,70.40981,70.40981,0,0,0,7.41016,3.86621q7.73145,3.69727,10.59961,7.41211A14.46889,14.46889,0,0,1,961.479,157.77753Z"/>
    <path class="cls-3" d="M992.74662,173.091H981.05326V127.6789H966.0806v-9.73145h41.64063v9.73145H992.74662Z"/>
    <path class="cls-3" d="M1016.20756,173.091V117.94746H1027.899V173.091Z"/>
    <path class="cls-3" d="M1086.13724,173.091H1072.8599l-14.44531-23.23437-4.94141,3.5459V173.091h-11.69336V117.94746h11.69336v25.2334l4.60156-6.4873,14.93555-18.74609h12.97461l-19.23633,24.40332Z"/>
    <path class="cls-3" d="M530.6431,265.7873H519.1392V210.64374h31.60742v9.58008H530.6431v14.21973h18.707v9.543h-18.707Z"/>
    <path class="cls-3" d="M611.58646,238.13984q0,13.69189-6.78906,21.04688-6.791,7.355-19.46289,7.35449-12.67383,0-19.46289-7.35449-6.78809-7.355-6.78906-21.12207,0-13.7666,6.80859-21.02832,6.80566-7.25977,19.51758-7.26074,12.71191,0,19.44531,7.31738Q611.58646,224.41132,611.58646,238.13984Zm-40.24609,0q0,9.2417,3.50781,13.918,3.50684,4.67725,10.48633,4.67676,13.99219,0,13.99219-18.59473,0-18.63281-13.918-18.63281-6.97852,0-10.52344,4.69629Q571.34037,228.89814,571.34037,238.13984Zm1.13281-38.0957a4.90652,4.90652,0,0,1,1.41406-3.77148,5.38481,5.38481,0,0,1,3.82813-1.32031,5.32057,5.32057,0,0,1,3.9043,1.39551,4.96689,4.96689,0,0,1,1.41406,3.69629,4.815,4.815,0,0,1-1.43359,3.63965,6.18886,6.18886,0,0,1-7.71289.05664A4.80465,4.80465,0,0,1,572.47318,200.04414Zm15.19922,0a4.66559,4.66559,0,0,1,1.52734-3.86621,5.873,5.873,0,0,1,3.791-1.22559,5.48805,5.48805,0,0,1,3.9043,1.3584,4.86579,4.86579,0,0,1,1.45117,3.7334,4.738,4.738,0,0,1-1.4707,3.65918,5.49972,5.49972,0,0,1-3.88477,1.35742,5.86748,5.86748,0,0,1-3.791-1.22559A4.56961,4.56961,0,0,1,587.6724,200.04414Z"/>
    <path class="cls-3" d="M634.70755,244.62714V265.7873H623.0142V210.64374h16.06836q11.23828,0,16.63281,4.0918,5.39355,4.09277,5.39453,12.42871a14.63336,14.63336,0,0,1-2.67773,8.65625,17.72425,17.72425,0,0,1-7.582,5.94043q12.44824,18.59473,16.21875,24.02637H654.09427l-13.16406-21.16016Zm0-9.50488H638.479q5.543,0,8.18555-1.84766,2.63965-1.84863,2.63867-5.80859,0-3.92285-2.69531-5.583-2.69824-1.6582-8.35547-1.65918h-3.54492Z"/>
    <path class="cls-3" d="M725.83451,265.7873H694.0767V210.64374h31.75781v9.58008H705.7681v12.10742H724.44v9.58008H705.7681V256.131h20.06641Z"/>
    <path class="cls-3" d="M782.22318,210.64374v35.68066a20.575,20.575,0,0,1-2.73437,10.71191,17.80118,17.80118,0,0,1-7.90234,7.05371,28.25944,28.25944,0,0,1-12.2207,2.45117q-10.63477,0-16.51953-5.4502-5.88574-5.44922-5.88477-14.917V210.64374h11.6543v33.75781q0,6.37354,2.56641,9.35352,2.56348,2.97949,8.48633,2.97949,5.73047,0,8.31641-2.998,2.584-2.99854,2.584-9.41113V210.64374Z"/>
    <path class="cls-3" d="M807.41849,244.62714V265.7873H795.72709V210.64374h16.06641q11.24121,0,16.63477,4.0918,5.39355,4.09277,5.39258,12.42871a14.63336,14.63336,0,0,1-2.67773,8.65625,17.72985,17.72985,0,0,1-7.58008,5.94043q12.44531,18.59473,16.21875,24.02637H826.80521L813.6431,244.62714Zm0-9.50488H811.19q5.5459,0,8.18555-1.84766,2.63965-1.84863,2.64063-5.80859,0-3.92285-2.69727-5.583-2.69824-1.6582-8.35352-1.65918h-3.54687Z"/>
    <path class="cls-3" d="M896.774,238.13984q0,13.69189-6.78906,21.04688-6.791,7.355-19.46289,7.35449-12.67383,0-19.46289-7.35449-6.78809-7.355-6.78906-21.12207,0-13.7666,6.80859-21.02832,6.80566-7.25977,19.51758-7.26074,12.71191,0,19.44531,7.31738Q896.774,224.41132,896.774,238.13984Zm-40.24609,0q0,9.2417,3.50781,13.918,3.50684,4.67725,10.48633,4.67676,13.99219,0,13.99219-18.59473,0-18.63281-13.918-18.63281-6.97852,0-10.52344,4.69629Q856.52787,228.89814,856.52787,238.13984Z"/>
    <path class="cls-3" d="M958.25443,238.13984q0,13.69189-6.78906,21.04688-6.791,7.355-19.46289,7.35449-12.67383,0-19.46289-7.35449-6.78809-7.355-6.78906-21.12207,0-13.7666,6.80859-21.02832,6.80566-7.25977,19.51758-7.26074,12.71191,0,19.44531,7.31738Q958.25443,224.41132,958.25443,238.13984Zm-40.24609,0q0,9.2417,3.50781,13.918,3.50684,4.67725,10.48633,4.67676,13.99219,0,13.99219-18.59473,0-18.63281-13.918-18.63281-6.97852,0-10.52344,4.69629Q918.00834,228.89814,918.00834,238.13984Z"/>
    <path class="cls-3" d="M993.02982,265.7873l-13.27734-43.2627h-.33789q.71484,13.20117.71484,17.61426V265.7873H969.68216V210.64374h15.918l13.05078,42.16895h.22461l13.84375-42.16895h15.916V265.7873H1017.7349V239.68671q0-1.84863.05664-4.2627.05859-2.4126.50977-12.82422h-.33984l-14.21875,43.1875Z"/>
    <path class="cls-3" d="M1054.20951,244.62714V265.7873h-11.69336V210.64374h16.06836q11.23828,0,16.63281,4.0918,5.39355,4.09277,5.39453,12.42871a14.63335,14.63335,0,0,1-2.67773,8.65625,17.72425,17.72425,0,0,1-7.582,5.94043q12.44824,18.59473,16.21875,24.02637h-12.97461l-13.16406-21.16016Zm0-9.50488h3.77148q5.543,0,8.18555-1.84766,2.63965-1.84863,2.63867-5.80859,0-3.92285-2.69531-5.583-2.69824-1.6582-8.35547-1.65918h-3.54492Z"/>
    <path class="cls-3" d="M1127.27006,265.7873l-3.998-13.126h-20.10547l-3.998,13.126h-12.59766l19.46289-55.37012h14.29492l19.53906,55.37012Zm-4.52734-59.10449a8.54106,8.54106,0,0,1-2.67773,6.56348,9.736,9.736,0,0,1-6.90234,2.48926,9.5,9.5,0,0,1-6.78906-2.41406,9.63489,9.63489,0,0,1-.01953-13.06934,9.44359,9.44359,0,0,1,6.80859-2.43262,9.76728,9.76728,0,0,1,6.86523,2.48926A8.25874,8.25874,0,0,1,1122.74271,206.68281Zm-2.26367,36.17188q-5.543-17.84033-6.24219-20.17969-.69727-2.33789-.998-3.69629-1.24512,4.82959-7.12891,23.876Zm-3.69531-36.09668a3.48675,3.48675,0,0,0-1.01758-2.65918,4.00165,4.00165,0,0,0-5.20508,0,3.48079,3.48079,0,0,0-1.01953,2.65918,3.79787,3.79787,0,0,0,.90625,2.67871,3.51773,3.51773,0,0,0,2.71484.98047,3.60245,3.60245,0,0,0,2.60352-.98047A3.54939,3.54939,0,0,0,1116.78373,206.758Z"/>
    <path class="cls-3" d="M1192.55912,237.68769q0,13.61572-7.75,20.85742-7.752,7.24219-22.38672,7.24219h-15.61523V210.64374h17.3125q13.50293,0,20.97266,7.12793Q1192.56009,224.90107,1192.55912,237.68769Zm-12.14453.30176q0-17.76562-15.69141-17.76562h-6.22266V256.131h5.01563Q1180.41459,256.131,1180.41459,237.98945Z"/>
    <path class="cls-3" d="M1235.74662,265.7873h-31.75781V210.64374h31.75781v9.58008h-20.06641v12.10742h18.67188v9.58008h-18.67187V256.131h20.06641Z"/>
    <path class="cls-3" d="M1268.524,265.7873H1256.8306V220.37421h-14.97266v-9.73047h41.64063v9.73047H1268.524Z"/>
  </g>
</svg>
