<svg id="Layer_1" data-name="Layer 1" xmlns="http://www.w3.org/2000/svg" width="1518.29966" height="377.68065" viewBox="0 0 1518.29966 377.68065">
  <defs>
    <style>
      .cls-1 {
        fill: #003299;
      }

      .cls-2 {
        fill: #fff315;
      }

      .cls-3 {
        fill: #fff;
      }
    </style>
  </defs>
  <title>ECB_Logo_Euro area statistics_486817</title>
  <g id="Capa_1" data-name="Capa 1">
    <g id="Ebene_1" data-name="Ebene 1">
      <path class="cls-1" d="M364.88208,84.51082a170.93978,170.93978,0,0,0-274.093,0h-71.888v215.44h80.971a170.888,170.888,0,0,0,255.927,0h1139.102v-215.44Z"/>
      <path class="cls-2" d="M310.53308,120.88882c-17.559-21.506-46.594-36.557-82.432-36.557-44.81,0-80.656,29.392-91.764,68.104h159.505l-10.753,22.577h-153.769c-.363,4.662-.719,8.244-.719,11.828,0,3.587.356,6.809.719,10.756h143.371l-10.752,22.586h-127.603c12.906,42.28,48.748,68.811,95.342,68.811,32.259,0,60.931-13.977,78.854-35.479v30.467c-17.923,14.33-48.384,27.588-80.642,27.588-57.354,0-105.741-34.764-119.002-91.387h-40.505l10.753-22.586h25.449c-.36-4.664-.36-7.886-.36-11.117,0-3.579,0-6.805.36-11.466h-36.202l10.753-22.577h29.75c13.262-56.641,61.649-90.693,120.791-90.693,34.048,0,69.895,14.344,89.251,37.288Z"/>
    </g>
  </g>
  <g>
    <path class="cls-3" d="M685.28861,173.44994H653.52982V118.30541h31.75879v9.58008H665.2222v12.10742h18.6709V149.574H665.2222v14.21973h20.06641Z"/>
    <path class="cls-3" d="M729.3433,158.13549a14.25618,14.25618,0,0,1-5.375,11.76855q-5.37451,4.29932-14.95508,4.2998a35.1164,35.1164,0,0,1-15.61523-3.31934v-10.8623a64.42163,64.42163,0,0,0,9.44824,3.50781,27.96173,27.96173,0,0,0,7.07227,1.01758,10.05523,10.05523,0,0,0,5.90234-1.4707,5.03092,5.03092,0,0,0,2.05566-4.375,4.832,4.832,0,0,0-.90527-2.88574,10.1089,10.1089,0,0,0-2.65918-2.43262,68.59759,68.59759,0,0,0-7.14746-3.73437,33.82787,33.82787,0,0,1-7.58105-4.56445,17.08733,17.08733,0,0,1-4.03613-5.0918,14.52794,14.52794,0,0,1-1.50879-6.78906q0-7.31689,4.96-11.50391,4.96-4.18652,13.71094-4.18652a32.33968,32.33968,0,0,1,8.20313,1.01855,56.45851,56.45851,0,0,1,8.166,2.86621l-3.77148,9.09082a55.16139,55.16139,0,0,0-7.29883-2.52734,23.495,23.495,0,0,0-5.67578-.7168,7.51552,7.51552,0,0,0-5.09277,1.54688,5.0997,5.0997,0,0,0-1.77246,4.03516,4.99909,4.99909,0,0,0,.7168,2.69727,7.86527,7.86527,0,0,0,2.28223,2.22461,70.48926,70.48926,0,0,0,7.41113,3.86719q7.73145,3.6958,10.59863,7.41113A14.465,14.465,0,0,1,729.3433,158.13549Z"/>
    <path class="cls-3" d="M760.61088,173.44994H748.91849V128.03685H733.94486v-9.73145h41.64063v9.73145H760.61088Z"/>
    <path class="cls-3" d="M817.82963,173.44994l-3.998-13.127H793.72709l-3.998,13.127H777.13138l19.46289-55.37109H810.8892l19.53809,55.37109Zm-6.79-22.93359q-5.54443-17.83887-6.24219-20.17871-.69727-2.33936-.999-3.69629-1.24512,4.82813-7.12891,23.875Z"/>
    <path class="cls-3" d="M858.64017,173.44994H846.94779V128.03685H831.97416v-9.73145h41.64063v9.73145H858.64017Z"/>
    <path class="cls-3" d="M881.45951,113.89232v-1.01855a106.17735,106.17735,0,0,0,8.86426-11.35352h12.89941v.793q-1.96143,1.96143-6.69531,5.82715-4.73437,3.86572-7.41113,5.752Zm.6416,59.55762V118.30541h11.69238v55.14453Z"/>
    <path class="cls-3" d="M940.22513,158.13549a14.25618,14.25618,0,0,1-5.375,11.76855q-5.37451,4.29932-14.95508,4.2998a35.1164,35.1164,0,0,1-15.61523-3.31934v-10.8623a64.42163,64.42163,0,0,0,9.44824,3.50781,27.96173,27.96173,0,0,0,7.07227,1.01758,10.05523,10.05523,0,0,0,5.90234-1.4707,5.03092,5.03092,0,0,0,2.05566-4.375,4.832,4.832,0,0,0-.90527-2.88574,10.1089,10.1089,0,0,0-2.65918-2.43262,68.59757,68.59757,0,0,0-7.14746-3.73437,33.82787,33.82787,0,0,1-7.58105-4.56445,17.08732,17.08732,0,0,1-4.03613-5.0918,14.52794,14.52794,0,0,1-1.50879-6.78906q0-7.31689,4.96-11.50391,4.96-4.18652,13.71094-4.18652a32.33968,32.33968,0,0,1,8.20313,1.01855,56.45851,56.45851,0,0,1,8.166,2.86621L936.189,130.489a55.16139,55.16139,0,0,0-7.29883-2.52734,23.495,23.495,0,0,0-5.67578-.7168,7.51552,7.51552,0,0,0-5.09277,1.54688,5.0997,5.0997,0,0,0-1.77246,4.03516,4.99909,4.99909,0,0,0,.7168,2.69727,7.86527,7.86527,0,0,0,2.28223,2.22461,70.48924,70.48924,0,0,0,7.41113,3.86719q7.73145,3.6958,10.59863,7.41113A14.465,14.465,0,0,1,940.22513,158.13549Z"/>
    <path class="cls-3" d="M971.49271,173.44994H959.80033V128.03685H944.8267v-9.73145h41.64063v9.73145H971.49271Z"/>
    <path class="cls-3" d="M994.95365,173.44994V118.30541H1006.646v55.14453Z"/>
    <path class="cls-3" d="M1043.94974,127.24486a11.91454,11.91454,0,0,0-10.22168,4.96q-3.62109,4.96-3.62109,13.82324,0,18.44531,13.84277,18.44434a43.7479,43.7479,0,0,0,14.06836-2.9043v9.80664a39.06873,39.06873,0,0,1-15.16211,2.8291q-12.03223,0-18.40625-7.29883-6.375-7.29785-6.375-20.95215a34.20482,34.20482,0,0,1,3.13086-15.06836,22.61989,22.61989,0,0,1,8.99609-9.91992,26.60782,26.60782,0,0,1,13.748-3.45117,37.127,37.127,0,0,1,16.14355,3.88477l-3.77246,9.50488a62.52346,62.52346,0,0,0-6.22363-2.56445A18.57927,18.57927,0,0,0,1043.94974,127.24486Z"/>
    <path class="cls-3" d="M1103.50736,173.44994l-3.998-13.127h-20.10449l-3.998,13.127h-12.59766l19.46289-55.37109h14.29492l19.53809,55.37109Zm-6.79-22.93359q-5.54443-17.83887-6.24219-20.17871-.69727-2.33936-.999-3.69629-1.24512,4.82813-7.12891,23.875Z"/>
    <path class="cls-3" d="M1155.59623,158.13549a14.25618,14.25618,0,0,1-5.375,11.76855q-5.37451,4.29932-14.95508,4.2998a35.11641,35.11641,0,0,1-15.61523-3.31934v-10.8623a64.42164,64.42164,0,0,0,9.44824,3.50781,27.96173,27.96173,0,0,0,7.07226,1.01758,10.05523,10.05523,0,0,0,5.90234-1.4707,5.03092,5.03092,0,0,0,2.05566-4.375,4.83205,4.83205,0,0,0-.90527-2.88574,10.10891,10.10891,0,0,0-2.65918-2.43262,68.59756,68.59756,0,0,0-7.14746-3.73437,33.82789,33.82789,0,0,1-7.58105-4.56445,17.08733,17.08733,0,0,1-4.03613-5.0918,14.528,14.528,0,0,1-1.50879-6.78906q0-7.31689,4.96-11.50391,4.96-4.18652,13.71094-4.18652a32.33968,32.33968,0,0,1,8.20313,1.01855,56.45847,56.45847,0,0,1,8.166,2.86621l-3.77148,9.09082a55.16141,55.16141,0,0,0-7.29883-2.52734,23.495,23.495,0,0,0-5.67578-.7168,7.51552,7.51552,0,0,0-5.09277,1.54688,5.0997,5.0997,0,0,0-1.77246,4.03516,4.99909,4.99909,0,0,0,.7168,2.69727,7.86526,7.86526,0,0,0,2.28223,2.22461,70.48918,70.48918,0,0,0,7.41113,3.86719q7.73144,3.6958,10.59863,7.41113A14.465,14.465,0,0,1,1155.59623,158.13549Z"/>
    <path class="cls-3" d="M603.15677,238.04662q0,13.61572-7.751,20.85742-7.752,7.24219-22.38574,7.24219H557.40482V211.00267h17.3125q13.50293,0,20.97168,7.12793Q603.15677,225.26,603.15677,238.04662Zm-12.14551.30176q0-17.76562-15.69043-17.76562H569.0972V256.49h5.0166Q591.01078,256.49,591.01127,238.34838Z"/>
    <path class="cls-3" d="M648.3433,266.14623l-3.998-13.126H624.24076l-3.998,13.126H607.64505l19.46289-55.37012h14.29492L660.941,266.14623Zm-6.79-22.93262q-5.54443-17.84033-6.24219-20.17969-.69727-2.33789-.999-3.69629-1.24512,4.82959-7.12891,23.876Z"/>
    <path class="cls-3" d="M721.7056,266.14623l-3.998-13.126H697.60306l-3.998,13.126H681.00736l19.46289-55.37012h14.29492l19.53809,55.37012Zm-6.79-22.93262q-5.54443-17.84033-6.24219-20.17969-.69727-2.33789-.999-3.69629-1.24512,4.82959-7.12891,23.876Zm-13.50293-36.624V205.571a106.146,106.146,0,0,0,8.86426-11.35352h12.89941v.792q-1.96143,1.96143-6.69531,5.82813-4.73291,3.86572-7.41113,5.752Z"/>
    <path class="cls-3" d="M752.93607,244.98607v21.16016H741.24369V211.00267h16.06738q11.23975,0,16.63379,4.0918,5.39355,4.09277,5.39355,12.42871a14.63336,14.63336,0,0,1-2.67773,8.65625,17.727,17.727,0,0,1-7.58105,5.94043q12.44678,18.59473,16.21875,24.02637H772.32279L759.1597,244.98607Zm0-9.50488h3.77148q5.54443,0,8.18555-1.84766,2.63965-1.84863,2.63965-5.80859,0-3.92285-2.69629-5.583-2.69824-1.6582-8.35449-1.65918h-3.5459Z"/>
    <path class="cls-3" d="M823.99759,266.14623H792.23881V211.00267h31.75879v9.58008H803.93119v12.10742h18.6709v9.58008h-18.6709V256.49h20.06641Z"/>
    <path class="cls-3" d="M869.25931,266.14623l-3.998-13.126H845.15677l-3.998,13.126H828.56107L848.024,210.77611h14.29492L881.857,266.14623Zm-6.79-22.93262q-5.54443-17.84033-6.24219-20.17969-.69727-2.33789-.999-3.69629-1.24512,4.82959-7.12891,23.876Z"/>
    <path class="cls-3" d="M954.61576,238.04662q0,13.61572-7.751,20.85742-7.752,7.24219-22.38574,7.24219H908.86381V211.00267h17.3125q13.50293,0,20.97168,7.12793Q954.61576,225.26,954.61576,238.04662Zm-12.14551.30176q0-17.76562-15.69043-17.76562h-6.22363V256.49h5.0166Q942.46976,256.49,942.47025,238.34838Z"/>
    <path class="cls-3" d="M1016.09623,238.49877q0,13.69189-6.78906,21.04688-6.78955,7.355-19.46289,7.35449-12.67383,0-19.46289-7.35449-6.78809-7.355-6.78906-21.12207,0-13.7666,6.80859-21.02832,6.80713-7.25977,19.51855-7.26074,12.71045,0,19.44434,7.31738Q1016.09623,224.77025,1016.09623,238.49877Zm-40.24512,0q0,9.2417,3.50781,13.918,3.50684,4.67725,10.48535,4.67676,13.99365,0,13.99316-18.59473,0-18.63281-13.918-18.63281-6.97852,0-10.52344,4.69629Q975.85111,229.25707,975.85111,238.49877Z"/>
    <path class="cls-3" d="M1079.35013,266.14623h-31.75879V211.00267h31.75879v9.58008h-20.06641v12.10742h18.6709v9.58008h-18.6709V256.49h20.06641Z"/>
    <path class="cls-3" d="M1135.73881,211.00267v35.68066a20.56619,20.56619,0,0,1-2.73535,10.71191,17.79867,17.79867,0,0,1-7.90137,7.05371,28.25943,28.25943,0,0,1-12.2207,2.45117q-10.63623,0-16.52051-5.4502-5.88428-5.44922-5.88477-14.917V211.00267h11.65527v33.75781q0,6.37354,2.56543,9.35352,2.56348,2.97949,8.48633,2.97949,5.73193,0,8.31641-2.998,2.584-2.99854,2.584-9.41113V211.00267Z"/>
    <path class="cls-3" d="M1160.93412,244.98607v21.16016h-11.69238V211.00267h16.06738q11.23975,0,16.63379,4.0918,5.39355,4.09277,5.39355,12.42871a14.63336,14.63336,0,0,1-2.67773,8.65625,17.727,17.727,0,0,1-7.58106,5.94043q12.44678,18.59473,16.21875,24.02637h-12.97559l-13.16309-21.16016Zm0-9.50488h3.77148q5.54443,0,8.18555-1.84766,2.63965-1.84863,2.63965-5.80859,0-3.92285-2.69629-5.583-2.69824-1.6582-8.35449-1.65918h-3.5459Z"/>
    <path class="cls-3" d="M1250.28861,238.49877q0,13.69189-6.78906,21.04688-6.78955,7.355-19.46289,7.35449-12.67383,0-19.46289-7.35449-6.78809-7.355-6.78906-21.12207,0-13.7666,6.80859-21.02832,6.80713-7.25977,19.51856-7.26074,12.71045,0,19.44434,7.31738Q1250.28861,224.77025,1250.28861,238.49877Zm-40.24512,0q0,9.2417,3.50781,13.918,3.50684,4.67725,10.48535,4.67676,13.99365,0,13.99316-18.59473,0-18.63281-13.918-18.63281-6.97852,0-10.52344,4.69629Q1210.04349,229.25707,1210.04349,238.49877Z"/>
  </g>
</svg>
