<svg id="Layer_1" data-name="Layer 1" xmlns="http://www.w3.org/2000/svg" width="1518.29966" height="377.68065" viewBox="0 0 1518.29966 377.68065">
  <defs>
    <style>
      .cls-1 {
        fill: #003299;
      }

      .cls-2 {
        fill: #fff315;
      }

      .cls-3 {
        fill: #fff;
      }
    </style>
  </defs>
  <title>ECB_Logo_Euro area statistics_486817</title>
  <g id="Capa_1" data-name="Capa 1">
    <g id="Ebene_1" data-name="Ebene 1">
      <path class="cls-1" d="M364.88208,84.51082a170.93978,170.93978,0,0,0-274.093,0h-71.888v215.44h80.971a170.888,170.888,0,0,0,255.927,0h1139.102v-215.44Z"/>
      <path class="cls-2" d="M310.53308,120.88882c-17.559-21.506-46.594-36.557-82.432-36.557-44.81,0-80.656,29.392-91.764,68.104h159.505l-10.753,22.577h-153.769c-.363,4.662-.719,8.244-.719,11.828,0,3.587.356,6.809.719,10.756h143.371l-10.752,22.586h-127.603c12.906,42.28,48.748,68.811,95.342,68.811,32.259,0,60.931-13.977,78.854-35.479v30.467c-17.923,14.33-48.384,27.588-80.642,27.588-57.354,0-105.741-34.764-119.002-91.387h-40.505l10.753-22.586h25.449c-.36-4.664-.36-7.886-.36-11.117,0-3.579,0-6.805.36-11.466h-36.202l10.753-22.577h29.75c13.262-56.641,61.649-90.693,120.791-90.693,34.048,0,69.895,14.344,89.251,37.288Z"/>
    </g>
  </g>
  <g>
    <path class="cls-3" d="M546.462,220.02921H514.70416V164.88565H546.462v9.58008H526.39557v12.10742h18.67188v9.58105H526.39557v14.21973H546.462Z"/>
    <path class="cls-3" d="M602.85065,164.88565v35.68164a20.58,20.58,0,0,1-2.73437,10.71191,17.79918,17.79918,0,0,1-7.90234,7.05273,28.25928,28.25928,0,0,1-12.2207,2.45215q-10.63477,0-16.51953-5.4502-5.88574-5.45068-5.88477-14.918V164.88565h11.6543v33.75781q0,6.375,2.56641,9.35352,2.56348,2.981,8.48633,2.98047,5.73047,0,8.31641-2.999,2.584-2.99854,2.584-9.41016V164.88565Z"/>
    <path class="cls-3" d="M628.046,198.86905v21.16016H616.35455V164.88565H632.421q11.24121,0,16.63477,4.0918,5.39355,4.09424,5.39258,12.42871a14.63336,14.63336,0,0,1-2.67773,8.65625,17.72252,17.72252,0,0,1-7.58008,5.94043q12.44531,18.59619,16.21875,24.02637H647.43268l-13.16211-21.16016Zm0-9.50488h3.77148q5.5459,0,8.18555-1.84766,2.63965-1.84717,2.64063-5.80859,0-3.92285-2.69727-5.582-2.69824-1.65967-8.35352-1.66016H628.046Z"/>
    <path class="cls-3" d="M717.40143,192.38175q0,13.69189-6.78906,21.04688-6.791,7.355-19.46289,7.35547-12.67383,0-19.46289-7.35547-6.78809-7.355-6.78906-21.12207,0-13.7666,6.80859-21.02832,6.80566-7.25977,19.51758-7.26074,12.71191,0,19.44531,7.31738Q717.40143,178.65323,717.40143,192.38175Zm-40.24609,0q0,9.2417,3.50781,13.918,3.50684,4.67725,10.48633,4.67773,13.99219,0,13.99219-18.5957,0-18.63281-13.918-18.63281-6.97852,0-10.52344,4.69629T677.15534,192.38175Z"/>
    <path class="cls-3" d="M762.587,220.02921l-3.998-13.126H738.48541l-3.998,13.126H721.88971l19.46289-55.37012h14.29492l19.53711,55.37012Zm-6.78906-22.93262q-5.5459-17.84033-6.24219-20.17871-.69727-2.33936-1-3.69629-1.24512,4.82813-7.12891,23.875Z"/>
    <path class="cls-3" d="M782.126,220.02921V164.88565h11.69141v45.48828h22.36719v9.65527Z"/>
    <path class="cls-3" d="M859.52252,220.02921l-3.998-13.126H835.421l-3.998,13.126H818.82526l19.46289-55.37012h14.29492l19.53711,55.37012Zm-6.78906-22.93262q-5.5459-17.84033-6.24219-20.17871-.69727-2.33936-1-3.69629-1.24512,4.82813-7.12891,23.875Z"/>
    <path class="cls-3" d="M931.67877,204.71573a14.26017,14.26017,0,0,1-5.375,11.76855q-5.376,4.29932-14.95508,4.2998a35.1164,35.1164,0,0,1-15.61523-3.31934V206.60147a64.18989,64.18989,0,0,0,9.44727,3.50781,27.9341,27.9341,0,0,0,7.07227,1.01855,10.05315,10.05315,0,0,0,5.90234-1.4707,5.02989,5.02989,0,0,0,2.05664-4.376,4.832,4.832,0,0,0-.90625-2.88477,10.1033,10.1033,0,0,0-2.6582-2.43262,68.55576,68.55576,0,0,0-7.14844-3.73437,33.81765,33.81765,0,0,1-7.58008-4.56445,17.11509,17.11509,0,0,1-4.03711-5.0918,14.52777,14.52777,0,0,1-1.50781-6.78906q0-7.31689,4.959-11.50391,4.96-4.18652,13.71094-4.18652a32.32858,32.32858,0,0,1,8.20313,1.01855,56.4177,56.4177,0,0,1,8.166,2.86621l-3.77148,9.08984a55.25634,55.25634,0,0,0-7.29883-2.52734,23.52949,23.52949,0,0,0-5.67578-.71582,7.51936,7.51936,0,0,0-5.0918,1.5459,5.1025,5.1025,0,0,0-1.77344,4.03613,5.00185,5.00185,0,0,0,.7168,2.69629,7.872,7.872,0,0,0,2.2832,2.22559,70.40977,70.40977,0,0,0,7.41016,3.86621q7.73145,3.69727,10.59961,7.41211A14.46889,14.46889,0,0,1,931.67877,204.71573Z"/>
    <path class="cls-3" d="M962.94635,220.02921H951.253V174.6171H936.28034v-9.73145H977.921v9.73145H962.94635Z"/>
    <path class="cls-3" d="M1020.1651,220.02921l-3.998-13.126H996.06159l-3.998,13.126H979.46588l19.46289-55.37012h14.29492l19.53906,55.37012Zm-6.791-22.93262q-5.543-17.84033-6.24219-20.17871-.69727-2.33936-.998-3.69629-1.24512,4.82813-7.12891,23.875Z"/>
    <path class="cls-3" d="M1060.97565,220.02921h-11.69336V174.6171h-14.97266v-9.73145h41.64063v9.73145h-14.97461Z"/>
    <path class="cls-3" d="M1084.43659,220.02921V164.88565H1096.128v55.14355Z"/>
    <path class="cls-3" d="M1142.55963,204.71573a14.25474,14.25474,0,0,1-5.375,11.76855q-5.373,4.29932-14.95508,4.2998a35.11641,35.11641,0,0,1-15.61523-3.31934V206.60147a64.20184,64.20184,0,0,0,9.44922,3.50781,27.91008,27.91008,0,0,0,7.07227,1.01855,10.0573,10.0573,0,0,0,5.90234-1.4707,5.0332,5.0332,0,0,0,2.05469-4.376,4.8304,4.8304,0,0,0-.9043-2.88477,10.11449,10.11449,0,0,0-2.66016-2.43262,68.24643,68.24643,0,0,0-7.14648-3.73437,33.83809,33.83809,0,0,1-7.582-4.56445,17.10853,17.10853,0,0,1-4.03516-5.0918,14.52812,14.52812,0,0,1-1.50977-6.78906q0-7.31689,4.96094-11.50391,4.96-4.18652,13.71094-4.18652a32.35077,32.35077,0,0,1,8.20313,1.01855,56.49938,56.49938,0,0,1,8.166,2.86621l-3.77148,9.08984a55.35332,55.35332,0,0,0-7.29883-2.52734,23.55368,23.55368,0,0,0-5.67578-.71582,7.52144,7.52144,0,0,0-5.09375,1.5459,5.1009,5.1009,0,0,0-1.77148,4.03613,4.9848,4.9848,0,0,0,.7168,2.69629,7.86237,7.86237,0,0,0,2.28125,2.22559,70.30346,70.30346,0,0,0,7.41211,3.86621q7.73145,3.69727,10.59766,7.41211A14.45716,14.45716,0,0,1,1142.55963,204.71573Z"/>
    <path class="cls-3" d="M1173.82721,220.02921H1162.1358V174.6171h-14.97461v-9.73145h41.64063v9.73145h-14.97461Z"/>
    <path class="cls-3" d="M1197.28815,220.02921V164.88565h11.69336v55.14355Z"/>
    <path class="cls-3" d="M1267.21784,220.02921h-13.27734l-14.44531-23.23437-4.94141,3.5459v19.68848h-11.69141V164.88565h11.69141v25.2334l4.60156-6.4873,14.9375-18.74609h12.97461L1247.83112,189.289Z"/>
    <path class="cls-3" d="M1307.91705,220.02921l-3.998-13.126h-20.10547l-3.998,13.126h-12.59766l19.46289-55.37012h14.29492l19.53906,55.37012Zm-6.791-22.93262q-5.543-17.84033-6.24219-20.17871-.69727-2.33936-.998-3.69629-1.24512,4.82813-7.12891,23.875Z"/>
  </g>
</svg>
