<svg id="Layer_1" data-name="Layer 1" xmlns="http://www.w3.org/2000/svg" width="1518.29966" height="377.68065" viewBox="0 0 1518.29966 377.68065">
  <defs>
    <style>
      .cls-1 {
        fill: #003299;
      }

      .cls-2 {
        fill: #fff315;
      }

      .cls-3 {
        fill: #fff;
      }
    </style>
  </defs>
  <title>ECB_Logo_Euro area statistics_486817</title>
  <g id="Capa_1" data-name="Capa 1">
    <g id="Ebene_1" data-name="Ebene 1">
      <path class="cls-1" d="M364.88208,84.51082a170.93978,170.93978,0,0,0-274.093,0h-71.888v215.44h80.971a170.888,170.888,0,0,0,255.927,0h1139.102v-215.44"/>
      <path class="cls-2" d="M310.53308,120.88882c-17.559-21.506-46.594-36.557-82.432-36.557-44.81,0-80.656,29.392-91.764,68.104h159.505l-10.753,22.577h-153.769c-.363,4.662-.719,8.244-.719,11.828,0,3.587.356,6.809.719,10.756h143.371l-10.752,22.586h-127.603c12.906,42.28,48.748,68.811,95.342,68.811,32.259,0,60.931-13.977,78.854-35.479v30.467c-17.923,14.33-48.384,27.588-80.642,27.588-57.354,0-105.741-34.764-119.002-91.387h-40.505l10.753-22.586h25.449c-.36-4.664-.36-7.886-.36-11.117,0-3.579,0-6.805.36-11.466h-36.202l10.753-22.577h29.75c13.262-56.641,61.649-90.693,120.791-90.693,34.048,0,69.895,14.344,89.251,37.288Z"/>
    </g>
  </g>
  <g>
    <path class="cls-3" d="M685.05033,173.19815H653.29154V118.05362h31.75879v9.58105H664.98392V139.7421h18.6709v9.58008h-18.6709V163.5419h20.06641Z"/>
    <path class="cls-3" d="M729.105,157.88468a14.25429,14.25429,0,0,1-5.375,11.76758q-5.37451,4.30078-14.95508,4.2998a35.1164,35.1164,0,0,1-15.61523-3.31934v-10.8623a64.30854,64.30854,0,0,0,9.44824,3.50781,27.96606,27.96606,0,0,0,7.07227,1.01855,10.04769,10.04769,0,0,0,5.90234-1.47168,5.03092,5.03092,0,0,0,2.05566-4.375,4.832,4.832,0,0,0-.90527-2.88574,10.12541,10.12541,0,0,0-2.65918-2.43262,68.59757,68.59757,0,0,0-7.14746-3.73437,33.83019,33.83019,0,0,1-7.58105-4.56348,17.11181,17.11181,0,0,1-4.03613-5.0918,14.53073,14.53073,0,0,1-1.50879-6.78906q0-7.31836,4.96-11.50488t13.71094-4.18652a32.38369,32.38369,0,0,1,8.20313,1.01855,56.45851,56.45851,0,0,1,8.166,2.86621l-3.77148,9.09082a55.16138,55.16138,0,0,0-7.29883-2.52734,23.495,23.495,0,0,0-5.67578-.7168,7.51552,7.51552,0,0,0-5.09277,1.54688,5.10107,5.10107,0,0,0-1.77246,4.03516,4.99673,4.99673,0,0,0,.7168,2.69727,7.86721,7.86721,0,0,0,2.28223,2.22559,70.55385,70.55385,0,0,0,7.41113,3.86621q7.73145,3.6958,10.59863,7.41113A14.46779,14.46779,0,0,1,729.105,157.88468Z"/>
    <path class="cls-3" d="M760.37259,173.19815H748.68021V127.78507H733.70658v-9.73145H775.3472v9.73145H760.37259Z"/>
    <path class="cls-3" d="M817.59134,173.19815l-3.998-13.126H793.48881l-3.998,13.126H776.8931L796.356,117.828h14.29492L830.189,173.19815Zm-6.79-22.93262q-5.54443-17.84033-6.24219-20.17969-.69727-2.33789-.999-3.69629-1.24512,4.82813-7.12891,23.876Z"/>
    <path class="cls-3" d="M882.88138,145.09757q0,13.61719-7.751,20.8584-7.752,7.24219-22.38574,7.24219H837.12943V118.05362h17.3125q13.50293,0,20.97168,7.12891Q882.88138,132.31192,882.88138,145.09757Zm-12.14551.30176q0-17.76416-15.69043-17.76465h-6.22363V163.5419h5.0166Q870.73539,163.5419,870.73588,145.39932Z"/>
    <path class="cls-3" d="M893.66849,113.64053V112.622a106.19122,106.19122,0,0,0,8.86426-11.35254h12.89941v.792q-1.96143,1.96143-6.69531,5.82715-4.73437,3.86719-7.41113,5.752Zm.6416,59.55762V118.05362h11.69238v55.14453Z"/>
    <path class="cls-3" d="M952.43412,157.88468a14.25429,14.25429,0,0,1-5.375,11.76758q-5.37451,4.30078-14.95508,4.2998a35.1164,35.1164,0,0,1-15.61523-3.31934v-10.8623a64.30854,64.30854,0,0,0,9.44824,3.50781,27.96606,27.96606,0,0,0,7.07227,1.01855,10.04769,10.04769,0,0,0,5.90234-1.47168,5.03092,5.03092,0,0,0,2.05566-4.375,4.832,4.832,0,0,0-.90527-2.88574,10.12542,10.12542,0,0,0-2.65918-2.43262,68.59757,68.59757,0,0,0-7.14746-3.73437,33.83019,33.83019,0,0,1-7.58105-4.56348,17.11182,17.11182,0,0,1-4.03613-5.0918,14.53073,14.53073,0,0,1-1.50879-6.78906q0-7.31836,4.96-11.50488t13.71094-4.18652a32.38369,32.38369,0,0,1,8.20313,1.01855,56.45851,56.45851,0,0,1,8.166,2.86621l-3.77148,9.09082a55.16138,55.16138,0,0,0-7.29883-2.52734,23.495,23.495,0,0,0-5.67578-.7168,7.51552,7.51552,0,0,0-5.09277,1.54688,5.10107,5.10107,0,0,0-1.77246,4.03516,4.99673,4.99673,0,0,0,.7168,2.69727,7.8672,7.8672,0,0,0,2.28223,2.22559,70.55385,70.55385,0,0,0,7.41113,3.86621q7.73145,3.6958,10.59863,7.41113A14.46779,14.46779,0,0,1,952.43412,157.88468Z"/>
    <path class="cls-3" d="M983.7017,173.19815H972.00931V127.78507H957.03568v-9.73145h41.64063v9.73145H983.7017Z"/>
    <path class="cls-3" d="M1007.16263,173.19815V118.05362H1018.855v55.14453Z"/>
    <path class="cls-3" d="M1056.15873,126.99307a11.91454,11.91454,0,0,0-10.22168,4.96q-3.62109,4.96-3.62109,13.82422,0,18.44385,13.84277,18.44336a43.7479,43.7479,0,0,0,14.06836-2.9043V171.123a39.0508,39.0508,0,0,1-15.16211,2.8291q-12.03223,0-18.40625-7.29785-6.375-7.29932-6.375-20.95312a34.20483,34.20483,0,0,1,3.13086-15.06836,22.61989,22.61989,0,0,1,8.99609-9.91992,26.60782,26.60782,0,0,1,13.748-3.45117,37.127,37.127,0,0,1,16.14356,3.88477l-3.77246,9.50586a62.30054,62.30054,0,0,0-6.22363-2.56543A18.57927,18.57927,0,0,0,1056.15873,126.99307Z"/>
    <path class="cls-3" d="M1115.71634,173.19815l-3.998-13.126h-20.10449l-3.998,13.126H1075.0181L1094.481,117.828h14.29492l19.53809,55.37012Zm-6.79-22.93262q-5.54443-17.84033-6.24219-20.17969-.69726-2.33789-.999-3.69629-1.24512,4.82813-7.12891,23.876Z"/>
    <path class="cls-3" d="M1167.80521,157.88468a14.25429,14.25429,0,0,1-5.375,11.76758q-5.37451,4.30078-14.95508,4.2998a35.1164,35.1164,0,0,1-15.61523-3.31934v-10.8623a64.30854,64.30854,0,0,0,9.44824,3.50781,27.96606,27.96606,0,0,0,7.07227,1.01855,10.04769,10.04769,0,0,0,5.90234-1.47168,5.03092,5.03092,0,0,0,2.05566-4.375,4.832,4.832,0,0,0-.90527-2.88574,10.12542,10.12542,0,0,0-2.65918-2.43262,68.59756,68.59756,0,0,0-7.14746-3.73437,33.83018,33.83018,0,0,1-7.58105-4.56348,17.11181,17.11181,0,0,1-4.03613-5.0918,14.53073,14.53073,0,0,1-1.50879-6.78906q0-7.31836,4.96-11.50488t13.71094-4.18652a32.38369,32.38369,0,0,1,8.20313,1.01855,56.45853,56.45853,0,0,1,8.166,2.86621l-3.77148,9.09082a55.16134,55.16134,0,0,0-7.29883-2.52734,23.495,23.495,0,0,0-5.67578-.7168,7.51551,7.51551,0,0,0-5.09277,1.54688,5.10107,5.10107,0,0,0-1.77246,4.03516,4.99672,4.99672,0,0,0,.7168,2.69727,7.8672,7.8672,0,0,0,2.28223,2.22559,70.55388,70.55388,0,0,0,7.41113,3.86621q7.73145,3.6958,10.59863,7.41113A14.46779,14.46779,0,0,1,1167.80521,157.88468Z"/>
    <path class="cls-3" d="M532.21634,237.79483q0,13.61572-7.751,20.85742-7.752,7.24219-22.38574,7.24219H486.46439V210.75089h17.3125q13.50293,0,20.97168,7.12793Q532.21634,225.00821,532.21634,237.79483Zm-12.14551.30176q0-17.76562-15.69043-17.76562h-6.22363v35.90723h5.0166Q520.07035,256.23819,520.07084,238.09659Z"/>
    <path class="cls-3" d="M575.40384,265.89444H543.64505V210.75089h31.75879V220.331H555.33744v12.10742h18.6709v9.58008h-18.6709v14.21973h20.06641Z"/>
    <path class="cls-3" d="M606.97416,265.89444V210.75089h11.69238v45.4873h22.36719v9.65625Z"/>
    <path class="cls-3" d="M684.37162,265.89444l-3.998-13.126H660.26908l-3.998,13.126H643.67338l19.46289-55.37012h14.29492l19.53809,55.37012Zm-6.79-22.93262q-5.54443-17.84033-6.24219-20.17969-.69727-2.33789-.999-3.69629-1.24512,4.82959-7.12891,23.876Z"/>
    <path class="cls-3" d="M759.92142,265.89444H718.88431v-7.58105l26.44043-37.90723H719.60013v-9.65527h39.60449v7.543l-26.40234,37.94434h27.11914Z"/>
    <path class="cls-3" d="M818.76127,238.247q0,13.69189-6.78906,21.04688-6.78955,7.355-19.46289,7.35449-12.67383,0-19.46289-7.35449-6.78809-7.355-6.78906-21.12207,0-13.7666,6.80859-21.02832,6.80713-7.25977,19.51855-7.26074,12.71045,0,19.44434,7.31738Q818.76127,224.51846,818.76127,238.247Zm-40.24512,0q0,9.2417,3.50781,13.918,3.50684,4.67725,10.48535,4.67676,13.99365,0,13.99316-18.59473,0-18.63281-13.918-18.63281-6.97852,0-10.52344,4.69629Q778.51615,229.00528,778.51615,238.247Z"/>
    <path class="cls-3" d="M879.1099,265.89444H864.24955l-23.98926-41.7168h-.33887q.71484,11.05225.71582,15.7666v25.9502H830.19V210.75089H844.937l23.95117,41.30078h.26465q-.56689-10.749-.56641-15.2002V210.75089H879.1099Z"/>
    <path class="cls-3" d="M926.74857,265.89444l-3.998-13.126H902.646l-3.998,13.126H886.05033l19.46289-55.37012h14.29492l19.53809,55.37012Zm-6.79-22.93262q-5.54443-17.84033-6.24219-20.17969-.69727-2.33789-.999-3.69629-1.24512,4.82959-7.12891,23.876Z"/>
    <path class="cls-3" d="M1012.105,237.79483q0,13.61572-7.751,20.85742-7.752,7.24219-22.38574,7.24219H966.35306V210.75089h17.3125q13.50293,0,20.97168,7.12793Q1012.105,225.00821,1012.105,237.79483Zm-12.14551.30176q0-17.76562-15.69043-17.76562h-6.22363v35.90723h5.0166Q999.959,256.23819,999.95951,238.09659Z"/>
    <path class="cls-3" d="M1055.29252,265.89444h-31.75879V210.75089h31.75879V220.331h-20.06641v12.10742h18.6709v9.58008h-18.6709v14.21973h20.06641Z"/>
    <path class="cls-3" d="M1066.79642,265.89444V210.75089h11.69238v45.4873H1100.856v9.65625Z"/>
    <path class="cls-3" d="M1162.26127,265.89444h-31.75879V210.75089h31.75879V220.331h-20.06641v12.10742h18.6709v9.58008h-18.6709v14.21973h20.06641Z"/>
    <path class="cls-3" d="M1218.64994,210.75089v35.68066a20.5662,20.5662,0,0,1-2.73535,10.71191,17.79867,17.79867,0,0,1-7.90137,7.05371,28.25943,28.25943,0,0,1-12.2207,2.45117q-10.63623,0-16.52051-5.4502-5.88428-5.44922-5.88477-14.917V210.75089h11.65527V244.5087q0,6.37354,2.56543,9.35352,2.56348,2.97949,8.48633,2.97949,5.73193,0,8.31641-2.998,2.584-2.99854,2.584-9.41113V210.75089Z"/>
    <path class="cls-3" d="M1243.84525,244.73428v21.16016h-11.69238V210.75089h16.06738q11.23975,0,16.63379,4.0918,5.39355,4.09277,5.39355,12.42871a14.63336,14.63336,0,0,1-2.67773,8.65625,17.727,17.727,0,0,1-7.58106,5.94043q12.44678,18.59473,16.21875,24.02637H1263.232l-13.16309-21.16016Zm0-9.50488h3.77148q5.54443,0,8.18555-1.84766,2.63965-1.84863,2.63965-5.80859,0-3.92285-2.69629-5.583-2.69824-1.6582-8.35449-1.65918h-3.5459Z"/>
    <path class="cls-3" d="M1333.19974,238.247q0,13.69189-6.78906,21.04688-6.78955,7.355-19.46289,7.35449-12.67383,0-19.46289-7.35449-6.78809-7.355-6.78906-21.12207,0-13.7666,6.80859-21.02832,6.80713-7.25977,19.51856-7.26074,12.71045,0,19.44434,7.31738Q1333.19974,224.51846,1333.19974,238.247Zm-40.24512,0q0,9.2417,3.50781,13.918,3.50684,4.67725,10.48535,4.67676,13.99365,0,13.99316-18.59473,0-18.63281-13.918-18.63281-6.97852,0-10.52344,4.69629Q1292.95463,229.00528,1292.95463,238.247Z"/>
  </g>
</svg>
