<svg id="Layer_1" data-name="Layer 1" xmlns="http://www.w3.org/2000/svg" width="1518.29966" height="377.68065" viewBox="0 0 1518.29966 377.68065">
  <defs>
    <style>
      .cls-1 {
        fill: #003299;
      }

      .cls-2 {
        fill: #fff315;
      }

      .cls-3 {
        fill: #fff;
      }
    </style>
  </defs>
  <title>ECB_Logo_Euro area statistics_486817</title>
  <g id="Capa_1" data-name="Capa 1">
    <g id="Ebene_1" data-name="Ebene 1">
      <path class="cls-1" d="M364.88208,84.51082a170.93978,170.93978,0,0,0-274.093,0h-71.888v215.44h80.971a170.888,170.888,0,0,0,255.927,0h1139.102v-215.44Z"/>
      <path class="cls-2" d="M310.53308,120.88882c-17.559-21.506-46.594-36.557-82.432-36.557-44.81,0-80.656,29.392-91.764,68.104h159.505l-10.753,22.577h-153.769c-.363,4.662-.719,8.244-.719,11.828,0,3.587.356,6.809.719,10.756h143.371l-10.752,22.586h-127.603c12.906,42.28,48.748,68.811,95.342,68.811,32.259,0,60.931-13.977,78.854-35.479v30.467c-17.923,14.33-48.384,27.588-80.642,27.588-57.354,0-105.741-34.764-119.002-91.387h-40.505l10.753-22.586h25.449c-.36-4.664-.36-7.886-.36-11.117,0-3.579,0-6.805.36-11.466h-36.202l10.753-22.577h29.75c13.262-56.641,61.649-90.693,120.791-90.693,34.048,0,69.895,14.344,89.251,37.288Z"/>
    </g>
  </g>
  <g>
    <path class="cls-3" d="M687.20061,157.94315a14.25746,14.25746,0,0,1-5.375,11.76855q-5.37451,4.29932-14.95508,4.29883a35.11623,35.11623,0,0,1-15.61523-3.31836V159.82889a64.19587,64.19587,0,0,0,9.44824,3.50781,27.92208,27.92208,0,0,0,7.07227,1.01855,10.04769,10.04769,0,0,0,5.90234-1.47168,5.02975,5.02975,0,0,0,2.05566-4.375,4.82912,4.82912,0,0,0-.90527-2.88477,10.11088,10.11088,0,0,0-2.65918-2.43359,68.59757,68.59757,0,0,0-7.14746-3.73437,33.83019,33.83019,0,0,1-7.58105-4.56348,17.11182,17.11182,0,0,1-4.03613-5.0918,14.53073,14.53073,0,0,1-1.50879-6.78906q0-7.31689,4.96-11.50488,4.96-4.18652,13.71094-4.18555a32.3837,32.3837,0,0,1,8.20313,1.01758,56.46826,56.46826,0,0,1,8.166,2.86719l-3.77148,9.08984a55.30477,55.30477,0,0,0-7.29883-2.52734,23.5436,23.5436,0,0,0-5.67578-.7168,7.51552,7.51552,0,0,0-5.09277,1.54688,5.10107,5.10107,0,0,0-1.77246,4.03516,4.99673,4.99673,0,0,0,.7168,2.69727,7.8672,7.8672,0,0,0,2.28223,2.22559,70.55387,70.55387,0,0,0,7.41113,3.86621q7.73145,3.69727,10.59863,7.41211A14.463,14.463,0,0,1,687.20061,157.94315Z"/>
    <path class="cls-3" d="M718.46819,173.25662H706.77581V127.84451H691.80217v-9.73242H733.4428v9.73242H718.46819Z"/>
    <path class="cls-3" d="M775.68694,173.25662l-3.998-13.126H751.5844l-3.998,13.126H734.9887l19.46289-55.37012h14.29492l19.53809,55.37012Zm-6.79-22.93262q-5.54443-17.84033-6.24219-20.17871-.69727-2.33936-.999-3.69727-1.24512,4.82813-7.12891,23.876Z"/>
    <path class="cls-3" d="M816.49749,173.25662H804.8051V127.84451H789.83147v-9.73242H831.4721v9.73242H816.49749Z"/>
    <path class="cls-3" d="M839.95842,173.25662V118.11209h11.69238v55.14453Z"/>
    <path class="cls-3" d="M898.08245,157.94315a14.25746,14.25746,0,0,1-5.375,11.76855q-5.37451,4.29932-14.95508,4.29883a35.11623,35.11623,0,0,1-15.61523-3.31836V159.82889a64.19587,64.19587,0,0,0,9.44824,3.50781,27.92208,27.92208,0,0,0,7.07227,1.01855,10.04769,10.04769,0,0,0,5.90234-1.47168,5.02975,5.02975,0,0,0,2.05566-4.375,4.82912,4.82912,0,0,0-.90527-2.88477,10.11088,10.11088,0,0,0-2.65918-2.43359,68.59757,68.59757,0,0,0-7.14746-3.73437,33.83019,33.83019,0,0,1-7.58105-4.56348,17.11182,17.11182,0,0,1-4.03613-5.0918,14.53073,14.53073,0,0,1-1.50879-6.78906q0-7.31689,4.96-11.50488,4.96-4.18652,13.71094-4.18555a32.3837,32.3837,0,0,1,8.20313,1.01758,56.46825,56.46825,0,0,1,8.166,2.86719l-3.77148,9.08984a55.30477,55.30477,0,0,0-7.29883-2.52734,23.5436,23.5436,0,0,0-5.67578-.7168,7.51552,7.51552,0,0,0-5.09277,1.54688,5.10107,5.10107,0,0,0-1.77246,4.03516,4.99673,4.99673,0,0,0,.7168,2.69727,7.8672,7.8672,0,0,0,2.28223,2.22559,70.55387,70.55387,0,0,0,7.41113,3.86621q7.73145,3.69727,10.59863,7.41211A14.463,14.463,0,0,1,898.08245,157.94315Z"/>
    <path class="cls-3" d="M929.35,173.25662H917.65764V127.84451H902.684v-9.73242h41.64063v9.73242H929.35Z"/>
    <path class="cls-3" d="M952.811,173.25662V118.11209h11.69238v55.14453Z"/>
    <path class="cls-3" d="M1028.436,145.60916q0,9.731-3.45117,16.31348a21.04777,21.04777,0,0,1-10.127,9.63672l13.27637,14.82324h-14.97363l-10.10937-12.37207h-.86719q-12.67383,0-19.46289-7.35449-6.78809-7.355-6.78906-21.12207,0-13.7666,6.80859-21.02832,6.80713-7.26123,19.51856-7.26074,12.71045,0,19.44434,7.31738Q1028.436,131.88065,1028.436,145.60916Zm-40.24512,0q0,9.2417,3.50781,13.918,3.50684,4.67725,10.48535,4.67676,13.99365,0,13.99316-18.59473,0-18.63281-13.918-18.63281-6.97852,0-10.52344,4.69629T988.19085,145.60916Z"/>
    <path class="cls-3" d="M1084.74944,118.11209v35.68164a20.57222,20.57222,0,0,1-2.73535,10.71289,17.8024,17.8024,0,0,1-7.90137,7.05273,28.25943,28.25943,0,0,1-12.2207,2.45117q-10.63623,0-16.52051-5.44922-5.88428-5.45068-5.88477-14.918V118.11209H1051.142V151.8699q0,6.375,2.56543,9.35449,2.56348,2.981,8.48633,2.97949,5.73193,0,8.31641-2.998,2.584-2.99854,2.584-9.41016V118.11209Z"/>
    <path class="cls-3" d="M1130.01116,173.25662h-31.75879V118.11209h31.75879v9.58105h-20.06641v12.10742h18.6709v9.58105h-18.6709v14.21875h20.06641Z"/>
    <path class="cls-3" d="M1174.06585,157.94315a14.25746,14.25746,0,0,1-5.375,11.76855q-5.37451,4.29932-14.95508,4.29883a35.11622,35.11622,0,0,1-15.61523-3.31836V159.82889a64.19586,64.19586,0,0,0,9.44824,3.50781,27.92208,27.92208,0,0,0,7.07227,1.01855,10.04769,10.04769,0,0,0,5.90234-1.47168,5.02975,5.02975,0,0,0,2.05566-4.375,4.82911,4.82911,0,0,0-.90527-2.88477,10.11089,10.11089,0,0,0-2.65918-2.43359,68.59756,68.59756,0,0,0-7.14746-3.73437,33.83018,33.83018,0,0,1-7.58105-4.56348,17.11181,17.11181,0,0,1-4.03613-5.0918,14.53073,14.53073,0,0,1-1.50879-6.78906q0-7.31689,4.96-11.50488,4.96-4.18652,13.71094-4.18555a32.3837,32.3837,0,0,1,8.20313,1.01758,56.46827,56.46827,0,0,1,8.166,2.86719l-3.77149,9.08984a55.30473,55.30473,0,0,0-7.29883-2.52734,23.5436,23.5436,0,0,0-5.67578-.7168,7.51551,7.51551,0,0,0-5.09277,1.54688,5.10107,5.10107,0,0,0-1.77246,4.03516,4.99672,4.99672,0,0,0,.7168,2.69727,7.8672,7.8672,0,0,0,2.28223,2.22559,70.55389,70.55389,0,0,0,7.41113,3.86621q7.73145,3.69727,10.59863,7.41211A14.463,14.463,0,0,1,1174.06585,157.94315Z"/>
    <path class="cls-3" d="M623.11663,237.8533q0,13.61572-7.751,20.85742-7.752,7.24219-22.38574,7.24219H577.36467V210.80936h17.3125q13.50293,0,20.97168,7.12793Q623.11663,225.06668,623.11663,237.8533Zm-12.14551.30176q0-17.76562-15.69043-17.76562h-6.22363v35.90723h5.0166Q610.97063,256.29666,610.97112,238.15506Z"/>
    <path class="cls-3" d="M666.30413,265.95291H634.54534V210.80936h31.75879v9.58008H646.23772v12.10742h18.6709v9.58008h-18.6709v14.21973h20.06641Z"/>
    <path class="cls-3" d="M697.87444,265.95291V210.80936h11.69238v45.4873H731.934v9.65625Z"/>
    <path class="cls-3" d="M775.2719,265.95291l-3.998-13.126H751.16936l-3.998,13.126H734.57366l19.46289-55.37012h14.29492l19.53809,55.37012Zm-6.79-22.93262q-5.54443-17.84033-6.24219-20.17969-.69727-2.33789-.999-3.69629-1.24512,4.82959-7.12891,23.876Z"/>
    <path class="cls-3" d="M850.82171,265.95291H809.7846v-7.58105L836.225,220.46463H810.50042v-9.65527h39.60449v7.543l-26.40234,37.94434h27.11914Z"/>
    <path class="cls-3" d="M909.66155,238.30545q0,13.69189-6.78906,21.04688-6.78955,7.355-19.46289,7.35449-12.67383,0-19.46289-7.35449-6.78809-7.355-6.78906-21.12207,0-13.7666,6.80859-21.02832,6.80713-7.25977,19.51855-7.26074,12.71045,0,19.44434,7.31738Q909.66155,224.57693,909.66155,238.30545Zm-40.24512,0q0,9.2417,3.50781,13.918,3.50684,4.67725,10.48535,4.67676,13.99365,0,13.99316-18.59473,0-18.63281-13.918-18.63281-6.97852,0-10.52344,4.69629Q869.41643,229.06375,869.41643,238.30545Z"/>
    <path class="cls-3" d="M970.01018,265.95291H955.14983l-23.98926-41.7168h-.33887q.71484,11.05225.71582,15.7666v25.9502H921.09026V210.80936h14.74707l23.95117,41.30078h.26465q-.56689-10.749-.56641-15.2002V210.80936h10.52344Z"/>
    <path class="cls-3" d="M1015.64983,265.95291H983.891V210.80936h31.75879v9.58008H995.58342v12.10742h18.6709v9.58008h-18.6709v14.21973h20.06641Z"/>
    <path class="cls-3" d="M1078.97893,265.95291h-31.75879V210.80936h31.75879v9.58008h-20.06641v12.10742h18.6709v9.58008h-18.6709v14.21973h20.06641Z"/>
    <path class="cls-3" d="M1135.3676,210.80936V246.49a20.56619,20.56619,0,0,1-2.73535,10.71191,17.79867,17.79867,0,0,1-7.90137,7.05371,28.25943,28.25943,0,0,1-12.2207,2.45117q-10.63623,0-16.52051-5.4502-5.88428-5.44922-5.88477-14.917V210.80936h11.65527v33.75781q0,6.37354,2.56543,9.35352,2.56348,2.97949,8.48633,2.97949,5.73193,0,8.31641-2.998,2.584-2.99854,2.584-9.41113V210.80936Z"/>
    <path class="cls-3" d="M1160.56292,244.79276v21.16016h-11.69238V210.80936h16.06738q11.23975,0,16.63379,4.0918,5.39355,4.09277,5.39355,12.42871a14.63336,14.63336,0,0,1-2.67773,8.65625,17.727,17.727,0,0,1-7.58106,5.94043q12.44678,18.59473,16.21875,24.02637h-12.97559l-13.16309-21.16016Zm0-9.50488h3.77148q5.54443,0,8.18555-1.84766,2.63965-1.84863,2.63965-5.80859,0-3.92285-2.69629-5.583-2.69824-1.6582-8.35449-1.65918h-3.5459Z"/>
    <path class="cls-3" d="M1249.91741,238.30545q0,13.69189-6.78906,21.04688-6.78955,7.355-19.46289,7.35449-12.67383,0-19.46289-7.35449-6.78809-7.355-6.78906-21.12207,0-13.7666,6.80859-21.02832,6.80713-7.25977,19.51856-7.26074,12.71045,0,19.44434,7.31738Q1249.91741,224.57693,1249.91741,238.30545Zm-40.24512,0q0,9.2417,3.50781,13.918,3.50684,4.67725,10.48535,4.67676,13.99365,0,13.99316-18.59473,0-18.63281-13.918-18.63281-6.97852,0-10.52344,4.69629Q1209.67229,229.06375,1209.67229,238.30545Z"/>
  </g>
</svg>
