<svg id="Layer_1" data-name="Layer 1" xmlns="http://www.w3.org/2000/svg" width="1518.29966" height="377.68065" viewBox="0 0 1518.29966 377.68065">
  <defs>
    <style>
      .cls-1 {
        fill: #003299;
      }

      .cls-2 {
        fill: #fff315;
      }

      .cls-3 {
        fill: #fff;
      }
    </style>
  </defs>
  <title>ECB_Logo_Euro area statistics_486817</title>
  <g id="Capa_1" data-name="Capa 1">
    <g id="Ebene_1" data-name="Ebene 1">
      <path class="cls-1" d="M364.88208,84.51082a170.93978,170.93978,0,0,0-274.093,0h-71.888v215.44h80.971a170.888,170.888,0,0,0,255.927,0h1139.102v-215.44Z"/>
      <path class="cls-2" d="M310.53308,120.88882c-17.559-21.506-46.594-36.557-82.432-36.557-44.81,0-80.656,29.392-91.764,68.104h159.505l-10.753,22.577h-153.769c-.363,4.662-.719,8.244-.719,11.828,0,3.587.356,6.809.719,10.756h143.371l-10.752,22.586h-127.603c12.906,42.28,48.748,68.811,95.342,68.811,32.259,0,60.931-13.977,78.854-35.479v30.467c-17.923,14.33-48.384,27.588-80.642,27.588-57.354,0-105.741-34.764-119.002-91.387h-40.505l10.753-22.586h25.449c-.36-4.664-.36-7.886-.36-11.117,0-3.579,0-6.805.36-11.466h-36.202l10.753-22.577h29.75c13.262-56.641,61.649-90.693,120.791-90.693,34.048,0,69.895,14.344,89.251,37.288Z"/>
    </g>
  </g>
  <g>
    <path class="cls-3" d="M498.37493,216.97147H466.61614V161.82791h31.75879V171.408H478.30852v12.10742h18.6709v9.58105h-18.6709v14.21973h20.06641Z"/>
    <path class="cls-3" d="M554.7636,161.82791v35.68164a20.57112,20.57112,0,0,1-2.73535,10.71191,17.79667,17.79667,0,0,1-7.90137,7.05273,28.25928,28.25928,0,0,1-12.2207,2.45215q-10.63623,0-16.52051-5.4502-5.88428-5.45068-5.88477-14.918V161.82791h11.65527v33.75781q0,6.375,2.56543,9.35352,2.56348,2.981,8.48633,2.98047,5.73193,0,8.31641-2.999,2.584-2.99854,2.584-9.41016V161.82791Z"/>
    <path class="cls-3" d="M579.95891,195.81131v21.16016H568.26653V161.82791h16.06738q11.23975,0,16.63379,4.0918,5.39355,4.09424,5.39355,12.42871a14.63336,14.63336,0,0,1-2.67773,8.65625,17.71972,17.71972,0,0,1-7.58105,5.94043q12.44678,18.59619,16.21875,24.02637H599.34563l-13.16309-21.16016Zm0-9.50488h3.77148q5.54443,0,8.18555-1.84766,2.63965-1.84717,2.63965-5.80859,0-3.92285-2.69629-5.582-2.69824-1.65967-8.35449-1.66016h-3.5459Z"/>
    <path class="cls-3" d="M669.3134,189.324q0,13.69189-6.78906,21.04688-6.78955,7.355-19.46289,7.35547-12.67383,0-19.46289-7.35547-6.78809-7.355-6.78906-21.12207,0-13.7666,6.80859-21.02832,6.80713-7.25977,19.51855-7.26074,12.71045,0,19.44434,7.31738Q669.3134,175.59549,669.3134,189.324Zm-40.24512,0q0,9.2417,3.50781,13.918,3.50684,4.67725,10.48535,4.67773,13.99365,0,13.99316-18.5957,0-18.63281-13.918-18.63281-6.97852,0-10.52344,4.69629T629.06829,189.324Z"/>
    <path class="cls-3" d="M714.49993,216.97147l-3.998-13.126H690.39739l-3.998,13.126H673.80169l19.46289-55.37012H707.5595l19.53809,55.37012Zm-6.79-22.93262q-5.54443-17.84033-6.24219-20.17871-.69727-2.33936-.999-3.69629-1.24512,4.82813-7.12891,23.875Z"/>
    <path class="cls-3" d="M734.038,216.97147V161.82791H745.7304v45.48828h22.36719v9.65527Z"/>
    <path class="cls-3" d="M822.56243,161.82791v35.68164a20.57112,20.57112,0,0,1-2.73535,10.71191,17.79667,17.79667,0,0,1-7.90137,7.05273,28.25928,28.25928,0,0,1-12.2207,2.45215q-10.63623,0-16.52051-5.4502-5.88428-5.45068-5.88477-14.918V161.82791H788.955v33.75781q0,6.375,2.56543,9.35352,2.56348,2.981,8.48633,2.98047,5.73193,0,8.31641-2.999,2.584-2.99854,2.584-9.41016V161.82791Z"/>
    <path class="cls-3" d="M867.82415,216.97147H836.06536V161.82791h31.75879V171.408H847.75774v12.10742h18.6709v9.58105h-18.6709v14.21973h20.06641Z"/>
    <path class="cls-3" d="M911.08684,216.97147H879.32805V161.82791h31.75879V171.408H891.02044v12.10742h18.6709v9.58105h-18.6709v14.21973h20.06641Z"/>
    <path class="cls-3" d="M971.51067,216.97147H956.65032l-23.98926-41.71582h-.33887q.71484,11.05225.71582,15.76563v25.9502H922.59075V161.82791h14.74707L961.289,203.12869h.26465q-.56689-10.749-.56641-15.2002V161.82791h10.52344Z"/>
    <path class="cls-3" d="M1026.7304,216.97147H1015.038V171.55936h-14.97363v-9.73145H1041.705v9.73145H1026.7304Z"/>
    <path class="cls-3" d="M1050.19133,216.97147V161.82791h11.69238v55.14355Z"/>
    <path class="cls-3" d="M1075.76458,216.97147V161.82791H1087.457v45.48828h22.36719v9.65527Z"/>
    <path class="cls-3" d="M1153.162,216.97147l-3.998-13.126H1129.0595l-3.998,13.126h-12.59766l19.46289-55.37012h14.29492l19.53809,55.37012Zm-6.79-22.93262q-5.54443-17.84033-6.24219-20.17871-.69727-2.33936-.999-3.69629-1.24512,4.82813-7.12891,23.875Z"/>
    <path class="cls-3" d="M1205.25091,201.658a14.25746,14.25746,0,0,1-5.375,11.76855q-5.37451,4.29932-14.95508,4.2998a35.11641,35.11641,0,0,1-15.61523-3.31934V203.54373a64.19584,64.19584,0,0,0,9.44824,3.50781,27.92209,27.92209,0,0,0,7.07227,1.01855,10.05523,10.05523,0,0,0,5.90234-1.4707,5.03154,5.03154,0,0,0,2.05566-4.376,4.83121,4.83121,0,0,0-.90527-2.88477,10.10889,10.10889,0,0,0-2.65918-2.43262,68.40085,68.40085,0,0,0-7.14746-3.73437,33.82787,33.82787,0,0,1-7.58106-4.56445,17.11183,17.11183,0,0,1-4.03613-5.0918,14.528,14.528,0,0,1-1.50879-6.78906q0-7.31689,4.96-11.50391,4.96-4.18652,13.71094-4.18652a32.33968,32.33968,0,0,1,8.20313,1.01855,56.45852,56.45852,0,0,1,8.166,2.86621l-3.77148,9.08984a55.30478,55.30478,0,0,0-7.29883-2.52734,23.54158,23.54158,0,0,0-5.67578-.71582,7.5204,7.5204,0,0,0-5.09277,1.5459,5.1017,5.1017,0,0,0-1.77246,4.03613,4.99331,4.99331,0,0,0,.7168,2.69629,7.8672,7.8672,0,0,0,2.28223,2.22559,70.3565,70.3565,0,0,0,7.41113,3.86621q7.73145,3.69727,10.59863,7.41211A14.463,14.463,0,0,1,1205.25091,201.658Z"/>
    <path class="cls-3" d="M1236.51848,216.97147H1224.8261V171.55936h-14.97363v-9.73145h41.64063v9.73145h-14.97461Z"/>
    <path class="cls-3" d="M1310.03118,189.324q0,13.69189-6.78906,21.04688-6.78955,7.355-19.46289,7.35547-12.67383,0-19.46289-7.35547-6.78809-7.355-6.78906-21.12207,0-13.7666,6.80859-21.02832,6.80713-7.25977,19.51855-7.26074,12.71045,0,19.44434,7.31738Q1310.03118,175.59549,1310.03118,189.324Zm-40.24512,0q0,9.2417,3.50781,13.918,3.50684,4.67725,10.48535,4.67773,13.99365,0,13.99316-18.5957,0-18.63281-13.918-18.63281-6.97851,0-10.52344,4.69629T1269.78606,189.324Z"/>
    <path class="cls-3" d="M1342.73235,216.97147H1331.04V171.55936h-14.97363v-9.73145H1357.707v9.73145h-14.97461Z"/>
  </g>
</svg>
