<svg id="Layer_1" data-name="Layer 1" xmlns="http://www.w3.org/2000/svg" width="1428.544" height="377.681" viewBox="0 0 1428.544 377.681">
  <defs>
    <style>
      .cls-1 {
        fill: #003299;
      }

      .cls-2 {
        fill: #fff315;
      }

      .cls-3 {
        fill: #fff;
      }
    </style>
  </defs>
  <title>ECB_Logo_Euro area statistics_486817_update</title>
  <g id="Capa_1" data-name="Capa 1">
    <g id="Ebene_1" data-name="Ebene 1">
      <path class="cls-1" d="M364.882,84.511a170.94,170.94,0,0,0-274.093,0H18.9v215.44H99.872a170.888,170.888,0,0,0,255.927,0H1409.428V84.511Z"/>
      <path class="cls-2" d="M310.533,120.889C292.974,99.383,263.939,84.332,228.1,84.332c-44.81,0-80.656,29.392-91.764,68.1h159.5l-10.753,22.577H131.32c-.363,4.662-.719,8.244-.719,11.828s.356,6.809.719,10.756H274.691l-10.752,22.586h-127.6c12.906,42.28,48.748,68.811,95.342,68.811,32.259,0,60.931-13.977,78.854-35.479v30.467c-17.923,14.33-48.384,27.588-80.642,27.588-57.354,0-105.741-34.764-119-91.387H70.383L81.136,197.6h25.449c-.36-4.664-.36-7.886-.36-11.117,0-3.579,0-6.8.36-11.466h-36.2l10.753-22.577h29.75C124.148,95.8,172.535,61.744,231.677,61.744c34.048,0,69.895,14.344,89.251,37.288Z"/>
    </g>
  </g>
  <g>
    <path class="cls-3" d="M645.285,159.393a14.254,14.254,0,0,1-5.375,11.768q-5.375,4.3-14.955,4.3a35.117,35.117,0,0,1-15.615-3.32V161.279a64.309,64.309,0,0,0,9.448,3.508,27.966,27.966,0,0,0,7.072,1.019,10.055,10.055,0,0,0,5.9-1.471,5.033,5.033,0,0,0,2.056-4.376,4.834,4.834,0,0,0-.905-2.886,10.123,10.123,0,0,0-2.659-2.432,68.4,68.4,0,0,0-7.147-3.734,33.828,33.828,0,0,1-7.581-4.564,17.112,17.112,0,0,1-4.036-5.092,14.528,14.528,0,0,1-1.509-6.789q0-7.318,4.96-11.5t13.711-4.187a32.34,32.34,0,0,1,8.2,1.02,56.449,56.449,0,0,1,8.166,2.865l-3.771,9.091a55.161,55.161,0,0,0-7.3-2.527,23.493,23.493,0,0,0-5.676-.716,7.52,7.52,0,0,0-5.093,1.546,5.1,5.1,0,0,0-1.772,4.036,4.993,4.993,0,0,0,.717,2.7,7.867,7.867,0,0,0,2.282,2.226,70.357,70.357,0,0,0,7.411,3.866q7.731,3.7,10.6,7.411A14.468,14.468,0,0,1,645.285,159.393Z"/>
    <path class="cls-3" d="M676.553,174.707H664.861V129.294H649.887v-9.73h41.641v9.73H676.553Z"/>
    <path class="cls-3" d="M733.772,174.707l-4-13.126h-20.1l-4,13.126h-12.6l19.463-55.37h14.295l19.538,55.37Zm-6.79-22.933q-5.544-17.84-6.242-20.18t-1-3.7q-1.245,4.828-7.129,23.875Z"/>
    <path class="cls-3" d="M774.582,174.707H762.89V129.294H747.916v-9.73h41.641v9.73H774.582Z"/>
    <path class="cls-3" d="M798.043,174.707V119.563h11.692v55.144Z"/>
    <path class="cls-3" d="M856.167,159.393a14.254,14.254,0,0,1-5.375,11.768q-5.375,4.3-14.955,4.3a35.117,35.117,0,0,1-15.615-3.32V161.279a64.309,64.309,0,0,0,9.448,3.508,27.966,27.966,0,0,0,7.072,1.019,10.055,10.055,0,0,0,5.9-1.471,5.033,5.033,0,0,0,2.056-4.376,4.834,4.834,0,0,0-.905-2.886,10.123,10.123,0,0,0-2.659-2.432,68.4,68.4,0,0,0-7.147-3.734,33.828,33.828,0,0,1-7.581-4.564,17.112,17.112,0,0,1-4.036-5.092,14.528,14.528,0,0,1-1.509-6.789q0-7.318,4.96-11.5t13.711-4.187a32.34,32.34,0,0,1,8.2,1.02,56.449,56.449,0,0,1,8.166,2.865l-3.771,9.091a55.161,55.161,0,0,0-7.3-2.527,23.493,23.493,0,0,0-5.676-.716,7.52,7.52,0,0,0-5.093,1.546,5.1,5.1,0,0,0-1.772,4.036,4.993,4.993,0,0,0,.717,2.7,7.867,7.867,0,0,0,2.282,2.226,70.357,70.357,0,0,0,7.411,3.866q7.731,3.7,10.6,7.411A14.468,14.468,0,0,1,856.167,159.393Z"/>
    <path class="cls-3" d="M887.435,174.707H875.742V129.294H860.769v-9.73h41.641v9.73H887.435Z"/>
    <path class="cls-3" d="M910.9,174.707V119.563h11.692v55.144Z"/>
    <path class="cls-3" d="M968.228,174.707H936.469V119.563h31.759v9.58H948.161v12.107h18.671v9.58H948.161v14.221h20.066Z"/>
    <path class="cls-3" d="M1024.088,174.707h-13.277l-14.445-23.234-4.941,3.546v19.688H979.732V119.563h11.692V144.8l4.6-6.486,14.937-18.746h12.975l-19.236,24.4Z"/>
    <path class="cls-3" d="M1062.787,174.707h-31.759V119.563h31.759v9.58h-20.066v12.107h18.671v9.58h-18.671v14.221h20.066Z"/>
    <path class="cls-3" d="M1123.211,174.707h-14.86l-23.989-41.716h-.339q.715,11.051.716,15.766v25.95h-10.447V119.563h14.747l23.951,41.3h.265q-.567-10.749-.566-15.2v-26.1h10.523Z"/>
    <path class="cls-3" d="M483.984,212.26h11.806L477.043,267.4H464.294L445.586,212.26h11.806l10.373,32.814q.867,2.9,1.791,6.771t1.15,5.375a96.6,96.6,0,0,1,2.829-12.146Z"/>
    <path class="cls-3" d="M536.487,267.4l-4-13.126h-20.1l-4,13.126h-12.6l19.463-55.37h14.295l19.538,55.37ZM529.7,244.47q-5.544-17.84-6.242-20.18t-1-3.7q-1.245,4.83-7.129,23.876Z"/>
    <path class="cls-3" d="M604.945,267.4h-14.86L566.1,225.686h-.339q.715,11.052.716,15.767V267.4H556.026V212.26h14.747l23.951,41.3h.265q-.567-10.749-.566-15.2v-26.1h10.523Z"/>
    <path class="cls-3" d="M684.079,267.4H672.424V243.6H650.585v23.8H638.893V212.26h11.692v21.612h21.839V212.26h11.655Z"/>
    <path class="cls-3" d="M729.756,267.4H698V212.26h31.759v9.58H709.69v12.107h18.671v9.58H709.69v14.22h20.066Z"/>
    <path class="cls-3" d="M762.532,267.4H750.84V221.99H735.866v-9.73h41.641v9.73H762.532Z"/>
    <path class="cls-3" d="M837.819,267.4H806.06V212.26h31.759v9.58H817.752v12.107h18.671v9.58H817.752v14.22h20.066Z"/>
    <path class="cls-3" d="M894.207,212.26V247.94a20.566,20.566,0,0,1-2.735,10.712,17.8,17.8,0,0,1-7.9,7.054,28.259,28.259,0,0,1-12.221,2.451q-10.636,0-16.521-5.45t-5.885-14.917V212.26H860.6v33.758q0,6.374,2.565,9.354t8.486,2.979q5.732,0,8.316-3t2.584-9.411V212.26Z"/>
    <path class="cls-3" d="M919.4,246.243V267.4H907.71V212.26h16.067q11.24,0,16.634,4.092T945.8,228.78a14.633,14.633,0,0,1-2.678,8.656,17.727,17.727,0,0,1-7.581,5.94q12.447,18.595,16.219,24.026H938.789l-13.163-21.16Zm0-9.5h3.771q5.544,0,8.186-1.848t2.64-5.809q0-3.923-2.7-5.583t-8.354-1.659H919.4Z"/>
    <path class="cls-3" d="M1008.757,239.756q0,13.692-6.789,21.047t-19.463,7.354q-12.674,0-19.463-7.354t-6.789-21.122q0-13.767,6.809-21.028t19.519-7.261q12.71,0,19.444,7.317T1008.757,239.756Zm-40.245,0q0,9.242,3.508,13.918t10.485,4.677q13.994,0,13.993-18.595,0-18.633-13.918-18.633-6.979,0-10.523,4.7T968.512,239.756Z"/>
    <path class="cls-3" d="M1041.119,236.436H1063v28.591a61.658,61.658,0,0,1-10.014,2.433,65.287,65.287,0,0,1-9.6.7q-12.485,0-19.066-7.336t-6.582-21.065q0-13.352,7.638-20.82t21.179-7.469a40.971,40.971,0,0,1,16.37,3.4l-3.885,9.354a27.747,27.747,0,0,0-12.561-3.018,15.51,15.51,0,0,0-12.145,5.092q-4.564,5.093-4.564,13.692,0,8.977,3.678,13.71t10.693,4.734a37.747,37.747,0,0,0,7.43-.755v-11.5h-10.447Z"/>
    <path class="cls-3" d="M1107.881,267.4h-31.759V212.26h31.759v9.58h-20.066v12.107h18.671v9.58h-18.671v14.22h20.066Z"/>
    <path class="cls-3" d="M1119.385,212.26h17.161q11.73,0,17.03,3.338t5.3,10.617a13.374,13.374,0,0,1-2.319,8.109,9.261,9.261,0,0,1-6.167,3.81v.377q5.243,1.17,7.563,4.376a14.232,14.232,0,0,1,2.32,8.524q0,7.544-5.451,11.768t-14.8,4.225h-20.632Zm11.692,21.839h6.789q4.753,0,6.884-1.472t2.131-4.865a4.87,4.87,0,0,0-2.319-4.545q-2.32-1.377-7.336-1.377h-6.148Zm0,9.278v14.37h7.619q4.828,0,7.129-1.848t2.3-5.658q0-6.864-9.807-6.864Z"/>
    <path class="cls-3" d="M1171.285,267.4V212.26h11.692V267.4Z"/>
    <path class="cls-3" d="M1228.617,267.4h-31.759V212.26h31.759v9.58h-20.066v12.107h18.671v9.58h-18.671v14.22h20.066Z"/>
    <path class="cls-3" d="M1285.873,239.3q0,13.616-7.751,20.857t-22.386,7.242h-15.615V212.26h17.313q13.5,0,20.972,7.128T1285.873,239.3Zm-12.146.3q0-17.766-15.69-17.766h-6.224v35.907h5.017Q1273.727,257.747,1273.728,239.605Z"/>
  </g>
</svg>
