<svg xmlns="http://www.w3.org/2000/svg" width="77.37367" height="77.37367" viewBox="0 0 77.37367 77.37367">
  <defs>
    <style>
      .cls-1 {
        fill: #FFFFFF;
      }
    </style>
  </defs>
  <title>_</title>
  <g id="Layer_1" data-name="Layer 1">
    <path class="cls-1" d="M60.27723,25.44,38.81195,15.19133a.32962.32962,0,0,0-.25028,0L17.09659,25.44a.24062.24062,0,0,0-.12514.19839v26.15a.24006.24006,0,0,0,.12526.19815l21.46483,10.1959a.3319.3319,0,0,0,.25052,0L60.2769,51.98657a.24006.24006,0,0,0,.12526-.19815V25.63853l.00006-.13867ZM37.21805,58.31843a.08094.08094,0,0,1-.12526.07919L19.88525,50.224a.24006.24006,0,0,1-.12526-.19815V29.99322a.0802.0802,0,0,1,.12481-.07823l17.20844,8.33178a.24243.24243,0,0,1,.12481.1991Zm1.519-22.49516a.32469.32469,0,0,1-.24962,0L20.40725,27.06939c-.06865-.0332-.0685-.08731.00033-.12015l18.15408-8.66782a.32962.32962,0,0,1,.25028,0l18.079,8.632c.06883.03285.069.087.00033.12021ZM57.61362,50.02588a.24006.24006,0,0,1-.12526.19815L40.13194,58.46832a.08094.08094,0,0,1-.12526-.07919V38.44576a.24243.24243,0,0,1,.12481-.1991l17.35732-8.40374a.08019.08019,0,0,1,.12481.07823Z"/>
  </g>
</svg>
