<svg xmlns="http://www.w3.org/2000/svg" width="77.37367" height="77.37367" viewBox="0 0 77.37367 77.37367">
  <defs>
    <style>
      .cls-1 {
        fill: #FFFFFF;
      }
    </style>
  </defs>
  <title>_</title>
  <g id="Layer_1" data-name="Layer 1">
    <path class="cls-1" d="M64.9984,58.18833v2.78593a.15524.15524,0,0,1-.1548.1548H12.53a.15524.15524,0,0,1-.15476-.1548V58.18833a.15523.15523,0,0,1,.15476-.15476H64.8436A.15524.15524,0,0,1,64.9984,58.18833Zm-29.407-18.88239a.15521.15521,0,0,0,.15476.15476h5.88138a.15524.15524,0,0,0,.1548-.15476V33.42453a.15524.15524,0,0,0-.1548-.15476H35.74613a.15521.15521,0,0,0-.15476.15476Zm.15476-10.67941h5.88138a.15524.15524,0,0,0,.1548-.15476V22.59032a.15524.15524,0,0,0-.1548-.15476H35.74613a.15521.15521,0,0,0-.15476.15476v5.88145A.15521.15521,0,0,0,35.74613,28.62653Zm-4.17891,4.64323H25.68584a.15521.15521,0,0,0-.15476.15476v5.88141a.15521.15521,0,0,0,.15476.15476h5.88138a.15524.15524,0,0,0,.1548-.15476V33.42453A.15524.15524,0,0,0,31.56722,33.26976Zm.1548-10.67944a.15524.15524,0,0,0-.1548-.15476H25.68584a.15521.15521,0,0,0-.15476.15476v5.88145a.15521.15521,0,0,0,.15476.15476h5.88138a.15524.15524,0,0,0,.1548-.15476ZM51.68783,33.26976H45.80641a.15521.15521,0,0,0-.15476.15476v5.88141a.15521.15521,0,0,0,.15476.15476h5.88141a.15524.15524,0,0,0,.1548-.15476V33.42453A.15524.15524,0,0,0,51.68783,33.26976Zm.1548-10.67944a.15524.15524,0,0,0-.1548-.15476H45.80641a.15521.15521,0,0,0-.15476.15476v5.88145a.15521.15521,0,0,0,.15476.15476h5.88141a.15524.15524,0,0,0,.1548-.15476ZM18.721,56.48582h2.78593a.15524.15524,0,0,0,.1548-.15476V19.49487a.15521.15521,0,0,1,.15476-.15476H55.55717a.15524.15524,0,0,1,.1548.15476V56.33106a.15521.15521,0,0,0,.15476.15476h2.78593a.15524.15524,0,0,0,.1548-.15476V16.39938a.15524.15524,0,0,0-.1548-.15476H18.721a.15521.15521,0,0,0-.15476.15476V56.33106A.15521.15521,0,0,0,18.721,56.48582ZM34.04362,44.2587V56.33106a.15523.15523,0,0,0,.15476.15476h8.97687a.15524.15524,0,0,0,.1548-.15476V44.2587a.15524.15524,0,0,0-.1548-.1548H34.19838A.15524.15524,0,0,0,34.04362,44.2587Z"/>
  </g>
</svg>
