<svg xmlns="http://www.w3.org/2000/svg" width="100" height="100" viewBox="-20 0 140 100">
  <defs>
    <style>
      .cls-1 {
        fill: #ffffff;
      }
    </style>
  </defs>
  <title>icon</title>
  <g id="Layer_3" data-name="Layer 3">
    <path class="cls-1" d="M40.418,20.322V15a.3.3,0,0,1,.294-.294h9.85a.159.159,0,0,0,.152-.258L42.911.258A.159.159,0,0,1,43.063,0H67.326a.3.3,0,0,1,.294.294V5.618a.3.3,0,0,1-.294.294H53.065a.159.159,0,0,0-.152.258l7.8,14.188a.159.159,0,0,1-.152.258H40.712A.3.3,0,0,1,40.418,20.322ZM31.655,92.376l3.989-19.249a.745.745,0,0,1,.315-.434l3.468-1.982a.3.3,0,0,0,.109-.4l-2.642-4.624a.3.3,0,0,0-.4-.109l-5.8,3.317a.747.747,0,0,0-.315.434L26.807,86.463a.378.378,0,0,1-.354.288H8a.254.254,0,0,0-.258.292l.662,5.3a.343.343,0,0,0,.331.292l22.57.03A.377.377,0,0,0,31.655,92.376Zm-6.562-7.741,2.1-11.185a.236.236,0,0,0-.24-.289H6.158a.254.254,0,0,0-.258.292L7.3,84.632a.343.343,0,0,0,.331.292H24.745A.369.369,0,0,0,25.094,84.634Zm-.3,10.939A2.206,2.206,0,1,0,27,97.779,2.206,2.206,0,0,0,24.8,95.573Zm-9.557,0a2.206,2.206,0,1,0,2.206,2.206A2.206,2.206,0,0,0,15.238,95.573ZM76.179,87.5c0,.162.1.581.221.636a1.5,1.5,0,0,0,.515.1h4.411c.162,0,.581-.1.636-.221a1.506,1.506,0,0,0,.1-.515V83.091c0-.162-.1-.581-.221-.636a1.5,1.5,0,0,0-.515-.1H76.914c-.162,0-.581.1-.636.221a1.5,1.5,0,0,0-.1.515Zm.735-11.028h4.411c.162,0,.581-.1.636-.221a1.506,1.506,0,0,0,.1-.515V71.328c0-.162-.1-.581-.221-.636a1.5,1.5,0,0,0-.515-.1H76.914c-.162,0-.581.1-.636.221a1.5,1.5,0,0,0-.1.515v4.411c0,.162.1.581.221.636A1.5,1.5,0,0,0,76.914,76.474Zm-13.233,0h4.411c.162,0,.581-.1.636-.221a1.506,1.506,0,0,0,.1-.515V71.328c0-.162-.1-.581-.221-.636a1.5,1.5,0,0,0-.515-.1H63.681c-.162,0-.581.1-.636.221a1.5,1.5,0,0,0-.1.515v4.411c0,.162.1.581.221.636A1.5,1.5,0,0,0,63.681,76.474ZM62.945,87.5c0,.162.1.581.221.636a1.5,1.5,0,0,0,.515.1h4.411c.162,0,.581-.1.636-.221a1.506,1.506,0,0,0,.1-.515V83.091c0-.162-.1-.581-.221-.636a1.5,1.5,0,0,0-.515-.1H63.681c-.162,0-.581.1-.636.221a1.5,1.5,0,0,0-.1.515ZM93.814,60.958l-43.23-9.266.482,6.151L88.188,65.8V94.086H53.9c.438,5.636.438,5.708.437,5.789V100H88.831l4.976-.014a.3.3,0,0,0,.294-.295V61.314A.381.381,0,0,0,93.814,60.958ZM47.589,51.675,45.367,23.834a.327.327,0,0,0-.317-.295l-15.5-.09h0a.328.328,0,0,0-.32.291l-4.184,44.4,6.239-3.172,3.352-35.572,5.249.03,1.813,22.713q.023.29.072.573C42.705,64.683,44.233,84.191,45,94.087H31.333V100H51.151c.23,0,.165-.04.23-.14,0-.16-3.759-48.112-3.759-48.112C47.614,51.723,47.591,51.7,47.589,51.675Z"/>
  </g>
</svg>
