<svg id="Layer_1" data-name="Layer 1" xmlns="http://www.w3.org/2000/svg" width="100" height="100" viewBox="0 0 100 100">
  <defs>
    <style>
      .cls-1 {
        fill: #FFFFFF;
      }
    </style>
  </defs>
  <title>_</title>
  <path class="cls-1" d="M31.78981,38.39493l.92,3.43366a.198.198,0,0,1-.13965.24187L27.2289,43.5017a.19807.19807,0,0,1-.24187-.13965l-.92-3.43374a.19805.19805,0,0,1,.13965-.24187l5.34129-1.43116A.19809.19809,0,0,1,31.78981,38.39493Zm2.251,10.43747-5.023,1.34586a.19805.19805,0,0,0-.13965.24187l.40894,1.52607a.198.198,0,0,0,.24187.13965L34.04085,50.877a.27237.27237,0,0,0,.19076-.24868V48.97877A.14412.14412,0,0,0,34.04085,48.8324ZM53.79378,67.20928H44.31431a.19807.19807,0,0,0-.19748.19748v1.59037a.19807.19807,0,0,0,.19748.19748h9.47947a.19808.19808,0,0,0,.19752-.19748V67.40676A.19808.19808,0,0,0,53.79378,67.20928ZM83.6147,48.64522V77.87374a.19808.19808,0,0,1-.19752.19748H36.41471a.19807.19807,0,0,1-.19748-.19748V48.64522a.19812.19812,0,0,1,.19748-.19748H83.41718A.19813.19813,0,0,1,83.6147,48.64522ZM79.64351,60.50594a.19808.19808,0,0,0-.19752-.19748H40.3859a.19807.19807,0,0,0-.19748.19748V73.90251a.19814.19814,0,0,0,.19748.19756H79.446a.19815.19815,0,0,0,.19752-.19756Zm0-7.88949A.19808.19808,0,0,0,79.446,52.419H40.3859a.19807.19807,0,0,0-.19748.19748v3.53206a.19807.19807,0,0,0,.19748.19748H79.446a.19808.19808,0,0,0,.19752-.19748ZM34.04085,55.96617l-7.034,1.8848a.198.198,0,0,1-.24187-.13965l-5.5093-20.56078a.19805.19805,0,0,1,.13965-.24187l37.7292-10.10945a.198.198,0,0,1,.24187.13965l5.15283,19.23032a.27225.27225,0,0,0,.24859.19076h3.71627a.14414.14414,0,0,0,.14641-.19076l-6.456-24.094a.198.198,0,0,0-.24187-.13965L16.53166,34.10061a.19805.19805,0,0,0-.13965.24187L23.95692,62.575a.19807.19807,0,0,0,.24187.13965l9.84206-2.6372a.27226.27226,0,0,0,.19076-.24859V56.11262A.14417.14417,0,0,0,34.04085,55.96617Z"/>
</svg>
