<?xml version="1.0" encoding="utf-8"?>
<!-- Generator: Adobe Illustrator 21.0.0, SVG Export Plug-In . SVG Version: 6.00 Build 0)  -->
<svg version="1.1" id="Calque_1" xmlns="http://www.w3.org/2000/svg" xmlns:xlink="http://www.w3.org/1999/xlink" x="0px" y="0px"
	 viewBox="0 0 400 400" style="enable-background:new 0 0 400 400;" xml:space="preserve">
<style type="text/css">
	.st0{display:none;}
	.st1{display:inline;fill:#0D4DA1;}
	.st2{fill:#0D4DA1;}
</style>
<g id="Calque_3" class="st0">
	
		<rect x="276.9" y="9.6" transform="matrix(0.7071 -0.7071 0.7071 0.7071 -16.0731 243.7192)" class="st1" width="18.5" height="263.3"/>
	
		<rect x="-18.2" y="132" transform="matrix(0.7071 -0.7071 0.7071 0.7071 -66.6542 121.6014)" class="st1" width="263.3" height="18.5"/>
	<polygon class="st1" points="131.5,133.2 76.5,186.6 76.5,62.8 131.5,62.8 	"/>
</g>
<g id="Calque_4">
	<circle class="st2" cx="116" cy="239.5" r="18.6"/>
	<polygon class="st2" points="144.3,261.6 144.3,313 141.3,313 141.3,322.6 135.7,322.6 135.7,356.8 95,356.8 95,322.2 88.7,322.2 
		88.7,313 85.2,313 85.2,261.6 	"/>
	<polygon class="st2" points="234.3,228.8 234.3,292.3 230.7,292.3 230.7,303.5 219.4,303.5 219.4,357.3 178.7,357.3 178.7,303 
		168,303 168,292.3 163.8,292.3 163.8,228.8 	"/>
	<circle class="st2" cx="283.3" cy="221.2" r="18.6"/>
	<circle class="st2" cx="198.4" cy="198.8" r="23.7"/>
	<polygon class="st2" points="316.8,245.6 316.8,297 310.6,297 310.6,337.2 304.3,337.2 304.3,358.2 263.6,358.2 263.6,337.2 
		256.1,337.2 256.1,297 249.5,297 249.5,245.6 	"/>
</g>
<polygon class="st2" points="194.3,54.2 200.2,48.3 386.5,235.1 380.7,241 "/>
<polygon class="st2" points="19.7,241 13.8,235.1 200.2,48.3 206,54.2 "/>
<polygon class="st2" points="76.5,63.3 84.8,63.2 85.4,175 76.5,182 "/>
<polygon class="st2" points="111,65 119.5,65 119.9,140 111,147 "/>
<rect x="76.5" y="62.5" class="st2" width="43.1" height="7.2"/>
</svg>
