<svg id="Layer_1" data-name="Layer 1" xmlns="http://www.w3.org/2000/svg" width="100" height="100" viewBox="0 0 100 100">
  <defs>
    <style>
      .cls-1 {
        fill: #003299;
      }
    </style>
  </defs>
  <title>_</title>
  <path class="cls-1" d="M56.24471,51.15221V38.59607H52.85063a.18116.18116,0,0,0-.18054.18073V52.11006l-3.31377.8879a2.1411,2.1411,0,0,0-.32.12015v-17.975a.18116.18116,0,0,1,.18054-.18073H59.69762a.18122.18122,0,0,1,.18085.18073v15.0354ZM9.28163,74.88852v3.27171a.18122.18122,0,0,0,.18085.18069H41.96211V74.70779H9.46248A.18122.18122,0,0,0,9.28163,74.88852Zm84.7711-4.81577L64.01213,78.12218a.17127.17127,0,0,1-.2266-.17377V75.69549a.32346.32346,0,0,1,.2266-.29512L74.754,72.5221l-1.1736-4.32824-.03459-.12723a5.77614,5.77614,0,1,1-3.02313-11.14971l-.03459-.12746L69.31,52.44448a.13035.13035,0,0,0-.05864-.07576L53.071,56.70424a.23491.23491,0,0,0-.1656.28722l1.14329,4.26719a.16448.16448,0,0,1-.17369.21886s-.391-.01292-.70191-.01292c-.5883,0-1.537.05949-1.537.05949a.29918.29918,0,0,1-.29477-.21178l-1.656-6.17986a.2353.2353,0,0,1,.16591-.28715L87.28512,44.815a.23488.23488,0,0,1,.287.16579l6.64654,24.80482A.23537.23537,0,0,1,94.05273,70.07276Zm-3.05418-2.1462-5.28535-19.726a.23527.23527,0,0,0-.2873-.16579L71.86837,51.66751a.12865.12865,0,0,0-.01121.08634l1.87252,6.90586a.13237.13237,0,0,1-.093.16182l-2.42206.64732a3.13195,3.13195,0,1,0,1.63926,6.04559l2.41728-.66487a.13236.13236,0,0,1,.162.09268L77.30325,71.839,90.833,68.21378A.235.235,0,0,0,90.99856,67.92655ZM41.6275,34.96243a.18116.18116,0,0,1,.18054.18073V72.72936a.18115.18115,0,0,1-.18054.18069H31.14675a.18142.18142,0,0,1-.18085-.18069V35.14316a.18143.18143,0,0,1,.18085-.18073Zm-3.45291,3.63364H34.7802a.18116.18116,0,0,0-.18054.18073V69.09572a.18115.18115,0,0,0,.18054.18069h3.21355a.18122.18122,0,0,0,.18085-.18069ZM23.65667,34.97223a.18143.18143,0,0,1,.18085.18073V72.73917a.18142.18142,0,0,1-.18085.18069H13.17592a.18142.18142,0,0,1-.18085-.18069V35.153a.18143.18143,0,0,1,.18085-.18073Zm-3.45291,3.63364H16.80968a.18122.18122,0,0,0-.18085.18073V69.10552a.18122.18122,0,0,0,.18085.18069h3.21323a.18122.18122,0,0,0,.18085-.18069ZM62.471,67.29242v11.252c0,2.96332-4.67744,4.51372-9.29793,4.51372s-9.29824-1.55039-9.29824-4.51372v-11.252c0-2.96293,4.67776-4.51325,9.29824-4.51325S62.471,64.32949,62.471,67.29242Zm-2.629,10.73833A16.23922,16.23922,0,0,1,53.1731,79.3075a16.23971,16.23971,0,0,1-6.66926-1.27675v.51371c.0414.43873,2.20067,1.885,6.66926,1.885,4.46827,0,6.62755-1.44627,6.66895-1.8854Zm0-3.7508a16.23729,16.23729,0,0,1-6.66895,1.27687A16.23777,16.23777,0,0,1,46.50385,74.28v.51336c.0414.43912,2.20067,1.88548,6.66926,1.88548,4.46827,0,6.62755-1.44635,6.66895-1.88548Zm0-3.75068a16.23731,16.23731,0,0,1-6.66895,1.27679,16.23779,16.23779,0,0,1-6.66926-1.27679v.51336c.0414.43912,2.20067,1.88548,6.66926,1.88548,4.46827,0,6.62755-1.44635,6.66895-1.88548Zm0-3.23685c-.0442-.43959-2.20628-1.88466-6.66895-1.88466-4.46454,0-6.62661,1.44592-6.66926,1.885.0414.43827,2.20067,1.88462,6.66926,1.88462C57.63951,69.17743,59.7991,67.732,59.84205,67.29242Zm7.09013-34.137H5.85459c-.09937,0-.10883-.03805-.021-.08455L36.23371,16.9767a.38312.38312,0,0,1,.3194,0L66.95319,33.07084C67.041,33.11734,67.03156,33.15539,66.93218,33.15539ZM52.32365,29.4372,36.39343,21.00359,20.46321,29.4372c-.08786.0465-.0784.08455.021.08455H52.30264C52.402,29.52175,52.41147,29.4837,52.32365,29.4372Z"/>
</svg>
