<svg id="Layer_1" data-name="Layer 1" xmlns="http://www.w3.org/2000/svg" width="100" height="100" viewBox="0 0 100 100">
  <defs>
    <style>
      .cls-1 {
        fill: #003299;
      }
    </style>
  </defs>
  <title>_</title>
  <path class="cls-1" d="M28.51657,44.28081c-7.67585,0-15.44673,2.57558-15.44673,7.49851V70.47208c0,4.92293,7.77088,7.49851,15.44673,7.49851S43.9633,75.395,43.9633,70.47208V51.77931C43.9633,46.85638,36.19242,44.28081,28.51657,44.28081Zm11.079,26.19053c-.06847.72957-3.65572,3.1323-11.079,3.1323s-11.01056-2.40273-11.079-3.13155v-.85355a26.97589,26.97589,0,0,0,11.079,2.12114,26.97589,26.97589,0,0,0,11.079-2.12114Zm0-6.23092c-.06847.72957-3.65572,3.1323-11.079,3.1323S17.506,64.97,17.43755,64.24041v-.8528a26.97589,26.97589,0,0,0,11.079,2.12114,26.97589,26.97589,0,0,0,11.079-2.12114Zm0-6.23092c-.06847.72957-3.65572,3.1323-11.079,3.1323s-11.01056-2.40273-11.079-3.1323v-.8528a26.97589,26.97589,0,0,0,11.079,2.12114,26.97589,26.97589,0,0,0,11.079-2.12114Zm-11.079-3.09863c-7.42331,0-11.01056-2.40273-11.079-3.1308.06847-.72957,3.65572-3.1323,11.079-3.1323,7.42106,0,11.00831,2.40123,11.079,3.13155C39.52488,52.50964,35.93763,54.91086,28.51657,54.91086ZM86.71293,22.02941h-64.726a.21781.21781,0,0,0-.21719.21719V42.54068a.17827.17827,0,0,0,.21419.18146l3.93721-.5238a.24552.24552,0,0,0,.21616-.23865V26.61416a.21781.21781,0,0,1,.21719-.21719H54.1327a.21785.21785,0,0,1,.21723.21719v7.41021l-.00009.21723a9.508,9.508,0,1,0,0,19.016l.00014.21719v7.41007a.21786.21786,0,0,1-.21723.21723H46.36425a.21781.21781,0,0,0-.21719.21719v3.93314a.21782.21782,0,0,0,.21719.21723H86.71293a.21786.21786,0,0,0,.21723-.21723V22.2466A.21785.21785,0,0,0,86.71293,22.02941ZM82.56259,60.88489a.21786.21786,0,0,1-.21723.21723H58.91117a.21782.21782,0,0,1-.21719-.21723V49.10726a.21785.21785,0,0,0-.21723-.21719l-4.1269.015a5.1555,5.1555,0,1,1,0-10.311l4.1269.01511a.21786.21786,0,0,0,.21723-.21723V26.61416a.21781.21781,0,0,1,.21719-.21719H82.34536a.21785.21785,0,0,1,.21723.21719Z"/>
</svg>
