<svg id="Layer_1" data-name="Layer 1" xmlns="http://www.w3.org/2000/svg" width="100" height="100" viewBox="0 0 100 100">
  <defs>
    <style>
      .cls-1 {
        fill: #003299;
      }
    </style>
  </defs>
  <title>_</title>
  <path class="cls-1" d="M81.31753,40.5918a.0637.0637,0,0,0-.0675.06169A15.57241,15.57241,0,0,1,80.3477,45.399c-1.0247,2.73331-2.7586,4.22248-5.14406,4.46756a.07175.07175,0,0,1-.078-.06333C73.98121,38.61167,62.3993,29.81548,48.27,29.81548a32.87787,32.87787,0,0,0-7.82022.935.07061.07061,0,0,1-.05617-.00991l-12.97844-8.6524a.07168.07168,0,0,0-.11144.05964V37.89393a.06719.06719,0,0,1-.01967.04744,20.68121,20.68121,0,0,0-4.91669,7.64686.067.067,0,0,1-.06333.04475H16.89054a.06994.06994,0,0,0-.06994.06994V57.54511a.06853.06853,0,0,0,.06853.06853H22.308a.06137.06137,0,0,1,.058.041A22.12769,22.12769,0,0,0,31.2667,68.54186a.0677.0677,0,0,1,.03057.05652V77.8543a.06974.06974,0,0,0,.06974.06974h9.84671a.06751.06751,0,0,0,.06751-.06751v-5.086a.06723.06723,0,0,1,.08161-.06626,33.17169,33.17169,0,0,0,13.81594-.00035.06588.06588,0,0,1,.08.06493v5.0855a.06973.06973,0,0,0,.06973.06973h9.84522a.069.069,0,0,0,.069-.069V68.59988a.07048.07048,0,0,1,.03182-.05884c5.9958-3.949,9.84958-9.94056,9.94437-16.66451a.06622.06622,0,0,1,.06112-.06477c6.18294-.53557,7.87825-7.39208,7.89936-11.14857a.07177.07177,0,0,0-.07335-.07148ZM63.08833,65.28063,61.34843,66.423a.06872.06872,0,0,0-.031.05744v7.44829a.07.07,0,0,1-.07.07H59.2517a.06765.06765,0,0,1-.06765-.06765V67.907a.0704.0704,0,0,0-.0853-.0688l-4.67121,1.01214a29.23982,29.23982,0,0,1-12.31506,0L37.436,67.8372a.066.066,0,0,0-.08.06452v6.02691a.07013.07013,0,0,1-.07013.07013H35.29358a.071.071,0,0,1-.071-.071v-7.448a.06728.06728,0,0,0-.03035-.05624l-1.74054-1.14285a18.11938,18.11938,0,0,1-7.39815-8.97217l-.908-2.57562a.06666.06666,0,0,0-.06286-.04449H20.81627a.07037.07037,0,0,1-.07037-.07037V49.62779a.06951.06951,0,0,1,.06951-.06951h4.267a.067.067,0,0,0,.06319-.04472l.90793-2.57539a16.67876,16.67876,0,0,1,4.02617-6.24126L31.209,39.56729a.06843.06843,0,0,0,.02-.04838V29.475a.06772.06772,0,0,1,.10528-.05634l6.90785,4.60529,1.41294.9419a.06662.06662,0,0,0,.05286.00926l1.64895-.40542a28.97623,28.97623,0,0,1,6.9131-.82887c12.69957,0,23.03139,8.02207,23.03139,17.88263C71.30139,56.87589,68.30787,61.85367,63.08833,65.28063ZM33.79332,45.9753a1.99686,1.99686,0,1,1-1.99686-1.99686A1.99682,1.99682,0,0,1,33.79332,45.9753ZM41.28,39.02489a34.18867,34.18867,0,0,1,15.74077.44567.06794.06794,0,0,1,.04763.08319l-.46974,1.729a.06914.06914,0,0,1-.08507.04889,32.2439,32.2439,0,0,0-14.83617-.4193.06635.06635,0,0,1-.07887-.05143L41.227,39.10617A.06872.06872,0,0,1,41.28,39.02489Z"/>
</svg>
