<svg id="Layer_1" data-name="Layer 1" xmlns="http://www.w3.org/2000/svg" width="100" height="100" viewBox="0 0 100 100">
  <defs>
    <style>
      .cls-1 {
        fill: #003299;
      }
    </style>
  </defs>
  <title>_</title>
  <path class="cls-1" d="M31.02008,69.82079c4.66161,0,9.381-1.56411,9.381-4.55392V53.91452c0-2.98925-4.71935-4.55345-9.381-4.55345s-9.381,1.5642-9.381,4.55345V65.26687C21.63913,68.25668,26.35847,69.82079,31.02008,69.82079Zm0-17.80761c4.50257,0,6.68388,1.45784,6.72842,1.90134-.04318.44351-2.222,1.90181-6.72842,1.90181-4.50826,0-6.68684-1.45915-6.72842-1.90125C24.3346,53.472,26.51591,52.01318,31.02008,52.01318ZM24.29166,57.1803a16.38368,16.38368,0,0,0,6.72842,1.28823,16.38368,16.38368,0,0,0,6.72842-1.28823v.51792c-.04158.44313-2.22016,1.90228-6.72842,1.90228s-6.68684-1.45915-6.72842-1.90228Zm0,3.78408a16.38368,16.38368,0,0,0,6.72842,1.28823,16.38368,16.38368,0,0,0,6.72842-1.28823v.51792c-.04158.44313-2.22016,1.90228-6.72842,1.90228s-6.68684-1.45915-6.72842-1.90228Zm0,3.78408a16.38215,16.38215,0,0,0,6.72842,1.28823,16.38215,16.38215,0,0,0,6.72842-1.28823v.51792c-.04158.44313-2.22016,1.90228-6.72842,1.90228s-6.68684-1.45915-6.72842-1.90181Zm10.01-26.56889a.18349.18349,0,0,1-.08475-.08553L31.1936,32.8575a.15551.15551,0,0,1-.02624-.11786.15331.15331,0,0,1,.0882-.0842l33.9971-19.62812a.25647.25647,0,0,1,.11668-.03648c.04931.00361.091.07323.091.07323l13.0854,22.66445s.02682.04355.02116.06123-.03048.03109-.03048.03109l-8.84277,5.1054s-.01722.01333-.03055.00759-.01912-.03065-.01912-.03065l-.67972-2.53664s-.01824-.049-.00837-.06308a.22018.22018,0,0,1,.02816-.03027l5.89767-3.40508a.10747.10747,0,0,0,.05534-.049c.01312-.03261-.02161-.07344-.02161-.07344L64.4519,16.62225s-.00622-.01756-.03872-.02683a.04809.04809,0,0,0-.04818.00709l-12.78431,7.381s-.043.01594-.05233.046a.07246.07246,0,0,0,.01233.05856l2.47659,4.24953a1.3469,1.3469,0,0,1-.49124,1.84318,4.40358,4.40358,0,0,0-1.98135,2.4408.10058.10058,0,0,1-.038.06516.23156.23156,0,0,1-.08441.03389l-2.44216.65437s-.28767.07915-.31669.04781a1.1477,1.1477,0,0,1,.027-.3815,7.12972,7.12972,0,0,1,2.28322-4.31923.27361.27361,0,0,0,.07715-.09214c.01291-.03344-.037-.09657-.037-.09657l-1.78484-3.061a.09517.09517,0,0,0-.06283-.06455.17223.17223,0,0,0-.11364.03543L34.83488,33.65177s-.05268.02067-.06414.05126.02407.08711.02407.08711l2.08023,3.603s.04255.06013.02332.09365a.12808.12808,0,0,1-.07672.04425l-2.39468.64157A.23211.23211,0,0,1,34.30168,38.17958Zm52.69261,9.83575L67.6275,86.92753c-.05347.10749-.14456.10937-.2024.00413L57.97984,69.76629a.13236.13236,0,0,0-.23824-.01823l-4.947,6.4314a.32589.32589,0,0,1-.33949.10233l-7.17822-2.45667a.31078.31078,0,0,0-.33277.10731l-5.75985,8.113a.171.171,0,0,1-.275.01813l-7.2081-7.74566a.32706.32706,0,0,0-.3479-.07066l-6.56643,2.93109a.49356.49356,0,0,1-.39-.01691L13.09572,70.88887a.22046.22046,0,0,1-.08607-.2973l.843-1.54147a.21707.21707,0,0,1,.29542-.08551l10.34736,5.75064a.49372.49372,0,0,0,.38995.017l7.00542-3.128a.32724.32724,0,0,1,.3479.07066L38.68,78.59666a.17094.17094,0,0,0,.275-.01813L44.10374,71.327a.31078.31078,0,0,1,.33277-.10731l7.23911,2.47621a.32589.32589,0,0,0,.33949-.10233l6.03168-7.8416a.13236.13236,0,0,1,.23824.01823l9.05213,16.45125c.05783.10524.14888.10327.20235-.00413L85.03389,47.03059a.21775.21775,0,0,1,.29213-.09744l1.5705.78882A.21994.21994,0,0,1,86.99429,48.01533Zm-57.52489.07959s.9572-.06,1.55067-.06c.31388,0,.70834.013.70834.013a.16578.16578,0,0,0,.17524-.22063l-1.15359-4.3053a.23734.23734,0,0,1,.16725-.28978l15.719-4.2119.98431,3.61326a7.1224,7.1224,0,0,0,3.62172,13.50889l.85887,3.23384L41.95579,62.09476a.32609.32609,0,0,0-.22852.29777v2.27287a.17263.17263,0,0,0,.22852.17534L72.264,56.7197a.23725.23725,0,0,0,.1673-.28978L65.72569,31.40415a.23737.23737,0,0,0-.28978-.16725L27.66874,41.35654a.23733.23733,0,0,0-.1673.28978l1.67066,6.23492A.302.302,0,0,0,29.4694,48.09491Zm21.07274-4.98559-1.3035-4.78639,14.32167-3.83745a.23723.23723,0,0,1,.28974.16725l5.33264,19.90167a.23726.23726,0,0,1-.16725.28978L54.70358,58.679l-1.17266-4.41439a1.34476,1.34476,0,0,0-1.64887-.95016,4.42729,4.42729,0,1,1-2.29157-8.5529,1.34709,1.34709,0,0,0,.95166-1.65225Z"/>
</svg>
