<svg id="Layer_1" data-name="Layer 1" xmlns="http://www.w3.org/2000/svg" width="100" height="100" viewBox="0 0 100 100">
  <defs>
    <style>
      .cls-1 {
        fill: #FFFFFF;
      }
    </style>
  </defs>
  <title>_</title>
  <path class="cls-1" d="M44.07276,70.50408l-4.094,4.0942a.22147.22147,0,0,1-.31222,0l-2.81-2.80993a.2213.2213,0,0,1,0-.31222l4.0941-4.0942a.22164.22164,0,0,1,.31222,0l2.80988,2.80993A.2213.2213,0,0,1,44.07276,70.50408ZM33.92347,60.04253,31.11359,57.2326a.22141.22141,0,0,0-.31231,0l-5.55771,5.55771a.22164.22164,0,0,0,0,.31222l2.81,2.80993a.22147.22147,0,0,0,.31222,0l5.55771-5.55771A.2213.2213,0,0,0,33.92347,60.04253Zm5.07593,5.07588-2.80988-2.80993a.22141.22141,0,0,0-.31231,0l-4.82586,4.8259a.2213.2213,0,0,0,0,.31222l2.80988,2.80993a.22158.22158,0,0,0,.31231,0l4.82586-4.8259A.22147.22147,0,0,0,38.9994,65.11841ZM36.92816,25.82124l-4.37107-4.371a.22136.22136,0,0,0-.31213,0L13.82411,39.87088a.22164.22164,0,0,0,0,.31222l4.37107,4.371a.22122.22122,0,0,0,.31222,0L36.92816,26.13346A.22164.22164,0,0,0,36.92816,25.82124ZM86.17582,42.033,67.80794,23.66508a.22147.22147,0,0,0-.31222,0l-4.371,4.371a.22147.22147,0,0,0,0,.31222L81.49262,46.71615a.22138.22138,0,0,0,.31222,0l4.371-4.371A.22147.22147,0,0,0,86.17582,42.033ZM45.94607,72.06513a.22152.22152,0,0,0-.31213,0l-3.36253,3.36244a.22164.22164,0,0,0,0,.31222l2.81,2.80993a.2213.2213,0,0,0,.31222,0L48.756,75.18728a.22147.22147,0,0,0,0-.31222ZM78.33114,46.792,75.3,43.7609l-4.60847-4.60852-7.67411-7.67416a1.3758,1.3758,0,0,0-.35895-.24318L45.67571,23.945a.22176.22176,0,0,0-.08767-.018.22531.22531,0,0,0-.05508.01584.19787.19787,0,0,0-.0403.01157.218.218,0,0,0-.11154.10429l-10.38,22.70572a.23031.23031,0,0,0,.106.299l5.80631,2.88319a.21161.21161,0,0,0,.28844-.103l8.67825-19.29715s.051-.1098.134-.07413c.07693.033,8.92391,3.83072,10.23668,4.39425a.60183.60183,0,0,1,.07711.03309.71865.71865,0,0,1,.13036.08189l.0481.048L72.455,46.97788,66.69686,52.736l-.01735.02222a.22152.22152,0,0,0,0,.31222l2.70743,2.72542a.22147.22147,0,0,0,.31222,0s5.89829-5.90674,5.94116-5.94961l2.72542-2.70748a.22147.22147,0,0,0,0-.31222ZM56.4622,55.29411a.21382.21382,0,0,0-.30148,0L53.34,58.11478a.21382.21382,0,0,0,0,.30148L64.77562,69.85192a.21393.21393,0,0,0,.30157,0l2.82062-2.82067a.21382.21382,0,0,0,0-.30148Zm-4.6832,4.6832a.21382.21382,0,0,0-.30148,0L48.65681,62.798a.21365.21365,0,0,0,0,.30148l10.682,10.68206a.21382.21382,0,0,0,.30148,0L62.461,70.96084a.21382.21382,0,0,0,0-.30148ZM27.67945,45.05008a.21382.21382,0,0,1,0-.30148L38.37881,34.04924a1.42287,1.42287,0,0,0,.2396-.34453l.88451-1.92973a.33009.33009,0,0,0-.062-.34453l-2.193-2.19311a.21382.21382,0,0,0-.30148,0L24.55726,41.6265c-.08281.0829-.21849.21854-.30148.30148l-.86055.8606-.30148.30148-1.463,1.463a.21365.21365,0,0,0,0,.30148L54.1945,77.41835a.21382.21382,0,0,0,.30148,0l2.62518-2.62508a.21382.21382,0,0,0,0-.30148Zm21.244-6.66066a.13806.13806,0,0,0-.23887.04338L46.9122,42.33746a.33153.33153,0,0,0,.06261.34486L70.21142,65.91893a.21382.21382,0,0,0,.30148,0l2.81925-2.81934a.21365.21365,0,0,0,0-.30148Z"/>
</svg>
