<svg id="Layer_2" data-name="Layer 2" xmlns="http://www.w3.org/2000/svg" viewBox="0 0 55 55"><defs><style>.cls-1{fill:#fff;}</style></defs><title>01_01_03-100</title><path class="cls-1" d="M36.19,43.28c-.32.22-.65.45-1,.65l-.9-1.55a13.12,13.12,0,0,0,1.23-.81,3.94,3.94,0,0,1,.31-2.42,11.26,11.26,0,0,1-15.34.61A4.23,4.23,0,0,1,19.07,45a16.25,16.25,0,0,0,18.32-.54A4.29,4.29,0,0,1,36.19,43.28Zm-9.52,2.58a14.61,14.61,0,0,1-6.17-1.92l.9-1.55a12.83,12.83,0,0,0,5.42,1.68Zm1.18.06v-1.8a12.84,12.84,0,0,0,5.54-1.27l.77,1.62A14.62,14.62,0,0,1,27.84,45.93Z"/><path class="cls-1" d="M32.23,16a4.23,4.23,0,0,1-.17,1.13,14.61,14.61,0,0,1,3.08,1.32L34.26,20a12.83,12.83,0,0,0-3.06-1.25A4.24,4.24,0,0,1,29.31,20a11.28,11.28,0,0,1,7.92,17.44,4.23,4.23,0,0,1,2.3-.8,12.8,12.8,0,0,0,1.18-4.41l1.79.14A14.58,14.58,0,0,1,41.37,37a4.27,4.27,0,0,1,1.39.94A16.32,16.32,0,0,0,32.18,15.42,4.22,4.22,0,0,1,32.23,16ZM42.56,31.15h-1.8a12.84,12.84,0,0,0-1.28-5.53l1.62-.78A14.61,14.61,0,0,1,42.56,31.15Zm-2-7.36-1.55.9a13,13,0,0,0-3.86-4.16l1-1.48A14.83,14.83,0,0,1,40.55,23.79Z"/><path class="cls-1" d="M16.61,37.25a4.22,4.22,0,0,1,2.09.57A11.27,11.27,0,0,1,26.53,20a4.25,4.25,0,0,1-1.85-1.31,13.06,13.06,0,0,0-2.42.87l-.77-1.62A14.92,14.92,0,0,1,23.85,17,4.23,4.23,0,0,1,23.69,16a4.23,4.23,0,0,1,.06-.62A16.33,16.33,0,0,0,13.34,38.8,4.24,4.24,0,0,1,16.61,37.25Zm3.83-18.78.9,1.55a13,13,0,0,0-4.17,3.86l-1.48-1A14.83,14.83,0,0,1,20.44,18.47Zm-5.37,5.39,1.55.89a12.83,12.83,0,0,0-1.68,5.42L13.16,30A14.61,14.61,0,0,1,15.07,23.86ZM14.9,31.2a12.84,12.84,0,0,0,1.27,5.55l-1.62.77a14.62,14.62,0,0,1-1.45-6.31Z"/><path class="cls-1" d="M33.29,7,27.69,1.5l-5.42,5.6V11.8l3.93-4v8.3a1.68,1.68,0,0,0,1.69,1.61h0a1.58,1.58,0,0,0,1.55-1.65V7.8l3.89,3.85Z"/><path class="cls-1" d="M51.57,43.45l-3.6-3,.49,5.49-6.84-5.73a1.63,1.63,0,1,0-2.09,2.5l6.84,5.73-5.49.48,3.6,3,7.78-.69Z"/><path class="cls-1" d="M15.33,40.18l-7,5.87.49-5.49-3.6,3-.69,7.78,7.78.69,3.6-3-5.49-.48,7-5.87a1.63,1.63,0,1,0-2.09-2.5Z"/><path class="cls-1" d="M28.4,26.53a4.62,4.62,0,0,1,4.24,2.77H34.8a6.67,6.67,0,0,0-12.69-.38H20.2v1.61h1.56c0,.2,0,.41,0,.62s0,.41,0,.62H20.2v1.61h1.92A6.67,6.67,0,0,0,34.8,33H32.63a4.62,4.62,0,0,1-8.28.38h2.72V31.76H23.82a4.63,4.63,0,0,1,0-1.23h3.26V28.91H24.35A4.62,4.62,0,0,1,28.4,26.53Z"/></svg>