<svg xmlns="http://www.w3.org/2000/svg" width="77.37367" height="77.37367" viewBox="0 0 77.37367 77.37367">
  <defs>
    <style>
      .cls-1 {
        fill: #FFFFFF;
      }
    </style>
  </defs>
  <title>_</title>
  <g id="Layer_1" data-name="Layer 1">
    <path class="cls-1" d="M58.45836,40.21952H52.63418a.15372.15372,0,0,1-.15326-.15326V37.30741a.15372.15372,0,0,1,.15326-.15326h5.82418a.15372.15372,0,0,1,.15329.15326v2.75885A.15372.15372,0,0,1,58.45836,40.21952Zm.15329-6.284V31.17672a.15372.15372,0,0,0-.15329-.15326H52.63418a.15372.15372,0,0,0-.15326.15326v2.75881a.15372.15372,0,0,0,.15326.15326h5.82418A.15372.15372,0,0,0,58.61165,33.93553Zm0-6.13069V25.046a.15372.15372,0,0,0-.15329-.15326H52.63418a.15372.15372,0,0,0-.15326.15326v2.75885a.15372.15372,0,0,0,.15326.15326h5.82418A.15372.15372,0,0,0,58.61165,27.80484Zm0,30.65353V55.69952a.15372.15372,0,0,0-.15329-.15326H52.63418a.15372.15372,0,0,0-.15326.15326v2.75885a.15372.15372,0,0,0,.15326.15326h5.82418A.15372.15372,0,0,0,58.61165,58.45837Zm0-36.78423V18.9153a.15372.15372,0,0,0-.15329-.15326H52.63418a.15372.15372,0,0,0-.15326.15326v2.75885a.15372.15372,0,0,0,.15326.15326h5.82418A.15372.15372,0,0,0,58.61165,21.67414Zm0,30.6535V49.56883a.15372.15372,0,0,0-.15329-.15326H52.63418a.15372.15372,0,0,0-.15326.15326v2.75881a.15372.15372,0,0,0,.15326.15326h5.82418A.15372.15372,0,0,0,58.61165,52.32764Zm0-6.13069V43.4381a.15372.15372,0,0,0-.15329-.15326H52.63418a.15372.15372,0,0,0-.15326.15326V46.197a.15372.15372,0,0,0,.15326.15326h5.82418A.15372.15372,0,0,0,58.61165,46.197ZM49.41559,27.80484V25.046a.15372.15372,0,0,0-.15329-.15326H43.43812a.15372.15372,0,0,0-.15326.15326v2.75885a.15372.15372,0,0,0,.15326.15326H49.2623A.15372.15372,0,0,0,49.41559,27.80484Zm0-6.13069V18.9153a.15372.15372,0,0,0-.15329-.15326H43.43812a.15372.15372,0,0,0-.15326.15326v2.75885a.15372.15372,0,0,0,.15326.15326H49.2623A.15372.15372,0,0,0,49.41559,21.67414Zm0,12.26139V31.17672a.15372.15372,0,0,0-.15329-.15326H43.43812a.15372.15372,0,0,0-.15326.15326v2.75881a.15372.15372,0,0,0,.15326.15326H49.2623A.15372.15372,0,0,0,49.41559,33.93553ZM37.30743,12.63135H64.58908a.15372.15372,0,0,1,.15326.15326V64.58907a.15372.15372,0,0,1-.15326.15326H37.30743a.15372.15372,0,0,1-.15326-.15326V12.7846A.15372.15372,0,0,1,37.30743,12.63135Zm2.9287,49.029H61.66038V15.71331H40.23613Zm9.17946-3.202V55.69952a.15372.15372,0,0,0-.15329-.15326H43.43812a.15372.15372,0,0,0-.15326.15326v2.75885a.15372.15372,0,0,0,.15326.15326H49.2623A.15372.15372,0,0,0,49.41559,58.45837Zm0-6.13073V49.56883a.15372.15372,0,0,0-.15329-.15326H43.43812a.15372.15372,0,0,0-.15326.15326v2.75881a.15372.15372,0,0,0,.15326.15326H49.2623A.15372.15372,0,0,0,49.41559,52.32764Zm0-12.26139V37.30741a.15372.15372,0,0,0-.15329-.15326H43.43812a.15372.15372,0,0,0-.15326.15326v2.75885a.15372.15372,0,0,0,.15326.15326H49.2623A.15372.15372,0,0,0,49.41559,40.06626Zm0,6.13069V43.4381a.15372.15372,0,0,0-.15329-.15326H43.43812a.15372.15372,0,0,0-.15326.15326V46.197a.15372.15372,0,0,0,.15326.15326H49.2623A.15372.15372,0,0,0,49.41559,46.197Zm-19.9248,6.13069V49.56883a.15372.15372,0,0,0-.15329-.15326H26.57869a.15372.15372,0,0,0-.15326.15326v2.75881a.15372.15372,0,0,0,.15326.15326H29.3375A.15372.15372,0,0,0,29.49079,52.32764Zm-7.66338,0V49.56883a.15372.15372,0,0,0-.15329-.15326H18.91531a.15372.15372,0,0,0-.15326.15326v2.75881a.15372.15372,0,0,0,.15326.15326h2.75881A.15372.15372,0,0,0,21.82742,52.32764Zm7.66338,3.37188a.15372.15372,0,0,0-.15329-.15326H26.57869a.15372.15372,0,0,0-.15326.15326v2.75885a.15372.15372,0,0,0,.15326.15326H29.3375a.15372.15372,0,0,0,.15329-.15326Zm-7.66338,0a.15372.15372,0,0,0-.15329-.15326H18.91531a.15372.15372,0,0,0-.15326.15326v2.75885a.15372.15372,0,0,0,.15326.15326h2.75881a.15372.15372,0,0,0,.15329-.15326ZM12.63133,44.97079V64.58907a.15372.15372,0,0,0,.15326.15326H35.4682a.15372.15372,0,0,0,.15329-.15326V61.81362a.15372.15372,0,0,0-.15329-.15326H15.86655a.15372.15372,0,0,1-.15326-.15326V46.62019a.321.321,0,0,1,.12752-.23827l7.37511-4.91677c.07016-.04676.12755-.016.12755.06825v5.7923c0,.08429.05755.11527.12791.06884l4.52379-2.98573L28.251,44.24l7.24258-4.78011a.319.319,0,0,0,.12791-.23768V35.836c0-.08429-.05759-.11527-.12791-.06884l-8.94023,5.90058c-.07036.04643-.12791.01544-.12791-.06884V35.77473c0-.08429-.05739-.115-.12755-.06825l-13.539,9.026A.321.321,0,0,0,12.63133,44.97079Z"/>
  </g>
</svg>
