<svg xmlns="http://www.w3.org/2000/svg" width="77.37367" height="77.37367" viewBox="0 0 77.37367 77.37367">
  <defs>
    <style>
      .cls-1 {
        fill: #FFFFFF;
      }
    </style>
  </defs>
  <title>_</title>
  <g id="Layer_1" data-name="Layer 1">
    <path class="cls-1" d="M38.80852,11.17563a.1893.1893,0,0,0-.24336,0L11.22149,35.30239c-.06692.05905-.04866.10737.0406.10737h54.8495c.08925,0,.10752-.04831.0406-.10737Zm-.24336,4.35178a.1893.1893,0,0,1,.24336,0L57.522,32.0393c.06692.05905.04866.10737-.0406.10737H19.89227c-.08925,0-.10752-.04831-.0406-.10737ZM53.27421,37.19483a.16275.16275,0,0,1,.16228-.16228H56.375a.16275.16275,0,0,1,.16228.16228V66.08a.16275.16275,0,0,1-.16228.16228H20.99872a.16275.16275,0,0,1-.16228-.16228V37.19483a.16275.16275,0,0,1,.16228-.16228h2.93853a.16275.16275,0,0,1,.16228.16228V62.817a.16275.16275,0,0,0,.16228.16228H53.11193a.16275.16275,0,0,0,.16228-.16228ZM43.69985,61.374a.16275.16275,0,0,1-.16228-.16228v-12.64a.16275.16275,0,0,0-.16228-.16228H33.99837a.16275.16275,0,0,0-.16228.16228v12.64a.16275.16275,0,0,1-.16228.16228H30.73528a.16275.16275,0,0,1-.16228-.16228V45.30866a.16275.16275,0,0,1,.16228-.16228h15.9031a.16275.16275,0,0,1,.16228.16228v15.9031a.16275.16275,0,0,1-.16228.16228Z"/>
  </g>
</svg>
