<svg id="Layer_2" data-name="Layer 2" xmlns="http://www.w3.org/2000/svg" viewBox="0 0 55 55"><defs><style>.cls-1{fill:#fff;}.cls-2{fill:none;stroke:#fff;stroke-linecap:round;stroke-linejoin:round;stroke-width:1.2px;}</style></defs><title>01_01_04-100</title><path class="cls-1" d="M8.48,30.05a3,3,0,0,1,2.88,2.16h-1A2.07,2.07,0,0,0,6.66,32H7.89v.72H6.42a2.08,2.08,0,0,0,0,.55H7.89V34H6.66a2.07,2.07,0,0,0,3.72-.17h1a3,3,0,0,1-5.7.17H4.8v-.72h.7c0-.09,0-.18,0-.28s0-.19,0-.28H4.8V32h.86A3,3,0,0,1,8.48,30.05Z"/><path class="cls-1" d="M21.32,26a5,5,0,0,1,4.82,3.63H24.5a3.48,3.48,0,0,0-6.23-.29h2.05v1.22H17.87a3.49,3.49,0,0,0,0,.93h2.45V32.7H18.27a3.48,3.48,0,0,0,6.23-.29h1.63a5,5,0,0,1-9.55.29H15.14V31.49h1.18c0-.15,0-.31,0-.46s0-.31,0-.46H15.14V29.34h1.44A5,5,0,0,1,21.32,26Z"/><path class="cls-1" d="M36.56,22a7,7,0,0,1,6.72,5.06H41a4.85,4.85,0,0,0-8.69-.4h2.86v1.69H31.75a4.86,4.86,0,0,0,0,1.3h3.42v1.69H32.31A4.85,4.85,0,0,0,41,31h2.28a7,7,0,0,1-13.32.4H28V29.69h1.64c0-.21,0-.43,0-.65s0-.43,0-.65H28V26.7h2A7,7,0,0,1,36.56,22Z"/><line class="cls-2" x1="45.71" y1="27.09" x2="48.98" y2="26.28"/><path class="cls-1" d="M50,23.92l-1.68.41,1.74,1-3.66.91a.58.58,0,0,0-.15.07,10.16,10.16,0,0,0-19.42-1.23,8.36,8.36,0,0,0-13.78,4.33,5.75,5.75,0,0,0-4.75-2.38A6.05,6.05,0,0,0,2.5,33H3.69a4.48,4.48,0,0,1,4.64-4.75A4.12,4.12,0,0,1,12.61,31h1.45a7.06,7.06,0,0,1,7.18-6.88,7,7,0,0,1,5.23,2s0-.16,0-.16h1.3s0-.08,0-.08a8.86,8.86,0,0,1,8.56-6.36A9.17,9.17,0,0,1,45.16,27H46c.09,0,.31.42.55.42a.57.57,0,0,0,.14,0l3.66-.89-1,1.74L51,27.87l1.49-2.46Z"/></svg>