<?xml version="1.0" encoding="utf-8"?>
<!-- Generator: Adobe Illustrator 21.0.0, SVG Export Plug-In . SVG Version: 6.00 Build 0)  -->
<svg version="1.1" id="Calque_1" xmlns="http://www.w3.org/2000/svg" xmlns:xlink="http://www.w3.org/1999/xlink" x="0px" y="0px"
	 viewBox="0 0 400 400" style="enable-background:new 0 0 400 400;" xml:space="preserve">
<style type="text/css">
	.st0{display:none;}
	.st1{display:inline;fill: #FFFFFF;}
	.st2{display:inline;fill: #FFFFFF;}
	.st3{fill:none;stroke: #FFFFFF;stroke-width:9;stroke-miterlimit:10;}
	.st4{fill: #FFFFFF;}
</style>
<g id="Calque_1_3_">
	<g id="Calque_1_2_">
		<g id="Calque_1_1_">
			<g id="bg" class="st0">
				<circle class="st1" cx="200" cy="200" r="200"/>
				<rect x="-1" y="-2" class="st1" width="404" height="401"/>
			</g>
		</g>
		<g id="Calque_4" class="st0">
			<rect x="349.3" y="181.3" class="st2" width="14.7" height="178"/>
			<rect x="220.3" y="139.6" class="st2" width="14.1" height="217.1"/>
			<rect x="106" y="139.6" class="st2" width="14.1" height="220.4"/>
			<rect x="284.7" y="181.7" class="st2" width="15.2" height="178.4"/>
			<rect x="106.8" y="345.5" class="st2" width="257.2" height="14.8"/>
			<rect x="221.5" y="223.4" class="st2" width="75.1" height="14.7"/>
			<rect x="284.9" y="180.8" class="st2" width="79.1" height="15.1"/>
			<rect x="106.2" y="139.8" class="st2" width="128" height="15.1"/>
			<rect x="135.1" y="95.5" class="st2" width="72.6" height="15.3"/>
			<rect x="192.7" y="96.2" class="st2" width="15.1" height="45.5"/>
			<rect x="135.3" y="96.2" class="st2" width="15.1" height="45.5"/>
			<rect x="163.8" y="31.3" class="st2" width="15.1" height="70.1"/>
			<rect x="106.3" y="181.3" class="st2" width="14.7" height="178"/>
			<rect x="41.7" y="181.7" class="st2" width="15.2" height="178.4"/>
			<rect x="42.5" y="344.4" class="st2" width="78.9" height="15.8"/>
			<rect x="41.9" y="180.8" class="st2" width="79.1" height="15.1"/>
			<rect x="313.1" y="158.6" class="st2" width="43.5" height="24"/>
			<rect x="313" y="215.7" class="st2" width="23.3" height="23.3"/>
			<rect x="312" y="258.7" class="st2" width="23.3" height="23.3"/>
			<rect x="312" y="301.7" class="st2" width="23.3" height="23.3"/>
			<rect x="248.9" y="258.5" class="st2" width="23.3" height="23.3"/>
			<rect x="248.6" y="302" class="st2" width="23.3" height="23.3"/>
			<rect x="141.3" y="173.5" class="st2" width="23.3" height="23.3"/>
			<rect x="141.9" y="258.5" class="st2" width="23.3" height="23.3"/>
			<rect x="177.6" y="259.1" class="st2" width="23.3" height="23.3"/>
			<rect x="141.3" y="302.1" class="st2" width="23.3" height="23.3"/>
			<rect x="176.9" y="301.8" class="st2" width="23.3" height="23.3"/>
			<rect x="177.3" y="173.5" class="st2" width="23.3" height="23.3"/>
			<rect x="141.3" y="216.1" class="st2" width="23.3" height="23.3"/>
			<rect x="177" y="215.8" class="st2" width="23.3" height="23.3"/>
			<rect x="70.9" y="215.5" class="st2" width="23.3" height="23.3"/>
			<rect x="71.1" y="259.1" class="st2" width="23.3" height="23.3"/>
			<rect x="70.6" y="301.5" class="st2" width="23.3" height="23.3"/>
		</g>
	</g>
</g>
<g id="Calque_4_1_">
	<polygon class="st3" points="57.7,380.3 65,84.3 106.3,84.3 105.8,209.2 156.3,177.3 156.3,232.7 249,176.3 249,235 338.9,177.3 
		338.8,185.7 338.8,381 	"/>
</g>
<g id="Calque_5">
	<rect x="93.7" y="283" class="st4" width="52.7" height="30.7"/>
	<rect x="177" y="283.3" class="st4" width="52.7" height="30.7"/>
	<rect x="259" y="283.3" class="st4" width="52.7" height="30.7"/>
</g>
<g id="Calque_6">
	<path class="st4" d="M83.3,72c0,0,12.1-16.3,43.4-16.3s49-19.2,40.5-44.8c-3.6,14.9-4.3,25.6-37,22.7S83.3,72,83.3,72z"/>
</g>
</svg>
