<svg xmlns="http://www.w3.org/2000/svg" width="77.37367" height="77.37367" viewBox="0 0 77.37367 77.37367">
  <defs>
    <style>
      .cls-1 {
        fill: #FFFFFF;
      }
    </style>
  </defs>
  <title>_</title>
  <g id="Layer_1" data-name="Layer 1">
    <g>
      <g>
        <path class="cls-1" d="M48.48856,15.65424a.15572.15572,0,0,1-.09018-.1835l.88354-3.32388a.15819.15819,0,0,0-.23225-.17747l-6.12962,3.55528a.15821.15821,0,0,0-.05748.21621l3.55526,6.12962a.15818.15818,0,0,0,.28971-.03871l.782-2.94186a.16161.16161,0,0,1,.22168-.10529,21.8402,21.8402,0,0,1-8.86851,41.727.15572.15572,0,0,0-.15559.15554v2.864a.16185.16185,0,0,0,.16206.16091,25.01944,25.01944,0,0,0,9.63941-48.03777Z"/>
        <path class="cls-1" d="M30.99624,55.49687a.15818.15818,0,0,0-.28961.03939l-.77532,2.9443a.16165.16165,0,0,1-.22143.10582,21.84,21.84,0,0,1,8.82163-41.74814.15571.15571,0,0,0,.15559-.15554V13.81817a.16184.16184,0,0,0-.16206-.1609,25.01944,25.01944,0,0,0-9.58521,48.061.15568.15568,0,0,1,.0906.18331l-.87571,3.32558a.15819.15819,0,0,0,.23264.17694l6.12137-3.56951a.15817.15817,0,0,0,.057-.21633Z"/>
      </g>
      <path class="cls-1" d="M38.68683,25.68523c-5.92455,0-11.92244,1.98794-11.92244,5.78767V45.90077c0,3.79973,5.9979,5.78767,11.92244,5.78767s11.92244-1.98794,11.92244-5.78767V31.4729C50.60928,27.67317,44.61138,25.68523,38.68683,25.68523Zm8.55126,20.215c-.05285.56311-2.82164,2.41764-8.55126,2.41764s-8.49842-1.85453-8.55126-2.41706v-.65884a20.8216,20.8216,0,0,0,8.55126,1.63722,20.82064,20.82064,0,0,0,8.55126-1.63722Zm0-4.80929c-.05285.56311-2.82164,2.41764-8.55126,2.41764S30.18842,41.654,30.13557,41.0909v-.65827a20.8216,20.8216,0,0,0,8.55126,1.63722,20.82064,20.82064,0,0,0,8.55126-1.63722Zm0-4.80929c-.05285.56311-2.82164,2.41764-8.55126,2.41764s-8.49842-1.85453-8.55126-2.41764v-.65827a20.8216,20.8216,0,0,0,8.55126,1.63722,20.82064,20.82064,0,0,0,8.55126-1.63722ZM38.68683,33.89c-5.72962,0-8.49842-1.85453-8.55126-2.41649.05285-.56311,2.82164-2.41764,8.55126-2.41764,5.72789,0,8.49668,1.85337,8.55126,2.41706C47.18352,32.03659,44.41472,33.89,38.68683,33.89Z"/>
    </g>
  </g>
</svg>
