<svg xmlns="http://www.w3.org/2000/svg" width="77.37367" height="77.37367" viewBox="0 0 77.37367 77.37367">
  <defs>
    <style>
      .cls-1 {
        fill: #FFFFFF;
      }
    </style>
  </defs>
  <title>_</title>
  <g id="Layer_1" data-name="Layer 1">
    <path class="cls-1" d="M41.67043,27.695,39.57553,38.868H18.91734L17.5207,27.695H41.67043m3.14019-2.96081H14.594a.36872.36872,0,0,0-.3743.424l2.03086,16.24653a.498.498,0,0,0,.48032.424H41.60544a.53672.53672,0,0,0,.50613-.42l3.04768-16.25465a.34246.34246,0,0,0-.34862-.42Zm13.13728-7.19315,1.32575,2.32013-2.83735,1.62143a4.016,4.016,0,0,0-1.89066,2.60179L49.15146,50.11332l-28.63115-.03843-.32865-2.62912H44.087a3.5,3.5,0,0,0,3.41323-2.77572l4.99927-24.01531,5.4484-3.11369m.94143-3.88379a.42327.42327,0,0,0-.2109.05605L50.2438,18.53359a1.0834,1.0834,0,0,0-.45826.63035l-5.184,24.90272a.54968.54968,0,0,1-.51456.41831H17.265a.36889.36889,0,0,0-.37437.42408l.96255,7.69922a.49883.49883,0,0,0,.48032.42452l32.8.044h.0007a.5484.5484,0,0,0,.51355-.41793l5.79721-27.9736a1.08154,1.08154,0,0,1,.45787-.63047l5.03948-2.87984a.42855.42855,0,0,0,.159-.583l-3.83959-6.71962a.42842.42842,0,0,0-.37234-.215ZM24.5836,60.511a3.2053,3.2053,0,1,0,3.2052-3.2052A3.20527,3.20527,0,0,0,24.5836,60.511Zm13.88934,0a3.2052,3.2052,0,1,0,3.2052-3.2052A3.20527,3.20527,0,0,0,38.47294,60.511Z"/>
  </g>
</svg>
