<svg xmlns="http://www.w3.org/2000/svg" width="100" height="100" viewBox="0 0 77.37367 77.37367">
  <defs>
    <style>
      .cls-1 {
        fill: #003299;
        stroke: #003299;
        stroke-miterlimit: 10;
        stroke-width: 0;
      }
    </style>
  </defs>
  <title>Statistical publication_icons</title>
  <g id="Layer_1" data-name="Layer 1">
    <path class="cls-1" d="M64.02868,43.72191c.09384.002.10825.04834.032.1031l-2.3341,1.676a.25846.25846,0,0,0-.09063.26332l.80478,2.74591c.02641.09005-.01247.1164-.08638.05855l-2.26248-1.77147a.25048.25048,0,0,0-.27579-.00972l-2.48921,1.6807c-.07779.05253-.11678.02277-.08667-.06613l.91818-2.7101a.25855.25855,0,0,0-.07961-.26685L55.81626,43.6537c-.07388-.05785-.05757-.10362.03627-.10168l2.87287.05971a.25813.25813,0,0,0,.23032-.15632l1.0723-2.871c.03283-.08794.08024-.08588.10535.00457l.80617,2.90527a.24413.24413,0,0,0,.21626.168Zm1.637-11.37962-2.5856-.05375a.21963.21963,0,0,1-.19462-.15117l-.72558-2.61475c-.02256-.08137-.06523-.08325-.09479-.00411L61.1,32.10242a.23236.23236,0,0,1-.20729.14067l-2.5856-.05372c-.08447-.00176-.09913.03943-.03263.0915l2.03624,1.59432a.23264.23264,0,0,1,.07165.24015L59.556,36.55446c-.0271.08.008.1068.078.05953l2.24029-1.51266a.22547.22547,0,0,1,.24819.00874l2.03624,1.59435c.06653.05207.10151.02835.07776-.05271l-.72434-2.47133a.23267.23267,0,0,1,.08157-.237l2.10069-1.50835C65.76306,32.38577,65.7501,32.344,65.66567,32.34229ZM56.6741,23.09992,55.93958,25.268c-.0241.0711.00712.09491.06934.05291l1.99137-1.34459a.20046.20046,0,0,1,.22063.00778l1.81,1.4172c.0591.04628.09019.0252.06908-.04686l-.64383-2.19673a.20681.20681,0,0,1,.07249-.21065L61.396,21.6063c.061-.0438.04947-.08091-.0256-.08247l-2.29829-.04773a.19529.19529,0,0,1-.173-.1344l-.64493-2.32421c-.0201-.07235-.058-.074-.08429-.00367L57.312,21.31063a.2065.2065,0,0,1-.18427.12505l-2.29829-.04776c-.07507-.00156-.08811.035-.029.08134l1.81,1.41717A.20675.20675,0,0,1,56.6741,23.09992ZM50.39641,14.1227a.17089.17089,0,0,1-.15138-.11759l-.56434-2.03369c-.01756-.06332-.05074-.06474-.07374-.00321l-.7506,2.00971a.18078.18078,0,0,1-.16124.10943l-2.011-.0418c-.06569-.00136-.07712.03066-.02537.07116l1.58373,1.24a.18092.18092,0,0,1,.05571.18678l-.6427,1.89707c-.02109.06222.00622.083.06069.04628l1.74243-1.1765a.17539.17539,0,0,1,.19306.0068l1.58373,1.24c.05172.0405.07894.022.06046-.041l-.56336-1.92215a.1809.1809,0,0,1,.06344-.18429l1.63389-1.1732c.05337-.0383.04328-.07078-.02242-.07214ZM36.89195,12.94852a.15507.15507,0,0,1,.04776.16011l-.55089,1.62608c-.01808.05331.00532.07119.052.03966l1.49351-1.00843a.15038.15038,0,0,1,.16549.00584l1.35746,1.06287c.04435.03474.06766.01892.05184-.03512L39.02625,13.152a.155.155,0,0,1,.05438-.158l1.40045-1.00559c.04576-.03283.03711-.06069-.01918-.06185l-1.72374-.03581a.14646.14646,0,0,1-.12974-.10081l-.48372-1.74315c-.015-.05427-.04351-.05548-.06321-.00275l-.64337,1.72261a.15484.15484,0,0,1-.13821.09378l-1.72371-.03581c-.05632-.00116-.0661.02629-.02175.061ZM26.08324,16.55131a.12915.12915,0,0,1,.0398.13341L25.664,18.03978c-.015.04443.00445.05933.04333.03306l1.24462-.84036a.12527.12527,0,0,1,.1379.00486l1.13122.88575c.037.02893.05638.01574.04319-.0293l-.40241-1.37294a.12923.12923,0,0,1,.04533-.13165l1.16707-.838c.0381-.02737.03092-.05056-.016-.05155l-1.43646-.02985a.12194.12194,0,0,1-.1081-.084l-.4031-1.45263c-.01255-.04521-.03625-.04625-.05268-.00229l-.53614,1.43551a.1292.1292,0,0,1-.11519.07816l-1.43644-.02985c-.04692-.001-.05508.0219-.01811.05083ZM20.4191,26.115l-.3219-1.09836a.10341.10341,0,0,1,.03625-.10532l.93365-.67039c.03049-.0219.02473-.04044-.01281-.04122l-1.14913-.02386a.09767.09767,0,0,1-.08652-.0672l-.32245-1.16212c-.01-.03616-.029-.037-.04215-.00182l-.42893,1.14841a.10327.10327,0,0,1-.09213.06251l-1.14913-.02386c-.03755-.00078-.04406.0175-.01452.04067l.905.70857a.10342.10342,0,0,1,.03185.10674l-.36729,1.084c-.012.03555.00356.04747.03468.02647l.99567-.6723a.10025.10025,0,0,1,.11033.00388l.905.7086C20.41412,26.16157,20.42966,26.151,20.4191,26.115Zm-3.16819,9.611a.07324.07324,0,0,1-.06488-.05039L16.9442,34.804c-.00755-.02713-.02175-.02777-.03162-.00139l-.3217.86131a.07736.07736,0,0,1-.06908.04689l-.86188-.01791c-.02815-.00058-.033.01313-.01088.03052l.67875.53142a.07756.07756,0,0,1,.02389.08007l-.27544.813c-.009.02667.00266.03558.026.01984l.74675-.50423a.07519.07519,0,0,1,.08273.00292l.67875.53145c.02219.01736.03384.00946.02592-.01756l-.24145-.82379a.07764.07764,0,0,1,.02719-.079l.70024-.50278c.02288-.01643.01857-.03034-.0096-.03092Zm3.31158,11.09313a.04884.04884,0,0,1-.04325-.03361l-.16124-.58106c-.005-.01808-.01449-.01848-.02106-.0009l-.21447.5742a.05159.05159,0,0,1-.04608.03124l-.57458-.01192c-.01874-.0004-.022.00876-.00723.02034l.45248.35427a.05174.05174,0,0,1,.01594.05337l-.18363.542c-.006.01776.00176.02372.01733.01322l.49784-.33613a.05013.05013,0,0,1,.05516.00194l.45251.3543c.01478.01157.02253.00631.01727-.01172l-.161-.54918a.05169.05169,0,0,1,.01811-.05268l.46683-.33518c.01524-.011.01238-.02022-.00639-.02063ZM48.415,21.931l4.039,45.23665a.1815.1815,0,0,1-.1836.20073H24.96456a.17849.17849,0,0,1-.18085-.20047L28.81723,28.043a.423.423,0,0,1,.19876-.29474l6.571-3.47878a1.62943,1.62943,0,0,1,.376-.13257l12.23627-2.36829A.1786.1786,0,0,1,48.415,21.931ZM28.17915,60.70125l5.41273-32.13786c.01843-.10929-.04666-.15626-.14464-.10443l-1.892,1.00166a.423.423,0,0,0-.19876.29474L28.16637,60.69951C28.155,60.80975,28.16075,60.81053,28.17915,60.70125Zm8.274,3.76493,3.4325-38.13972a.14366.14366,0,0,0-.17978-.1624l-2.83448.5486c-.10882.02106-.20694.0431-.218.049a.73745.73745,0,0,0-.05366.20937L30.28441,64.46817a.16514.16514,0,0,0,.16807.19873h5.78106A.22534.22534,0,0,0,36.45312,64.46617Zm13.04742,0L45.99035,25.1519a.1786.1786,0,0,0-.21577-.16243l-2.9127.56373a.28445.28445,0,0,0-.21591.239l-3.48054,38.674a.18131.18131,0,0,0,.18346.20073h9.96806A.1815.1815,0,0,0,49.50054,64.46617Z"/>
  </g>
</svg>
