<svg id="Layer_1" data-name="Layer 1" xmlns="http://www.w3.org/2000/svg" width="100" height="100" viewBox="0 0 100 100">
  <defs>
    <style>
      .cls-1 {
        fill: #FFFFFF;
      }
    </style>
  </defs>
  <title>_</title>
  <path class="cls-1" d="M37.68175,49.81513c-8.46155,0-17.02786,2.83921-17.02786,8.26606V78.68734c0,5.42684,8.56631,8.26606,17.02786,8.26606s17.02786-2.83921,17.02786-8.26606V58.08118C54.70961,52.65434,46.1433,49.81513,37.68175,49.81513ZM49.89483,78.68652c-.07548.80425-4.02992,3.45292-12.21308,3.45292s-12.1376-2.64867-12.21308-3.4521v-.941a29.73781,29.73781,0,0,0,12.21308,2.33831,29.73644,29.73644,0,0,0,12.21308-2.33831Zm0-6.86872c-.07548.80425-4.02992,3.45292-12.21308,3.45292s-12.1376-2.64867-12.21308-3.45292v-.94015A29.73781,29.73781,0,0,0,37.68175,73.216a29.73644,29.73644,0,0,0,12.21308-2.33831Zm0-6.86872c-.07548.80425-4.02992,3.45292-12.21308,3.45292s-12.1376-2.64867-12.21308-3.45292v-.94015a29.73781,29.73781,0,0,0,12.21308,2.33831,29.73644,29.73644,0,0,0,12.21308-2.33831Zm-12.21308-3.4158c-8.18316,0-12.1376-2.64867-12.21308-3.45127.07548-.80425,4.02992-3.45292,12.21308-3.45292,8.18068,0,12.13513,2.647,12.21308,3.4521C49.81688,58.88626,45.86243,61.53328,37.68175,61.53328ZM79.34611,64.1341V71.355c0,5.42684-8.56631,8.26606-17.02786,8.26606a36.796,36.796,0,0,1-5.26744-.37552c.0132-.18415.02413-.36913.02413-.55844V74.39656a31.80792,31.80792,0,0,0,5.24331.41058c8.18316,0,12.1376-2.64867,12.21308-3.45292v-.93994a29.74123,29.74123,0,0,1-12.21308,2.3381,36.76576,36.76576,0,0,1-5.24331-.37614v-4.854a31.80792,31.80792,0,0,0,5.24331.41058c8.18068,0,12.13513-2.647,12.21308-3.4521-.078-.80508-4.03239-3.4521-12.21308-3.4521a31.80792,31.80792,0,0,0-5.24331.41058V58.081a7.45921,7.45921,0,0,0-.14724-1.46559,36.65037,36.65037,0,0,1,5.39055-.40068c8.27864,0,16.65234,2.7194,17.01075,7.9194Zm-9.11485-9.47491V21.31266c0-5.42684-8.56631-8.26606-17.02786-8.26606s-17.02786,2.83921-17.02786,8.26606V47.48053c.50317-.01918,1.00593-.03073,1.50643-.03073A31.73571,31.73571,0,0,1,51.0711,50.12115c.70857.04021,1.41981.06764,2.1323.06764a29.73713,29.73713,0,0,0,12.21308-2.33831v.87581c-.07218.77043-3.71337,3.22587-11.20879,3.43271a9.067,9.067,0,0,1,1.84524,2.18571,39.19949,39.19949,0,0,1,6.26533-.49513A37.93351,37.93351,0,0,1,70.23126,54.65919ZM53.2034,17.86056c8.18068,0,12.13513,2.647,12.21308,3.4521-.078.80508-4.03239,3.4521-12.21308,3.4521-8.18316,0-12.1376-2.64867-12.21308-3.45127C41.0658,20.50923,45.02024,17.86056,53.2034,17.86056ZM40.99032,27.92835V27.2404A29.73713,29.73713,0,0,0,53.2034,29.57871,29.73713,29.73713,0,0,0,65.41647,27.2404v.94015c-.07548.80425-4.02992,3.45292-12.21308,3.45292S41.0658,28.9848,40.99032,28.18055Zm0,6.18469A29.73713,29.73713,0,0,0,53.2034,36.45135,29.73713,29.73713,0,0,0,65.41647,34.113v.94015c-.07548.80425-4.02992,3.45292-12.21308,3.45292s-12.1376-2.64867-12.21308-3.45292ZM53.2034,45.31049c-8.18316,0-12.1376-2.64867-12.21308-3.45292v-.87581A29.73713,29.73713,0,0,0,53.2034,43.32007a29.73713,29.73713,0,0,0,12.21308-2.33831v.87581C65.341,42.66182,61.38655,45.31049,53.2034,45.31049Z"/>
</svg>
