<svg id="Layer_1" data-name="Layer 1" xmlns="http://www.w3.org/2000/svg" width="100" height="100" viewBox="0 0 100 100">
  <defs>
    <style>
      .cls-1 {
        fill: #FFFFFF;
      }
    </style>
  </defs>
  <title>_</title>
  <path class="cls-1" d="M77.541,40.39278V67.49955a.19732.19732,0,0,1-.19688.19671H54.143a.19738.19738,0,0,1-.19688-.19671V62.76193l-.00008-.197a8.61888,8.61888,0,1,1,0-17.23777h.00008V40.39278a.19745.19745,0,0,1,.19688-.197H77.34409A.19739.19739,0,0,1,77.541,40.39278Zm5.90677-5.97146V73.40556a.1975.1975,0,0,1-.197.19688H24.78146a.48563.48563,0,0,1-.30982-.08174.50419.50419,0,0,1-.09106-.30507V34.42133a.19747.19747,0,0,1,.19688-.19688H83.25069A.1975.1975,0,0,1,83.44773,34.42133Zm-3.95927,3.9591a.19747.19747,0,0,0-.19688-.19688H28.53673a.19747.19747,0,0,0-.19688.19688V69.30808a.36317.36317,0,0,0,.079.24928.56946.56946,0,0,0,.32474.086h50.548a.19747.19747,0,0,0,.19688-.19688Zm1.00559-6.3681V30.53125a.19738.19738,0,0,0-.19688-.19671H20.6867a.19738.19738,0,0,0-.19688.19671V70.45255a.19756.19756,0,0,0,.19688.197h1.48108a.19756.19756,0,0,0,.19688-.197V32.40608a.19738.19738,0,0,1,.19688-.19671H80.29718A.19756.19756,0,0,0,80.49405,32.01232Zm-3.93756-3.93756V26.59368a.19738.19738,0,0,0-.19688-.19671H16.74914a.19738.19738,0,0,0-.19688.19671V66.515a.19756.19756,0,0,0,.19688.197h1.48108a.19756.19756,0,0,0,.19688-.197V28.46852a.19738.19738,0,0,1,.19688-.19671H76.35962A.19756.19756,0,0,0,76.55649,28.07476Z"/>
</svg>
