<svg xmlns="http://www.w3.org/2000/svg" width="100" height="100" viewBox="0 0 100 100">
  <defs>
    <style>
      .cls-1 {
        fill: #ffffff;
      }
    </style>
  </defs>
  <title>icon</title>
  <g id="Layer_3" data-name="Layer 3">
    <path class="cls-1" d="M20.913,42.257C10.521,42.257,0,45.744,0,52.409V77.717C0,84.382,10.521,87.87,20.913,87.87s20.913-3.487,20.913-10.152V52.409C41.827,45.744,31.306,42.257,20.913,42.257Zm15,35.46c-.093.988-4.95,4.241-15,4.241s-14.907-3.253-15-4.24V76.562c3.991,1.9,9.513,2.872,15,2.872s11.009-.973,15-2.872Zm0-8.436c-.093.988-4.95,4.241-15,4.241s-14.907-3.253-15-4.241V68.126C9.9,70.024,15.426,71,20.913,71s11.009-.973,15-2.872Zm0-8.436c-.093.988-4.95,4.241-15,4.241s-14.907-3.253-15-4.241V59.689c3.991,1.9,9.513,2.872,15,2.872s11.009-.973,15-2.872Zm-15-4.2c-10.05,0-14.907-3.253-15-4.239.093-.988,4.95-4.241,15-4.241s14.9,3.251,15,4.24C35.818,53.4,30.961,56.649,20.913,56.649ZM99.706,12.13H12.073a.3.3,0,0,0-.294.294V39.9a.241.241,0,0,0,.29.246l5.331-.709a.332.332,0,0,0,.293-.323V18.338a.3.3,0,0,1,.294-.294H55.6a.3.3,0,0,1,.294.294V28.37c0,.162,0,.294,0,.294a12.873,12.873,0,1,0,0,25.746s0,.132,0,.294V64.737a.3.3,0,0,1-.294.294H45.078a.3.3,0,0,0-.294.294V70.65a.3.3,0,0,0,.294.294H99.706A.3.3,0,0,0,100,70.65V12.424A.3.3,0,0,0,99.706,12.13ZM94.087,64.737a.3.3,0,0,1-.294.294H62.065a.3.3,0,0,1-.294-.294V48.791a.3.3,0,0,0-.294-.294l-5.587.02a6.98,6.98,0,1,1,0-13.96l5.587.02a.3.3,0,0,0,.294-.294V18.338a.3.3,0,0,1,.294-.294H93.793a.3.3,0,0,1,.294.294Z"/>
  </g>
</svg>
