<svg id="FINAL" xmlns="http://www.w3.org/2000/svg" width="34.001mm" height="34.001mm" viewBox="0 0 96.38 96.38">
  <defs>
    <style>
      .cls-1 {
        fill: #ffffff;
      }
    </style>
  </defs>
  <title>gender-icon</title>
  <path class="cls-1" d="M76.081,14.648v5.684H86.533L73.6,32.889a22.558,22.558,0,0,0-35.114,9.933l-.037-.015a16.986,16.986,0,0,1-7.018,8.676,16.865,16.865,0,1,1,7.132-19.641,28.473,28.473,0,0,1,4.5-4.077A22.556,22.556,0,1,0,19.72,59.529v7.879H11.49v5.684H19.72v8.695H25.4V73.092h8.229V67.408H25.4V59.53a22.394,22.394,0,0,0,6.869-2.016A22.712,22.712,0,0,0,43.71,44.983l.037.015a16.986,16.986,0,0,1,7.037-8.725,16.865,16.865,0,1,1-7.133,19.641,28.474,28.474,0,0,1-4.5,4.077,22.552,22.552,0,1,0,38.44-23.054L90.7,24.211V34.444h5.684v-19.8Z"/>
</svg>
