<svg xmlns="http://www.w3.org/2000/svg" width="100" height="100" viewBox="0 0 100 100">
  <defs>
    <style>
      .cls-1 {
        fill: #ffffff;
      }
    </style>
  </defs>
  <title>icon</title>
  <g id="Layer_3" data-name="Layer 3">
    <path class="cls-1" d="M50,48.458a13.12,13.12,0,1,0-2.655-.268A13.2,13.2,0,0,0,50,48.458Zm0-20.47a7.238,7.238,0,1,1-1.465.148A7.283,7.283,0,0,1,50,27.987Zm-.017,24.882a20.092,20.092,0,0,0-5.04.592,14.147,14.147,0,0,0-4.007,1.7,13.261,13.261,0,0,0-3.086,2.688,16.681,16.681,0,0,0-2.275,3.559A25.053,25.053,0,0,0,34,65.721a40.14,40.14,0,0,0-.988,4.951c-.244,1.744-.408,3.574-.511,5.472s-.146,3.862-.146,5.875V96.987H67.647V82.019c0-2.012-.043-3.977-.147-5.875s-.27-3.728-.515-5.472a40.051,40.051,0,0,0-.994-4.951,25.049,25.049,0,0,0-1.583-4.314,16.708,16.708,0,0,0-2.282-3.559,13.3,13.3,0,0,0-3.091-2.688,14.181,14.181,0,0,0-4.011-1.7A20.11,20.11,0,0,0,49.983,52.869Zm11.75,38.2H38.267V82.019c0-.675,0-1.386.016-2.125s.032-1.5.063-2.284.074-1.578.131-2.382.13-1.613.221-2.419.2-1.608.332-2.4.285-1.562.464-2.311.383-1.475.617-2.166a17.188,17.188,0,0,1,.791-1.96,12.392,12.392,0,0,1,.709-1.282,9.318,9.318,0,0,1,.8-1.085,7.706,7.706,0,0,1,.911-.9A7.23,7.23,0,0,1,44.357,60a7.791,7.791,0,0,1,1.168-.543,9.507,9.507,0,0,1,1.318-.378,12.715,12.715,0,0,1,1.481-.221q.784-.072,1.659-.072t1.661.072a12.741,12.741,0,0,1,1.484.221,9.532,9.532,0,0,1,1.32.378A7.817,7.817,0,0,1,55.618,60a7.256,7.256,0,0,1,1.035.716,7.736,7.736,0,0,1,.913.9,9.354,9.354,0,0,1,.806,1.087,12.436,12.436,0,0,1,.712,1.284,17.219,17.219,0,0,1,.8,1.963c.235.692.44,1.418.62,2.168s.334,1.524.466,2.311.242,1.589.333,2.395.164,1.615.222,2.417.1,1.6.132,2.379.051,1.544.064,2.281.016,1.448.016,2.122v9.054ZM74.265,43.418a10.933,10.933,0,1,0,.224-2.213A11,11,0,0,0,74.265,43.418Zm16.073,0a5.051,5.051,0,1,1-.1-1.022A5.083,5.083,0,0,1,90.337,43.418ZM85.28,56.935a17.882,17.882,0,0,0-4.2.461,12.252,12.252,0,0,0-3.339,1.321,10.864,10.864,0,0,0-2.571,2.09,12.9,12.9,0,0,0-1.9,2.768,18.67,18.67,0,0,0-1.314,3.355,29.392,29.392,0,0,0-.824,3.851c-.2,1.356-.34,2.78-.426,4.256s-.121,3-.121,4.569V91.248H100V79.606c0-1.565-.036-3.093-.123-4.569s-.225-2.9-.43-4.256a29.329,29.329,0,0,0-.828-3.851A18.671,18.671,0,0,0,97.3,63.575a12.926,12.926,0,0,0-1.9-2.768,10.9,10.9,0,0,0-2.576-2.09A12.281,12.281,0,0,0,89.481,57.4,17.9,17.9,0,0,0,85.28,56.935Zm8.806,28.4H76.5V79.606c0-1.937.062-3.652.18-5.169A35.258,35.258,0,0,1,77.2,70.45a17.893,17.893,0,0,1,.815-2.956,9.353,9.353,0,0,1,1.077-2.078,5.9,5.9,0,0,1,1.3-1.351,5.459,5.459,0,0,1,1.49-.777,7.717,7.717,0,0,1,1.641-.355,18.357,18.357,0,0,1,3.518,0,7.764,7.764,0,0,1,1.647.355,5.484,5.484,0,0,1,1.5.777,5.9,5.9,0,0,1,1.306,1.351,9.342,9.342,0,0,1,1.08,2.078,17.847,17.847,0,0,1,.818,2.956,35.148,35.148,0,0,1,.518,3.987c.118,1.518.181,3.232.181,5.169v5.728ZM74.3,25a10.933,10.933,0,1,0-2.213-.224A11,11,0,0,0,74.3,25Zm0-16.073a5.051,5.051,0,1,1-1.022.1A5.083,5.083,0,0,1,74.3,8.927ZM25.771,25a10.933,10.933,0,1,0-2.213-.224A11,11,0,0,0,25.771,25Zm0-16.073a5.051,5.051,0,1,1-1.022.1A5.083,5.083,0,0,1,25.771,8.927ZM14.742,54.412a10.933,10.933,0,1,0-2.213-.224A11,11,0,0,0,14.742,54.412Zm0-16.073a5.051,5.051,0,1,1-1.022.1A5.083,5.083,0,0,1,14.742,38.339Zm-.05,18.6a17.882,17.882,0,0,0-4.2.461,12.252,12.252,0,0,0-3.339,1.321,10.864,10.864,0,0,0-2.571,2.09,12.9,12.9,0,0,0-1.9,2.768A18.67,18.67,0,0,0,1.371,66.93a29.392,29.392,0,0,0-.824,3.851c-.2,1.356-.34,2.78-.426,4.256S0,78.041,0,79.606V91.248H29.412V79.606c0-1.565-.036-3.093-.123-4.569s-.225-2.9-.429-4.256a29.329,29.329,0,0,0-.828-3.851,18.671,18.671,0,0,0-1.319-3.355,12.926,12.926,0,0,0-1.9-2.768,10.9,10.9,0,0,0-2.576-2.09A12.281,12.281,0,0,0,18.892,57.4,17.9,17.9,0,0,0,14.691,56.935Zm8.806,28.4H5.914V79.606c0-1.937.062-3.652.18-5.169A35.258,35.258,0,0,1,6.61,70.45a17.893,17.893,0,0,1,.815-2.956A9.353,9.353,0,0,1,8.5,65.416a5.9,5.9,0,0,1,1.3-1.351,5.459,5.459,0,0,1,1.49-.777,7.717,7.717,0,0,1,1.641-.355,15.569,15.569,0,0,1,1.756-.084,15.671,15.671,0,0,1,1.762.084,7.764,7.764,0,0,1,1.647.355,5.484,5.484,0,0,1,1.5.777A5.9,5.9,0,0,1,20.9,65.416a9.342,9.342,0,0,1,1.08,2.078A17.847,17.847,0,0,1,22.8,70.45a35.149,35.149,0,0,1,.518,3.987c.118,1.518.181,3.232.181,5.169v5.728Z"/>
  </g>
</svg>
