<svg xmlns="http://www.w3.org/2000/svg" width="100" height="100" viewBox="0 0 100 100">
  <defs>
    <style>
      .cls-1 {
        fill: #ffffff;
      }
    </style>
  </defs>
  <title>icon</title>
  <g id="Layer_3" data-name="Layer 3">
    <path class="cls-1" d="M95.548,62.96V37.882c0-.162-.033-.295-.074-.295s-.053-.013-.028-.03-.063-.105-.2-.2L47.932,4.773a.461.461,0,0,0-.485,0L.1,37.361a.183.183,0,0,0,0,.327L47.443,68.361a.5.5,0,0,0,.494,0l44.4-28.79c.136-.088.247-.028.247.134V62.96a5.932,5.932,0,1,0,2.961,0ZM84.588,37.539,47.936,61.3a.5.5,0,0,1-.494,0L10.765,37.539a.183.183,0,0,1,0-.327L47.446,11.963a.462.462,0,0,1,.485,0L84.593,37.212A.183.183,0,0,1,84.588,37.539Zm9.479,34.13A2.971,2.971,0,1,1,97.039,68.7,2.975,2.975,0,0,1,94.067,71.669ZM73.341,59.242V84.567a.94.94,0,0,1-.189.52S64.566,95.3,47.725,95.3,22.3,85.087,22.3,85.087a.94.94,0,0,1-.189-.52V59.3c0-.162.111-.222.247-.134l5.428,3.517a.606.606,0,0,1,.247.455V82.1a.664.664,0,0,0,.236.471s9.088,6.8,19.458,6.8c10.284,0,19.457-6.819,19.457-6.819a.661.661,0,0,0,.236-.47v-19a.607.607,0,0,1,.247-.455l5.428-3.519C73.23,59.02,73.341,59.08,73.341,59.242Z"/>
  </g>
</svg>
