<svg xmlns="http://www.w3.org/2000/svg" width="100" height="100" viewBox="0 0 100 100" preserveAspectRatio="xMidYMid meet">
  <defs>
    <style>
      .cls-1 {
        fill: #003299;
      }
    </style>
  </defs>
  <title>icon</title>
  <g id="Layer_3" data-name="Layer 3">
    <path class="cls-1" d="M24.363,76.773c6.3,0,12.671-2.113,12.671-6.151V55.287c0-4.038-6.375-6.15-12.671-6.15s-12.671,2.113-12.671,6.15V70.621C11.692,74.66,18.067,76.773,24.363,76.773Zm0-24.053c6.082,0,9.028,1.969,9.088,2.568-.058.6-3,2.569-9.088,2.569s-9.032-1.971-9.088-2.568C15.333,54.69,18.279,52.719,24.363,52.719ZM15.275,59.7a22.13,22.13,0,0,0,9.088,1.74,22.13,22.13,0,0,0,9.088-1.74v.7c-.056.6-3,2.569-9.088,2.569S15.331,61,15.275,60.4Zm0,5.111a22.13,22.13,0,0,0,9.088,1.74,22.13,22.13,0,0,0,9.088-1.74v.7c-.056.6-3,2.569-9.088,2.569s-9.032-1.971-9.088-2.569Zm0,5.111a22.128,22.128,0,0,0,9.088,1.74,22.128,22.128,0,0,0,9.088-1.74v.7c-.056.6-3,2.569-9.088,2.569s-9.032-1.971-9.088-2.569ZM28.8,34.034a.248.248,0,0,1-.114-.116L24.6,26.845a.21.21,0,0,1-.035-.159.207.207,0,0,1,.119-.114L70.6.06A.346.346,0,0,1,70.76.011c.067,0,.123.1.123.1L88.558,30.723s.036.059.029.083-.041.042-.041.042L76.6,37.744s-.023.018-.041.01-.026-.041-.026-.041l-.918-3.426s-.025-.066-.011-.085a.3.3,0,0,1,.038-.041l7.966-4.6a.145.145,0,0,0,.075-.066c.018-.044-.029-.1-.029-.1L69.521,4.916s-.008-.024-.052-.036a.065.065,0,0,0-.065.01l-17.268,9.97s-.058.022-.071.062a.1.1,0,0,0,.017.079l3.345,5.74a1.819,1.819,0,0,1-.664,2.49,5.948,5.948,0,0,0-2.676,3.3.136.136,0,0,1-.051.088.313.313,0,0,1-.114.046l-3.3.884s-.389.107-.428.065a1.55,1.55,0,0,1,.037-.515,9.63,9.63,0,0,1,3.084-5.834.37.37,0,0,0,.1-.124c.017-.045-.05-.13-.05-.13L48.959,16.87a.129.129,0,0,0-.085-.087.233.233,0,0,0-.153.048l-19.2,11.088s-.071.028-.087.069.033.118.033.118l2.81,4.867s.057.081.032.126a.173.173,0,0,1-.1.06l-3.235.867A.314.314,0,0,1,28.8,34.034ZM99.969,47.319,73.81,99.879c-.072.145-.2.148-.273.006L60.779,76.7a.179.179,0,0,0-.322-.025l-6.682,8.687a.44.44,0,0,1-.459.138l-9.7-3.318a.42.42,0,0,0-.449.145l-7.78,10.958a.231.231,0,0,1-.371.024L25.283,82.847a.442.442,0,0,0-.47-.1l-8.869,3.959a.667.667,0,0,1-.527-.023L.152,78.215a.3.3,0,0,1-.116-.4l1.139-2.082a.293.293,0,0,1,.4-.115L15.55,83.384a.667.667,0,0,0,.527.023l9.462-4.225a.442.442,0,0,1,.47.1l8.7,9.349a.231.231,0,0,0,.371-.024l6.955-9.795a.42.42,0,0,1,.449-.145l9.778,3.345a.44.44,0,0,0,.459-.138l8.147-10.592a.179.179,0,0,1,.322.025L73.418,93.522c.078.142.2.139.273-.006l23.63-47.528a.294.294,0,0,1,.395-.132l2.121,1.065A.3.3,0,0,1,99.969,47.319Zm-77.7.108s1.293-.081,2.095-.081c.424,0,.957.018.957.018a.224.224,0,0,0,.237-.3L24,41.25a.321.321,0,0,1,.226-.391l21.232-5.689,1.33,4.881A9.62,9.62,0,0,0,51.678,58.3l1.16,4.368-13.7,3.672a.44.44,0,0,0-.309.4v3.07a.233.233,0,0,0,.309.237L80.073,59.076a.32.32,0,0,0,.226-.391l-9.057-33.8a.321.321,0,0,0-.391-.226L19.837,38.325a.321.321,0,0,0-.226.391l2.257,8.422A.408.408,0,0,0,22.269,47.427Zm28.464-6.734-1.761-6.465,19.345-5.183a.32.32,0,0,1,.391.226l7.2,26.882a.32.32,0,0,1-.226.391l-19.331,5.18L54.769,55.76a1.816,1.816,0,0,0-2.227-1.283,5.98,5.98,0,1,1-3.1-11.553,1.82,1.82,0,0,0,1.285-2.232Z"/>
  </g>
</svg>
