<svg xmlns="http://www.w3.org/2000/svg" width="100" height="100" viewBox="0 0 100 100">
  <defs>
    <style>
      .cls-1 {
        fill: #003299;
      }
    </style>
  </defs>
  <title>icon</title>
  <g id="Layer_3" data-name="Layer 3">
    <g>
      <path class="cls-1" d="M62.28.009A36.919,36.919,0,0,0,26.385,35.992a36.49,36.49,0,0,0,4.866,18.973,1.451,1.451,0,0,1-.219,1.757L.283,87.47a.294.294,0,0,0,0,.415L12.313,99.914a.294.294,0,0,0,.415,0l30.86-30.86a1.451,1.451,0,0,1,1.738-.23,36.487,36.487,0,0,0,18.8,4.585A36.712,36.712,0,0,0,62.28.009ZM39.287,65.058l-27.25,27.25a.294.294,0,0,1-.415,0L7.889,88.575a.294.294,0,0,1,0-.415l27.25-27.25a.284.284,0,0,1,.357-.024,37.021,37.021,0,0,0,3.673,3.64l.117.117A.294.294,0,0,1,39.287,65.058Zm23.8,2.467A30.814,30.814,0,1,1,93.9,36.712,30.849,30.849,0,0,1,63.091,67.526Z"/>
      <path class="cls-1" d="M81.972,22.282a.294.294,0,0,0-.4.108L73.413,36.546a.294.294,0,0,1-.4.107L65.9,32.548a.294.294,0,0,0-.4.107l-2.639,4.572a.294.294,0,0,1-.4.107L57.888,34.7a.294.294,0,0,0-.4.107L53.013,42.55a.294.294,0,0,1-.4.107l-4.571-2.639a.294.294,0,0,0-.4.107l-5.464,9.461a.294.294,0,0,0,.108.4l2,1.156a.294.294,0,0,0,.4-.107L48.7,44.082a.294.294,0,0,1,.4-.107l4.571,2.639a.294.294,0,0,0,.4-.107l4.473-7.747a.294.294,0,0,1,.4-.107l4.572,2.639a.294.294,0,0,0,.4-.107l2.639-4.572a.294.294,0,0,1,.4-.107l7.114,4.107a.294.294,0,0,0,.4-.107l9.6-16.669a.294.294,0,0,0-.108-.4Z"/>
    </g>
  </g>
</svg>
