<svg xmlns="http://www.w3.org/2000/svg" width="100" height="100" viewBox="0 0 100 100">
  <defs>
    <style>
      .cls-1 {
        fill: #003299;
      }
    </style>
  </defs>
  <title>icon</title>
  <g id="Layer_3" data-name="Layer 3">
    <path class="cls-1" d="M96.112,30.083,90.893,28.6a19,19,0,0,0-1.014-8.682l4.741-2.643a.307.307,0,0,0,.118-.417l-2.7-4.844a.307.307,0,0,0-.417-.118l-4.729,2.637a19.01,19.01,0,0,0-6.862-5.429l1.48-5.21a.307.307,0,0,0-.211-.378L75.961,2a.307.307,0,0,0-.378.211L74.1,7.422a18.528,18.528,0,0,0-8.69,1.011L62.776,3.705a.307.307,0,0,0-.417-.118l-4.845,2.7A.307.307,0,0,0,57.4,6.7l2.644,4.741A19,19,0,0,0,54.614,18.3L49.4,16.815a.307.307,0,0,0-.378.211L47.5,22.362a.307.307,0,0,0,.211.378l5.219,1.482A19,19,0,0,0,53.945,32.9L49.2,35.549a.307.307,0,0,0-.118.417l2.7,4.844a.307.307,0,0,0,.417.118l4.729-2.637a19.011,19.011,0,0,0,6.862,5.428l-1.48,5.21a.307.307,0,0,0,.211.378l5.336,1.515a.307.307,0,0,0,.378-.211l1.48-5.21a18.527,18.527,0,0,0,8.691-1.011l2.636,4.729a.307.307,0,0,0,.417.118l4.845-2.7a.307.307,0,0,0,.118-.417L83.784,41.38a19,19,0,0,0,5.426-6.853l5.219,1.482a.307.307,0,0,0,.378-.211l1.515-5.336A.307.307,0,0,0,96.112,30.083Zm-11.833-.158a12.866,12.866,0,0,1-12.541,9.346,12.859,12.859,0,1,1,11.4-19.119A12.773,12.773,0,0,1,84.279,29.925Zm-77-12.289,3.773.574a13.009,13.009,0,0,0,.971,3.93L8.946,24.4a.307.307,0,0,0-.065.428L12.17,29.3a.307.307,0,0,0,.428.065L15.673,27.1a13,13,0,0,0,3.464,2.1l-.574,3.774a.307.307,0,0,0,.257.349l5.485.834a.307.307,0,0,0,.349-.257l.574-3.774a13.006,13.006,0,0,0,3.93-.971l2.264,3.076a.307.307,0,0,0,.428.065L36.316,29a.307.307,0,0,0,.065-.428L34.118,25.5a13.006,13.006,0,0,0,2.1-3.464l3.774.574a.307.307,0,0,0,.349-.257l.834-5.483a.307.307,0,0,0-.257-.349l-3.774-.574a13.008,13.008,0,0,0-.971-3.93l3.075-2.264a.307.307,0,0,0,.065-.428L36.021,4.856a.307.307,0,0,0-.428-.065L32.516,7.055A13.008,13.008,0,0,0,29.053,4.96l.574-3.774A.307.307,0,0,0,29.37.837L23.886,0a.307.307,0,0,0-.349.257l-.574,3.774a13.008,13.008,0,0,0-3.93.971L16.77,1.93a.307.307,0,0,0-.428-.065L11.874,5.152a.307.307,0,0,0-.065.428l2.264,3.076a13,13,0,0,0-2.1,3.464L8.2,11.546a.307.307,0,0,0-.349.257l-.834,5.483A.307.307,0,0,0,7.278,17.636ZM17.336,16.05a6.837,6.837,0,1,1,5.731,7.787A6.844,6.844,0,0,1,17.336,16.05ZM64.487,65.068H58.826A24.764,24.764,0,0,0,54.64,55.02l4-4a.428.428,0,0,0,0-.6L53.2,44.977a.429.429,0,0,0-.6,0l-4.007,4.007A24.764,24.764,0,0,0,38.528,44.83V39.179a.429.429,0,0,0-.427-.427H30.409a.429.429,0,0,0-.427.427V44.84a24.764,24.764,0,0,0-10.048,4.186l-4-4a.428.428,0,0,0-.6,0L9.891,50.465a.429.429,0,0,0,0,.6L13.9,55.077A24.763,24.763,0,0,0,9.744,65.137H4.093a.429.429,0,0,0-.427.427v7.692a.429.429,0,0,0,.427.427H9.754a24.763,24.763,0,0,0,4.186,10.048l-4,4a.429.429,0,0,0,0,.6l5.439,5.439a.429.429,0,0,0,.6,0l4.007-4.008a24.762,24.762,0,0,0,10.061,4.155v5.651a.429.429,0,0,0,.427.427h7.692a.429.429,0,0,0,.427-.427V93.911a24.763,24.763,0,0,0,10.048-4.186l4,4a.429.429,0,0,0,.6,0l5.439-5.439a.429.429,0,0,0,0-.6l-4.008-4.007a24.763,24.763,0,0,0,4.155-10.061h5.651a.429.429,0,0,0,.427-.427V65.495A.429.429,0,0,0,64.487,65.068ZM47.865,82.951a19.2,19.2,0,1,1,0-27.151A19.072,19.072,0,0,1,47.865,82.951Z"/>
  </g>
</svg>
