<svg xmlns="http://www.w3.org/2000/svg" width="84" height="100" viewBox="24 10 30 56">
  <defs>
    <style>
      .cls-1 {
        fill: #003299;
      }
    </style>
  </defs>
  <title>_</title>
  <g id="Layer_1" data-name="Layer 1">
    <g>
      <path class="cls-1" d="M32.14281,40.1001q2.28761-3.20123,2.28763-9.5798,0-6.09952-2.34309-9.38681a7.73142,7.73142,0,0,0-6.69655-3.2854q-8.846,0-8.84556,12.6722,0,6.15565,2.31538,9.46894a7.504,7.504,0,0,0,6.53018,3.31413A7.764,7.764,0,0,0,32.14281,40.1001Zm-9.38628-3.36865a17.67592,17.67592,0,0,1-.80414-6.15579,17.68291,17.68291,0,0,1,.80414-6.15579A2.74584,2.74584,0,0,1,25.3908,22.3956q3.66023,0,3.66021,8.18006,0,8.18041-3.66021,8.18006A2.74467,2.74467,0,0,1,22.75653,36.73145Z"/>
      <path class="cls-1" d="M58.45758,37.3693a7.73208,7.73208,0,0,0-6.64108-3.27208q-8.8735,0-8.87327,12.6722,0,6.184,2.32925,9.46894a7.55758,7.55758,0,0,0,6.544,3.28638,7.75664,7.75664,0,0,0,6.71042-3.18883q2.30106-3.188,2.3015-9.56649Q60.82843,40.64173,58.45758,37.3693ZM51.8165,55.005a2.7731,2.7731,0,0,1-2.64811-2.052,17.64213,17.64213,0,0,1-.818-6.18354,17.15853,17.15853,0,0,1,.818-6.12818,2.764,2.764,0,0,1,2.64811-1.99638q3.63205,0,3.63249,8.12456Q55.449,55.00491,51.8165,55.005Z"/>
      <polygon class="cls-1" points="48.862 24.558 54.271 27.549 53.965 11.055 39.832 19.566 45.242 22.556 28.512 52.815 23.103 49.824 23.41 66.319 37.541 57.807 32.132 54.816 48.862 24.558"/>
    </g>
  </g>
</svg>
