<svg xmlns="http://www.w3.org/2000/svg" width="100" height="100" viewBox="0 0 100 100">
  <defs>
    <style>
      .cls-1 {
        fill: #003299;
      }
    </style>
  </defs>
  <title>icon</title>
  <g id="Layer_3" data-name="Layer 3">
    <path class="cls-1" d="M58.688,76.253c-5.411,0-10.888,1.815-10.888,5.286V94.714c0,3.47,5.478,5.286,10.888,5.286s10.888-1.815,10.888-5.286V81.538C69.576,78.068,64.1,76.253,58.688,76.253ZM66.5,94.714c-.048.514-2.577,2.208-7.809,2.208s-7.761-1.694-7.809-2.207v-.6a19.015,19.015,0,0,0,7.809,1.5,19.015,19.015,0,0,0,7.809-1.5Zm0-4.392c-.048.514-2.577,2.208-7.809,2.208s-7.761-1.694-7.809-2.208v-.6a19.015,19.015,0,0,0,7.809,1.5,19.015,19.015,0,0,0,7.809-1.5Zm0-4.392c-.048.514-2.577,2.208-7.809,2.208s-7.761-1.694-7.809-2.208v-.6a19.016,19.016,0,0,0,7.809,1.5,19.016,19.016,0,0,0,7.809-1.5Zm-7.809-2.184c-5.233,0-7.761-1.694-7.809-2.207.048-.514,2.577-2.208,7.809-2.208s7.76,1.693,7.809,2.207C66.448,82.053,63.919,83.746,58.688,83.746ZM70.2,58a12.164,12.164,0,0,1,0-24.328s0-.125,0-.278v-9.48a.279.279,0,0,0-.278-.278H38.432a28,28,0,0,1,3.925-5.588H83.7a28,28,0,0,1,3.925,5.588h-11.6a.279.279,0,0,0-.278.278V38.983a.279.279,0,0,1-.278.278l-5.28-.019a6.6,6.6,0,0,0,0,13.191l5.28-.019a.279.279,0,0,1,.278.278v8.8A27.664,27.664,0,0,1,70.2,63.638V58.279C70.2,58.126,70.2,58,70.2,58Zm29.668,2.72V91.035a.154.154,0,0,1-.153.153H71.269a.154.154,0,0,1-.153-.153V88.263a.154.154,0,0,1,.153-.153h5.476a.154.154,0,0,0,.153-.153V82.58a6.71,6.71,0,0,1-6.7-6.7c0-.057.007-.111.009-.168q1.614-.3,3.182-.718a3.593,3.593,0,0,0-.122.886A3.638,3.638,0,0,0,76.9,79.512l2.909-.011a.154.154,0,0,1,.153.153v8.3a.154.154,0,0,0,.153.153H96.631a.154.154,0,0,0,.153-.153V63.8a.154.154,0,0,0-.153-.153H92.107a39.975,39.975,0,0,0,2.583-3.079h5.02A.154.154,0,0,1,99.863,60.721ZM99.733,37.5A36.712,36.712,0,1,0,31.422,55.361.847.847,0,0,1,31.3,56.4L.222,87.47a.294.294,0,0,0,0,.415L12.252,99.914a.294.294,0,0,0,.415,0l31.18-31.18A.848.848,0,0,1,44.87,68.6a36.491,36.491,0,0,0,19.2,4.807A36.916,36.916,0,0,0,99.733,37.5ZM39.227,65.058l-27.25,27.25a.294.294,0,0,1-.415,0L7.828,88.575a.294.294,0,0,1,0-.415l27.25-27.25a.283.283,0,0,1,.357-.024,37.031,37.031,0,0,0,3.674,3.64l.117.118A.294.294,0,0,1,39.227,65.058ZM32.216,36.712A30.814,30.814,0,1,1,63.03,67.526,30.849,30.849,0,0,1,32.216,36.712Z"/>
  </g>
</svg>
