<svg xmlns="http://www.w3.org/2000/svg" width="100" height="100" viewBox="0 0 100 100" preserveAspectRatio="xMidYMid meet">
  <defs>
    <style>
      .cls-1 {
        fill: #003299;
      }
    </style>
  </defs>
  <title>icon</title>
  <g id="Layer_3" data-name="Layer 3">
    <g>
      <path class="cls-1" d="M62.28.009A36.918,36.918,0,0,0,26.386,35.992a36.487,36.487,0,0,0,4.866,18.972,1.451,1.451,0,0,1-.219,1.757L.283,87.47a.294.294,0,0,0,0,.415L12.313,99.914a.294.294,0,0,0,.415,0l30.86-30.86a1.451,1.451,0,0,1,1.738-.23,36.489,36.489,0,0,0,18.8,4.585A36.712,36.712,0,0,0,62.28.009ZM39.288,65.058l-27.25,27.25a.294.294,0,0,1-.415,0L7.889,88.575a.294.294,0,0,1,0-.415L35.14,60.91a.284.284,0,0,1,.357-.024,37.028,37.028,0,0,0,3.673,3.64l.118.118A.294.294,0,0,1,39.288,65.058Zm23.8,2.467A30.814,30.814,0,1,1,93.9,36.712,30.849,30.849,0,0,1,63.091,67.526Z"/>
      <path class="cls-1" d="M85.046,31.112,74.9,28.213a.278.278,0,0,0-.349.205l-2.8,11.947a.167.167,0,0,1-.292.1l-2.517-2.1a.415.415,0,0,0-.468-.024l-3.855,2.6a.2.2,0,0,1-.322-.118L60.863,28.477c-.043-.155-.137-.165-.21-.02L53.9,41.956a.158.158,0,0,1-.3.02l-2.2-3.225c-.091-.133-.22-.122-.287.025l-2.308,5.059c-.067.147-.122.135-.122-.026V23.025a.294.294,0,0,0-.293-.293H46.037a.294.294,0,0,0-.293.293V52.067a.294.294,0,0,0,.293.293h35.3a.294.294,0,0,0,.293-.293V49.705a.294.294,0,0,0-.293-.293H49.805a.175.175,0,0,1-.172-.267l2-4.385c.067-.147.2-.158.287-.025L54,47.786a.158.158,0,0,0,.3-.02L59.865,36.63c.072-.144.166-.135.21.02l2.477,8.911a.2.2,0,0,0,.322.119l5.413-3.654a.414.414,0,0,1,.468.024l4.484,3.737a.167.167,0,0,0,.292-.1L76.717,32.1a.278.278,0,0,1,.349-.205l7.169,2.048a.294.294,0,0,0,.363-.2l.649-2.271A.294.294,0,0,0,85.046,31.112Z"/>
    </g>
  </g>
</svg>
