<svg xmlns="http://www.w3.org/2000/svg" width="100" height="100" viewBox="0 0 100 100" preserveAspectRatio="xMidYMid meet">
  <defs>
    <style>
      .cls-1 {
        fill: #FFFFFF;
      }
    </style>
  </defs>
  <title>icon</title>
  <g id="Layer_3" data-name="Layer 3">
    <path class="cls-1" d="M93.652,66.139a.234.234,0,0,1-.233.233h-4.1a40.007,40.007,0,0,0,3.156-3.123h.944a.234.234,0,0,1,.233.233Zm-.233,15.727H69.039a.234.234,0,0,0-.233.233v2.657a.234.234,0,0,0,.233.233h24.38a.234.234,0,0,0,.233-.233V82.1A.234.234,0,0,0,93.419,81.867Zm3.322-24.294v30.44h-.029a.23.23,0,0,1-.173.081H91.181a1.633,1.633,0,0,1-.233-.008,1.633,1.633,0,0,0-.233-.008H65.951a.234.234,0,0,1-.233-.233V76.271c-.889.06-1.784.1-2.688.1-.145,0-.289-.011-.434-.013V90.968a.234.234,0,0,0,.233.233h36.8a.234.234,0,0,0,.233-.233V51.389A39.554,39.554,0,0,1,96.741,57.573Zm-3.089,12.1a.234.234,0,0,0-.233-.233H85.394a39.671,39.671,0,0,1-5.43,3.123H93.419a.234.234,0,0,0,.233-.233Zm0,6.211a.234.234,0,0,0-.233-.233H70.511c-.565.108-1.132.208-1.7.292v2.6a.234.234,0,0,0,.233.233h24.38a.234.234,0,0,0,.233-.233ZM83.079,39.318H56.916a.251.251,0,0,0-.25.25v2.851a.251.251,0,0,0,.25.25H83.079a.251.251,0,0,0,.25-.25V39.568A.251.251,0,0,0,83.079,39.318Zm0,13.332H56.916a.251.251,0,0,0-.25.25v2.851a.251.251,0,0,0,.25.25H83.079c.02,0,.033-.017.051-.021l.184-.193c0-.013.015-.022.015-.036V52.9A.251.251,0,0,0,83.079,52.65Zm-26.413-16.9a.251.251,0,0,0,.25.25h9.5a.251.251,0,0,0,.25-.25V32.9a.251.251,0,0,0-.25-.25h-9.5a.251.251,0,0,0-.25.25Zm.25-6.4h9.5a.251.251,0,0,0,.25-.25V26.255a.251.251,0,0,0-.25-.25h-9.5a.251.251,0,0,0-.25.25v2.851A.251.251,0,0,0,56.916,29.356ZM69.729,22.69H53.6a.251.251,0,0,0-.25.25v39.9A27.721,27.721,0,0,1,50,61.332V19.589a.251.251,0,0,1,.25-.25H73.33l.2.156L89.8,32.514l.2.156V43.74a27.712,27.712,0,0,1-3.351,7.738V36.271a.251.251,0,0,0-.25-.25H70.229a.251.251,0,0,1-.25-.25V22.94A.251.251,0,0,0,69.729,22.69Zm3.6,9.731a.251.251,0,0,0,.25.25H84.413c.137,0,.162-.07.055-.156L73.526,23.76c-.107-.086-.2-.044-.2.094ZM83.079,46H56.916a.251.251,0,0,0-.25.25V49.1a.251.251,0,0,0,.25.25H83.079a.251.251,0,0,0,.25-.25V46.252A.251.251,0,0,0,83.079,46ZM79.295,59.316H56.916a.251.251,0,0,0-.25.25v2.851a.251.251,0,0,0,.25.25H73.148A27.831,27.831,0,0,0,79.295,59.316ZM64.069,73.409a36.489,36.489,0,0,1-18.817-4.591,1.433,1.433,0,0,0-1.716.227L12.666,99.914a.294.294,0,0,1-.415,0L.222,87.885a.294.294,0,0,1,0-.415L30.981,56.712a1.433,1.433,0,0,0,.216-1.735,36.489,36.489,0,0,1-4.872-18.984A36.712,36.712,0,1,1,99.733,37.5,36.916,36.916,0,0,1,64.069,73.409ZM39.227,64.643l-.118-.118a37.03,37.03,0,0,1-3.674-3.64.283.283,0,0,0-.357.024L7.828,88.16a.294.294,0,0,0,0,.415l3.733,3.733a.294.294,0,0,0,.415,0l27.25-27.25A.294.294,0,0,0,39.227,64.643Zm23.8,2.882A30.814,30.814,0,1,0,32.216,36.712,30.849,30.849,0,0,0,63.03,67.526Z"/>
  </g>
</svg>
