<svg xmlns="http://www.w3.org/2000/svg" width="120" height="100" viewBox="0 8 100 84">
  <defs>
    <style>
      .cls-1 {
        fill: #003299;
      }
    </style>
  </defs>
  <title>icon</title>
  <g id="Layer_3" data-name="Layer 3">
    <g>
      <path class="cls-1" d="M51.894,8.213a30.86,30.86,0,0,0-30,30.078A30.5,30.5,0,0,0,25.957,54.15a1.213,1.213,0,0,1-.183,1.469l-25.7,25.7a.246.246,0,0,0,0,.347L10.127,91.723a.246.246,0,0,0,.347,0l25.8-25.8a1.213,1.213,0,0,1,1.453-.192A30.5,30.5,0,0,0,53.44,69.567,30.687,30.687,0,0,0,51.894,8.213ZM32.675,62.587,9.9,85.365a.246.246,0,0,1-.347,0L6.429,82.244a.246.246,0,0,1,0-.347L29.207,59.12a.237.237,0,0,1,.3-.02,30.926,30.926,0,0,0,3.071,3.042l.1.1A.246.246,0,0,1,32.675,62.587Zm19.9,2.062A25.757,25.757,0,1,1,78.328,38.893,25.786,25.786,0,0,1,52.571,64.649Z"/>
      <path class="cls-1" d="M82.526,58.077H79.481c-.422.587-.857,1.167-1.32,1.73h6.029a.075.075,0,0,0,.066-.081V48.443a32.706,32.706,0,0,1-1.73,4.478Z"/>
      <path class="cls-1" d="M85.644,37.5c.029.7.043,1.4.029,2.1-.014.648-.053,1.293-.1,1.935v18.2a.066.066,0,0,0,.065.066h6.429a.066.066,0,0,0,.066-.066V37.569a.066.066,0,0,0-.066-.066ZM90.4,58.077H87.3V39.233h3.1Z"/>
      <path class="cls-1" d="M99.935,44H93.506a.066.066,0,0,0-.066.066V59.742a.066.066,0,0,0,.066.066h6.429a.066.066,0,0,0,.065-.066V44.063A.066.066,0,0,0,99.935,44ZM98.27,58.077h-3.1V45.727h3.1Z"/>
      <path class="cls-1" d="M72.82,28.139H69.675a.086.086,0,0,0-.086.086V54.769a23.377,23.377,0,0,0,2.422-3.2V30.561h1.933A23.177,23.177,0,0,0,72.82,28.139Z"/>
      <path class="cls-1" d="M67.779,32.97H59.334a.086.086,0,0,0-.086.086V55.43a.086.086,0,0,0,.086.086h8.445a.086.086,0,0,0,.086-.086V33.056A.086.086,0,0,0,67.779,32.97ZM65.443,53.095H61.669v-17.7h3.774Z"/>
      <path class="cls-1" d="M57.437,20H48.992a.087.087,0,0,0-.086.086V55.43a.086.086,0,0,0,.086.086h8.446a.086.086,0,0,0,.086-.086V20.086A.087.087,0,0,0,57.437,20ZM55.1,53.095H51.327V22.422H55.1Z"/>
      <path class="cls-1" d="M47.1,28.053H38.65a.086.086,0,0,0-.086.086V55.43a.086.086,0,0,0,.086.086H47.1a.086.086,0,0,0,.086-.086V28.139A.086.086,0,0,0,47.1,28.053ZM44.76,53.095H40.986V30.474H44.76Z"/>
    </g>
  </g>
</svg>
