<?xml version="1.0" encoding="utf-8"?>
<!-- Generator: Adobe Illustrator 21.0.0, SVG Export Plug-In . SVG Version: 6.00 Build 0)  -->
<svg version="1.1" id="Calque_1" xmlns="http://www.w3.org/2000/svg" xmlns:xlink="http://www.w3.org/1999/xlink" x="0px" y="0px"
	 viewBox="0 0 144 144" style="enable-background:new 0 0 144 144;" xml:space="preserve">
<style type="text/css">
	.st0{fill:#E6A532;}
	.st1{fill:none;}
</style>
<title>Fichier 24</title>
<g id="Calque_2">
	<g id="Calque_85">
		<path class="st0" d="M26.6,57.9h91.3c7.5,0,13.5,6,13.5,13.5l0,0c0,7.5-6,13.5-13.5,13.5H26.6c-7.5,0-13.5-6-13.5-13.5l0,0
			C13.1,64,19.1,57.9,26.6,57.9z"/>
		<path class="st0" d="M26.6,21.8h91.3c7.5,0,13.5,6,13.5,13.5l0,0c0,7.5-6,13.5-13.5,13.5H26.6c-7.5,0-13.5-6-13.5-13.5l0,0
			C13.1,27.9,19.1,21.8,26.6,21.8z"/>
		<path class="st0" d="M27.7,94H119c7.5,0,13.5,6,13.5,13.5l0,0c0,7.5-6,13.5-13.5,13.5H27.7c-7.5,0-13.5-6-13.5-13.5l0,0
			C14.2,100.1,20.3,94,27.7,94z"/>
		<rect class="st1" width="144" height="144"/>
	</g>
</g>
</svg>
